<?xml version="1.0" encoding="windows-1252"?>
<!-- Generator: Adobe Illustrator 19.0.0, SVG Export Plug-In . SVG Version: 6.00 Build 0)  -->
<svg version="1.1" id="Layer_1" xmlns="http://www.w3.org/2000/svg" xmlns:xlink="http://www.w3.org/1999/xlink" x="0px" y="0px" viewBox="0 0 512 512" style="enable-background:new 0 0 512 512;" xml:space="preserve">
<path style="fill:#9BF57D;" d="M173.559,95.458c0,6.571,0.995,12.907,2.806,18.889c5.98,1.81,12.316,2.806,18.889,2.806  c35.945,0,65.085-29.14,65.085-65.085c0-6.571-0.995-12.907-2.806-18.889c-5.981-1.812-12.317-2.806-18.889-2.806  C202.699,30.373,173.559,59.512,173.559,95.458z"/>
<path style="fill:#8CE16E;" d="M257.532,33.179l-81.166,81.166c5.98,1.812,12.316,2.807,18.889,2.807  c35.945,0,65.085-29.14,65.085-65.085C260.339,45.495,259.344,39.159,257.532,33.179L257.532,33.179z"/>




<path style="fill:#7DC86E;" d="M214.407,76.305c-3.39-3.39-8.882-3.39-12.272,0l-22.499,22.499  c-13.322-38.288-33.852-56.551-35.128-57.651c-3.619-3.119-9.102-2.721-12.237,0.916c-3.127,3.627-2.721,9.11,0.916,12.237  c0.398,0.347,40.373,35.702,40.373,114.915h17.356c0-19.522-2.308-36.516-5.8-51.352l29.291-29.291  C217.796,85.186,217.796,79.695,214.407,76.305z"/>
<path style="fill:#9BF57D;" d="M342.749,343.842c-1.685-1.264-3.663-2.052-5.737-2.42c-38.63-6.836-67.995-40.49-67.995-81.083  c0-34.385,21.057-63.835,50.978-76.196c6.635-2.741,7.675-11.803,1.687-15.766c-17.089-11.31-37.118-16.513-55.919-16.513  c-45.559,0-53.785,14.989-83.525,14.989s-37.966-14.989-83.525-14.989S0,181.842,0,256.789  c0,119.913,68.339,224.839,136.678,224.839c30.373,0,22.78-7.494,45.559-7.494s15.186,7.494,45.559,7.494  c47.68,0,95.245-51.164,119.703-122.779C349.365,353.381,347.37,347.307,342.749,343.842L342.749,343.842z"/>
<path style="fill:#8CE16E;" d="M103.915,223.697c3.374-29.948,12.698-52.529,25.212-69.009c-8.133-1.659-17.817-2.824-30.415-2.824  C53.153,151.864,0,181.842,0,256.789c0,119.913,68.339,224.839,136.678,224.839c27.711,0,23.887-6.222,40.293-7.315  C126.565,440.627,91.321,335.495,103.915,223.697z"/>
<g>
</g>
<g>
</g>
<g>
</g>
<g>
</g>
<g>
</g>
<g>
</g>
<g>
</g>
<g>
</g>
<g>
</g>
<g>
</g>
<g>
</g>
<g>
</g>
<g>
</g>
<g>
</g>
<g>
</g>
</svg>