<?xml version="1.0" encoding="windows-1252"?>
<!-- Generator: Adobe Illustrator 19.0.0, SVG Export Plug-In . SVG Version: 6.00 Build 0)  -->
<svg version="1.1" id="Layer_1" xmlns="http://www.w3.org/2000/svg" xmlns:xlink="http://www.w3.org/1999/xlink" x="0px" y="0px" viewBox="0 0 512 512" style="enable-background:new 0 0 512 512;" xml:space="preserve">
<path style="fill:#7F8499;" d="M348.69,441.379H48.552c-9.751,0-17.655-7.904-17.655-17.655V26.483  c0-9.751,7.904-17.655,17.655-17.655H348.69c9.751,0,17.655,7.904,17.655,17.655v397.241  C366.345,433.475,358.441,441.379,348.69,441.379z"/>



<path style="fill:#FFDC64;" d="M147.62,101.356L128,88.276l-19.62,13.08c-2.933,1.955-6.862-0.147-6.862-3.672V8.828  c0-4.875,3.953-8.828,8.828-8.828h35.31c4.875,0,8.828,3.953,8.828,8.828v88.856C154.483,101.209,150.553,103.311,147.62,101.356z"/>

<g>
	
	
	
</g>
<path style="fill:#707487;" d="M66.207,441.379H48.552c-9.751,0-17.655-7.904-17.655-17.655V26.483  c0-9.751,7.904-17.655,17.655-17.655h17.655V441.379z"/>
<path style="fill:#FFC850;" d="M110.345,0c-4.875,0-8.828,3.953-8.828,8.828v88.856c0,3.526,3.929,5.628,6.862,3.672L128,88.276V0  H110.345z"/>
<g>
</g>
<g>
</g>
<g>
</g>
<g>
</g>
<g>
</g>
<g>
</g>
<g>
</g>
<g>
</g>
<g>
</g>
<g>
</g>
<g>
</g>
<g>
</g>
<g>
</g>
<g>
</g>
<g>
</g>
</svg>