<?xml version="1.0" encoding="windows-1252"?>
<!-- Generator: Adobe Illustrator 19.0.0, SVG Export Plug-In . SVG Version: 6.00 Build 0)  -->
<svg version="1.1" id="Layer_1" xmlns="http://www.w3.org/2000/svg" xmlns:xlink="http://www.w3.org/1999/xlink" x="0px" y="0px" viewBox="0 0 512 512" style="enable-background:new 0 0 512 512;" xml:space="preserve">
<path style="fill:#7F8499;" d="M348.69,441.379H48.552c-9.751,0-17.655-7.904-17.655-17.655V26.483  c0-9.751,7.904-17.655,17.655-17.655H348.69c9.751,0,17.655,7.904,17.655,17.655v397.241  C366.345,433.475,358.441,441.379,348.69,441.379z"/>



<path style="fill:#FFDC64;" d="M147.62,101.356L128,88.276l-19.62,13.08c-2.933,1.955-6.862-0.147-6.862-3.672V8.828  c0-4.875,3.953-8.828,8.828-8.828h35.31c4.875,0,8.828,3.953,8.828,8.828v88.856C154.483,101.209,150.553,103.311,147.62,101.356z"/>

<g>
	<path style="fill:#FFDC64;" d="M220.234,185.859l8.74,17.709l19.543,2.84c3.62,0.526,5.066,4.975,2.446,7.529l-14.142,13.784   l3.338,19.464c0.618,3.606-3.166,6.355-6.404,4.653l-17.48-9.191l-17.48,9.19c-3.239,1.703-7.022-1.047-6.404-4.653l3.338-19.464   l-14.142-13.784c-2.62-2.553-1.174-7.002,2.446-7.529l19.543-2.84l8.74-17.709C213.937,182.579,218.615,182.579,220.234,185.859z"/>
	<path style="fill:#FFDC64;" d="M302.729,185.859l8.74,17.709l19.543,2.84c3.62,0.526,5.066,4.975,2.446,7.529l-14.142,13.784   l3.338,19.464c0.618,3.606-3.166,6.355-6.404,4.653l-17.48-9.19l-17.48,9.19c-3.239,1.703-7.022-1.047-6.404-4.653l3.338-19.464   l-14.142-13.784c-2.62-2.553-1.174-7.002,2.446-7.529l19.543-2.84l8.74-17.709C296.431,182.579,301.11,182.579,302.729,185.859z"/>
	<path style="fill:#FFDC64;" d="M137.502,185.378l8.978,18.19l20.074,2.916c3.403,0.494,4.761,4.676,2.3,7.076l-14.526,14.159   l3.43,19.993c0.582,3.39-2.976,5.974-6.02,4.374l-17.955-9.439l-17.955,9.439c-3.043,1.6-6.601-0.984-6.02-4.374l3.43-19.993   l-14.526-14.159c-2.463-2.4-1.103-6.582,2.3-7.076l20.074-2.916l8.978-18.19C131.583,182.294,135.98,182.294,137.502,185.378z"/>
</g>
<path style="fill:#707487;" d="M66.207,441.379H48.552c-9.751,0-17.655-7.904-17.655-17.655V26.483  c0-9.751,7.904-17.655,17.655-17.655h17.655V441.379z"/>
<path style="fill:#FFC850;" d="M110.345,0c-4.875,0-8.828,3.953-8.828,8.828v88.856c0,3.526,3.929,5.628,6.862,3.672L128,88.276V0  H110.345z"/>
<g>
</g>
<g>
</g>
<g>
</g>
<g>
</g>
<g>
</g>
<g>
</g>
<g>
</g>
<g>
</g>
<g>
</g>
<g>
</g>
<g>
</g>
<g>
</g>
<g>
</g>
<g>
</g>
<g>
</g>
</svg>