<?xml version="1.0" encoding="windows-1252"?>
<!-- Generator: Adobe Illustrator 19.0.0, SVG Export Plug-In . SVG Version: 6.00 Build 0)  -->
<svg version="1.1" id="Layer_1" xmlns="http://www.w3.org/2000/svg" xmlns:xlink="http://www.w3.org/1999/xlink" x="0px" y="0px" viewBox="0 0 512 512" style="enable-background:new 0 0 512 512;" xml:space="preserve">
<path style="fill:#FF5050;" d="M399.218,510.598l-135.535-65.505c-4.853-2.346-10.513-2.346-15.366,0l-135.535,65.505  c-11.636,4.9-24.505-3.645-24.505-16.271V17.655C88.276,7.904,96.18,0,105.931,0h300.138c9.751,0,17.655,7.904,17.655,17.655  v476.671C423.724,506.953,410.855,515.498,399.218,510.598z"/>

<g>
	<path style="fill:#C84146;" d="M114.759,0v467.862c0,4.875,3.948,8.828,8.828,8.828c4.879,0,8.828-3.953,8.828-8.828V0H114.759z"/>
	<path style="fill:#C84146;" d="M379.586,0v467.862c0,4.875,3.948,8.828,8.828,8.828c4.879,0,8.828-3.953,8.828-8.828V0H379.586z"/>
</g>
<g>
</g>
<g>
</g>
<g>
</g>
<g>
</g>
<g>
</g>
<g>
</g>
<g>
</g>
<g>
</g>
<g>
</g>
<g>
</g>
<g>
</g>
<g>
</g>
<g>
</g>
<g>
</g>
<g>
</g>
</svg>