<?xml version="1.0" encoding="windows-1252"?>
<!-- Generator: Adobe Illustrator 19.0.0, SVG Export Plug-In . SVG Version: 6.00 Build 0)  -->
<svg version="1.1" id="Layer_1" xmlns="http://www.w3.org/2000/svg" xmlns:xlink="http://www.w3.org/1999/xlink" x="0px" y="0px" viewBox="0 0 512 512" style="enable-background:new 0 0 512 512;" xml:space="preserve">
<path style="fill:#E4EAF8;" d="M370.759,375.172H17.655C7.904,375.172,0,367.268,0,357.517V57.379  c0-9.751,7.904-17.655,17.655-17.655h353.103c9.751,0,17.655,7.904,17.655,17.655v300.138  C388.414,367.268,380.51,375.172,370.759,375.172z"/>

<path style="fill:#0096DC;" d="M247.172,269.241H44.138c-4.875,0-8.828-3.953-8.828-8.828V119.172c0-4.875,3.953-8.828,8.828-8.828  h203.034c4.875,0,8.828,3.953,8.828,8.828v141.241C256,265.289,252.047,269.241,247.172,269.241z"/>
<path style="fill:#D5DCED;" d="M370.759,39.724H35.31v26.483c0,4.875,3.953,8.828,8.828,8.828h344.276V57.379  C388.414,47.628,380.51,39.724,370.759,39.724z"/>
<path style="fill:#FFDC64;" d="M291.31,163.31h61.793c4.875,0,8.828-3.953,8.828-8.828v-35.31c0-4.875-3.953-8.828-8.828-8.828  H291.31c-4.875,0-8.828,3.953-8.828,8.828v35.31C282.483,159.358,286.435,163.31,291.31,163.31z"/>
<path style="fill:#00C3FF;" d="M291.31,242.759h61.793c4.875,0,8.828-3.953,8.828-8.828v-35.31c0-4.875-3.953-8.828-8.828-8.828  H291.31c-4.875,0-8.828,3.953-8.828,8.828v35.31C282.483,238.806,286.435,242.759,291.31,242.759z"/>
<path style="fill:#707487;" d="M158.897,313.379H44.138c-4.879,0-8.828-3.953-8.828-8.828s3.948-8.828,8.828-8.828h114.759  c4.879,0,8.828,3.953,8.828,8.828S163.776,313.379,158.897,313.379z"/>
<g>
	<path style="fill:#959CB5;" d="M61.793,348.69H44.138c-4.879,0-8.828-3.953-8.828-8.828s3.948-8.828,8.828-8.828h17.655   c4.879,0,8.828,3.953,8.828,8.828S66.673,348.69,61.793,348.69z"/>
	<path style="fill:#959CB5;" d="M132.414,348.69h-35.31c-4.879,0-8.828-3.953-8.828-8.828s3.948-8.828,8.828-8.828h35.31   c4.879,0,8.828,3.953,8.828,8.828S137.293,348.69,132.414,348.69z"/>
</g>

<path style="fill:#F0C087;" d="M185.379,269.241v-19.591c0-8.102-5.514-15.164-13.373-17.128l-15.251-3.812  c-3.929-0.982-6.687-4.513-6.687-8.564v-6.319c5.255-3.058,8.828-8.689,8.828-15.207v-30.897c0-12.189-9.88-22.069-22.069-22.069  H128c-12.189,0-22.069,9.88-22.069,22.069v30.897c0,6.518,3.573,12.148,8.828,15.207v6.319c0,4.051-2.756,7.582-6.687,8.564  l-15.251,3.812c-7.859,1.965-13.373,9.026-13.373,17.128v19.591"/>
<path style="fill:#694B4B;" d="M136.828,145.655H128c-12.189,0-22.069,9.88-22.069,22.069v13.241c0,0,26.483,0,52.966-8.828v-4.414  C158.897,155.535,149.016,145.655,136.828,145.655z"/>
<rect x="317.793" y="39.724" style="fill:#FFF082;" width="35.31" height="35.31"/>
<rect x="282.483" y="39.724" style="fill:#FF5050;" width="35.31" height="35.31"/>
<path style="fill:#A0FFB4;" d="M388.414,75.034h-35.31v-35.31h17.655c9.751,0,17.655,7.904,17.655,17.655V75.034z"/>
<g>
	<path style="fill:#5B5D6E;" d="M172.006,232.523l-12.22-3.054c-6.444,8.058-16.246,13.29-27.372,13.29   c-11.126,0-20.928-5.231-27.373-13.29l-12.22,3.054c-7.859,1.964-13.373,9.026-13.373,17.128v19.591h105.931v-19.591   C185.379,241.549,179.865,234.487,172.006,232.523z"/>
	
</g>
<g>
	
	
</g>


<g>
</g>
<g>
</g>
<g>
</g>
<g>
</g>
<g>
</g>
<g>
</g>
<g>
</g>
<g>
</g>
<g>
</g>
<g>
</g>
<g>
</g>
<g>
</g>
<g>
</g>
<g>
</g>
<g>
</g>
</svg>