<?xml version="1.0" encoding="windows-1252"?>
<!-- Generator: Adobe Illustrator 19.0.0, SVG Export Plug-In . SVG Version: 6.00 Build 0)  -->
<svg version="1.1" id="Layer_1" xmlns="http://www.w3.org/2000/svg" xmlns:xlink="http://www.w3.org/1999/xlink" x="0px" y="0px" viewBox="0 0 512 512" style="enable-background:new 0 0 512 512;" xml:space="preserve">

<path style="fill:#F5DCB4;" d="M406.069,44.138v388.414c0,4.875-3.953,8.828-8.828,8.828H114.759c-4.875,0-8.828-3.953-8.828-8.828  V44.138c0-4.875,3.953-8.828,8.828-8.828h282.483C402.116,35.31,406.069,39.263,406.069,44.138z"/>
<path style="fill:#FAEBC8;" d="M379.586,423.724H132.414c-4.875,0-8.828-3.953-8.828-8.828V61.793c0-4.875,3.953-8.828,8.828-8.828  h247.172c4.875,0,8.828,3.953,8.828,8.828v353.103C388.414,419.772,384.461,423.724,379.586,423.724z"/>
<path style="fill:#FFC850;" d="M300.138,79.448h-17.655c-4.879,0-8.828,3.948-8.828,8.828c0,4.879,3.948,8.828,8.828,8.828v44.138  c0,14.603-11.88,26.483-26.483,26.483s-26.483-11.88-26.483-26.483V97.103c4.879,0,8.828-3.948,8.828-8.828  c0-4.879-3.948-8.828-8.828-8.828h-17.655c-4.879,0-8.828,3.948-8.828,8.828c0,4.879,3.948,8.828,8.828,8.828v44.138  c0,24.337,19.801,44.138,44.138,44.138s44.138-19.801,44.138-44.138V97.103c4.879,0,8.828-3.948,8.828-8.828  C308.966,83.396,305.017,79.448,300.138,79.448z"/>
<g>
	<path style="fill:#FFDC64;" d="M185.379,123.586h-17.655c-4.879,0-8.828,3.948-8.828,8.828c0,4.879,3.948,8.828,8.828,8.828h17.655   c4.879,0,8.828-3.948,8.828-8.828C194.207,127.534,190.259,123.586,185.379,123.586z"/>
	<path style="fill:#FFDC64;" d="M344.276,123.586h-17.655c-4.879,0-8.828,3.948-8.828,8.828c0,4.879,3.948,8.828,8.828,8.828h17.655   c4.879,0,8.828-3.948,8.828-8.828C353.103,127.534,349.155,123.586,344.276,123.586z"/>
</g>
<path style="fill:#EBC9A0;" d="M344.276,229.517H167.724c-4.879,0-8.828-3.948-8.828-8.828s3.948-8.828,8.828-8.828h176.552  c4.879,0,8.828,3.948,8.828,8.828S349.155,229.517,344.276,229.517z"/>
<path style="fill:#F5DCB4;" d="M344.276,264.828H167.724c-4.879,0-8.828-3.948-8.828-8.828c0-4.879,3.948-8.828,8.828-8.828h176.552  c4.879,0,8.828,3.948,8.828,8.828C353.103,260.879,349.155,264.828,344.276,264.828z"/>
<path style="fill:#EBC9A0;" d="M273.655,326.621h-88.276c-4.879,0-8.828-3.948-8.828-8.828c0-4.879,3.948-8.828,8.828-8.828h88.276  c4.879,0,8.828,3.948,8.828,8.828C282.483,322.673,278.535,326.621,273.655,326.621z"/>
<path style="fill:#F5DCB4;" d="M273.655,361.931H220.69c-4.879,0-8.828-3.948-8.828-8.828c0-4.879,3.948-8.828,8.828-8.828h52.966  c4.879,0,8.828,3.948,8.828,8.828C282.483,357.983,278.535,361.931,273.655,361.931z"/>

<path style="fill:#FF5050;" d="M317.793,347.954v50.974c0,3.282,3.453,5.416,6.388,3.948l11.267-5.634l11.267,5.634  c2.935,1.468,6.388-0.667,6.388-3.948v-50.974L317.793,347.954L317.793,347.954z"/>
<path style="fill:#C84146;" d="M353.103,367.032v-19.079h-35.31v50.974c0,3.282,3.453,5.416,6.388,3.948l11.267-5.634v-18.463  c0-4.333,3.172-7.919,7.443-8.661C346.457,369.497,349.877,368.445,353.103,367.032z"/>
<circle style="fill:#FFC850;" cx="335.448" cy="326.621" r="30.897"/>
<circle style="fill:#FFDC64;" cx="335.448" cy="326.621" r="17.655"/>
<g>
</g>
<g>
</g>
<g>
</g>
<g>
</g>
<g>
</g>
<g>
</g>
<g>
</g>
<g>
</g>
<g>
</g>
<g>
</g>
<g>
</g>
<g>
</g>
<g>
</g>
<g>
</g>
<g>
</g>
</svg>