<?xml version="1.0" encoding="windows-1252"?>
<!-- Generator: Adobe Illustrator 19.0.0, SVG Export Plug-In . SVG Version: 6.00 Build 0)  -->
<svg version="1.1" id="Layer_1" xmlns="http://www.w3.org/2000/svg" xmlns:xlink="http://www.w3.org/1999/xlink" x="0px" y="0px" viewBox="0 0 512 512" style="enable-background:new 0 0 512 512;" xml:space="preserve">
<path style="fill:#FFC850;" d="M476.69,50.371H35.31C15.809,50.371,0,66.18,0,85.682v264.828c0,19.501,15.809,35.31,35.31,35.31  h35.31v66.964c0,7.864,9.508,11.804,15.07,6.242l73.206-73.206H476.69c19.501,0,35.31-15.809,35.31-35.31V85.682  C512,66.18,496.191,50.371,476.69,50.371z"/>
<g>
	<path style="fill:#FFFFFF;" d="M182.146,138.837c-3.794-11.991-14.784-20.052-27.362-20.052h-9.431   c-12.577,0-23.569,8.061-27.362,20.052L68.922,294.22c-1.827,5.811,1.388,12.009,7.207,13.845c5.818,1.823,12-1.397,13.845-7.198   l11.503-36.427h97.183l11.503,36.427c1.492,4.707,5.836,7.715,10.526,7.715c1.095,0,2.216-0.168,3.319-0.518   c5.818-1.836,9.035-8.034,7.207-13.845L182.146,138.837z M108.447,242.371l30.596-96.888c0.871-2.767,3.405-4.629,6.311-4.629   h9.431c2.905,0,5.44,1.863,6.311,4.629l30.596,96.888L108.447,242.371L108.447,242.371z"/>
	<path style="fill:#FFFFFF;" d="M280.276,198.233c-8.897,0-17.216,2.517-24.276,6.879v-66.465c0-6.094-4.94-11.034-11.034-11.034   s-11.034,4.94-11.034,11.034v123.586c0,25.556,20.793,46.345,46.345,46.345c30.422,0,55.172-24.75,55.172-55.172   S310.698,198.233,280.276,198.233z M280.276,286.509c-13.388,0-24.276-10.888-24.276-24.276v-17.655   c0-13.388,10.888-24.276,24.276-24.276c18.25,0,33.103,14.849,33.103,33.103S298.526,286.509,280.276,286.509z"/>
	<path style="fill:#FFFFFF;" d="M423.715,273.263c-6.327,8.418-15.982,13.246-26.492,13.246c-18.25,0-33.103-14.849-33.103-33.103   s14.854-33.103,33.103-33.103c10.517,0,20.181,4.836,26.5,13.263c3.656,4.879,10.578,5.863,15.448,2.207   c4.879-3.659,5.863-10.573,2.207-15.448c-10.535-14.039-26.63-22.091-44.156-22.091c-30.422,0-55.172,24.75-55.172,55.172   s24.75,55.172,55.172,55.172c17.517,0,33.603-8.043,44.129-22.065c3.663-4.871,2.681-11.789-2.189-15.448   C434.284,267.41,427.371,268.384,423.715,273.263z"/>
</g>
<g>
</g>
<g>
</g>
<g>
</g>
<g>
</g>
<g>
</g>
<g>
</g>
<g>
</g>
<g>
</g>
<g>
</g>
<g>
</g>
<g>
</g>
<g>
</g>
<g>
</g>
<g>
</g>
<g>
</g>
</svg>