<?xml version="1.0" encoding="windows-1252"?>
<!-- Generator: Adobe Illustrator 19.0.0, SVG Export Plug-In . SVG Version: 6.00 Build 0)  -->
<svg version="1.1" id="Layer_1" xmlns="http://www.w3.org/2000/svg" xmlns:xlink="http://www.w3.org/1999/xlink" x="0px" y="0px" viewBox="0 0 512 512" style="enable-background:new 0 0 512 512;" xml:space="preserve">





<path style="fill:#707487;" d="M494.345,441.379H17.655C7.904,441.379,0,433.475,0,423.724V123.586  c0-9.751,7.904-17.655,17.655-17.655h476.69c9.751,0,17.655,7.904,17.655,17.655v300.138  C512,433.475,504.096,441.379,494.345,441.379z"/><path style="fill:#959CB5;" d="M467.862,406.069H44.138c-4.875,0-8.828-3.953-8.828-8.828V150.069c0-4.875,3.953-8.828,8.828-8.828  h423.724c4.875,0,8.828,3.953,8.828,8.828v247.172C476.69,402.116,472.737,406.069,467.862,406.069z"/><path style="fill:#E4EAF8;" d="M317.793,406.069h150.066c4.877,0,8.83-3.955,8.828-8.831l-0.006-12.051  c-9.635-19.819-26.472-35.489-47.105-43.616c-3.463-1.364-5.85-4.548-5.85-8.27l-0.001-121.439h-52.966v121.439  c0,3.721-2.389,6.906-5.85,8.27c-20.633,8.127-37.47,23.797-47.105,43.616"/>
<path style="fill:#D5DCED;" d="M423.724,211.862h-52.966v121.439c0,3.721-2.389,6.905-5.85,8.269  c-20.633,8.127-37.47,23.798-47.106,43.616l-0.009,20.883h44.138c0,0,0-44.138,31.41-64.499c2.25-1.459,3.901-4.548,3.901-8.269  v-86.129c0-4.875,3.953-8.828,8.828-8.828h17.655V211.862z"/>
<path style="fill:#E4EAF8;" d="M423.724,220.69h-52.966c-4.879,0-8.828-3.948-8.828-8.828c0-4.879,3.948-8.828,8.828-8.828h52.966  c4.879,0,8.828,3.948,8.828,8.828C432.552,216.742,428.604,220.69,423.724,220.69z"/>
<path style="fill:#00C3FF;" d="M328.936,406.069h136.612c-3.278-12.713-9.982-24.022-19.1-32.899  c-1.631-1.588-3.874-2.411-6.15-2.411h-86.114c-2.276,0-4.519,0.823-6.15,2.411C338.916,382.047,332.214,393.356,328.936,406.069z"/>
<path style="fill:#00AAF0;" d="M354.184,370.759c-2.276,0-4.519,0.823-6.15,2.411c-9.119,8.877-15.821,20.186-19.1,32.899h32.996  c0,0,0.007-17.348,7.747-35.31H354.184z"/>
<path style="fill:#E4EAF8;" d="M211.862,406.069l-48.716-56.849c-2.742-3.2-4.249-7.274-4.249-11.488V176.552h-52.966v161.18  c0,4.214-1.507,8.289-4.249,11.488l-48.716,56.85H211.862z"/>
<path style="fill:#9BF57D;" d="M137.107,353.103h-9.386c-2.62,0-5.105,1.164-6.782,3.177l-41.491,49.789h105.931l-41.491-49.789  C142.211,354.268,139.726,353.103,137.107,353.103z"/>
<path style="fill:#D5DCED;" d="M97.103,406.069l35.185-56.849c1.98-3.2,3.069-7.275,3.069-11.488v-125.87  c0-4.875,3.953-8.828,8.828-8.828h14.712v-26.483h-52.966v161.181c0,4.214-1.507,8.288-4.249,11.488l-48.716,56.849h158.897H97.103z  "/>
<path style="fill:#E4EAF8;" d="M158.897,185.379h-52.966c-4.879,0-8.828-3.948-8.828-8.828c0-4.879,3.948-8.828,8.828-8.828h52.966  c4.879,0,8.828,3.948,8.828,8.828C167.724,181.431,163.776,185.379,158.897,185.379z"/>

<g>
	<path style="fill:#E4EAF8;" d="M293.536,254.791c-6.632-2.782-11.053-9.123-11.053-16.314V70.621h-52.966v167.848   c0,7.212-4.452,13.549-11.101,16.343c-38.01,15.97-63.74,55.36-58.946,100.163c2.052,19.183,9.921,36.839,21.772,51.117   l149.662-0.02c13.868-16.789,22.199-38.321,22.199-61.796C353.103,303.967,328.514,269.465,293.536,254.791z"/>
	<path style="fill:#E4EAF8;" d="M264.914,17.655c-4.879,0-8.871-3.948-8.871-8.828S259.948,0,264.828,0h0.086   c4.879,0,8.828,3.948,8.828,8.828S269.793,17.655,264.914,17.655z"/>
	<path style="fill:#E4EAF8;" d="M238.431,44.138c-4.879,0-8.871-3.948-8.871-8.828s3.905-8.828,8.785-8.828h0.086   c4.879,0,8.828,3.948,8.828,8.828S243.31,44.138,238.431,44.138z"/>
</g>
<path style="fill:#D5DCED;" d="M229.517,70.621v167.847c0,7.212-4.451,13.55-11.101,16.343c-38.01,15.97-63.74,55.36-58.946,100.163  c2.052,19.183,9.921,36.839,21.772,51.117l44.836-0.006c-7.54-14.279-12.547-31.931-13.853-51.112  c-3.05-44.803,13.322-84.194,37.512-100.163c4.231-2.794,7.063-9.131,7.063-16.343V105.931c0-4.875,3.953-8.828,8.828-8.828h16.854  V70.621H229.517z"/>
<path style="fill:#E4EAF8;" d="M282.483,79.448h-52.966c-4.879,0-8.828-3.948-8.828-8.828s3.948-8.828,8.828-8.828h52.966  c4.879,0,8.828,3.948,8.828,8.828S287.362,79.448,282.483,79.448z"/>
<path style="fill:#FF5050;" d="M176.552,344.276c0,24.973,11.544,47.229,29.564,61.793h99.77  c18.018-14.564,29.563-36.82,29.563-61.793c0-7.017-0.957-13.8-2.688-20.269c-1-3.737-4.567-6.214-8.437-6.214H187.677  c-3.87,0-7.436,2.476-8.437,6.214C177.508,330.476,176.552,337.259,176.552,344.276z"/>
<path style="fill:#C84146;" d="M187.677,317.793c-3.87,0-7.436,2.476-8.437,6.214c-1.731,6.47-2.688,13.252-2.688,20.269  c0,24.973,11.544,47.229,29.564,61.793h19.957c-7.537-14.275-12.54-31.921-13.844-51.094c-0.885-13.006-0.09-25.528,2.014-37.182  H187.677z"/>
<g>
	<path style="fill:#FF6464;" d="M308.966,361.931c-4.879,0-8.871-3.948-8.871-8.828c0-4.879,3.905-8.828,8.785-8.828h0.086   c4.879,0,8.828,3.948,8.828,8.828C317.793,357.983,313.845,361.931,308.966,361.931z"/>
	<path style="fill:#FF6464;" d="M256.086,379.586c-4.879,0-8.871-3.948-8.871-8.828c0-4.879,3.905-8.828,8.785-8.828h0.086   c4.879,0,8.828,3.948,8.828,8.828C264.914,375.638,260.966,379.586,256.086,379.586z"/>
	<path style="fill:#FF6464;" d="M211.948,361.931c-4.879,0-8.871-3.948-8.871-8.828c0-4.879,3.905-8.828,8.785-8.828h0.086   c4.879,0,8.828,3.948,8.828,8.828C220.776,357.983,216.828,361.931,211.948,361.931z"/>
</g>
<path style="fill:#FF5050;" d="M213.02,361.715c-0.26-2.25-0.637-4.444-0.792-6.74c-0.246-3.609-0.333-7.171-0.328-10.699h-0.038  c-4.879,0-8.785,3.948-8.785,8.828c0,4.879,3.991,8.828,8.871,8.828C212.329,361.931,212.652,361.761,213.02,361.715z"/>
<path style="fill:#8CE16E;" d="M79.448,406.069h17.655l32.781-52.966h-2.163c-2.621,0-5.105,1.164-6.782,3.176L79.448,406.069z"/>
<g>
</g>
<g>
</g>
<g>
</g>
<g>
</g>
<g>
</g>
<g>
</g>
<g>
</g>
<g>
</g>
<g>
</g>
<g>
</g>
<g>
</g>
<g>
</g>
<g>
</g>
<g>
</g>
<g>
</g>
</svg>