<?xml version="1.0" encoding="windows-1252"?>
<!-- Generator: Adobe Illustrator 19.0.0, SVG Export Plug-In . SVG Version: 6.00 Build 0)  -->
<svg version="1.1" id="Layer_1" xmlns="http://www.w3.org/2000/svg" xmlns:xlink="http://www.w3.org/1999/xlink" x="0px" y="0px" viewBox="0 0 512 512" style="enable-background:new 0 0 512 512;" xml:space="preserve">
<path style="fill:#C7CFE2;" d="M503.172,176.552c4.879,0,8.828-3.948,8.828-8.828s-3.948-8.828-8.828-8.828H397.241v-26.483h105.931  c4.879,0,8.828-3.948,8.828-8.828c0-4.879-3.948-8.828-8.828-8.828H397.241V8.828c0-4.879-3.948-8.828-8.828-8.828  s-8.828,3.948-8.828,8.828v105.931h-26.483V8.828c0-4.879-3.948-8.828-8.828-8.828c-4.879,0-8.828,3.948-8.828,8.828v105.931  h-26.483V8.828c0-4.879-3.948-8.828-8.828-8.828c-4.879,0-8.828,3.948-8.828,8.828v105.931h-26.483V8.828  C264.828,3.948,260.879,0,256,0c-4.879,0-8.828,3.948-8.828,8.828v105.931H220.69V8.828c0-4.879-3.948-8.828-8.828-8.828  c-4.879,0-8.828,3.948-8.828,8.828v105.931h-26.483V8.828c0-4.879-3.948-8.828-8.828-8.828s-8.828,3.948-8.828,8.828v105.931  h-26.483V8.828c0-4.879-3.948-8.828-8.828-8.828c-4.879,0-8.828,3.948-8.828,8.828v105.931H8.828c-4.879,0-8.828,3.948-8.828,8.828  c0,4.879,3.948,8.828,8.828,8.828h105.931v26.483H8.828c-4.879,0-8.828,3.948-8.828,8.828s3.948,8.828,8.828,8.828h105.931v26.483  H8.828c-4.879,0-8.828,3.948-8.828,8.828c0,4.879,3.948,8.828,8.828,8.828h105.931v26.483H8.828C3.948,247.172,0,251.121,0,256  c0,4.879,3.948,8.828,8.828,8.828h105.931v26.483H8.828c-4.879,0-8.828,3.948-8.828,8.828c0,4.879,3.948,8.828,8.828,8.828h105.931  v26.483H8.828c-4.879,0-8.828,3.948-8.828,8.828c0,4.879,3.948,8.828,8.828,8.828h105.931v26.483H8.828  c-4.879,0-8.828,3.948-8.828,8.828s3.948,8.828,8.828,8.828h105.931v105.931c0,4.879,3.948,8.828,8.828,8.828  c4.879,0,8.828-3.948,8.828-8.828V397.241h26.483v105.931c0,4.879,3.948,8.828,8.828,8.828s8.828-3.948,8.828-8.828V397.241h26.483  v105.931c0,4.879,3.948,8.828,8.828,8.828c4.879,0,8.828-3.948,8.828-8.828V397.241h26.483v105.931c0,4.879,3.948,8.828,8.828,8.828  c4.879,0,8.828-3.948,8.828-8.828V397.241h26.483v105.931c0,4.879,3.948,8.828,8.828,8.828c4.879,0,8.828-3.948,8.828-8.828V397.241  h26.483v105.931c0,4.879,3.948,8.828,8.828,8.828c4.879,0,8.828-3.948,8.828-8.828V397.241h26.483v105.931  c0,4.879,3.948,8.828,8.828,8.828s8.828-3.948,8.828-8.828V397.241h105.931c4.879,0,8.828-3.948,8.828-8.828  s-3.948-8.828-8.828-8.828H397.241v-26.483h105.931c4.879,0,8.828-3.948,8.828-8.828c0-4.879-3.948-8.828-8.828-8.828H397.241  v-26.483h105.931c4.879,0,8.828-3.948,8.828-8.828c0-4.879-3.948-8.828-8.828-8.828H397.241v-26.483h105.931  c4.879,0,8.828-3.948,8.828-8.828c0-4.879-3.948-8.828-8.828-8.828H397.241V220.69h105.931c4.879,0,8.828-3.948,8.828-8.828  c0-4.879-3.948-8.828-8.828-8.828H397.241v-26.483H503.172z"/>
<path style="fill:#AFB9D2;" d="M459.034,132.414v-17.655h-61.793V52.966h-17.655v61.793h-26.483V52.966h-17.655v61.793h-26.483  V52.966H291.31v61.793h-26.483V52.966h-17.655v61.793H220.69V52.966h-17.655v61.793h-26.483V52.966h-17.655v61.793h-26.483V52.966  h-17.655v61.793H52.966v17.655h61.793v26.483H52.966v17.655h61.793v26.483H52.966v17.655h61.793v26.483H52.966v17.655h61.793v26.483  H52.966v17.655h61.793v26.483H52.966v17.655h61.793v26.483H52.966v17.655h61.793v61.793h17.655v-61.793h26.483v61.793h17.655  v-61.793h26.483v61.793h17.655v-61.793h26.483v61.793h17.655v-61.793h26.483v61.793h17.655v-61.793h26.483v61.793h17.655v-61.793  h26.483v61.793h17.655v-61.793h61.793v-17.655h-61.793v-26.483h61.793v-17.655h-61.793v-26.483h61.793V291.31h-61.793v-26.483  h61.793v-17.655h-61.793V220.69h61.793v-17.655h-61.793v-26.483h61.793v-17.655h-61.793v-26.483H459.034z"/>
<path style="fill:#5B5D6E;" d="M406.069,441.379H105.931c-19.501,0-35.31-15.809-35.31-35.31V105.931  c0-19.501,15.809-35.31,35.31-35.31h300.138c19.501,0,35.31,15.809,35.31,35.31v300.138  C441.379,425.57,425.57,441.379,406.069,441.379z"/>
<path style="fill:#707487;" d="M397.241,406.069H114.759c-4.875,0-8.828-3.953-8.828-8.828V114.759c0-4.875,3.953-8.828,8.828-8.828  h282.483c4.875,0,8.828,3.953,8.828,8.828v282.483C406.069,402.116,402.116,406.069,397.241,406.069z"/>




<g>
</g>
<g>
</g>
<g>
</g>
<g>
</g>
<g>
</g>
<g>
</g>
<g>
</g>
<g>
</g>
<g>
</g>
<g>
</g>
<g>
</g>
<g>
</g>
<g>
</g>
<g>
</g>
<g>
</g>
</svg>