<?xml version="1.0" encoding="windows-1252"?>
<!-- Generator: Adobe Illustrator 19.0.0, SVG Export Plug-In . SVG Version: 6.00 Build 0)  -->
<svg version="1.1" id="Layer_1" xmlns="http://www.w3.org/2000/svg" xmlns:xlink="http://www.w3.org/1999/xlink" x="0px" y="0px" viewBox="0 0 512 512" style="enable-background:new 0 0 512 512;" xml:space="preserve">
<path style="fill:#E4EAF8;" d="M485.517,441.379H26.483C11.857,441.379,0,429.523,0,414.897V97.103  c0-14.626,11.857-26.483,26.483-26.483h459.034c14.626,0,26.483,11.857,26.483,26.483v317.793  C512,429.523,500.143,441.379,485.517,441.379z"/>
<path style="fill:#707487;" d="M26.483,441.379h97.103V70.621H26.483C11.857,70.621,0,82.477,0,97.103v317.793  C0,429.523,11.857,441.379,26.483,441.379z"/>
<path style="fill:#C7CFE2;" d="M194.207,114.759h-35.31c-4.879,0-8.828-3.948-8.828-8.828c0-4.879,3.948-8.828,8.828-8.828h35.31  c4.879,0,8.828,3.948,8.828,8.828C203.034,110.81,199.086,114.759,194.207,114.759z"/>
<path style="fill:#00C3FF;" d="M88.276,114.759H35.31c-4.879,0-8.828-3.948-8.828-8.828c0-4.879,3.948-8.828,8.828-8.828h52.966  c4.879,0,8.828,3.948,8.828,8.828C97.103,110.81,93.155,114.759,88.276,114.759z"/>
<g>
	<path style="fill:#D5DCED;" d="M88.276,203.034H35.31c-4.879,0-8.828-3.948-8.828-8.828s3.948-8.828,8.828-8.828h52.966   c4.879,0,8.828,3.948,8.828,8.828S93.155,203.034,88.276,203.034z"/>
	<path style="fill:#D5DCED;" d="M88.276,273.655H35.31c-4.879,0-8.828-3.948-8.828-8.828c0-4.879,3.948-8.828,8.828-8.828h52.966   c4.879,0,8.828,3.948,8.828,8.828C97.103,269.707,93.155,273.655,88.276,273.655z"/>
	<path style="fill:#D5DCED;" d="M88.276,344.276H35.31c-4.879,0-8.828-3.948-8.828-8.828s3.948-8.828,8.828-8.828h52.966   c4.879,0,8.828,3.948,8.828,8.828S93.155,344.276,88.276,344.276z"/>
	<path style="fill:#D5DCED;" d="M88.276,238.345H35.31c-4.879,0-8.828-3.948-8.828-8.828s3.948-8.828,8.828-8.828h52.966   c4.879,0,8.828,3.948,8.828,8.828S93.155,238.345,88.276,238.345z"/>
	<path style="fill:#D5DCED;" d="M88.276,308.966H35.31c-4.879,0-8.828-3.948-8.828-8.828c0-4.879,3.948-8.828,8.828-8.828h52.966   c4.879,0,8.828,3.948,8.828,8.828C97.103,305.017,93.155,308.966,88.276,308.966z"/>
</g>
<g>
	<path style="fill:#959CB5;" d="M70.621,397.241H35.31c-4.879,0-8.828-3.948-8.828-8.828s3.948-8.828,8.828-8.828h35.31   c4.879,0,8.828,3.948,8.828,8.828S75.5,397.241,70.621,397.241z"/>
	<path style="fill:#959CB5;" d="M70.621,150.069H35.31c-4.879,0-8.828-3.948-8.828-8.828s3.948-8.828,8.828-8.828h35.31   c4.879,0,8.828,3.948,8.828,8.828S75.5,150.069,70.621,150.069z"/>
</g>
<path style="fill:#00C3FF;" d="M264.828,114.759h-35.31c-4.879,0-8.828-3.948-8.828-8.828c0-4.879,3.948-8.828,8.828-8.828h35.31  c4.879,0,8.828,3.948,8.828,8.828C273.655,110.81,269.707,114.759,264.828,114.759z"/>
<g>
	<path style="fill:#C7CFE2;" d="M335.448,114.759h-35.31c-4.879,0-8.828-3.948-8.828-8.828c0-4.879,3.948-8.828,8.828-8.828h35.31   c4.879,0,8.828,3.948,8.828,8.828C344.276,110.81,340.328,114.759,335.448,114.759z"/>
	<path style="fill:#C7CFE2;" d="M406.069,114.759h-35.31c-4.879,0-8.828-3.948-8.828-8.828c0-4.879,3.948-8.828,8.828-8.828h35.31   c4.879,0,8.828,3.948,8.828,8.828C414.897,110.81,410.948,114.759,406.069,114.759z"/>
	<path style="fill:#C7CFE2;" d="M476.69,114.759h-35.31c-4.879,0-8.828-3.948-8.828-8.828c0-4.879,3.948-8.828,8.828-8.828h35.31   c4.879,0,8.828,3.948,8.828,8.828C485.517,110.81,481.569,114.759,476.69,114.759z"/>
</g>
<g>
	
	
	
</g>
<g>
</g>
<g>
</g>
<g>
</g>
<g>
</g>
<g>
</g>
<g>
</g>
<g>
</g>
<g>
</g>
<g>
</g>
<g>
</g>
<g>
</g>
<g>
</g>
<g>
</g>
<g>
</g>
<g>
</g>
</svg>