<?xml version="1.0" encoding="windows-1252"?>
<!-- Generator: Adobe Illustrator 19.0.0, SVG Export Plug-In . SVG Version: 6.00 Build 0)  -->
<svg version="1.1" id="Layer_1" xmlns="http://www.w3.org/2000/svg" xmlns:xlink="http://www.w3.org/1999/xlink" x="0px" y="0px" viewBox="0 0 512.001 512.001" style="enable-background:new 0 0 512.001 512.001;" xml:space="preserve">
<path style="fill:#FAEBC8;" d="M225.747,17.656v406.077l23.439,85.943c0.845,3.101,5.243,3.101,6.089,0l23.439-85.943V17.656  C278.714,7.904,270.81,0,261.058,0h-17.656C233.652,0,225.747,7.904,225.747,17.656z"/>
<rect x="225.748" y="44.139" style="fill:#FFDC64;" width="52.967" height="379.594"/>
<path style="fill:#FFC850;" d="M252.23,141.244V44.139h-26.483v379.594h26.483v-232.78c0-5.357,4.769-9.666,10.054-8.781  c5.785,0.968,11.295,2.749,16.43,5.193v-46.119H252.23z"/>


<path style="fill:#F5DCB4;" d="M225.747,423.732L225.747,423.732l23.439,85.943c0.423,1.55,1.734,2.325,3.044,2.325v-88.268H225.747  z"/>
<path style="fill:#5B5D6E;" d="M237.785,467.871l11.401,41.804c0.845,3.101,5.243,3.101,6.089,0l11.401-41.804H237.785z"/>
<path style="fill:#464655;" d="M237.785,467.871l11.401,41.804c0.423,1.55,1.734,2.325,3.044,2.325v-44.129H237.785z"/>
<path style="fill:#F5DCB4;" d="M252.23,44.139h-26.483V17.656C225.747,7.904,233.651,0,243.403,0h8.828V44.139z"/>
<g>
</g>
<g>
</g>
<g>
</g>
<g>
</g>
<g>
</g>
<g>
</g>
<g>
</g>
<g>
</g>
<g>
</g>
<g>
</g>
<g>
</g>
<g>
</g>
<g>
</g>
<g>
</g>
<g>
</g>
</svg>