<?xml version="1.0" encoding="windows-1252"?>
<!-- Generator: Adobe Illustrator 19.0.0, SVG Export Plug-In . SVG Version: 6.00 Build 0)  -->
<svg version="1.1" id="Layer_1" xmlns="http://www.w3.org/2000/svg" xmlns:xlink="http://www.w3.org/1999/xlink" x="0px" y="0px" viewBox="0 0 512 512" style="enable-background:new 0 0 512 512;" xml:space="preserve">
<rect x="114.759" y="317.793" style="fill:#C7CFE2;" width="88.276" height="44.138"/>
<path style="fill:#E4EAF8;" d="M300.138,326.621H17.655C7.904,326.621,0,318.717,0,308.965V132.414  c0-9.751,7.904-17.655,17.655-17.655h282.483c9.751,0,17.655,7.904,17.655,17.655v176.552  C317.793,318.717,309.889,326.621,300.138,326.621z"/>
<path style="fill:#7F8499;" d="M499.634,203.034l-105.931-79.448l-10.586,14.121l101.103,75.832l-35.826,128.97h18.329  l36.125-130.051C503.823,208.957,502.548,205.216,499.634,203.034z"/>
<path style="fill:#5B5D6E;" d="M300.138,114.759H17.655C7.904,114.759,0,122.663,0,132.414V291.31h317.793V132.414  C317.793,122.664,309.889,114.759,300.138,114.759z"/>
<rect x="17.655" y="132.414" style="fill:#FFDC64;" width="282.483" height="141.241"/>




<path style="fill:#FFFFFF;" d="M273.741,273.655V166.952c0-3.857-2.659-7.196-6.428-8.01c-12.632-2.727-41.674-8.331-67.046-8.331  c-23.521,0-34.749,5.24-39.08,8.052c-1.396,0.906-3.102,0.906-4.498,0c-4.331-2.812-15.559-8.052-39.079-8.052  c-25.37,0-54.412,5.603-67.046,8.331c-3.769,0.814-6.429,4.153-6.429,8.01v106.703H273.741z"/><g>
	
	
</g>
<g>
	
	
</g>

<g>
	<path style="fill:#C7CFE2;" d="M467.862,335.448h-70.621c-9.75,0-17.655,7.904-17.655,17.655v17.655h105.931v-17.655   C485.517,343.352,477.612,335.448,467.862,335.448z"/>
	<circle style="fill:#C7CFE2;" cx="494.345" cy="211.862" r="17.655"/>
</g>
<path style="fill:#E4EAF8;" d="M384.648,108.819c-13.034-6.635-28.98-1.448-35.615,11.586l-25.475,49.773l47.201,24.029  l25.475-49.773C402.87,131.4,397.682,115.454,384.648,108.819z"/>
<path style="fill:#C7CFE2;" d="M388.61,229.704l-104.041-52.964c-5.369-2.733-6.483-9.924-2.191-14.154l26.508-26.127  c2.706-2.667,6.815-3.304,10.201-1.58l83.062,42.284c3.387,1.724,5.289,5.421,4.725,9.178l-5.53,36.808  C400.45,229.107,393.981,232.437,388.61,229.704z"/>
<path style="fill:#F5DCB4;" d="M503.172,406.069H8.828c-4.875,0-8.828-3.953-8.828-8.828v-17.655c0-4.875,3.953-8.828,8.828-8.828  h494.345c4.875,0,8.828,3.953,8.828,8.828v17.655C512,402.116,508.047,406.069,503.172,406.069z"/>
<path style="fill:#E4EAF8;" d="M220.69,370.759H97.103c-4.875,0-8.828-3.953-8.828-8.828l0,0c0-4.875,3.953-8.828,8.828-8.828  H220.69c4.875,0,8.828,3.953,8.828,8.828l0,0C229.517,366.806,225.565,370.759,220.69,370.759z"/>
<g>
</g>
<g>
</g>
<g>
</g>
<g>
</g>
<g>
</g>
<g>
</g>
<g>
</g>
<g>
</g>
<g>
</g>
<g>
</g>
<g>
</g>
<g>
</g>
<g>
</g>
<g>
</g>
<g>
</g>
</svg>