<?xml version="1.0" encoding="windows-1252"?>
<!-- Generator: Adobe Illustrator 19.0.0, SVG Export Plug-In . SVG Version: 6.00 Build 0)  -->
<svg version="1.1" id="Layer_1" xmlns="http://www.w3.org/2000/svg" xmlns:xlink="http://www.w3.org/1999/xlink" x="0px" y="0px" viewBox="0 0 512 512" style="enable-background:new 0 0 512 512;" xml:space="preserve">
<path style="fill:#D5DCED;" d="M70.621,88.276c0-9.751,7.904-17.655,17.655-17.655h229.517l88.276,88.276v335.448  c0,9.751-7.904,17.655-17.655,17.655H88.276c-9.751,0-17.655-7.904-17.655-17.655V88.276z"/>
<path style="fill:#E4EAF8;" d="M105.931,52.966c0-9.751,7.904-17.655,17.655-17.655h229.517l88.276,88.276v335.448  c0,9.751-7.904,17.655-17.655,17.655H123.586c-9.751,0-17.655-7.904-17.655-17.655V52.966z"/>
<g>
	
	<path style="fill:#D5DCED;" d="M353.103,35.31v70.621c0,9.75,7.905,17.655,17.655,17.655h70.621L353.103,35.31z"/>
</g>
<path style="fill:#00AAF0;" d="M211.862,273.655v52.966c0,4.875,3.953,8.828,8.828,8.828h105.931c4.875,0,8.828-3.953,8.828-8.828  v-52.966H211.862z"/>
<g>
	<path style="fill:#0096DC;" d="M370.759,264.819l-17.655,0.018l0.086,70.621c0.009,4.871,3.957,8.819,8.828,8.819h0.009   c4.879-0.009,8.828-3.966,8.819-8.836L370.759,264.819z"/>
	<path style="fill:#0096DC;" d="M211.862,301.931l48.146,12.839c4.45,1.186,9.042,1.789,13.647,1.789   c4.606,0,9.197-0.601,13.647-1.789l48.146-12.839v-28.276H211.862V301.931z"/>
</g>
<path style="fill:#00C3FF;" d="M264.557,231.944L152.295,261.88c-3.019,0.806-3.019,5.09,0,5.895l112.263,29.937  c5.961,1.59,12.235,1.59,18.196,0l112.263-29.937c3.019-0.806,3.019-5.09,0-5.895l-112.263-29.937  C276.792,230.354,270.518,230.354,264.557,231.944z"/>
<circle style="fill:#00AAF0;" cx="361.931" cy="361.931" r="8.828"/>
<path style="fill:#00C3FF;" d="M189.793,17.655c12.278,0,22.818,7.255,27.797,17.655h18.871C230.677,14.965,211.966,0,189.793,0  c-26.767,0-48.552,21.784-48.552,48.552v123.586c0,17.035,13.863,30.897,30.897,30.897s30.897-13.863,30.897-30.897V70.621  c0-4.879-3.948-8.828-8.828-8.828s-8.828,3.948-8.828,8.828v101.517c0,7.302-5.94,13.241-13.241,13.241  c-7.302,0-13.241-5.94-13.241-13.241V48.552C158.897,31.518,172.759,17.655,189.793,17.655z"/>
<path style="fill:#00AAF0;" d="M194.207,17.655v0.324c10.355,1.503,19.012,8.202,23.383,17.331h18.871  c-1.874-6.59-5.216-12.52-9.481-17.655H194.207z"/>
<g>
</g>
<g>
</g>
<g>
</g>
<g>
</g>
<g>
</g>
<g>
</g>
<g>
</g>
<g>
</g>
<g>
</g>
<g>
</g>
<g>
</g>
<g>
</g>
<g>
</g>
<g>
</g>
<g>
</g>
</svg>