<?xml version="1.0" encoding="windows-1252"?>
<!-- Generator: Adobe Illustrator 19.0.0, SVG Export Plug-In . SVG Version: 6.00 Build 0)  -->
<svg version="1.1" id="Layer_1" xmlns="http://www.w3.org/2000/svg" xmlns:xlink="http://www.w3.org/1999/xlink" x="0px" y="0px" viewBox="0 0 512 512" style="enable-background:new 0 0 512 512;" xml:space="preserve">


<path style="fill:#FFC850;" d="M414.897,238.345H97.103c-9.751,0-17.655-7.904-17.655-17.655V35.31  c0-9.751,7.904-17.655,17.655-17.655h317.793c9.751,0,17.655,7.904,17.655,17.655V220.69  C432.552,230.441,424.648,238.345,414.897,238.345z"/>




<path style="fill:#E4EAF8;" d="M310.066,0c-31.555,0-46.177,7.219-51.498,10.809c-1.518,1.025-3.489,1.025-5.007,0  C248.239,7.219,233.618,0,202.062,0c-37.134,0-80.287,9.187-92.579,11.988c-2.008,0.458-3.424,2.242-3.424,4.302v193.986  c0,2.825,2.611,4.922,5.368,4.308c14.411-3.21,55.255-11.55,90.635-11.55c28.589,0,43.278,5.926,49.745,9.709  c2.637,1.544,5.877,1.544,8.514,0c6.466-3.785,21.155-9.709,49.745-9.709c35.38,0,76.224,8.34,90.635,11.55  c2.758,0.615,5.368-1.483,5.368-4.308V16.29c0-2.06-1.415-3.844-3.424-4.302C390.353,9.187,347.2,0,310.066,0z"/>
<path style="fill:#707487;" d="M220.698,159.844c-0.319,0-0.647-0.018-0.974-0.052c-9.956-1.095-21.879-1.112-33.802-0.362  c-4.828,0.156-9.06-3.388-9.362-8.258c-0.301-4.862,3.388-9.052,8.258-9.362c12.931-0.81,25.845-0.767,36.836,0.431  c4.845,0.534,8.345,4.888,7.81,9.741C228.966,156.5,225.146,159.844,220.698,159.844z"/>
<g>
	<path style="fill:#7F8499;" d="M141.224,164.681c-4.242,0-7.982-3.06-8.698-7.38c-0.802-4.81,2.449-9.354,7.258-10.155   c2.897-0.483,5.897-0.957,8.983-1.414c4.94-0.655,9.319,2.63,10.026,7.439c0.715,4.828-2.621,9.311-7.439,10.026   c-2.983,0.439-5.879,0.897-8.672,1.362C142.189,164.647,141.707,164.681,141.224,164.681z"/>
	<path style="fill:#7F8499;" d="M141.224,129.37c-4.242,0-7.982-3.06-8.698-7.38c-0.802-4.81,2.449-9.362,7.258-10.155   c32.871-5.465,60.353-7.267,81.87-4.905c4.845,0.534,8.345,4.888,7.81,9.741c-0.534,4.836-4.845,8.294-9.741,7.81   c-19.801-2.164-45.87-0.405-77.043,4.767C142.189,129.336,141.698,129.37,141.224,129.37z"/>
	<path style="fill:#7F8499;" d="M220.698,89.224c-0.31,0-0.629-0.018-0.948-0.052c-2.595-0.276-5.37-0.5-8.345-0.655   c-4.871-0.258-8.612-4.405-8.362-9.276c0.258-4.871,4.337-8.672,9.276-8.362c3.319,0.172,6.422,0.431,9.311,0.742   c4.845,0.518,8.353,4.871,7.837,9.716C228.983,85.863,225.155,89.224,220.698,89.224z"/>
</g>
<path style="fill:#707487;" d="M141.224,94.06c-4.242,0-7.982-3.06-8.698-7.388c-0.802-4.81,2.457-9.354,7.267-10.146  c12.698-2.103,24.802-3.672,35.982-4.655c4.974-0.414,9.138,3.164,9.569,8.018c0.431,4.862-3.164,9.146-8.018,9.569  c-10.733,0.948-22.397,2.457-34.655,4.483C142.189,94.026,141.698,94.06,141.224,94.06z"/>
<path style="fill:#7F8499;" d="M141.224,58.75c-4.242,0-7.982-3.06-8.698-7.38c-0.802-4.81,2.449-9.362,7.258-10.155  c32.871-5.457,60.353-7.267,81.87-4.905c4.845,0.534,8.345,4.888,7.81,9.741c-0.534,4.836-4.845,8.31-9.741,7.81  c-19.801-2.164-45.87-0.396-77.043,4.767C142.189,58.716,141.698,58.75,141.224,58.75z"/>
<path style="fill:#707487;" d="M291.302,159.844c-4.448,0-8.267-3.345-8.767-7.871c-0.526-4.845,2.966-9.198,7.819-9.732  c11-1.198,23.923-1.233,36.828-0.431c4.871,0.31,8.569,4.5,8.258,9.362c-0.31,4.871-4.552,8.431-9.362,8.258  c-11.887-0.759-23.819-0.733-33.811,0.362C291.948,159.828,291.62,159.844,291.302,159.844z"/>
<g>
	<path style="fill:#7F8499;" d="M370.776,164.681c-0.483,0-0.966-0.034-1.457-0.12c-2.793-0.466-5.689-0.922-8.672-1.362   c-4.819-0.715-8.156-5.198-7.439-10.026c0.707-4.819,5.19-8.207,10.026-7.439c3.086,0.457,6.087,0.931,8.983,1.414   c4.81,0.802,8.061,5.345,7.258,10.155C378.759,161.621,375.017,164.681,370.776,164.681z"/>
	<path style="fill:#7F8499;" d="M370.776,129.37c-0.474,0-0.966-0.034-1.457-0.12c-31.138-5.173-57.146-6.94-77.052-4.767   c-4.759,0.491-9.198-2.974-9.732-7.819c-0.526-4.845,2.966-9.198,7.819-9.732c21.535-2.354,49.026-0.552,81.863,4.905   c4.81,0.793,8.061,5.345,7.258,10.155C378.759,126.311,375.017,129.37,370.776,129.37z"/>
	<path style="fill:#7F8499;" d="M291.302,89.224c-4.457,0-8.285-3.362-8.767-7.887c-0.517-4.853,2.991-9.198,7.837-9.716   c2.905-0.31,5.992-0.569,9.311-0.742c4.879-0.319,9.017,3.491,9.276,8.362c0.25,4.871-3.491,9.017-8.362,9.276   c-2.974,0.156-5.75,0.38-8.345,0.655C291.932,89.207,291.612,89.224,291.302,89.224z"/>
</g>
<path style="fill:#707487;" d="M370.776,94.06c-0.474,0-0.966-0.034-1.449-0.12c-12.258-2.026-23.914-3.534-34.646-4.483  c-4.853-0.431-8.448-4.707-8.018-9.569c0.431-4.853,4.621-8.448,9.569-8.018c11.172,0.983,23.276,2.552,35.975,4.655  c4.81,0.793,8.07,5.336,7.267,10.146C378.759,91,375.017,94.06,370.776,94.06z"/>
<path style="fill:#7F8499;" d="M370.776,58.75c-0.474,0-0.966-0.034-1.457-0.12c-31.138-5.164-57.146-6.931-77.052-4.767  c-4.759,0.509-9.198-2.974-9.732-7.819c-0.526-4.845,2.966-9.198,7.819-9.732c21.535-2.354,49.026-0.552,81.863,4.905  c4.81,0.793,8.061,5.345,7.258,10.155C378.759,55.69,375.017,58.75,370.776,58.75z"/>
<g>
</g>
<g>
</g>
<g>
</g>
<g>
</g>
<g>
</g>
<g>
</g>
<g>
</g>
<g>
</g>
<g>
</g>
<g>
</g>
<g>
</g>
<g>
</g>
<g>
</g>
<g>
</g>
<g>
</g>
</svg>