<?xml version="1.0" encoding="windows-1252"?>
<!-- Generator: Adobe Illustrator 19.0.0, SVG Export Plug-In . SVG Version: 6.00 Build 0)  -->
<svg version="1.1" id="Layer_1" xmlns="http://www.w3.org/2000/svg" xmlns:xlink="http://www.w3.org/1999/xlink" x="0px" y="0px" viewBox="0 0 511.999 511.999" style="enable-background:new 0 0 511.999 511.999;" xml:space="preserve">
<path style="fill:#FAEBC8;" d="M300.138,70.62c-7.023,0-13.76-2.791-18.727-7.756l-37.452-37.452  c-4.967-4.967-11.702-7.757-18.726-7.757h-57.51v70.621h132.414V70.62z"/>
<path style="fill:#EBC9A0;" d="M247.172,70.62c-7.023,0-13.76-2.791-18.727-7.756l-37.452-37.452  c-4.967-4.967-11.702-7.757-18.726-7.757h-57.51v70.621h132.414V70.62z"/>
<path style="fill:#F5DCB4;" d="M423.724,70.62H194.207c-7.023,0-13.76-2.791-18.727-7.756l-37.452-37.452  c-4.967-4.967-11.702-7.757-18.726-7.757H17.655C7.904,17.655,0,25.559,0,35.31v370.759c0,9.751,7.904,17.655,17.655,17.655h406.069  c9.751,0,17.655-7.904,17.655-17.655V88.275C441.379,78.524,433.475,70.62,423.724,70.62z"/>





<path style="fill:#959CB5;" d="M141.241,132.413H52.966c-4.875,0-8.828-3.953-8.828-8.828V105.93c0-4.875,3.953-8.828,8.828-8.828  h88.276c4.875,0,8.828,3.953,8.828,8.828v17.655C150.069,128.461,146.116,132.413,141.241,132.413z"/>
<g>
	<path style="fill:#707487;" d="M132.414,167.724H61.793c-4.879,0-8.828-3.953-8.828-8.828s3.948-8.828,8.828-8.828h70.621   c4.879,0,8.828,3.953,8.828,8.828S137.293,167.724,132.414,167.724z"/>
	
</g>

<g>
	
	
</g>

<g>
	
	
</g>
<g>
</g>
<g>
</g>
<g>
</g>
<g>
</g>
<g>
</g>
<g>
</g>
<g>
</g>
<g>
</g>
<g>
</g>
<g>
</g>
<g>
</g>
<g>
</g>
<g>
</g>
<g>
</g>
<g>
</g>
</svg>