<?xml version="1.0" encoding="windows-1252"?>
<!-- Generator: Adobe Illustrator 19.0.0, SVG Export Plug-In . SVG Version: 6.00 Build 0)  -->
<svg version="1.1" id="Layer_1" xmlns="http://www.w3.org/2000/svg" xmlns:xlink="http://www.w3.org/1999/xlink" x="0px" y="0px" viewBox="0 0 512 512" style="enable-background:new 0 0 512 512;" xml:space="preserve">

<g>
	
	
	
</g>
<path style="fill:#E4EAF8;" d="M485.517,494.345H26.483C11.857,494.345,0,482.488,0,467.862V308.966  c0-14.626,11.857-26.483,26.483-26.483h459.034c14.626,0,26.483,11.857,26.483,26.483v158.897  C512,482.488,500.143,494.345,485.517,494.345z"/>




<g>
	<path style="fill:#C7CFE2;" d="M361.931,470.069H150.069c-6.094,0-11.034-4.94-11.034-11.034S143.975,448,150.069,448h211.862   c6.094,0,11.034,4.94,11.034,11.034S368.025,470.069,361.931,470.069z"/>
	<path style="fill:#C7CFE2;" d="M114.759,470.069H97.103c-6.094,0-11.034-4.94-11.034-11.034S91.009,448,97.103,448h17.655   c6.094,0,11.034,4.94,11.034,11.034S120.853,470.069,114.759,470.069z"/>
	<path style="fill:#C7CFE2;" d="M61.793,470.069H44.138c-6.094,0-11.034-4.94-11.034-11.034S38.044,448,44.138,448h17.655   c6.094,0,11.034,4.94,11.034,11.034S67.887,470.069,61.793,470.069z"/>
	<path style="fill:#C7CFE2;" d="M467.862,470.069h-17.655c-6.094,0-11.034-4.94-11.034-11.034S444.113,448,450.207,448h17.655   c6.094,0,11.034,4.94,11.034,11.034S473.956,470.069,467.862,470.069z"/>
	<path style="fill:#C7CFE2;" d="M414.897,470.069h-17.655c-6.094,0-11.034-4.94-11.034-11.034S391.147,448,397.241,448h17.655   c6.094,0,11.034,4.94,11.034,11.034S420.991,470.069,414.897,470.069z"/>
	<path style="fill:#C7CFE2;" d="M467.862,434.759h-35.31c-6.094,0-11.034-4.94-11.034-11.034c0-6.094,4.94-11.034,11.034-11.034   h35.31c6.094,0,11.034,4.94,11.034,11.034C478.897,429.818,473.956,434.759,467.862,434.759z"/>
	<path style="fill:#C7CFE2;" d="M397.241,434.759h-17.655c-6.094,0-11.034-4.94-11.034-11.034c0-6.094,4.94-11.034,11.034-11.034   h17.655c6.094,0,11.034,4.94,11.034,11.034C408.276,429.818,403.336,434.759,397.241,434.759z"/>
	<path style="fill:#C7CFE2;" d="M344.276,434.759h-17.655c-6.094,0-11.034-4.94-11.034-11.034c0-6.094,4.94-11.034,11.034-11.034   h17.655c6.094,0,11.034,4.94,11.034,11.034C355.31,429.818,350.37,434.759,344.276,434.759z"/>
	<path style="fill:#C7CFE2;" d="M291.31,434.759h-17.655c-6.094,0-11.034-4.94-11.034-11.034c0-6.094,4.94-11.034,11.034-11.034   h17.655c6.094,0,11.034,4.94,11.034,11.034C302.345,429.818,297.405,434.759,291.31,434.759z"/>
	<path style="fill:#C7CFE2;" d="M238.345,434.759H220.69c-6.094,0-11.034-4.94-11.034-11.034c0-6.094,4.94-11.034,11.034-11.034   h17.655c6.094,0,11.034,4.94,11.034,11.034C249.379,429.818,244.439,434.759,238.345,434.759z"/>
	<path style="fill:#C7CFE2;" d="M185.379,434.759h-17.655c-6.094,0-11.034-4.94-11.034-11.034c0-6.094,4.94-11.034,11.034-11.034   h17.655c6.094,0,11.034,4.94,11.034,11.034C196.414,429.818,191.474,434.759,185.379,434.759z"/>
	<path style="fill:#C7CFE2;" d="M132.414,434.759h-17.655c-6.094,0-11.034-4.94-11.034-11.034c0-6.094,4.94-11.034,11.034-11.034   h17.655c6.094,0,11.034,4.94,11.034,11.034C143.448,429.818,138.508,434.759,132.414,434.759z"/>
	<path style="fill:#C7CFE2;" d="M79.448,434.759h-35.31c-6.094,0-11.034-4.94-11.034-11.034c0-6.094,4.94-11.034,11.034-11.034   h35.31c6.094,0,11.034,4.94,11.034,11.034C90.483,429.818,85.543,434.759,79.448,434.759z"/>
	<path style="fill:#C7CFE2;" d="M467.862,364.138h-35.31c-6.094,0-11.034-4.94-11.034-11.034s4.94-11.034,11.034-11.034h35.31   c6.094,0,11.034,4.94,11.034,11.034S473.956,364.138,467.862,364.138z"/>
	<path style="fill:#C7CFE2;" d="M397.241,364.138h-17.655c-6.094,0-11.034-4.94-11.034-11.034s4.94-11.034,11.034-11.034h17.655   c6.094,0,11.034,4.94,11.034,11.034S403.336,364.138,397.241,364.138z"/>
	<path style="fill:#C7CFE2;" d="M344.276,364.138h-17.655c-6.094,0-11.034-4.94-11.034-11.034s4.94-11.034,11.034-11.034h17.655   c6.094,0,11.034,4.94,11.034,11.034S350.37,364.138,344.276,364.138z"/>
	<path style="fill:#C7CFE2;" d="M291.31,364.138h-17.655c-6.094,0-11.034-4.94-11.034-11.034s4.94-11.034,11.034-11.034h17.655   c6.094,0,11.034,4.94,11.034,11.034S297.405,364.138,291.31,364.138z"/>
	<path style="fill:#C7CFE2;" d="M238.345,364.138H220.69c-6.094,0-11.034-4.94-11.034-11.034s4.94-11.034,11.034-11.034h17.655   c6.094,0,11.034,4.94,11.034,11.034S244.439,364.138,238.345,364.138z"/>
	<path style="fill:#C7CFE2;" d="M185.379,364.138h-17.655c-6.094,0-11.034-4.94-11.034-11.034s4.94-11.034,11.034-11.034h17.655   c6.094,0,11.034,4.94,11.034,11.034S191.474,364.138,185.379,364.138z"/>
	<path style="fill:#C7CFE2;" d="M132.414,364.138h-17.655c-6.094,0-11.034-4.94-11.034-11.034s4.94-11.034,11.034-11.034h17.655   c6.094,0,11.034,4.94,11.034,11.034S138.508,364.138,132.414,364.138z"/>
	<path style="fill:#C7CFE2;" d="M79.448,364.138h-35.31c-6.094,0-11.034-4.94-11.034-11.034s4.94-11.034,11.034-11.034h35.31   c6.094,0,11.034,4.94,11.034,11.034S85.543,364.138,79.448,364.138z"/>
	<path style="fill:#C7CFE2;" d="M467.862,399.448h-17.655c-6.094,0-11.034-4.94-11.034-11.034s4.94-11.034,11.034-11.034h17.655   c6.094,0,11.034,4.94,11.034,11.034S473.956,399.448,467.862,399.448z"/>
	<path style="fill:#C7CFE2;" d="M414.897,399.448h-17.655c-6.094,0-11.034-4.94-11.034-11.034s4.94-11.034,11.034-11.034h17.655   c6.094,0,11.034,4.94,11.034,11.034S420.991,399.448,414.897,399.448z"/>
	<path style="fill:#C7CFE2;" d="M361.931,399.448h-17.655c-6.094,0-11.034-4.94-11.034-11.034s4.94-11.034,11.034-11.034h17.655   c6.094,0,11.034,4.94,11.034,11.034S368.025,399.448,361.931,399.448z"/>
	<path style="fill:#C7CFE2;" d="M308.966,399.448H291.31c-6.094,0-11.034-4.94-11.034-11.034s4.94-11.034,11.034-11.034h17.655   c6.094,0,11.034,4.94,11.034,11.034S315.06,399.448,308.966,399.448z"/>
	<path style="fill:#C7CFE2;" d="M256,399.448h-17.655c-6.094,0-11.034-4.94-11.034-11.034s4.94-11.034,11.034-11.034H256   c6.094,0,11.034,4.94,11.034,11.034S262.094,399.448,256,399.448z"/>
	<path style="fill:#C7CFE2;" d="M203.034,399.448h-17.655c-6.094,0-11.034-4.94-11.034-11.034s4.94-11.034,11.034-11.034h17.655   c6.094,0,11.034,4.94,11.034,11.034S209.129,399.448,203.034,399.448z"/>
	<path style="fill:#C7CFE2;" d="M150.069,399.448h-17.655c-6.094,0-11.034-4.94-11.034-11.034s4.94-11.034,11.034-11.034h17.655   c6.094,0,11.034,4.94,11.034,11.034S156.163,399.448,150.069,399.448z"/>
	<path style="fill:#C7CFE2;" d="M97.103,399.448H44.138c-6.094,0-11.034-4.94-11.034-11.034s4.94-11.034,11.034-11.034h52.966   c6.094,0,11.034,4.94,11.034,11.034S103.198,399.448,97.103,399.448z"/>
	<path style="fill:#C7CFE2;" d="M467.862,328.828h-17.655c-6.094,0-11.034-4.94-11.034-11.034c0-6.094,4.94-11.034,11.034-11.034   h17.655c6.094,0,11.034,4.94,11.034,11.034C478.897,323.887,473.956,328.828,467.862,328.828z"/>
	<path style="fill:#C7CFE2;" d="M414.897,328.828h-17.655c-6.094,0-11.034-4.94-11.034-11.034c0-6.094,4.94-11.034,11.034-11.034   h17.655c6.094,0,11.034,4.94,11.034,11.034C425.931,323.887,420.991,328.828,414.897,328.828z"/>
	<path style="fill:#C7CFE2;" d="M361.931,328.828h-17.655c-6.094,0-11.034-4.94-11.034-11.034c0-6.094,4.94-11.034,11.034-11.034   h17.655c6.094,0,11.034,4.94,11.034,11.034C372.966,323.887,368.025,328.828,361.931,328.828z"/>
	<path style="fill:#C7CFE2;" d="M308.966,328.828H291.31c-6.094,0-11.034-4.94-11.034-11.034c0-6.094,4.94-11.034,11.034-11.034   h17.655c6.094,0,11.034,4.94,11.034,11.034C320,323.887,315.06,328.828,308.966,328.828z"/>
	<path style="fill:#C7CFE2;" d="M256,328.828h-17.655c-6.094,0-11.034-4.94-11.034-11.034c0-6.094,4.94-11.034,11.034-11.034H256   c6.094,0,11.034,4.94,11.034,11.034C267.034,323.887,262.094,328.828,256,328.828z"/>
	<path style="fill:#C7CFE2;" d="M203.034,328.828h-17.655c-6.094,0-11.034-4.94-11.034-11.034c0-6.094,4.94-11.034,11.034-11.034   h17.655c6.094,0,11.034,4.94,11.034,11.034C214.069,323.887,209.129,328.828,203.034,328.828z"/>
	<path style="fill:#C7CFE2;" d="M150.069,328.828h-17.655c-6.094,0-11.034-4.94-11.034-11.034c0-6.094,4.94-11.034,11.034-11.034   h17.655c6.094,0,11.034,4.94,11.034,11.034C161.103,323.887,156.163,328.828,150.069,328.828z"/>
	<path style="fill:#C7CFE2;" d="M97.103,328.828H44.138c-6.094,0-11.034-4.94-11.034-11.034c0-6.094,4.94-11.034,11.034-11.034   h52.966c6.094,0,11.034,4.94,11.034,11.034C108.138,323.887,103.198,328.828,97.103,328.828z"/>
</g>
<g>
	
	
</g>
<g>
	
	
	
</g>


<g>
</g>
<g>
</g>
<g>
</g>
<g>
</g>
<g>
</g>
<g>
</g>
<g>
</g>
<g>
</g>
<g>
</g>
<g>
</g>
<g>
</g>
<g>
</g>
<g>
</g>
<g>
</g>
<g>
</g>
</svg>