<?xml version="1.0" encoding="windows-1252"?>
<!-- Generator: Adobe Illustrator 19.0.0, SVG Export Plug-In . SVG Version: 6.00 Build 0)  -->
<svg version="1.1" id="Layer_1" xmlns="http://www.w3.org/2000/svg" xmlns:xlink="http://www.w3.org/1999/xlink" x="0px" y="0px" viewBox="0 0 512 512" style="enable-background:new 0 0 512 512;" xml:space="preserve">


<circle style="fill:#59D8FF;" cx="256" cy="308.966" r="203.034"/><path style="fill:#E4EAF8;" d="M364.23,200.897c18.212-3.722,36.25-8.352,54.041-13.955c-3.871-5.14-7.978-10.092-12.31-14.837  c-15.66,4.68-31.488,8.745-47.493,11.922c-10.934-28.878-25.658-52.585-42.965-69.215c-18.819-5.761-38.795-8.881-59.502-8.881  s-40.682,3.119-59.501,8.879c-17.282,16.608-31.991,40.275-42.921,69.101c-15.977-3.19-31.775-7.262-47.405-11.947  c-4.339,4.742-8.45,9.692-12.328,14.83c17.767,5.613,35.779,10.247,53.965,13.982c-9.086,29.419-14.514,63.137-15.275,99.361H53.189  c-0.126,2.93-0.223,5.867-0.223,8.828s0.097,5.898,0.223,8.828h79.347c0.761,36.217,6.186,69.931,15.27,99.346  c-18.215,3.709-36.256,8.317-54.018,13.922c3.874,5.139,7.982,10.091,12.318,14.833c15.646-4.682,31.46-8.747,47.452-11.931  c10.904,28.779,25.554,52.483,42.787,69.112C215.208,508.867,235.237,512,256,512s40.792-3.133,59.657-8.924  c17.235-16.631,31.885-40.337,42.789-69.117c15.99,3.183,31.802,7.256,47.446,11.939c4.335-4.743,8.444-9.695,12.319-14.834  c-17.762-5.601-35.8-10.22-54.015-13.928c9.082-29.415,14.507-63.127,15.268-99.345h79.347c0.126-2.93,0.223-5.867,0.223-8.828  s-0.097-5.898-0.223-8.828h-79.347C378.705,263.964,373.292,230.287,364.23,200.897z M247.173,511.241  c-30.959-4.922-58.186-35.421-75.866-80.469c25.095-4.098,50.461-6.338,75.866-6.764V511.241z M247.173,406.355  c-27.413,0.444-54.778,2.953-81.829,7.533c-8.941-28.276-14.37-61.05-15.157-96.095h96.986V406.355z M247.173,300.138h-96.986  c0.787-35.038,6.214-67.808,15.153-96.081c26.988,4.616,54.322,7.167,81.834,7.63V300.138z M247.173,193.919  c-25.401-0.439-50.761-2.692-75.848-6.805c17.681-45.024,44.898-75.503,75.848-80.424V193.919z M264.828,106.69  c30.97,4.924,58.206,35.442,75.886,80.518c-25.102,4.086-50.476,6.311-75.886,6.721V106.69z M264.828,511.241v-87.234  c25.407,0.425,50.774,2.663,75.868,6.761C323.015,475.819,295.788,506.318,264.828,511.241z M346.657,413.889  c-27.052-4.579-54.419-7.09-81.83-7.534v-88.562h96.986C361.027,352.838,355.6,385.613,346.657,413.889z M264.828,300.138v-88.439  c27.519-0.433,54.865-2.954,81.864-7.542c8.92,28.25,14.337,60.984,15.123,95.981H264.828z"/>





<g>
	
	
</g>
<g>
</g>
<g>
</g>
<g>
</g>
<g>
</g>
<g>
</g>
<g>
</g>
<g>
</g>
<g>
</g>
<g>
</g>
<g>
</g>
<g>
</g>
<g>
</g>
<g>
</g>
<g>
</g>
<g>
</g>
</svg>