<?xml version="1.0" encoding="windows-1252"?>
<!-- Generator: Adobe Illustrator 19.0.0, SVG Export Plug-In . SVG Version: 6.00 Build 0)  -->
<svg version="1.1" id="Layer_1" xmlns="http://www.w3.org/2000/svg" xmlns:xlink="http://www.w3.org/1999/xlink" x="0px" y="0px" viewBox="0 0 512 512" style="enable-background:new 0 0 512 512;" xml:space="preserve">
<path style="fill:#FFDC64;" d="M470.109,512H41.891c-20.565,0-37.236-16.671-37.236-37.236V46.545  c0-20.565,16.671-37.236,37.236-37.236h428.218c20.565,0,37.236,16.671,37.236,37.236v428.218  C507.345,495.329,490.674,512,470.109,512z"/>
<path style="fill:#FF5050;" d="M384.465,143.36l29.789-22.342l29.789,22.342c3.068,2.302,7.447,0.112,7.447-3.724V9.309  c0-5.141-4.168-9.309-9.309-9.309h-55.855c-5.141,0-9.309,4.168-9.309,9.309v130.327  C377.018,143.472,381.397,145.662,384.465,143.36z"/>





<g>
	
	
	
</g>
<path style="fill:#C84146;" d="M386.327,0c-5.141,0-9.309,4.168-9.309,9.309v130.327c0,3.835,4.379,6.025,7.447,3.724l29.789-22.342  V0H386.327z"/>
<g>
</g>
<g>
</g>
<g>
</g>
<g>
</g>
<g>
</g>
<g>
</g>
<g>
</g>
<g>
</g>
<g>
</g>
<g>
</g>
<g>
</g>
<g>
</g>
<g>
</g>
<g>
</g>
<g>
</g>
</svg>