<?xml version="1.0" encoding="windows-1252"?>
<!-- Generator: Adobe Illustrator 19.0.0, SVG Export Plug-In . SVG Version: 6.00 Build 0)  -->
<svg version="1.1" id="Layer_1" xmlns="http://www.w3.org/2000/svg" xmlns:xlink="http://www.w3.org/1999/xlink" x="0px" y="0px" viewBox="0 0 512 512" style="enable-background:new 0 0 512 512;" xml:space="preserve">
<path style="fill:#FF5050;" d="M220.69,203.034L356.664,7.573C359.964,2.828,365.378,0,371.156,0h52.948  c3.565,0,5.66,4.008,3.624,6.934l-136.417,196.1H220.69z"/>
<polygon style="fill:#C84146;" points="220.69,203.034 291.311,203.034 302.064,187.576 266.754,136.818 "/>
<polygon style="fill:#FFC850;" points="266.761,203.034 407.998,0 386.481,0 245.245,203.034 "/>
<g>
	<polygon style="fill:#E1A546;" points="279.031,154.466 245.245,203.034 266.761,203.034 289.789,169.931  "/>
	<path style="fill:#E1A546;" d="M300.138,238.345h-88.276c-14.603,0-26.483-11.88-26.483-26.483   c0-14.603,11.88-26.483,26.483-26.483h88.276c14.603,0,26.483,11.88,26.483,26.483   C326.621,226.465,314.742,238.345,300.138,238.345z M211.863,203.034c-4.871,0-8.828,3.957-8.828,8.828   c0,4.871,3.957,8.828,8.828,8.828h88.276c4.871,0,8.828-3.957,8.828-8.828c0-4.871-3.957-8.828-8.828-8.828H211.863z"/>
</g>
<circle style="fill:#FFC850;" cx="256.001" cy="370.759" r="141.241"/>
<circle style="fill:#FFDC64;" cx="256.001" cy="370.759" r="123.586"/>
<path style="fill:#FF5050;" d="M291.311,203.034L155.337,7.573C152.037,2.828,146.623,0,140.845,0H87.896  c-3.565,0-5.66,4.008-3.624,6.934l136.418,196.1H291.311z"/>

<polygon style="fill:#FFC850;" points="104.001,0 245.242,203.034 266.759,203.034 125.518,0 "/>
<g>
</g>
<g>
</g>
<g>
</g>
<g>
</g>
<g>
</g>
<g>
</g>
<g>
</g>
<g>
</g>
<g>
</g>
<g>
</g>
<g>
</g>
<g>
</g>
<g>
</g>
<g>
</g>
<g>
</g>
</svg>