<?xml version="1.0" encoding="windows-1252"?>
<!-- Generator: Adobe Illustrator 19.0.0, SVG Export Plug-In . SVG Version: 6.00 Build 0)  -->
<svg version="1.1" id="Layer_1" xmlns="http://www.w3.org/2000/svg" xmlns:xlink="http://www.w3.org/1999/xlink" x="0px" y="0px" viewBox="0 0 512 512" style="enable-background:new 0 0 512 512;" xml:space="preserve">
<path style="fill:#E4EAF8;" d="M97.103,17.655C97.103,7.904,105.007,0,114.759,0h264.828l88.276,88.276v406.069  c0,9.751-7.904,17.655-17.655,17.655H114.759c-9.751,0-17.655-7.904-17.655-17.655V17.655z"/>
<g>
	<path style="fill:#D5DCED;" d="M379.586,0v70.621c0,9.75,7.905,17.655,17.655,17.655h70.621L379.586,0z"/>
	
</g>

<g>
	
	
	
</g>
<g>
	<circle style="fill:#FFB450;" cx="225.103" cy="145.655" r="39.724"/>
	<circle style="fill:#FFB450;" cx="304.552" cy="145.655" r="39.724"/>
	<path style="fill:#FFB450;" d="M326.621,273.655H203.034c-9.751,0-17.655-7.904-17.655-17.655v-52.966   c0-9.751,7.904-17.655,17.655-17.655h123.586c9.751,0,17.655,7.904,17.655,17.655V256   C344.276,265.751,336.372,273.655,326.621,273.655z"/>
</g>
<g>
	<path style="fill:#E69B41;" d="M344.276,211.862v35.31l33.579,6.716c5.462,1.092,10.559-3.085,10.559-8.657v-31.43   c0-5.57-5.097-9.749-10.559-8.657L344.276,211.862z"/>
	<circle style="fill:#E69B41;" cx="225.103" cy="145.655" r="22.069"/>
	<circle style="fill:#E69B41;" cx="304.552" cy="145.655" r="22.069"/>
</g>
<g>
</g>
<g>
</g>
<g>
</g>
<g>
</g>
<g>
</g>
<g>
</g>
<g>
</g>
<g>
</g>
<g>
</g>
<g>
</g>
<g>
</g>
<g>
</g>
<g>
</g>
<g>
</g>
<g>
</g>
</svg>