<?xml version="1.0" encoding="windows-1252"?>
<!-- Generator: Adobe Illustrator 19.0.0, SVG Export Plug-In . SVG Version: 6.00 Build 0)  -->
<svg version="1.1" id="Layer_1" xmlns="http://www.w3.org/2000/svg" xmlns:xlink="http://www.w3.org/1999/xlink" x="0px" y="0px" viewBox="0 0 512 512" style="enable-background:new 0 0 512 512;" xml:space="preserve">
<path style="fill:#E4EAF8;" d="M256,512L256,512c-82.881,0-150.069-67.188-150.069-150.069V150.069C105.931,67.188,173.119,0,256,0  l0,0c82.881,0,150.069,67.188,150.069,150.069v211.862C406.069,444.812,338.881,512,256,512z"/>
<path style="fill:#AFB9D2;" d="M256,211.862c-4.879,0-8.828-3.953-8.828-8.828V52.966c0-4.875,3.948-8.828,8.828-8.828  c4.879,0,8.828,3.953,8.828,8.828v150.069C264.828,207.91,260.879,211.862,256,211.862z"/>

<path style="fill:#FFFFFF;" d="M256,167.724L256,167.724c-9.751,0-17.655-7.904-17.655-17.655v-44.138  c0-9.751,7.904-17.655,17.655-17.655l0,0c9.751,0,17.655,7.904,17.655,17.655v44.138C273.655,159.82,265.751,167.724,256,167.724z"/>


<g>
</g>
<g>
</g>
<g>
</g>
<g>
</g>
<g>
</g>
<g>
</g>
<g>
</g>
<g>
</g>
<g>
</g>
<g>
</g>
<g>
</g>
<g>
</g>
<g>
</g>
<g>
</g>
<g>
</g>
</svg>