<?xml version="1.0" encoding="windows-1252"?>
<!-- Generator: Adobe Illustrator 19.0.0, SVG Export Plug-In . SVG Version: 6.00 Build 0)  -->
<svg version="1.1" id="Layer_1" xmlns="http://www.w3.org/2000/svg" xmlns:xlink="http://www.w3.org/1999/xlink" x="0px" y="0px" viewBox="0 0 512 512" style="enable-background:new 0 0 512 512;" xml:space="preserve">
<path style="fill:#FFDC64;" d="M494.345,512H17.655C7.904,512,0,504.096,0,494.345V220.69c0-9.751,7.904-17.655,17.655-17.655  h476.69c9.751,0,17.655,7.904,17.655,17.655v273.655C512,504.096,504.096,512,494.345,512z"/>
<path style="fill:#FFC850;" d="M485.517,220.69H26.483c-4.875,0-8.828,3.953-8.828,8.828v256c0,4.875,3.953,8.828,8.828,8.828  H220.69c4.875,0,8.828,3.953,8.828,8.828l0,0c0,4.875,3.953,8.828,8.828,8.828h35.31c4.875,0,8.828-3.953,8.828-8.828l0,0  c0-4.875,3.953-8.828,8.828-8.828h194.207c4.875,0,8.828-3.953,8.828-8.828v-256C494.345,224.642,490.392,220.69,485.517,220.69z"/>
<path style="fill:#AFB9D2;" d="M467.862,476.69H44.138c-4.875,0-8.828-3.953-8.828-8.828v-35.31H476.69v35.31  C476.69,472.737,472.737,476.69,467.862,476.69z"/>
<path style="fill:#E4EAF8;" d="M335.448,167.724c-44.628,0-66.234,9.209-74.794,14.325c-2.886,1.725-6.423,1.725-9.309,0  c-8.559-5.116-30.166-14.325-74.794-14.325c-52.797,0-113.862,11.844-134.229,16.13c-4.092,0.861-7.012,4.458-7.012,8.639v247.185  c0,5.585,5.079,9.779,10.549,8.657c23.22-4.762,80.668-15.396,130.692-15.396c44.628,0,66.234,9.209,74.794,14.325  c2.847,1.702,6.462,1.702,9.309,0c8.559-5.117,30.165-14.325,74.794-14.325c50.025,0,107.473,10.634,130.692,15.396  c5.471,1.122,10.549-3.072,10.549-8.657V192.494c0-4.181-2.921-7.778-7.012-8.639C449.31,179.569,388.245,167.724,335.448,167.724z"/>
<g>
	<path style="fill:#707487;" d="M220.698,259.789c-0.561,0-1.129-0.052-1.698-0.163c-5.25-1.026-10.922-1.845-16.845-2.435   c-4.853-0.487-8.388-4.81-7.905-9.664c0.491-4.85,4.759-8.405,9.664-7.905c6.465,0.647,12.681,1.547,18.465,2.677   c4.785,0.936,7.905,5.569,6.974,10.354C228.534,256.866,224.836,259.789,220.698,259.789z"/>
	<path style="fill:#707487;" d="M79.439,229.906c-4.242,0-7.991-3.069-8.698-7.392c-0.793-4.81,2.457-9.354,7.267-10.146   c8.242-1.357,17.276-2.729,26.767-3.982c4.853-0.676,9.267,2.763,9.906,7.595c0.639,4.832-2.759,9.267-7.595,9.906   c-9.284,1.228-18.13,2.573-26.198,3.905C80.396,229.866,79.914,229.906,79.439,229.906z"/>
	<path style="fill:#707487;" d="M79.439,300.526c-4.25,0-7.991-3.069-8.698-7.392c-0.793-4.81,2.465-9.354,7.276-10.146   c12.233-2.013,24.242-3.733,35.69-5.112c4.785-0.543,9.233,2.867,9.818,7.706c0.577,4.841-2.871,9.237-7.715,9.818   c-11.19,1.35-22.94,3.034-34.931,5.009C80.396,300.487,79.914,300.526,79.439,300.526z"/>
	<path style="fill:#707487;" d="M79.439,371.147c-4.242,0-7.991-3.064-8.698-7.388c-0.793-4.81,2.457-9.354,7.267-10.151   c5.621-0.927,11.595-1.854,17.827-2.75c4.931-0.707,9.302,2.659,10.001,7.478c0.69,4.828-2.655,9.302-7.482,9.996   c-6.112,0.879-11.966,1.789-17.465,2.698C80.396,371.107,79.914,371.147,79.439,371.147z"/>
	<path style="fill:#707487;" d="M220.698,330.41c-0.561,0-1.129-0.052-1.698-0.163c-12.319-2.407-26.595-3.626-42.449-3.626   c-4.879,0-8.828-3.953-8.828-8.828s3.948-8.828,8.828-8.828c16.983,0,32.405,1.332,45.827,3.953   c4.785,0.936,7.905,5.574,6.974,10.358C228.534,327.487,224.836,330.41,220.698,330.41z"/>
	<path style="fill:#707487;" d="M220.698,401.031c-0.561,0-1.129-0.052-1.698-0.163c-7.69-1.5-16.215-2.552-25.336-3.116   c-4.871-0.301-8.569-4.491-8.267-9.357c0.31-4.862,4.577-8.625,9.354-8.263c9.888,0.612,19.19,1.759,27.629,3.41   c4.785,0.936,7.905,5.569,6.974,10.354C228.534,398.108,224.836,401.031,220.698,401.031z"/>
	<path style="fill:#707487;" d="M291.302,259.789c-4.138,0-7.837-2.922-8.655-7.138c-0.931-4.785,2.189-9.418,6.974-10.354   c5.784-1.129,12-2.03,18.465-2.677c4.914-0.491,9.181,3.057,9.664,7.905c0.483,4.853-3.052,9.176-7.905,9.664   c-5.922,0.59-11.595,1.409-16.845,2.435C292.431,259.737,291.862,259.789,291.302,259.789z"/>
	<path style="fill:#707487;" d="M432.561,229.906c-0.474,0-0.957-0.039-1.449-0.116c-8.069-1.332-16.914-2.677-26.198-3.905   c-4.836-0.638-8.233-5.074-7.595-9.906c0.638-4.828,5.043-8.263,9.906-7.595c9.492,1.255,18.526,2.625,26.767,3.982   c4.81,0.793,8.061,5.336,7.267,10.146C440.552,226.836,436.802,229.906,432.561,229.906z"/>
	<path style="fill:#707487;" d="M432.561,300.526c-0.474,0-0.957-0.039-1.44-0.116c-11.991-1.974-23.742-3.659-34.931-5.009   c-4.845-0.582-8.294-4.979-7.715-9.819c0.586-4.841,5.069-8.263,9.818-7.706c11.448,1.379,23.457,3.1,35.69,5.112   c4.81,0.793,8.07,5.336,7.276,10.146C440.552,297.457,436.81,300.526,432.561,300.526z"/>
	<path style="fill:#707487;" d="M432.561,371.147c-0.474,0-0.957-0.039-1.449-0.116c-5.5-0.909-11.353-1.819-17.465-2.698   c-4.828-0.694-8.172-5.169-7.483-9.996c0.698-4.814,5.086-8.138,10.001-7.478c6.232,0.897,12.207,1.823,17.827,2.75   c4.81,0.798,8.061,5.341,7.267,10.151C440.552,368.082,436.802,371.147,432.561,371.147z"/>
	<path style="fill:#707487;" d="M291.302,330.41c-4.138,0-7.837-2.922-8.655-7.134c-0.931-4.785,2.189-9.422,6.974-10.358   c13.423-2.621,28.845-3.953,45.828-3.953c4.879,0,8.828,3.953,8.828,8.828s-3.948,8.828-8.828,8.828   c-15.853,0-30.13,1.219-42.449,3.625C292.431,330.358,291.862,330.41,291.302,330.41z"/>
	<path style="fill:#707487;" d="M291.302,401.031c-4.138,0-7.837-2.922-8.655-7.138c-0.931-4.785,2.189-9.418,6.974-10.354   c8.439-1.651,17.741-2.797,27.629-3.41c4.905-0.358,9.052,3.401,9.354,8.263c0.301,4.866-3.396,9.056-8.267,9.357   c-9.121,0.565-17.646,1.617-25.336,3.116C292.431,400.979,291.862,401.031,291.302,401.031z"/>
</g>



<g>
	
	<path style="fill:#7F8499;" d="M79.439,265.216c-4.25,0-7.991-3.069-8.698-7.392c-0.793-4.81,2.457-9.354,7.267-10.146   c33.457-5.513,63.569-8.617,89.508-9.224c0.07-0.004,0.138-0.004,0.207-0.004c4.785,0,8.715,3.819,8.828,8.621   c0.113,4.875-3.75,8.918-8.621,9.031c-24.767,0.582-54.862,3.694-87.043,9C80.396,265.176,79.914,265.216,79.439,265.216z"/>
	<path style="fill:#7F8499;" d="M220.698,224.479c-0.561,0-1.129-0.052-1.698-0.163c-20.561-4.022-46.216-4.586-77.069-2.155   c-4.785,0.345-9.112-3.245-9.492-8.108s3.25-9.112,8.113-9.495c32.526-2.56,59.663-1.901,81.827,2.431   c4.785,0.936,7.905,5.574,6.974,10.358C228.534,221.556,224.836,224.479,220.698,224.479z"/>
	<path style="fill:#7F8499;" d="M220.698,295.1c-0.561,0-1.129-0.052-1.698-0.163c-18.612-3.642-41.431-4.452-68.38-2.767   c-5.043,0.301-9.06-3.401-9.362-8.258c-0.301-4.866,3.396-9.06,8.258-9.362c28.535-1.768,52.759-0.866,72.862,3.06   c4.785,0.936,7.905,5.574,6.974,10.358C228.534,292.177,224.836,295.1,220.698,295.1z"/>
	<path style="fill:#7F8499;" d="M220.698,365.72c-0.561,0-1.129-0.052-1.698-0.163c-22.457-4.384-50.983-4.668-85.759-1.405   c-4.966,0.461-9.164-3.112-9.621-7.966c-0.448-4.853,3.112-9.155,7.966-9.612c36.561-3.435,66.621-3.064,90.793,1.655   c4.785,0.936,7.905,5.574,6.974,10.358C228.534,362.797,224.836,365.72,220.698,365.72z"/>
	<path style="fill:#7F8499;" d="M79.439,335.837c-4.25,0-7.991-3.069-8.698-7.392c-0.793-4.81,2.457-9.354,7.267-10.146   c22.259-3.668,43.302-6.293,62.552-7.81c4.845-0.375,9.112,3.245,9.492,8.108s-3.25,9.112-8.113,9.495   c-18.75,1.474-39.293,4.043-61.052,7.629C80.396,335.797,79.914,335.837,79.439,335.837z"/>
	<path style="fill:#7F8499;" d="M79.439,406.457c-4.25,0-7.991-3.069-8.698-7.392c-0.793-4.81,2.457-9.354,7.276-10.146   c29.56-4.871,56.647-7.871,80.491-8.918c4.828-0.047,9,3.564,9.207,8.431c0.215,4.871-3.561,8.991-8.431,9.207   c-23.147,1.017-49.526,3.944-78.406,8.703C80.396,406.418,79.914,406.457,79.439,406.457z"/>
	<path style="fill:#7F8499;" d="M432.561,265.216c-0.474,0-0.957-0.039-1.449-0.116c-32.181-5.306-62.276-8.418-87.043-9   c-4.871-0.113-8.733-4.156-8.621-9.031c0.113-4.871,4.018-8.9,9.035-8.617c25.94,0.608,56.052,3.711,89.508,9.224   c4.81,0.793,8.061,5.336,7.267,10.146C440.552,262.146,436.802,265.216,432.561,265.216z"/>
	<path style="fill:#7F8499;" d="M291.302,224.479c-4.138,0-7.837-2.922-8.655-7.134c-0.931-4.785,2.189-9.422,6.974-10.358   c22.164-4.323,49.311-4.983,81.827-2.431c4.862,0.384,8.491,4.633,8.113,9.495c-0.378,4.862-4.707,8.457-9.492,8.108   c-30.871-2.431-56.518-1.866-77.069,2.155C292.431,224.427,291.862,224.479,291.302,224.479z"/>
	<path style="fill:#7F8499;" d="M291.302,295.1c-4.138,0-7.837-2.922-8.655-7.134c-0.931-4.785,2.189-9.422,6.974-10.358   c20.104-3.927,44.337-4.828,72.862-3.06c4.862,0.301,8.561,4.495,8.259,9.362c-0.31,4.866-4.586,8.547-9.363,8.258   c-26.957-1.685-49.775-0.875-68.38,2.767C292.431,295.048,291.862,295.1,291.302,295.1z"/>
	<path style="fill:#7F8499;" d="M291.302,365.72c-4.138,0-7.837-2.922-8.655-7.134c-0.931-4.785,2.189-9.422,6.974-10.358   c24.172-4.712,54.232-5.081,90.793-1.655c4.853,0.457,8.414,4.759,7.966,9.612c-0.457,4.853-4.664,8.418-9.621,7.966   c-34.767-3.258-63.293-2.978-85.759,1.405C292.431,365.668,291.862,365.72,291.302,365.72z"/>
	<path style="fill:#7F8499;" d="M432.561,335.837c-0.474,0-0.957-0.039-1.449-0.116c-21.759-3.586-42.302-6.155-61.052-7.629   c-4.862-0.384-8.491-4.633-8.113-9.495s4.742-8.479,9.492-8.108c19.25,1.517,40.294,4.142,62.552,7.81   c4.81,0.793,8.061,5.336,7.267,10.146C440.552,332.767,436.802,335.837,432.561,335.837z"/>
	<path style="fill:#7F8499;" d="M432.561,406.457c-0.474,0-0.957-0.039-1.44-0.116c-28.879-4.759-55.258-7.686-78.405-8.703   c-4.871-0.215-8.647-4.337-8.431-9.207c0.215-4.866,4.285-8.466,9.207-8.431c23.844,1.047,50.931,4.047,80.491,8.918   c4.819,0.793,8.07,5.336,7.276,10.146C440.552,403.388,436.81,406.457,432.561,406.457z"/>
</g>
<g>
</g>
<g>
</g>
<g>
</g>
<g>
</g>
<g>
</g>
<g>
</g>
<g>
</g>
<g>
</g>
<g>
</g>
<g>
</g>
<g>
</g>
<g>
</g>
<g>
</g>
<g>
</g>
<g>
</g>
</svg>