<?xml version="1.0" encoding="windows-1252"?>
<!-- Generator: Adobe Illustrator 19.0.0, SVG Export Plug-In . SVG Version: 6.00 Build 0)  -->
<svg version="1.1" id="Layer_1" xmlns="http://www.w3.org/2000/svg" xmlns:xlink="http://www.w3.org/1999/xlink" x="0px" y="0px" viewBox="0 0 512 512" style="enable-background:new 0 0 512 512;" xml:space="preserve">
<path style="fill:#E4EAF8;" d="M97.103,17.655C97.103,7.904,105.007,0,114.759,0h264.828l88.276,88.276v406.069  c0,9.751-7.904,17.655-17.655,17.655H114.759c-9.751,0-17.655-7.904-17.655-17.655V17.655z"/>
<g>
	<path style="fill:#D5DCED;" d="M379.586,0v70.621c0,9.75,7.905,17.655,17.655,17.655h70.621L379.586,0z"/>
	
</g>

<g>
	
	
	
</g>
<circle style="fill:#FF5050;" cx="282.483" cy="185.379" r="88.276"/>
<g>
	<path style="fill:#FFFFFF;" d="M282.569,150.069c4.879,0,8.828-3.948,8.828-8.828s-3.948-8.828-8.828-8.828h-0.086   c-4.879,0-8.785,3.948-8.785,8.828S277.689,150.069,282.569,150.069z"/>
	<path style="fill:#FFFFFF;" d="M291.31,220.69v-44.138c4.879,0,8.828-3.948,8.828-8.828s-3.948-8.828-8.828-8.828h-17.655   c-4.879,0-8.828,3.948-8.828,8.828s3.948,8.828,8.828,8.828v44.138c-4.879,0-8.828,3.948-8.828,8.828s3.948,8.828,8.828,8.828   h17.655c4.879,0,8.828-3.948,8.828-8.828S296.19,220.69,291.31,220.69z"/>
</g>
<g>
</g>
<g>
</g>
<g>
</g>
<g>
</g>
<g>
</g>
<g>
</g>
<g>
</g>
<g>
</g>
<g>
</g>
<g>
</g>
<g>
</g>
<g>
</g>
<g>
</g>
<g>
</g>
<g>
</g>
</svg>