<?xml version="1.0" encoding="windows-1252"?>
<!-- Generator: Adobe Illustrator 19.0.0, SVG Export Plug-In . SVG Version: 6.00 Build 0)  -->
<svg version="1.1" id="Layer_1" xmlns="http://www.w3.org/2000/svg" xmlns:xlink="http://www.w3.org/1999/xlink" x="0px" y="0px" viewBox="0 0 512 512" style="enable-background:new 0 0 512 512;" xml:space="preserve">
<path style="fill:#C7CFE2;" d="M317.793,0H194.207c-4.875,0-8.828,3.953-8.828,8.828v141.241h141.241V8.828  C326.621,3.953,322.668,0,317.793,0z"/>
<g>
	<path style="fill:#959CB5;" d="M225.103,70.621h-8.828c-4.875,0-8.828-3.953-8.828-8.828V35.31c0-4.875,3.953-8.828,8.828-8.828   h8.828c4.875,0,8.828,3.953,8.828,8.828v26.483C233.931,66.668,229.978,70.621,225.103,70.621z"/>
	<path style="fill:#959CB5;" d="M295.724,70.621h-8.828c-4.875,0-8.828-3.953-8.828-8.828V35.31c0-4.875,3.953-8.828,8.828-8.828   h8.828c4.875,0,8.828,3.953,8.828,8.828v26.483C304.552,66.668,300.599,70.621,295.724,70.621z"/>
</g>
<path style="fill:#00C3FF;" d="M353.103,141.241H158.897c-4.875,0-8.828,3.953-8.828,8.828v256C150.069,464.573,197.496,512,256,512  l0,0c58.504,0,105.931-47.427,105.931-105.931v-256C361.931,145.194,357.978,141.241,353.103,141.241z"/>
<g>
	
	
</g>
<path style="fill:#00AAF0;" d="M326.621,185.379H185.379c-4.879,0-8.828-3.953-8.828-8.828s3.948-8.828,8.828-8.828h141.241  c4.879,0,8.828,3.953,8.828,8.828S331.5,185.379,326.621,185.379z"/>
<g>
	
	
</g>
<g>
</g>
<g>
</g>
<g>
</g>
<g>
</g>
<g>
</g>
<g>
</g>
<g>
</g>
<g>
</g>
<g>
</g>
<g>
</g>
<g>
</g>
<g>
</g>
<g>
</g>
<g>
</g>
<g>
</g>
</svg>