<?xml version="1.0" encoding="windows-1252"?>
<!-- Generator: Adobe Illustrator 19.0.0, SVG Export Plug-In . SVG Version: 6.00 Build 0)  -->
<svg version="1.1" id="Layer_1" xmlns="http://www.w3.org/2000/svg" xmlns:xlink="http://www.w3.org/1999/xlink" x="0px" y="0px" viewBox="0 0 512 512" style="enable-background:new 0 0 512 512;" xml:space="preserve">
<path style="fill:#FFDC64;" d="M258.834,0.021c93.068,1.349,173.01,71.905,186.176,164.047  c21.967,153.744-152.658,279.925-184.184,301.338c-2.94,1.997-6.71,1.998-9.65,0.001C221.511,445.259,65.085,332.307,65.085,190.915  C65.085,84.532,152.096-1.527,258.834,0.021z"/>
<circle style="fill:#FFC850;" cx="256" cy="190.915" r="138.847"/>




<g>
	
	
</g>
<g>
	
	
</g>

<path style="fill:#E4EAF8;" d="M308.068,512H203.932c-4.797,0-8.678-3.881-8.678-8.678c0-4.797,3.881-8.678,8.678-8.678h104.136  c4.797,0,8.678,3.881,8.678,8.678C316.746,508.119,312.864,512,308.068,512z"/>
<g>
</g>
<g>
</g>
<g>
</g>
<g>
</g>
<g>
</g>
<g>
</g>
<g>
</g>
<g>
</g>
<g>
</g>
<g>
</g>
<g>
</g>
<g>
</g>
<g>
</g>
<g>
</g>
<g>
</g>
</svg>