<?xml version="1.0" encoding="windows-1252"?>
<!-- Generator: Adobe Illustrator 19.0.0, SVG Export Plug-In . SVG Version: 6.00 Build 0)  -->
<svg version="1.1" id="Layer_1" xmlns="http://www.w3.org/2000/svg" xmlns:xlink="http://www.w3.org/1999/xlink" x="0px" y="0px" viewBox="0 0 512 512" style="enable-background:new 0 0 512 512;" xml:space="preserve">
<path style="fill:#E4EAF8;" d="M344.276,300.138H26.483C11.857,300.138,0,288.281,0,273.655V52.966  c0-14.626,11.857-26.483,26.483-26.483h317.793c14.626,0,26.483,11.857,26.483,26.483v220.69  C370.759,288.281,358.902,300.138,344.276,300.138z"/>
<path style="fill:#C7CFE2;" d="M368.203,132.414h-30.199c-25.724,0-50.104,11.179-66.89,30.67  c-16.786,19.492-24.225,45.261-20.409,70.7l9.953,66.354h83.618c14.626,0,26.483-11.857,26.483-26.483V132.552  C369.903,132.527,369.062,132.414,368.203,132.414z"/>

<g>
	
	
</g>

<g>
	
	
</g>
<path style="fill:#5B5D6E;" d="M491.94,409.881l-85.871-21.468H300.138l-85.871,21.468c-11.789,2.947-20.06,13.54-20.06,25.692  v32.289c0,9.75,7.905,17.655,17.655,17.655h282.483c9.75,0,17.655-7.905,17.655-17.655v-32.289  C512,423.422,503.73,412.829,491.94,409.881z"/>
<rect x="300.138" y="326.621" style="fill:#D29B6E;" width="105.931" height="88.276"/>
<path style="fill:#F0C087;" d="M378.124,364.62l35.278-29.398c6.648-5.54,11.031-13.33,12.314-21.888l12.326-82.168  c6.404-42.698-26.664-81.097-69.839-81.097h-30.199c-43.176,0-76.244,38.399-69.839,81.097l12.326,82.168  c1.283,8.558,5.666,16.348,12.314,21.888l35.278,29.398c4.759,3.966,10.759,6.138,16.953,6.138h16.135  C367.366,370.759,373.365,368.587,378.124,364.62z"/>
<path style="fill:#E6AF78;" d="M368.203,150.069h-30.199c-43.175,0-76.244,38.399-69.839,81.097l12.326,82.168  c1.284,8.558,5.666,16.348,12.314,21.888l35.278,29.398c4.759,3.966,10.759,6.138,16.954,6.138h3.652l-16.478-32.954  c-3.678-7.354-5.591-15.464-5.591-23.687v-78.233c6.711-0.64,13.444-1.437,19.801-2.454c3.55,7.433,11.127,12.579,19.882,12.579  c1.876,0,3.752-0.242,5.575-0.716c12.794-3.335,43.085-12.949,66.419-32.621C434.368,177.993,405.004,150.069,368.203,150.069z"/>

<path style="fill:#C7CFE2;" d="M432.552,194.207c0,0,0.218-0.55,0.541-1.363c-10.729-24.903-35.445-42.775-64.889-42.775h-30.199  c-39.602,0-70.606,32.323-70.541,70.621h6.193c0,0,61.793,0,88.276-8.828v12.063c0,2.897,2.692,5.014,5.494,4.284  C380.074,224.911,411.756,215.002,432.552,194.207z"/>
<g>
	<path style="fill:#AFB9D2;" d="M368.203,150.069h-30.199c-39.602,0-70.606,32.323-70.541,70.621h6.193   c0,0,27.097-0.017,53.096-2.581c1.186-32.74,24.588-59.791,55.631-66.444C377.793,150.728,373.097,150.069,368.203,150.069z"/>
	<path style="fill:#AFB9D2;" d="M379.586,262.938c-7.836-4.404-16.975-6.938-26.483-6.938c-9.507,0-18.647,2.535-26.483,6.938   v22.761c5.923-7.393,15.736-12.044,26.483-12.044s20.559,4.651,26.483,12.044V262.938z"/>
</g>
<g>
	<circle style="fill:#E4EAF8;" cx="317.793" cy="273.655" r="22.069"/>
	<circle style="fill:#E4EAF8;" cx="388.414" cy="273.655" r="22.069"/>
</g>
<path style="fill:#7F8499;" d="M419.954,378.345c-2.766-4.149-8.418-5.185-12.476-2.286l-54.375,38.838l-54.375-38.839  c-4.059-2.899-9.709-1.863-12.476,2.286l-12.598,18.898l37.95,45.539c3.324,3.988,9.353,4.262,13.024,0.59l12.113-12.113  c2.781-2.781,7.534-0.811,7.534,3.121v51.138h17.655V434.38c0-3.933,4.755-5.901,7.534-3.121l12.113,12.113  c3.67,3.67,9.7,3.396,13.024-0.59l37.95-45.54L419.954,378.345z"/>

<g>
	<path style="fill:#EBC9A0;" d="M214.266,409.881c-11.789,2.947-20.06,13.54-20.06,25.692v32.289c0,9.75,7.905,17.655,17.655,17.655   h79.448l-18.076-90.378L214.266,409.881z"/>
	<path style="fill:#EBC9A0;" d="M491.94,409.881c11.789,2.947,20.06,13.54,20.06,25.692v32.289c0,9.75-7.905,17.655-17.655,17.655   h-79.448l18.076-90.378L491.94,409.881z"/>
</g>
<g>
</g>
<g>
</g>
<g>
</g>
<g>
</g>
<g>
</g>
<g>
</g>
<g>
</g>
<g>
</g>
<g>
</g>
<g>
</g>
<g>
</g>
<g>
</g>
<g>
</g>
<g>
</g>
<g>
</g>
</svg>