<?xml version="1.0" encoding="windows-1252"?>
<!-- Generator: Adobe Illustrator 19.0.0, SVG Export Plug-In . SVG Version: 6.00 Build 0)  -->
<svg version="1.1" id="Layer_1" xmlns="http://www.w3.org/2000/svg" xmlns:xlink="http://www.w3.org/1999/xlink" x="0px" y="0px" viewBox="0 0 512.001 512.001" style="enable-background:new 0 0 512.001 512.001;" xml:space="preserve">
<path style="fill:#E4EAF8;" d="M450.671,156.853H9.013c-4.978,0-9.013-4.036-9.013-9.013V39.678c0-4.978,4.036-9.013,9.013-9.013  h441.658c4.978,0,9.013,4.036,9.013,9.013v108.161C459.685,152.817,455.649,156.853,450.671,156.853z"/>
<path style="fill:#FF5050;" d="M108.161,156.853H9.013c-4.978,0-9.013-4.036-9.013-9.013V39.678c0-4.978,4.036-9.013,9.013-9.013  h99.148c4.978,0,9.013,4.036,9.013,9.013v108.161C117.175,152.817,113.139,156.853,108.161,156.853z"/>
<path style="fill:#707487;" d="M306.457,84.745H153.228c-4.982,0-9.013-4.031-9.013-9.013s4.031-9.013,9.013-9.013h153.228  c4.982,0,9.013,4.031,9.013,9.013S311.439,84.745,306.457,84.745z"/>
<g>
	<path style="fill:#7F8499;" d="M414.618,120.799H243.363c-4.982,0-9.013-4.031-9.013-9.013s4.031-9.013,9.013-9.013h171.255   c4.982,0,9.013,4.031,9.013,9.013S419.6,120.799,414.618,120.799z"/>
	<path style="fill:#7F8499;" d="M207.309,120.799h-54.081c-4.982,0-9.013-4.031-9.013-9.013s4.031-9.013,9.013-9.013h54.081   c4.982,0,9.013,4.031,9.013,9.013S212.291,120.799,207.309,120.799z"/>
</g>
<g>
	
	
</g>
<path style="fill:#E4EAF8;" d="M450.671,319.094H9.013c-4.978,0-9.013-4.036-9.013-9.013V201.92c0-4.978,4.036-9.013,9.013-9.013  h441.658c4.978,0,9.013,4.036,9.013,9.013v108.161C459.685,315.059,455.649,319.094,450.671,319.094z"/>
<path style="fill:#FFDC64;" d="M108.161,319.094H9.013c-4.978,0-9.013-4.036-9.013-9.013V201.92c0-4.978,4.036-9.013,9.013-9.013  h99.148c4.978,0,9.013,4.036,9.013,9.013v108.161C117.175,315.059,113.139,319.094,108.161,319.094z"/>
<path style="fill:#707487;" d="M306.457,246.987H153.228c-4.982,0-9.013-4.031-9.013-9.013c0-4.982,4.031-9.013,9.013-9.013h153.228  c4.982,0,9.013,4.031,9.013,9.013C315.47,242.956,311.439,246.987,306.457,246.987z"/>
<path style="fill:#7F8499;" d="M207.309,283.041h-54.081c-4.982,0-9.013-4.031-9.013-9.013c0-4.982,4.031-9.013,9.013-9.013h54.081  c4.982,0,9.013,4.031,9.013,9.013C216.322,279.009,212.291,283.041,207.309,283.041z"/>

<path style="fill:#E4EAF8;" d="M450.671,481.336H9.013C4.036,481.336,0,477.3,0,472.323V364.162c0-4.978,4.036-9.013,9.013-9.013  h441.658c4.978,0,9.013,4.036,9.013,9.013v108.161C459.685,477.3,455.649,481.336,450.671,481.336z"/>
<path style="fill:#7DF5A5;" d="M108.161,481.336H9.013C4.036,481.336,0,477.3,0,472.323V364.162c0-4.978,4.036-9.013,9.013-9.013  h99.148c4.978,0,9.013,4.036,9.013,9.013v108.161C117.175,477.3,113.139,481.336,108.161,481.336z"/>
<path style="fill:#707487;" d="M306.457,409.229H153.228c-4.982,0-9.013-4.031-9.013-9.013s4.031-9.013,9.013-9.013h153.228  c4.982,0,9.013,4.031,9.013,9.013S311.439,409.229,306.457,409.229z"/>
<path style="fill:#7F8499;" d="M207.309,445.282h-54.081c-4.982,0-9.013-4.031-9.013-9.013s4.031-9.013,9.013-9.013h54.081  c4.982,0,9.013,4.031,9.013,9.013S212.291,445.282,207.309,445.282z"/>

<g>
	
	
</g>

<g>
	<path style="fill:#7F8499;" d="M396.591,283.041H243.363c-4.978,0-9.013-4.036-9.013-9.013l0,0c0-4.978,4.036-9.013,9.013-9.013   h153.228c4.978,0,9.013,4.036,9.013,9.013l0,0C405.604,279.005,401.569,283.041,396.591,283.041z"/>
	<path style="fill:#7F8499;" d="M396.591,445.282H243.363c-4.978,0-9.013-4.036-9.013-9.013l0,0c0-4.978,4.036-9.013,9.013-9.013   h153.228c4.978,0,9.013,4.036,9.013,9.013l0,0C405.604,441.247,401.569,445.282,396.591,445.282z"/>
</g>
<g>
</g>
<g>
</g>
<g>
</g>
<g>
</g>
<g>
</g>
<g>
</g>
<g>
</g>
<g>
</g>
<g>
</g>
<g>
</g>
<g>
</g>
<g>
</g>
<g>
</g>
<g>
</g>
<g>
</g>
</svg>