<?xml version="1.0" encoding="windows-1252"?>
<!-- Generator: Adobe Illustrator 19.0.0, SVG Export Plug-In . SVG Version: 6.00 Build 0)  -->
<svg version="1.1" id="Layer_1" xmlns="http://www.w3.org/2000/svg" xmlns:xlink="http://www.w3.org/1999/xlink" x="0px" y="0px" viewBox="0 0 512 512" style="enable-background:new 0 0 512 512;" xml:space="preserve">
<circle style="fill:#FF5050;" cx="211.862" cy="158.897" r="158.897"/>

<g>
	<path style="fill:#FFFFFF;" d="M211.862,218.483c-6.094,0-11.034-4.94-11.034-11.034v-5.017c0-9.987,7.423-18.431,17.267-19.638   c25.75-3.147,44.879-25.117,44.518-51.104c-0.371-26.75-23.276-49.66-50.026-50.03c-13.673-0.138-26.612,5-36.362,14.612   c-9.75,9.618-15.121,22.454-15.121,36.143c0,6.094-4.94,11.034-11.034,11.034c-6.094,0-11.034-4.94-11.034-11.034   c0-19.642,7.706-38.056,21.689-51.853c13.741-13.551,31.862-20.974,51.129-20.974c0.345,0,0.69,0,1.043,0.004   c39.034,0.543,71.241,32.75,71.785,71.789c0.509,36.565-25.906,67.591-61.784,73.031v3.038   C222.897,213.543,217.956,218.483,211.862,218.483z"/>
	<path style="fill:#FFFFFF;" d="M211.862,260.414c-7.3,0-13.241-5.941-13.241-13.241c0-7.3,5.941-13.241,13.241-13.241   c7.3,0,13.241,5.941,13.241,13.241C225.103,254.473,219.162,260.414,211.862,260.414z"/>
</g>

<g>
	
	
	
	
</g>
<g>
</g>
<g>
</g>
<g>
</g>
<g>
</g>
<g>
</g>
<g>
</g>
<g>
</g>
<g>
</g>
<g>
</g>
<g>
</g>
<g>
</g>
<g>
</g>
<g>
</g>
<g>
</g>
<g>
</g>
</svg>