<?xml version="1.0" encoding="windows-1252"?>
<!-- Generator: Adobe Illustrator 19.0.0, SVG Export Plug-In . SVG Version: 6.00 Build 0)  -->
<svg version="1.1" id="Layer_1" xmlns="http://www.w3.org/2000/svg" xmlns:xlink="http://www.w3.org/1999/xlink" x="0px" y="0px" viewBox="0 0 511.999 511.999" style="enable-background:new 0 0 511.999 511.999;" xml:space="preserve">
<rect x="334.228" y="289.105" transform="matrix(-0.7071 -0.7071 0.7071 -0.7071 418.5042 769.2129)" style="fill:#464655;" width="68.667" height="17.653"/>
<circle style="fill:#959CB5;" cx="264.828" cy="194.206" r="123.586"/>

<circle style="fill:#BAEFFF;" cx="264.828" cy="194.206" r="97.103"/><g>
	
	
</g>








<path style="fill:#707487;" d="M469.38,436.208l-89.791-89.791c-6.894-6.894-6.894-18.073,0-24.968l12.48-12.48  c6.894-6.894,18.073-6.894,24.968,0l89.791,89.791c6.894,6.894,6.894,18.073,0,24.968l-12.48,12.48  C487.454,443.102,476.276,443.102,469.38,436.208z"/>
<g>
	<path style="fill:#5B5D6E;" d="M484.452,421.136l-89.791-89.791c-6.451-6.451-6.784-16.607-1.165-23.541   c-0.477,0.387-0.983,0.721-1.427,1.165l-12.48,12.48c-6.894,6.895-6.894,18.073,0,24.968l89.791,89.791   c6.895,6.895,18.073,6.895,24.968,0l12.48-12.48c0.444-0.444,0.779-0.949,1.165-1.426   C501.06,427.921,490.903,427.586,484.452,421.136z"/>
	
</g>
<g>
</g>
<g>
</g>
<g>
</g>
<g>
</g>
<g>
</g>
<g>
</g>
<g>
</g>
<g>
</g>
<g>
</g>
<g>
</g>
<g>
</g>
<g>
</g>
<g>
</g>
<g>
</g>
<g>
</g>
</svg>