<?xml version="1.0" encoding="windows-1252"?>
<!-- Generator: Adobe Illustrator 19.0.0, SVG Export Plug-In . SVG Version: 6.00 Build 0)  -->
<svg version="1.1" id="Layer_1" xmlns="http://www.w3.org/2000/svg" xmlns:xlink="http://www.w3.org/1999/xlink" x="0px" y="0px" viewBox="0 0 512 512" style="enable-background:new 0 0 512 512;" xml:space="preserve">

<g>
	
	
</g>
<path style="fill:#FFFFFF;" d="M361.931,494.345H26.483c-4.875,0-8.828-3.953-8.828-8.828V238.345c0-4.875,3.953-8.828,8.828-8.828  h335.448c4.875,0,8.828,3.953,8.828,8.828v247.172C370.759,490.392,366.806,494.345,361.931,494.345z"/>
<g>
	
	
</g>



<g>
	
	
</g>
<path style="fill:#FFDC64;" d="M494.345,397.241H229.517c-9.751,0-17.655-7.904-17.655-17.655V26.483  c0-9.751,7.904-17.655,17.655-17.655h264.828c9.751,0,17.655,7.904,17.655,17.655v353.103  C512,389.337,504.096,397.241,494.345,397.241z"/>
<path style="fill:#707487;" d="M310.622,82.539l-14.898-11.918l-14.898,11.918c-2.89,2.312-7.171,0.255-7.171-3.447V8.828  c0-4.875,3.953-8.828,8.828-8.828h26.483c4.875,0,8.828,3.953,8.828,8.828v70.264C317.793,82.794,313.512,84.851,310.622,82.539z"/>
<path style="fill:#FFC850;" d="M247.172,397.241h-17.655c-9.751,0-17.655-7.904-17.655-17.655V26.483  c0-9.751,7.904-17.655,17.655-17.655h17.655V397.241z"/>
<path style="fill:#5B5D6E;" d="M282.483,0c-4.875,0-8.828,3.953-8.828,8.828v70.264c0,3.701,4.281,5.759,7.171,3.447l14.898-11.918  V0H282.483z"/>
<path style="fill:#707487;" d="M434.268,127.086c-4.526-3.362-10.225-4.371-15.612-2.75l-64.319,19.302  c-11.122,3.319-18.889,13.75-18.889,25.362v100.242h17.655v-89.159l70.621-21.186v83.862h17.655V141.25  C441.379,135.612,438.784,130.449,434.268,127.086z"/>
<g>
	<ellipse style="fill:#5B5D6E;" cx="326.621" cy="269.241" rx="26.483" ry="22.069"/>
	<ellipse style="fill:#5B5D6E;" cx="414.897" cy="242.759" rx="26.483" ry="22.069"/>
</g>
<g>
</g>
<g>
</g>
<g>
</g>
<g>
</g>
<g>
</g>
<g>
</g>
<g>
</g>
<g>
</g>
<g>
</g>
<g>
</g>
<g>
</g>
<g>
</g>
<g>
</g>
<g>
</g>
<g>
</g>
</svg>