<?xml version="1.0" encoding="windows-1252"?>
<!-- Generator: Adobe Illustrator 19.0.0, SVG Export Plug-In . SVG Version: 6.00 Build 0)  -->
<svg version="1.1" id="Layer_1" xmlns="http://www.w3.org/2000/svg" xmlns:xlink="http://www.w3.org/1999/xlink" x="0px" y="0px" viewBox="0 0 512 512" style="enable-background:new 0 0 512 512;" xml:space="preserve">


<path style="fill:#464655;" d="M407.932,64.232c-12.035,6.018-19.518,18.121-19.518,31.586v361.629  c0,18.464-13.483,34.976-31.863,36.733c-15.757,1.506-29.591-7.443-35.576-20.671c5.871,2.657,12.531,3.861,19.616,2.794  c17.686-2.663,30.168-18.929,30.168-36.814V95.818c0-13.465-7.482-25.569-19.518-31.586l-33.448-15.897v4.631V92.69l25.551,12.776  c5.981,2.99,9.759,9.103,9.759,15.791v319.122c0,8.799-5.987,16.975-14.668,18.409c-11.044,1.824-20.642-6.696-20.642-17.408V204.6  c0-18.432-13.444-34.92-31.79-36.704c-21.049-2.048-38.83,14.503-38.83,35.138v236.502c0,26.916-19.299,50.935-45.997,54.36  c-32.3,4.143-59.934-21.019-59.934-52.518V326.621h-17.655v112.265c0,37.577,28.291,70.441,65.783,72.952  c41.119,2.754,75.458-29.918,75.458-70.458V204.035c0-8.798,5.987-16.975,14.668-18.409c11.044-1.823,20.642,6.696,20.642,17.408  v254.157c0,26.916,19.299,50.935,45.997,54.36c32.3,4.143,59.934-21.019,59.934-52.518V121.257c0-6.687,3.778-12.801,9.76-15.791  l25.55-12.776V52.966v-4.631L407.932,64.232z"/><path style="fill:#FFFFFF;" d="M194.207,282.483H70.621c-4.875,0-8.828-3.953-8.828-8.828V61.793c0-4.875,3.953-8.828,8.828-8.828  h123.586c4.875,0,8.828,3.953,8.828,8.828v211.862C203.035,278.53,199.082,282.483,194.207,282.483z"/>
<g>
	
	
	
</g>
<g>
	<path style="fill:#5B5D6E;" d="M317.793,44.138h-17.655c-4.875,0-8.828,3.953-8.828,8.828v44.138c0,4.875,3.953,8.828,8.828,8.828   h17.655c4.875,0,8.828-3.953,8.828-8.828V52.966C326.621,48.09,322.668,44.138,317.793,44.138z"/>
	<path style="fill:#5B5D6E;" d="M441.379,44.138h17.655c4.875,0,8.828,3.953,8.828,8.828v44.138c0,4.875-3.953,8.828-8.828,8.828   h-17.655c-4.875,0-8.828-3.953-8.828-8.828V52.966C432.552,48.09,436.504,44.138,441.379,44.138z"/>
</g>
<g>
	
	
</g>




<g>
</g>
<g>
</g>
<g>
</g>
<g>
</g>
<g>
</g>
<g>
</g>
<g>
</g>
<g>
</g>
<g>
</g>
<g>
</g>
<g>
</g>
<g>
</g>
<g>
</g>
<g>
</g>
<g>
</g>
</svg>