<?xml version="1.0" encoding="windows-1252"?>
<!-- Generator: Adobe Illustrator 19.0.0, SVG Export Plug-In . SVG Version: 6.00 Build 0)  -->
<svg version="1.1" id="Layer_1" xmlns="http://www.w3.org/2000/svg" xmlns:xlink="http://www.w3.org/1999/xlink" x="0px" y="0px" viewBox="0 0 512 512" style="enable-background:new 0 0 512 512;" xml:space="preserve">
<path style="fill:#E4EAF8;" d="M379.59,0H123.586c-4.875,0-8.828,3.953-8.828,8.828v432.552h326.621  c4.875,0,8.828-3.953,8.828-8.828V70.618L379.59,0z"/>

<g>
	<path style="fill:#707487;" d="M238.345,114.759h-70.621c-4.879,0-8.828-3.953-8.828-8.828c0-4.875,3.948-8.828,8.828-8.828h70.621   c4.879,0,8.828,3.953,8.828,8.828C247.172,110.806,243.224,114.759,238.345,114.759z"/>
	<path style="fill:#707487;" d="M220.69,61.793h-52.966c-4.879,0-8.828-3.953-8.828-8.828s3.948-8.828,8.828-8.828h52.966   c4.879,0,8.828,3.953,8.828,8.828S225.569,61.793,220.69,61.793z"/>
</g>
<path style="fill:#5B5D6E;" d="M282.483,61.793H256c-4.879,0-8.828-3.953-8.828-8.828s3.948-8.828,8.828-8.828h26.483  c4.879,0,8.828,3.953,8.828,8.828S287.362,61.793,282.483,61.793z"/>
<path style="fill:#707487;" d="M344.276,114.759h-70.621c-4.879,0-8.828-3.953-8.828-8.828c0-4.875,3.948-8.828,8.828-8.828h70.621  c4.879,0,8.828,3.953,8.828,8.828C353.103,110.806,349.155,114.759,344.276,114.759z"/>
<path style="fill:#5B5D6E;" d="M397.241,114.759h-17.655c-4.879,0-8.828-3.953-8.828-8.828c0-4.875,3.948-8.828,8.828-8.828h17.655  c4.879,0,8.828,3.953,8.828,8.828C406.069,110.806,402.121,114.759,397.241,114.759z"/>
<g>
	<path style="fill:#707487;" d="M397.241,150.069h-70.621c-4.879,0-8.828-3.953-8.828-8.828s3.948-8.828,8.828-8.828h70.621   c4.879,0,8.828,3.953,8.828,8.828S402.121,150.069,397.241,150.069z"/>
	<path style="fill:#707487;" d="M291.31,150.069H220.69c-4.879,0-8.828-3.953-8.828-8.828s3.948-8.828,8.828-8.828h70.621   c4.879,0,8.828,3.953,8.828,8.828S296.19,150.069,291.31,150.069z"/>
	<path style="fill:#707487;" d="M238.345,185.379h-70.621c-4.879,0-8.828-3.953-8.828-8.828s3.948-8.828,8.828-8.828h70.621   c4.879,0,8.828,3.953,8.828,8.828S243.224,185.379,238.345,185.379z"/>
</g>
<path style="fill:#5B5D6E;" d="M344.276,185.379h-70.621c-4.879,0-8.828-3.953-8.828-8.828s3.948-8.828,8.828-8.828h70.621  c4.879,0,8.828,3.953,8.828,8.828S349.155,185.379,344.276,185.379z"/>
<path style="fill:#707487;" d="M397.241,185.379h-17.655c-4.879,0-8.828-3.953-8.828-8.828s3.948-8.828,8.828-8.828h17.655  c4.879,0,8.828,3.953,8.828,8.828S402.121,185.379,397.241,185.379z"/>
<path style="fill:#5B5D6E;" d="M397.241,256h-35.31c-4.879,0-8.828-3.953-8.828-8.828s3.948-8.828,8.828-8.828h35.31  c4.879,0,8.828,3.953,8.828,8.828S402.121,256,397.241,256z"/>
<path style="fill:#707487;" d="M397.241,220.69h-70.621c-4.879,0-8.828-3.953-8.828-8.828c0-4.875,3.948-8.828,8.828-8.828h70.621  c4.879,0,8.828,3.953,8.828,8.828C406.069,216.737,402.121,220.69,397.241,220.69z"/>

<g>
	<path style="fill:#707487;" d="M291.31,220.69H220.69c-4.879,0-8.828-3.953-8.828-8.828c0-4.875,3.948-8.828,8.828-8.828h70.621   c4.879,0,8.828,3.953,8.828,8.828C300.138,216.737,296.19,220.69,291.31,220.69z"/>
	<path style="fill:#707487;" d="M326.621,256H167.724c-4.879,0-8.828-3.953-8.828-8.828s3.948-8.828,8.828-8.828h158.897   c4.879,0,8.828,3.953,8.828,8.828S331.5,256,326.621,256z"/>
</g>
<g>
	
	<path style="fill:#5B5D6E;" d="M397.241,326.621h-35.31c-4.879,0-8.828-3.953-8.828-8.828s3.948-8.828,8.828-8.828h35.31   c4.879,0,8.828,3.953,8.828,8.828S402.121,326.621,397.241,326.621z"/>
</g>






<path style="fill:#D5DCED;" d="M379.586,0v61.793c0,4.875,3.953,8.828,8.828,8.828h61.793L379.586,0z"/>
<g>
	<path style="fill:#5B5D6E;" d="M185.379,150.069h-17.655c-4.879,0-8.828-3.953-8.828-8.828s3.948-8.828,8.828-8.828h17.655   c4.879,0,8.828,3.953,8.828,8.828S190.259,150.069,185.379,150.069z"/>
	
	
</g>
<g>
	
	
	
	
</g>
<path style="fill:#5B5D6E;" d="M185.379,220.69h-17.655c-4.879,0-8.828-3.953-8.828-8.828c0-4.875,3.948-8.828,8.828-8.828h17.655  c4.879,0,8.828,3.953,8.828,8.828C194.207,216.737,190.259,220.69,185.379,220.69z"/>
<g>
</g>
<g>
</g>
<g>
</g>
<g>
</g>
<g>
</g>
<g>
</g>
<g>
</g>
<g>
</g>
<g>
</g>
<g>
</g>
<g>
</g>
<g>
</g>
<g>
</g>
<g>
</g>
<g>
</g>
</svg>