<?xml version="1.0" encoding="windows-1252"?>
<!-- Generator: Adobe Illustrator 19.0.0, SVG Export Plug-In . SVG Version: 6.00 Build 0)  -->
<svg version="1.1" id="Layer_1" xmlns="http://www.w3.org/2000/svg" xmlns:xlink="http://www.w3.org/1999/xlink" x="0px" y="0px" viewBox="0 0 512 512" style="enable-background:new 0 0 512 512;" xml:space="preserve">

<path style="fill:#694B4B;" d="M264.828,136.51h-88.276H88.276c-8.828,8.828-10.814,36.137-8.491,50.652l6.02,37.624h90.746h90.748  l6.02-37.624C275.641,172.647,273.655,145.337,264.828,136.51z"/>
<path style="fill:#5A4146;" d="M187.421,185.463l82.732-21.02c1.204-0.306,2.323-0.778,3.447-1.24  c-1.1-11.028-3.835-21.757-8.771-26.694h-88.276H88.276c-8.828,8.828-10.814,36.137-8.491,50.652l6.02,37.624h90.746v-37.964  C180.214,186.823,183.871,186.365,187.421,185.463z"/>
<path style="fill:#464655;" d="M327.939,384.961l-64.643-19.485H90.223l-65.059,19.485C10.229,389.442,0,403.189,0,418.782v35.521  c0,9.75,7.905,17.655,17.655,17.655h317.793c9.75,0,17.655-7.905,17.655-17.655v-35.521  C353.103,403.189,342.874,389.442,327.939,384.961z"/>
<polygon style="fill:#D29B6E;" points="238.345,304.235 238.345,353.523 176.552,403.862 114.759,353.523 114.759,304.235 "/>
<g>
	<path style="fill:#5B5D6E;" d="M252.349,347.308c-2.812-4.216-8.587-5.206-12.642-2.165l-63.155,47.367l-63.155-47.367   c-4.054-3.041-9.831-2.051-12.642,2.165l-12.479,18.719l38.719,54.207c2.944,4.121,8.744,4.926,12.697,1.762l20.861-16.689   c2.89-2.312,7.171-0.255,7.171,3.446v63.203h17.655v-63.203c0-3.701,4.281-5.759,7.171-3.446l20.861,16.689   c3.955,3.164,9.754,2.359,12.697-1.762l38.719-54.207L252.349,347.308z"/>
	<path style="fill:#5B5D6E;" d="M52.264,428.707l-41.939-34.828C3.885,400.344,0,409.203,0,418.782v35.521   c0,9.75,7.905,17.655,17.655,17.655h44.138v-22.906C61.793,441.192,58.302,433.739,52.264,428.707z"/>
	<path style="fill:#5B5D6E;" d="M353.103,454.303v-35.521c0-9.611-3.907-18.503-10.386-24.973l-41.878,34.899   c-6.038,5.032-9.529,12.484-9.529,20.344v22.906h44.138C345.198,471.958,353.103,464.054,353.103,454.303z"/>
</g>

<path style="fill:#F0C087;" d="M264.828,215.958H254.41c-4.207,0-7.831-2.97-8.657-7.096l-4.57-22.849  c-1.651-8.253-8.896-14.193-17.312-14.193h-94.639c-8.416,0-15.661,5.94-17.312,14.193l-4.57,22.849  c-0.825,4.126-4.448,7.096-8.657,7.096H88.276c-9.75,0-17.655,7.904-17.655,17.655v17.655c0,9.75,7.905,17.655,17.655,17.655h4.59  l2.145,13.41c1.348,8.428,5.705,16.083,12.262,21.547l35.43,29.524c4.759,3.966,10.759,6.138,16.953,6.138h33.79  c6.195,0,12.194-2.173,16.953-6.138l35.43-29.524c6.557-5.464,10.913-13.119,12.262-21.547l2.145-13.41h4.593  c9.75,0,17.655-7.905,17.655-17.655v-17.655C282.483,223.862,274.578,215.958,264.828,215.958z"/>
<path style="fill:#E6AF78;" d="M150.069,277.983v-79.679c0-4.875,3.953-8.828,8.828-8.828h82.979l-0.692-3.462  c-1.65-8.253-8.896-14.194-17.312-14.194h-94.639c-8.416,0-15.661,5.94-17.312,14.193l-4.57,22.849  c-0.825,4.126-4.448,7.096-8.657,7.096H88.276c-9.751,0-17.655,7.904-17.655,17.655v17.655c0,9.751,7.904,17.655,17.655,17.655h4.59  l2.145,13.41c1.348,8.428,5.704,16.083,12.262,21.547l35.432,29.526c4.759,3.966,10.758,6.137,16.952,6.137h8.067l-14.937-44.811  C150.987,289.332,150.069,283.676,150.069,277.983z"/>
<rect x="308.966" y="74.715" style="fill:#464655;" width="17.655" height="79.448"/>
<path style="fill:#5B5D6E;" d="M89.743,83.544l-8.968,53.782c-0.755,4.527,2.086,8.878,6.534,10.008l82.722,21.017  c4.279,1.087,8.764,1.087,13.043,0l82.732-21.02c4.442-1.129,7.279-5.474,6.526-9.995l-8.97-53.792H89.743V83.544z"/>
<path style="fill:#464655;" d="M183.722,126.702l84.152-16.086l0,0l-4.514-27.072H89.743l-8.968,53.782  c-0.755,4.527,2.086,8.877,6.534,10.008l82.721,21.017c2.14,0.544,4.33,0.815,6.521,0.815v-33.793  C176.552,131.137,179.561,127.498,183.722,126.702z"/>
<path style="fill:#707487;" d="M170.004,40.665L12.26,70.711c-4.419,0.842-4.419,7.169,0,8.011l157.743,30.046  c4.365,0.832,8.849,0.832,13.214,0l157.743-30.046c4.419-0.842,4.419-7.169,0-8.011L183.218,40.665  C178.852,39.833,174.369,39.833,170.004,40.665z"/>
<path style="fill:#5B5D6E;" d="M317.793,145.337L317.793,145.337c-9.751,0-17.655,7.904-17.655,17.655v26.483  c0,4.875,3.953,8.828,8.828,8.828h17.655c4.875,0,8.828-3.953,8.828-8.828v-26.483C335.448,153.243,327.544,145.337,317.793,145.337  z"/>
<g>
</g>
<g>
</g>
<g>
</g>
<g>
</g>
<g>
</g>
<g>
</g>
<g>
</g>
<g>
</g>
<g>
</g>
<g>
</g>
<g>
</g>
<g>
</g>
<g>
</g>
<g>
</g>
<g>
</g>
</svg>