<?xml version="1.0" encoding="windows-1252"?>
<!-- Generator: Adobe Illustrator 19.0.0, SVG Export Plug-In . SVG Version: 6.00 Build 0)  -->
<svg version="1.1" id="Layer_1" xmlns="http://www.w3.org/2000/svg" xmlns:xlink="http://www.w3.org/1999/xlink" x="0px" y="0px" viewBox="0 0 512 512" style="enable-background:new 0 0 512 512;" xml:space="preserve">
<path style="fill:#5B5D6E;" d="M17.655,478.212h476.69c9.751,0,17.655-7.904,17.655-17.655V125.109  c0-9.751-7.904-17.655-17.655-17.655H17.655C7.904,107.454,0,115.358,0,125.109v335.448C0,470.307,7.904,478.212,17.655,478.212z"/>
<g>
	<path style="fill:#464655;" d="M97.103,451.73H476.69c4.875,0,8.828-3.953,8.828-8.828V142.764c0-4.875-3.953-8.828-8.828-8.828   H97.103c-4.875,0-8.828,3.953-8.828,8.828v300.138C88.276,447.777,92.228,451.73,97.103,451.73z"/>
	<path style="fill:#464655;" d="M44.138,319.316c-14.603,0-26.483-11.88-26.483-26.483c0-14.603,11.88-26.483,26.483-26.483   s26.483,11.88,26.483,26.483C70.621,307.436,58.741,319.316,44.138,319.316z M44.138,284.006c-4.871,0-8.828,3.961-8.828,8.828   s3.957,8.828,8.828,8.828s8.828-3.961,8.828-8.828S49.009,284.006,44.138,284.006z"/>
	<path style="fill:#464655;" d="M52.966,248.695H35.31c-4.879,0-8.828-3.953-8.828-8.828s3.948-8.828,8.828-8.828h17.655   c4.879,0,8.828,3.953,8.828,8.828S57.845,248.695,52.966,248.695z"/>
	<path style="fill:#464655;" d="M52.966,213.385H35.31c-4.879,0-8.828-3.953-8.828-8.828c0-4.875,3.948-8.828,8.828-8.828h17.655   c4.879,0,8.828,3.953,8.828,8.828C61.793,209.432,57.845,213.385,52.966,213.385z"/>
	<path style="fill:#464655;" d="M52.966,178.074H35.31c-4.879,0-8.828-3.953-8.828-8.828s3.948-8.828,8.828-8.828h17.655   c4.879,0,8.828,3.953,8.828,8.828S57.845,178.074,52.966,178.074z"/>
	<path style="fill:#464655;" d="M52.966,425.247H35.31c-4.879,0-8.828-3.953-8.828-8.828s3.948-8.828,8.828-8.828h17.655   c4.879,0,8.828,3.953,8.828,8.828S57.845,425.247,52.966,425.247z"/>
	<path style="fill:#464655;" d="M52.966,389.937H35.31c-4.879,0-8.828-3.953-8.828-8.828s3.948-8.828,8.828-8.828h17.655   c4.879,0,8.828,3.953,8.828,8.828S57.845,389.937,52.966,389.937z"/>
	<path style="fill:#464655;" d="M52.966,354.626H35.31c-4.879,0-8.828-3.953-8.828-8.828s3.948-8.828,8.828-8.828h17.655   c4.879,0,8.828,3.953,8.828,8.828S57.845,354.626,52.966,354.626z"/>
</g>
<g>
	
	
	
	
</g>
<path style="fill:#707487;" d="M259.915,258.367l-27.639,11.846c-4.183,1.793-8.414-2.438-6.621-6.621l11.846-27.639  c1.266-2.952,3.082-5.635,5.353-7.906L434.526,36.373c3.447-3.447,9.037-3.447,12.484,0l12.484,12.484  c3.447,3.447,3.447,9.037,0,12.484L267.821,253.014C265.55,255.285,262.867,257.101,259.915,258.367z"/>
<rect x="261.576" y="185.729" transform="matrix(0.7071 -0.7071 0.7071 0.7071 -58.1512 266.3794)" style="fill:#5B5D6E;" width="61.792" height="35.31"/>
<g>
</g>
<g>
</g>
<g>
</g>
<g>
</g>
<g>
</g>
<g>
</g>
<g>
</g>
<g>
</g>
<g>
</g>
<g>
</g>
<g>
</g>
<g>
</g>
<g>
</g>
<g>
</g>
<g>
</g>
</svg>