<?xml version="1.0" encoding="windows-1252"?>
<!-- Generator: Adobe Illustrator 19.0.0, SVG Export Plug-In . SVG Version: 6.00 Build 0)  -->
<svg version="1.1" id="Layer_1" xmlns="http://www.w3.org/2000/svg" xmlns:xlink="http://www.w3.org/1999/xlink" x="0px" y="0px" viewBox="0 0 512 512" style="enable-background:new 0 0 512 512;" xml:space="preserve">
<path style="fill:#707487;" d="M484.571,365.714H27.429c-10.099,0-18.286-8.186-18.286-18.286V18.286C9.143,8.186,17.329,0,27.429,0  h457.143c10.099,0,18.286,8.186,18.286,18.286v329.143C502.857,357.528,494.671,365.714,484.571,365.714z"/>

<path style="fill:#FFFFFF;" d="M170.137,338.286H45.714c-5.049,0-9.143-4.094-9.143-9.143V36.571c0-5.049,4.094-9.143,9.143-9.143  h420.571c5.049,0,9.143,4.094,9.143,9.143v292.571c0,5.049-4.094,9.143-9.143,9.143H309.665"/>

<path style="fill:#C84146;" d="M420.571,91.429H182.857c-5.054,0-9.143-4.089-9.143-9.143s4.089-9.143,9.143-9.143h237.714  c5.054,0,9.143,4.089,9.143,9.143S425.625,91.429,420.571,91.429z"/>
<path style="fill:#5B5D6E;" d="M420.571,201.143h-82.286c-5.054,0-9.143-4.089-9.143-9.143s4.089-9.143,9.143-9.143h82.286  c5.054,0,9.143,4.089,9.143,9.143S425.625,201.143,420.571,201.143z"/>
<g>
	<path style="fill:#7F8499;" d="M301.714,201.143h-36.571c-5.054,0-9.143-4.089-9.143-9.143s4.089-9.143,9.143-9.143h36.571   c5.054,0,9.143,4.089,9.143,9.143S306.768,201.143,301.714,201.143z"/>
	<path style="fill:#7F8499;" d="M393.143,237.714h-128c-5.054,0-9.143-4.089-9.143-9.143s4.089-9.143,9.143-9.143h128   c5.054,0,9.143,4.089,9.143,9.143S398.197,237.714,393.143,237.714z"/>
	<path style="fill:#7F8499;" d="M393.143,274.286h-18.286c-5.054,0-9.143-4.089-9.143-9.143s4.089-9.143,9.143-9.143h18.286   c5.054,0,9.143,4.089,9.143,9.143S398.197,274.286,393.143,274.286z"/>
</g>
<path style="fill:#5B5D6E;" d="M338.286,274.286h-73.143c-5.054,0-9.143-4.089-9.143-9.143s4.089-9.143,9.143-9.143h73.143  c5.054,0,9.143,4.089,9.143,9.143S343.339,274.286,338.286,274.286z"/>



<path style="fill:#FF5050;" d="M301.714,128H182.857c-5.054,0-9.143-4.089-9.143-9.143s4.089-9.143,9.143-9.143h118.857  c5.054,0,9.143,4.089,9.143,9.143S306.768,128,301.714,128z"/><path style="fill:#FF5050;" d="M82.286,27.429v119.431c0,3.663,4.082,5.848,7.13,3.816l20.298-13.533l20.298,13.533  c3.048,2.032,7.13-0.153,7.13-3.816V27.429H82.286z"/>
<path style="fill:#C84146;" d="M82.286,27.429v119.431c0,3.663,4.082,5.848,7.13,3.816l20.298-13.533V27.429H82.286z"/>
<g>
</g>
<g>
</g>
<g>
</g>
<g>
</g>
<g>
</g>
<g>
</g>
<g>
</g>
<g>
</g>
<g>
</g>
<g>
</g>
<g>
</g>
<g>
</g>
<g>
</g>
<g>
</g>
<g>
</g>
</svg>