<?xml version="1.0" encoding="windows-1252"?>
<!-- Generator: Adobe Illustrator 19.0.0, SVG Export Plug-In . SVG Version: 6.00 Build 0)  -->
<svg version="1.1" id="Layer_1" xmlns="http://www.w3.org/2000/svg" xmlns:xlink="http://www.w3.org/1999/xlink" x="0px" y="0px" viewBox="0 0 512 512" style="enable-background:new 0 0 512 512;" xml:space="preserve">
<path style="fill:#E4EAF8;" d="M494.345,472.276H17.655C7.904,472.276,0,464.372,0,454.621V57.379  c0-9.751,7.904-17.655,17.655-17.655h476.69c9.751,0,17.655,7.904,17.655,17.655v397.241  C512,464.372,504.096,472.276,494.345,472.276z"/>
<path style="fill:#D5DCED;" d="M512,83.862H0V57.379c0-9.751,7.904-17.655,17.655-17.655h476.69c9.751,0,17.655,7.904,17.655,17.655  V83.862z"/>
<g>
	<path style="fill:#FFFFFF;" d="M467.862,260.414H44.138c-4.875,0-8.828-3.953-8.828-8.828V128c0-4.875,3.953-8.828,8.828-8.828   h423.724c4.875,0,8.828,3.953,8.828,8.828v123.586C476.69,256.461,472.737,260.414,467.862,260.414z"/>
	<path style="fill:#FFFFFF;" d="M467.862,436.966H44.138c-4.875,0-8.828-3.953-8.828-8.828V304.552c0-4.875,3.953-8.828,8.828-8.828   h423.724c4.875,0,8.828,3.953,8.828,8.828v123.586C476.69,433.013,472.737,436.966,467.862,436.966z"/>
</g>
<path style="fill:#00C3FF;" d="M158.897,260.414H44.138c-4.875,0-8.828-3.953-8.828-8.828V128c0-4.875,3.953-8.828,8.828-8.828  h114.759c4.875,0,8.828,3.953,8.828,8.828v123.586C167.724,256.461,163.772,260.414,158.897,260.414z"/>
<path style="fill:#7DF5A5;" d="M158.897,436.966H44.138c-4.875,0-8.828-3.953-8.828-8.828V304.552c0-4.875,3.953-8.828,8.828-8.828  h114.759c4.875,0,8.828,3.953,8.828,8.828v123.586C167.724,433.013,163.772,436.966,158.897,436.966z"/>
<g>
	
	
</g>
<path style="fill:#5B5D6E;" d="M300.138,172.138h-88.276c-4.879,0-8.828-3.953-8.828-8.828s3.948-8.828,8.828-8.828h88.276  c4.879,0,8.828,3.953,8.828,8.828S305.017,172.138,300.138,172.138z"/>
<g>
	<path style="fill:#707487;" d="M370.759,207.448H211.862c-4.879,0-8.828-3.953-8.828-8.828c0-4.875,3.948-8.828,8.828-8.828   h158.897c4.879,0,8.828,3.953,8.828,8.828C379.586,203.496,375.638,207.448,370.759,207.448z"/>
	<path style="fill:#707487;" d="M406.069,172.138h-70.621c-4.879,0-8.828-3.953-8.828-8.828s3.948-8.828,8.828-8.828h70.621   c4.879,0,8.828,3.953,8.828,8.828S410.948,172.138,406.069,172.138z"/>
</g>
<path style="fill:#5B5D6E;" d="M282.483,348.69h-70.621c-4.879,0-8.828-3.953-8.828-8.828s3.948-8.828,8.828-8.828h70.621  c4.879,0,8.828,3.953,8.828,8.828S287.362,348.69,282.483,348.69z"/>
<g>
	<path style="fill:#707487;" d="M335.448,384H211.862c-4.879,0-8.828-3.953-8.828-8.828s3.948-8.828,8.828-8.828h123.586   c4.879,0,8.828,3.953,8.828,8.828S340.328,384,335.448,384z"/>
	<path style="fill:#707487;" d="M388.414,348.69h-70.621c-4.879,0-8.828-3.953-8.828-8.828s3.948-8.828,8.828-8.828h70.621   c4.879,0,8.828,3.953,8.828,8.828S393.293,348.69,388.414,348.69z"/>
</g>
<path style="fill:#E4EAF8;" d="M26.483,75.034h-8.828c-4.875,0-8.828-3.953-8.828-8.828v-8.828c0-4.875,3.953-8.828,8.828-8.828  h8.828c4.875,0,8.828,3.953,8.828,8.828v8.828C35.31,71.082,31.358,75.034,26.483,75.034z"/>
<path style="fill:#FF5050;" d="M423.724,75.034h-8.828c-4.875,0-8.828-3.953-8.828-8.828v-8.828c0-4.875,3.953-8.828,8.828-8.828  h8.828c4.875,0,8.828,3.953,8.828,8.828v8.828C432.552,71.082,428.599,75.034,423.724,75.034z"/>
<path style="fill:#FFF082;" d="M459.034,75.034h-8.828c-4.875,0-8.828-3.953-8.828-8.828v-8.828c0-4.875,3.953-8.828,8.828-8.828  h8.828c4.875,0,8.828,3.953,8.828,8.828v8.828C467.862,71.082,463.91,75.034,459.034,75.034z"/>
<path style="fill:#A0FFB4;" d="M494.345,75.034h-8.828c-4.875,0-8.828-3.953-8.828-8.828v-8.828c0-4.875,3.953-8.828,8.828-8.828  h8.828c4.875,0,8.828,3.953,8.828,8.828v8.828C503.172,71.082,499.22,75.034,494.345,75.034z"/>
<g>
</g>
<g>
</g>
<g>
</g>
<g>
</g>
<g>
</g>
<g>
</g>
<g>
</g>
<g>
</g>
<g>
</g>
<g>
</g>
<g>
</g>
<g>
</g>
<g>
</g>
<g>
</g>
<g>
</g>
</svg>