<?xml version="1.0" encoding="windows-1252"?>
<!-- Generator: Adobe Illustrator 19.0.0, SVG Export Plug-In . SVG Version: 6.00 Build 0)  -->
<svg version="1.1" id="Layer_1" xmlns="http://www.w3.org/2000/svg" xmlns:xlink="http://www.w3.org/1999/xlink" x="0px" y="0px" viewBox="0 0 512 512" style="enable-background:new 0 0 512 512;" xml:space="preserve">

<path style="fill:#00AAF0;" d="M426.667,512H85.333c-9.922,0-17.965-8.043-17.965-17.965V26.947c0-9.922,8.043-17.965,17.965-17.965  h341.333c9.922,0,17.965,8.043,17.965,17.965v467.088C444.632,503.957,436.589,512,426.667,512z"/>
<path style="fill:#E4EAF8;" d="M186.14,103.134l-19.965-13.31l-19.965,13.31c-2.984,1.99-6.983-0.149-6.983-3.737V8.982  c0-4.961,4.022-8.982,8.982-8.982h35.93c4.961,0,8.982,4.022,8.982,8.982v90.415C193.123,102.985,189.124,105.124,186.14,103.134z"/><path style="fill:#0096DC;" d="M103.298,512V8.982H85.333c-9.922,0-17.965,8.043-17.965,17.965v467.088  c0,9.922,8.043,17.965,17.965,17.965H103.298z"/>



<path style="fill:#D5DCED;" d="M148.211,0c-4.961,0-8.982,4.022-8.982,8.982v90.415c0,3.587,3.998,5.726,6.983,3.737l19.965-13.31V0  H148.211z"/>
<g>
</g>
<g>
</g>
<g>
</g>
<g>
</g>
<g>
</g>
<g>
</g>
<g>
</g>
<g>
</g>
<g>
</g>
<g>
</g>
<g>
</g>
<g>
</g>
<g>
</g>
<g>
</g>
<g>
</g>
</svg>