<?xml version="1.0" encoding="windows-1252"?>
<!-- Generator: Adobe Illustrator 19.0.0, SVG Export Plug-In . SVG Version: 6.00 Build 0)  -->
<svg version="1.1" id="Layer_1" xmlns="http://www.w3.org/2000/svg" xmlns:xlink="http://www.w3.org/1999/xlink" x="0px" y="0px" viewBox="0 0 512 512" style="enable-background:new 0 0 512 512;" xml:space="preserve">
<path style="fill:#E4EAF8;" d="M97.103,17.655C97.103,7.904,105.007,0,114.759,0h264.828l88.276,88.276v406.069  c0,9.751-7.904,17.655-17.655,17.655H114.759c-9.751,0-17.655-7.904-17.655-17.655V17.655z"/>
<g>
	<path style="fill:#D5DCED;" d="M379.586,0v70.621c0,9.75,7.905,17.655,17.655,17.655h70.621L379.586,0z"/>
	
</g>

<path style="fill:#7F8499;" d="M215.559,248.11l-25.822,11.066c-4.761,2.04-9.575-2.773-7.534-7.534l11.066-25.822  c1.327-3.096,3.233-5.912,5.615-8.294l109.011-109.011c3.447-3.447,9.037-3.447,12.484,0l12.484,12.484  c3.447,3.447,3.447,9.037,0,12.484L223.853,242.496C221.47,244.877,218.655,246.783,215.559,248.11z"/>

<path style="fill:#5B5D6E;" d="M379.586,273.655H238.345c-4.879,0-8.828-3.948-8.828-8.828c0-4.879,3.948-8.828,8.828-8.828h141.241  c4.879,0,8.828,3.948,8.828,8.828C388.414,269.707,384.466,273.655,379.586,273.655z"/>
<path style="fill:#7F8499;" d="M344.276,238.345h-70.621c-4.879,0-8.828-3.948-8.828-8.828s3.948-8.828,8.828-8.828h70.621  c4.879,0,8.828,3.948,8.828,8.828S349.155,238.345,344.276,238.345z"/>
<rect x="245.653" y="108.339" transform="matrix(0.7071 0.7071 -0.7071 0.7071 203.0361 -134.0313)" style="fill:#5B5D6E;" width="35.31" height="139.463"/>
<g>
</g>
<g>
</g>
<g>
</g>
<g>
</g>
<g>
</g>
<g>
</g>
<g>
</g>
<g>
</g>
<g>
</g>
<g>
</g>
<g>
</g>
<g>
</g>
<g>
</g>
<g>
</g>
<g>
</g>
</svg>