<?xml version="1.0" encoding="windows-1252"?>
<!-- Generator: Adobe Illustrator 19.0.0, SVG Export Plug-In . SVG Version: 6.00 Build 0)  -->
<svg version="1.1" id="Layer_1" xmlns="http://www.w3.org/2000/svg" xmlns:xlink="http://www.w3.org/1999/xlink" x="0px" y="0px" viewBox="0 0 512 512" style="enable-background:new 0 0 512 512;" xml:space="preserve">
<path style="fill:#C7CFE2;" d="M423.724,290.764H264.828v-70.621h-17.655v70.621H88.276c-14.603,0-26.483,11.88-26.483,26.483  v61.793c0,4.875,3.948,8.828,8.828,8.828s8.828-3.953,8.828-8.828v-61.793c0-4.866,3.957-8.828,8.828-8.828h158.897v70.621h17.655  v-70.621h158.897c4.871,0,8.828,3.961,8.828,8.828v61.793c0,4.875,3.948,8.828,8.828,8.828c4.879,0,8.828-3.953,8.828-8.828v-61.793  C450.207,302.644,438.327,290.764,423.724,290.764z"/>
<g>
	<rect x="247.172" y="220.138" style="fill:#AFB9D2;" width="17.655" height="26.483"/>
	<rect x="247.172" y="352.552" style="fill:#AFB9D2;" width="17.655" height="26.483"/>
	<rect x="61.793" y="352.552" style="fill:#AFB9D2;" width="17.655" height="26.483"/>
	<rect x="432.552" y="352.552" style="fill:#AFB9D2;" width="17.655" height="26.483"/>
</g>
<path style="fill:#FAEBC8;" d="M370.759,78.902c4.875,0,8.828-3.953,8.828-8.828V58.641c0-3.731-2.345-7.059-5.858-8.313  l-111.79-39.925c-3.84-1.372-8.036-1.372-11.876,0l-111.79,39.925c-3.513,1.255-5.858,4.583-5.858,8.313v11.434  c0,4.875,3.953,8.828,8.828,8.828h8.828v114.759h-8.828c-4.875,0-8.828,3.953-8.828,8.828v17.655c0,4.875,3.953,8.828,8.828,8.828  h229.517c4.875,0,8.828-3.953,8.828-8.828v-17.655c0-4.875-3.953-8.828-8.828-8.828h-8.828V78.902  C361.93,78.902,370.759,78.902,370.759,78.902z"/>
<g>
	<rect x="150.069" y="78.897" style="fill:#F5DCB4;" width="211.862" height="17.655"/>
	<rect x="150.069" y="176" style="fill:#F5DCB4;" width="211.862" height="17.655"/>
</g>
<g>
	<rect x="269.241" y="78.897" style="fill:#EBC9A0;" width="19.862" height="114.759"/>
	<rect x="222.897" y="78.897" style="fill:#EBC9A0;" width="19.862" height="114.759"/>
	<rect x="176.552" y="78.897" style="fill:#EBC9A0;" width="19.862" height="114.759"/>
	<rect x="315.586" y="78.897" style="fill:#EBC9A0;" width="19.862" height="114.759"/>
</g>
<g>
	<rect x="269.241" y="78.897" style="fill:#E1B487;" width="19.862" height="17.655"/>
	<rect x="222.897" y="78.897" style="fill:#E1B487;" width="19.862" height="17.655"/>
	<rect x="176.552" y="78.897" style="fill:#E1B487;" width="19.862" height="17.655"/>
	<rect x="315.586" y="78.897" style="fill:#E1B487;" width="19.862" height="17.655"/>
</g>
<rect x="52.966" y="458.483" style="fill:#707487;" width="35.31" height="35.31"/>
<g>
	<path style="fill:#7F8499;" d="M132.414,467.316H8.828c-4.875,0-8.828-3.953-8.828-8.828V379.04c0-4.875,3.953-8.828,8.828-8.828   h123.586c4.875,0,8.828,3.953,8.828,8.828v79.448C141.241,463.363,137.289,467.316,132.414,467.316z"/>
	<path style="fill:#7F8499;" d="M97.103,502.626H44.138c-4.879,0-8.828-3.948-8.828-8.828c0-4.879,3.948-8.828,8.828-8.828h52.966   c4.879,0,8.828,3.948,8.828,8.828C105.931,498.678,101.983,502.626,97.103,502.626z"/>
</g>
<rect x="17.655" y="387.862" style="fill:#FAEBC8;" width="105.931" height="61.793"/>
<rect x="238.345" y="458.483" style="fill:#707487;" width="35.31" height="35.31"/>
<g>
	<path style="fill:#7F8499;" d="M317.793,467.316H194.207c-4.875,0-8.828-3.953-8.828-8.828V379.04c0-4.875,3.953-8.828,8.828-8.828   h123.586c4.875,0,8.828,3.953,8.828,8.828v79.448C326.621,463.363,322.668,467.316,317.793,467.316z"/>
	<path style="fill:#7F8499;" d="M282.483,502.626h-52.966c-4.879,0-8.828-3.948-8.828-8.828c0-4.879,3.948-8.828,8.828-8.828h52.966   c4.879,0,8.828,3.948,8.828,8.828C291.31,498.678,287.362,502.626,282.483,502.626z"/>
</g>
<rect x="203.034" y="387.862" style="fill:#FAEBC8;" width="105.931" height="61.793"/>
<rect x="423.724" y="458.483" style="fill:#707487;" width="35.31" height="35.31"/>
<g>
	<path style="fill:#7F8499;" d="M503.172,467.316H379.586c-4.875,0-8.828-3.953-8.828-8.828V379.04c0-4.875,3.953-8.828,8.828-8.828   h123.586c4.875,0,8.828,3.953,8.828,8.828v79.448C512,463.363,508.047,467.316,503.172,467.316z"/>
	<path style="fill:#7F8499;" d="M467.862,502.626h-52.966c-4.879,0-8.828-3.948-8.828-8.828c0-4.879,3.948-8.828,8.828-8.828h52.966   c4.879,0,8.828,3.948,8.828,8.828C476.69,498.678,472.742,502.626,467.862,502.626z"/>
</g>
<rect x="388.414" y="387.862" style="fill:#FAEBC8;" width="105.931" height="61.793"/>
<g>
</g>
<g>
</g>
<g>
</g>
<g>
</g>
<g>
</g>
<g>
</g>
<g>
</g>
<g>
</g>
<g>
</g>
<g>
</g>
<g>
</g>
<g>
</g>
<g>
</g>
<g>
</g>
<g>
</g>
</svg>