<?xml version="1.0" encoding="windows-1252"?>
<!-- Generator: Adobe Illustrator 19.0.0, SVG Export Plug-In . SVG Version: 6.00 Build 0)  -->
<svg version="1.1" id="Layer_1" xmlns="http://www.w3.org/2000/svg" xmlns:xlink="http://www.w3.org/1999/xlink" x="0px" y="0px" viewBox="0 0 512 512" style="enable-background:new 0 0 512 512;" xml:space="preserve">
<path style="fill:#F5DCB4;" d="M256,176.552c-4.879,0-8.828,3.953-8.828,8.828v17.655h17.655v-17.655  C264.828,180.504,260.879,176.552,256,176.552z"/>
<path style="fill:#FAEBC8;" d="M414.897,317.793c4.875,0,8.828-3.953,8.828-8.828v-15.823c0-6.554-3.631-12.57-9.432-15.624  l-154.18-81.148c-2.574-1.355-5.65-1.355-8.223,0l-154.18,81.148c-5.801,3.053-9.432,9.068-9.432,15.624v15.823  c0,4.875,3.953,8.828,8.828,8.828h17.655V476.69H97.103c-4.875,0-8.828,3.953-8.828,8.828v17.655c0,4.875,3.953,8.828,8.828,8.828  h317.793c4.875,0,8.828-3.953,8.828-8.828v-17.655c0-4.875-3.953-8.828-8.828-8.828h-17.655V317.793H414.897z"/>




<path style="fill:#EBC9A0;" d="M282.483,256h-52.966c-4.879,0-8.828-3.953-8.828-8.828s3.948-8.828,8.828-8.828h52.966  c4.879,0,8.828,3.953,8.828,8.828S287.362,256,282.483,256z"/>
<path style="fill:#F5DCB4;" d="M308.966,291.31H203.034c-4.879,0-8.828-3.953-8.828-8.828s3.948-8.828,8.828-8.828h105.931  c4.879,0,8.828,3.953,8.828,8.828S313.845,291.31,308.966,291.31z"/>
<g>
	<rect x="273.655" y="317.793" style="fill:#EBC9A0;" width="26.483" height="158.897"/>
	<rect x="211.862" y="317.793" style="fill:#EBC9A0;" width="26.483" height="158.897"/>
	<rect x="150.069" y="317.793" style="fill:#EBC9A0;" width="26.483" height="158.897"/>
</g>
<g>
	<rect x="114.759" y="317.793" style="fill:#F5DCB4;" width="35.31" height="17.655"/>
	<rect x="176.552" y="317.793" style="fill:#F5DCB4;" width="35.31" height="17.655"/>
</g>
<g>
	<rect x="150.069" y="317.793" style="fill:#E1B487;" width="26.483" height="17.655"/>
	<rect x="273.655" y="317.793" style="fill:#E1B487;" width="26.483" height="17.655"/>
	<rect x="211.862" y="317.793" style="fill:#E1B487;" width="26.483" height="17.655"/>
</g>
<g>
	<rect x="238.345" y="317.793" style="fill:#F5DCB4;" width="35.31" height="17.655"/>
	<rect x="300.138" y="317.793" style="fill:#F5DCB4;" width="35.31" height="17.655"/>
	<rect x="361.931" y="317.793" style="fill:#F5DCB4;" width="35.31" height="17.655"/>
	<rect x="114.759" y="459.034" style="fill:#F5DCB4;" width="35.31" height="17.655"/>
	<rect x="176.552" y="459.034" style="fill:#F5DCB4;" width="35.31" height="17.655"/>
	<rect x="238.345" y="459.034" style="fill:#F5DCB4;" width="35.31" height="17.655"/>
	<rect x="300.138" y="459.034" style="fill:#F5DCB4;" width="35.31" height="17.655"/>
	<rect x="361.931" y="459.034" style="fill:#F5DCB4;" width="35.31" height="17.655"/>
</g>
<rect x="335.448" y="317.793" style="fill:#EBC9A0;" width="26.483" height="158.897"/>
<rect x="335.448" y="317.793" style="fill:#E1B487;" width="26.483" height="17.655"/>
<g>
</g>
<g>
</g>
<g>
</g>
<g>
</g>
<g>
</g>
<g>
</g>
<g>
</g>
<g>
</g>
<g>
</g>
<g>
</g>
<g>
</g>
<g>
</g>
<g>
</g>
<g>
</g>
<g>
</g>
</svg>