<?xml version="1.0" encoding="windows-1252"?>
<!-- Generator: Adobe Illustrator 19.0.0, SVG Export Plug-In . SVG Version: 6.00 Build 0)  -->
<svg version="1.1" id="Layer_1" xmlns="http://www.w3.org/2000/svg" xmlns:xlink="http://www.w3.org/1999/xlink" x="0px" y="0px" viewBox="0 0 512 512" style="enable-background:new 0 0 512 512;" xml:space="preserve">
<path style="fill:#E4EAF8;" d="M494.345,423.724H17.655C7.904,423.724,0,415.82,0,406.069V105.931  c0-9.751,7.904-17.655,17.655-17.655h476.69c9.751,0,17.655,7.904,17.655,17.655v300.138  C512,415.82,504.096,423.724,494.345,423.724z"/>
<path style="fill:#FF5050;" d="M450.207,397.241H61.793c-4.875,0-8.828-3.953-8.828-8.828V123.586c0-4.875,3.953-8.828,8.828-8.828  h388.414c4.875,0,8.828,3.953,8.828,8.828v264.828C459.034,393.289,455.082,397.241,450.207,397.241z"/>
<g>
	<path style="fill:#AFB9D2;" d="M26.483,273.655c-4.879,0-8.828-3.953-8.828-8.828v-17.655c0-4.875,3.948-8.828,8.828-8.828   s8.828,3.953,8.828,8.828v17.655C35.31,269.703,31.362,273.655,26.483,273.655z"/>
	<path style="fill:#AFB9D2;" d="M485.517,282.483c-4.879,0-8.828-3.953-8.828-8.828v-35.31c0-4.875,3.948-8.828,8.828-8.828   s8.828,3.953,8.828,8.828v35.31C494.345,278.53,490.397,282.483,485.517,282.483z"/>
</g>
<path style="fill:#959CB5;" d="M485.603,132.414c-4.879,0-8.871-3.953-8.871-8.828c0-4.875,3.905-8.828,8.785-8.828h0.086  c4.879,0,8.828,3.953,8.828,8.828C494.431,128.461,490.483,132.414,485.603,132.414z"/>




<g>
	<path style="fill:#C7CFE2;" d="M26.483,220.69c-4.879,0-8.828-3.953-8.828-8.828v-8.828c0-4.875,3.948-8.828,8.828-8.828   s8.828,3.953,8.828,8.828v8.828C35.31,216.737,31.362,220.69,26.483,220.69z"/>
	<path style="fill:#C7CFE2;" d="M26.483,317.793c-4.879,0-8.828-3.953-8.828-8.828v-8.828c0-4.875,3.948-8.828,8.828-8.828   s8.828,3.953,8.828,8.828v8.828C35.31,313.841,31.362,317.793,26.483,317.793z"/>
</g>
<g>
</g>
<g>
</g>
<g>
</g>
<g>
</g>
<g>
</g>
<g>
</g>
<g>
</g>
<g>
</g>
<g>
</g>
<g>
</g>
<g>
</g>
<g>
</g>
<g>
</g>
<g>
</g>
<g>
</g>
</svg>