<?xml version="1.0" encoding="windows-1252"?>
<!-- Generator: Adobe Illustrator 19.0.0, SVG Export Plug-In . SVG Version: 6.00 Build 0)  -->
<svg version="1.1" id="Layer_1" xmlns="http://www.w3.org/2000/svg" xmlns:xlink="http://www.w3.org/1999/xlink" x="0px" y="0px" viewBox="0 0 512 512" style="enable-background:new 0 0 512 512;" xml:space="preserve">



<rect x="158.897" y="264.828" style="fill:#D29B6E;" width="52.966" height="35.31"/><path style="fill:#F0C087;" d="M145.899,214.794l2.975,35.708c0.742,8.896,6.067,16.762,14.051,20.755l11.012,5.506  c7.201,3.601,15.678,3.601,22.879,0l11.012-5.506c7.985-3.992,13.311-11.859,14.051-20.755l2.975-35.708  c1.719-20.586-14.527-38.242-35.185-38.242h-8.583C160.43,176.552,144.184,194.208,145.899,214.794z"/>
<path style="fill:#00C3FF;" d="M252.756,304.941l-34.857-11.619c-3.605-1.202-6.036-4.575-6.036-8.374l-26.484,24.018  l-26.483-24.018c0,3.799-2.432,7.172-6.036,8.374l-34.857,11.619c-7.21,2.403-12.072,9.15-12.072,16.749v40.241h158.897V321.69  C264.828,314.091,259.965,307.345,252.756,304.941z"/>

<path style="fill:#00AAF0;" d="M219.207,286.414c-2.707-4.061-8.181-5.155-12.242-2.449l-21.586,14.388l-21.587-14.388  c-4.077-2.707-9.543-1.612-12.242,2.449c-2.707,4.061-1.612,9.535,2.449,12.242l22.552,15.033v48.242h17.655v-48.242l22.552-15.034  C220.819,295.948,221.913,290.474,219.207,286.414z"/>
<g>
	<path style="fill:#FF5050;" d="M317.793,238.345h-8.828c-3.345,0-6.397-1.888-7.896-4.879l-15.215-30.431h-12.199   c-4.879,0-8.828-3.948-8.828-8.828s3.948-8.828,8.828-8.828h17.655c3.345,0,6.397,1.888,7.896,4.879l14.189,28.388l32.215-63.733   c1.5-2.969,4.552-4.845,7.88-4.845h61.406c4.879,0,8.828,3.953,8.828,8.828c0,4.879-3.948,8.828-8.828,8.828h-55.975l-33.25,65.775   C324.172,236.474,321.121,238.345,317.793,238.345z"/>
	<path style="fill:#FF5050;" d="M399.724,207.448l13.241-16.552c3.043-3.81,2.422-9.362-1.379-12.414   c-3.819-3.043-9.354-2.406-12.414,1.379l-10.759,13.449l-10.759-13.449c-3.052-3.801-8.595-4.431-12.414-1.379   c-3.801,3.052-4.423,8.604-1.379,12.414l13.241,16.552L363.862,224c-3.043,3.81-2.422,9.362,1.379,12.414   c1.63,1.302,3.577,1.931,5.508,1.931c2.595,0,5.155-1.138,6.905-3.31l10.759-13.449l10.759,13.449c1.75,2.182,4.31,3.31,6.905,3.31   c1.931,0,3.88-0.629,5.508-1.931c3.801-3.052,4.423-8.604,1.379-12.414L399.724,207.448z"/>
</g>
<path style="fill:#7F8499;" d="M308.966,282.483h-8.828c-4.879,0-8.828-3.948-8.828-8.828c0-4.879,3.948-8.828,8.828-8.828h8.828  c4.879,0,8.828,3.948,8.828,8.828C317.793,278.535,313.845,282.483,308.966,282.483z"/>
<g>
	<path style="fill:#959CB5;" d="M414.897,282.483h-70.621c-4.879,0-8.828-3.948-8.828-8.828c0-4.879,3.948-8.828,8.828-8.828h70.621   c4.879,0,8.828,3.948,8.828,8.828C423.724,278.535,419.776,282.483,414.897,282.483z"/>
	<path style="fill:#959CB5;" d="M397.241,317.793h-52.966c-4.879,0-8.828-3.948-8.828-8.828s3.948-8.828,8.828-8.828h52.966   c4.879,0,8.828,3.948,8.828,8.828S402.121,317.793,397.241,317.793z"/>
</g>
<path style="fill:#7F8499;" d="M308.966,317.793h-8.828c-4.879,0-8.828-3.948-8.828-8.828s3.948-8.828,8.828-8.828h8.828  c4.879,0,8.828,3.948,8.828,8.828S313.845,317.793,308.966,317.793z"/>

<path style="fill:#E6AF78;" d="M192.401,276.762l-6.103-5.506c-4.426-3.992-7.378-11.859-7.788-20.755l-1.65-35.708  c-0.883-19.112,6.849-35.507,17.116-37.784c-1.429-0.175-2.826-0.458-4.306-0.458h-8.583c-20.658,0-36.904,17.655-35.188,38.242  l2.975,35.708c0.742,8.896,6.067,16.762,14.051,20.755l11.012,5.506c6.378,3.189,13.71,3.386,20.318,0.926  C193.515,277.405,192.792,277.116,192.401,276.762z"/>
<g>
	<path style="fill:#00AAF0;" d="M110.46,310.155c-2.767,3.149-4.529,7.139-4.529,11.535v40.241h26.483v-26.483   c0-5.557-2.616-10.79-7.062-14.124L110.46,310.155z"/>
	<path style="fill:#00AAF0;" d="M260.299,310.155c2.767,3.149,4.529,7.14,4.529,11.535v40.241h-26.483v-26.483   c0-5.557,2.616-10.79,7.062-14.124L260.299,310.155z"/>
</g>
<g>
</g>
<g>
</g>
<g>
</g>
<g>
</g>
<g>
</g>
<g>
</g>
<g>
</g>
<g>
</g>
<g>
</g>
<g>
</g>
<g>
</g>
<g>
</g>
<g>
</g>
<g>
</g>
<g>
</g>
</svg>