<?xml version="1.0" encoding="windows-1252"?>
<!-- Generator: Adobe Illustrator 19.0.0, SVG Export Plug-In . SVG Version: 6.00 Build 0)  -->
<svg version="1.1" id="Layer_1" xmlns="http://www.w3.org/2000/svg" xmlns:xlink="http://www.w3.org/1999/xlink" x="0px" y="0px" viewBox="0 0 512 512" style="enable-background:new 0 0 512 512;" xml:space="preserve">
<path style="fill:#5B5D6E;" d="M423.724,0H88.276c-9.75,0-17.655,7.904-17.655,17.655v211.862c0,9.75,7.905,17.655,17.655,17.655  h97.103v44.138h141.241v-44.138h97.103c9.75,0,17.655-7.905,17.655-17.655V17.655C441.379,7.904,433.474,0,423.724,0z"/>

<rect x="88.276" y="17.655" style="fill:#FF5050;" width="335.448" height="211.862"/><polygon style="fill:#707487;" points="467.862,308.966 467.862,388.414 44.138,388.414 44.138,308.966 26.483,308.966   26.483,503.172 44.138,503.172 44.138,406.069 467.862,406.069 467.862,503.172 485.517,503.172 485.517,308.966 "/>
<g>
	<rect x="26.483" y="308.966" style="fill:#5B5D6E;" width="17.655" height="26.483"/>
	<rect x="467.862" y="308.966" style="fill:#5B5D6E;" width="17.655" height="26.483"/>
</g>



<g>
	
	
</g><path style="fill:#F5DCB4;" d="M485.517,317.793H26.483c-4.875,0-8.828-3.953-8.828-8.828V291.31c0-4.875,3.953-8.828,8.828-8.828  h459.034c4.875,0,8.828,3.953,8.828,8.828v17.655C494.345,313.841,490.392,317.793,485.517,317.793z"/>
<g>
	<path style="fill:#5B5D6E;" d="M44.138,512H26.483c-4.879,0-8.828-3.948-8.828-8.828c0-4.879,3.948-8.828,8.828-8.828h17.655   c4.879,0,8.828,3.948,8.828,8.828C52.966,508.052,49.017,512,44.138,512z"/>
	<path style="fill:#5B5D6E;" d="M485.517,512h-17.655c-4.879,0-8.828-3.948-8.828-8.828c0-4.879,3.948-8.828,8.828-8.828h17.655   c4.879,0,8.828,3.948,8.828,8.828C494.345,508.052,490.397,512,485.517,512z"/>
</g>
<rect x="185.379" y="247.172" style="fill:#464655;" width="141.241" height="17.655"/>
<g>
</g>
<g>
</g>
<g>
</g>
<g>
</g>
<g>
</g>
<g>
</g>
<g>
</g>
<g>
</g>
<g>
</g>
<g>
</g>
<g>
</g>
<g>
</g>
<g>
</g>
<g>
</g>
<g>
</g>
</svg>