<?xml version="1.0" encoding="windows-1252"?>
<!-- Generator: Adobe Illustrator 19.0.0, SVG Export Plug-In . SVG Version: 6.00 Build 0)  -->
<svg version="1.1" id="Layer_1" xmlns="http://www.w3.org/2000/svg" xmlns:xlink="http://www.w3.org/1999/xlink" x="0px" y="0px" viewBox="0 0 512 512" style="enable-background:new 0 0 512 512;" xml:space="preserve">
<path style="fill:#FF6464;" d="M476.69,441.379H35.31C15.809,441.379,0,425.57,0,406.069V105.931c0-19.501,15.809-35.31,35.31-35.31  H476.69c19.501,0,35.31,15.809,35.31,35.31v300.138C512,425.57,496.191,441.379,476.69,441.379z"/>
<path style="fill:#E4EAF8;" d="M318.974,285.113v16.497c0,5.513-3.316,10.485-8.406,12.604l-65.702,27.348  c-3.949,1.644-6.521,5.501-6.521,9.778l0,0c0,5.849,4.742,10.592,10.592,10.592h208.334c5.849,0,10.592-4.742,10.592-10.592l0,0  c0-4.277-2.572-8.135-6.521-9.778l-65.706-27.35c-5.087-2.118-8.402-7.086-8.402-12.597v-16.501"/>
<path style="fill:#694B4B;" d="M353.103,105.931c-77.507,0-95.125,77.838-95.842,174.871c-0.03,4.038,2.343,7.673,5.978,9.373  c13.696,6.4,30.592,11.347,49.497,14.286h80.732c18.906-2.94,35.801-7.886,49.498-14.286c3.636-1.699,6.008-5.335,5.978-9.373  C448.228,183.769,430.611,105.931,353.103,105.931z"/>
<path style="fill:#5A4146;" d="M257.261,280.802c-0.03,4.038,2.343,7.673,5.978,9.373c13.696,6.4,30.592,11.347,49.497,14.286  h40.366V191.144c0,0-38.502,1.879-30.987,0c30.987-7.746,92.96-46.479,56.918-81.782c-7.796-2.242-16.406-3.431-25.931-3.431  C275.596,105.931,257.978,183.769,257.261,280.802z"/>
<path style="fill:#D29B6E;" d="M346.403,335.448h13.401c15.8,0,28.609-12.809,28.609-28.61l0,0c-0.69-1.641-1.181-3.373-1.181-5.225  v-16.501h-68.259v16.495c0,1.852-0.491,3.585-1.181,5.227v0.002C317.793,322.639,330.602,335.448,346.403,335.448z"/>
<path style="fill:#F0C087;" d="M421.052,200.542l-5.024,55.266c-0.82,9.024-6.051,17.058-13.973,21.459l-35.654,19.807  c-8.27,4.595-18.327,4.595-26.598,0l-35.654-19.807c-7.921-4.401-13.152-12.435-13.973-21.459l-4.852-53.367  c-0.376-4.139,2.568-7.822,6.696-8.303c18.284-2.134,66.306-8.826,95.371-22.943c3.676-1.785,7.988-0.345,10.026,3.196  c3.331,5.791,9.481,13.891,19.567,18.695C419.778,194.413,421.332,197.463,421.052,200.542z"/>
<path style="fill:#E6AF78;" d="M285.327,202.441l4.852,53.368c0.82,9.024,6.051,17.057,13.972,21.458l35.654,19.807  c3.263,1.813,6.824,2.7,10.423,3.082L337.61,268.61l-4.842-58.109c-0.327-3.921,2.328-7.427,6.182-8.226  c16.504-3.423,34.162-8.075,48.851-14.27c4.844,6.698,12.1,14.101,22.527,19.066c2.091,0.995,3.083,1.448,9.948,2.013l0.777-8.544  c0.281-3.093-1.299-6.137-4.102-7.476c-10.065-4.806-16.202-12.893-19.53-18.676c-2.038-3.542-6.35-4.982-10.026-3.197  c-29.064,14.116-77.087,20.809-95.371,22.943C287.895,194.618,284.951,198.302,285.327,202.441z"/>
<path style="fill:#FFFFFF;" d="M224.303,256.138l-21.269-35.448v-79.448c0-14.626-11.857-26.483-26.483-26.483H70.621  c-14.626,0-26.483,11.857-26.483,26.483v132.414c0,14.626,11.857,26.483,26.483,26.483h105.931  c14.626,0,26.483-11.857,26.483-26.483v-8.828h16.349C223.843,264.828,226.598,259.962,224.303,256.138z"/>


<path style="fill:#AFB9D2;" d="M110.345,247.172V256c0,7.31,5.931,13.241,13.241,13.241s13.241-5.931,13.241-13.241v-8.828H110.345z  "/>

<path style="fill:#FFF082;" d="M167.724,194.207c0-27.485-25.121-49.102-53.655-43.143c-17.262,3.605-30.962,17.943-33.948,35.325  c-3.106,18.083,4.814,34.558,18.119,43.902c4.631,3.253,7.691,8.282,7.691,13.943v2.938c0,4.875,3.953,8.828,8.828,8.828h17.655  c4.875,0,8.828-3.953,8.828-8.828v-2.987c0-5.54,2.881-10.566,7.436-13.717C160.179,222.51,167.724,209.252,167.724,194.207z"/>
<g>
	<path style="fill:#FF6464;" d="M123.586,203.034c-4.879,0-8.828-3.948-8.828-8.828v-17.655c0-4.879,3.948-8.828,8.828-8.828   c4.879,0,8.828,3.948,8.828,8.828v17.655C132.414,199.086,128.466,203.034,123.586,203.034z"/>
	<path style="fill:#FF6464;" d="M123.672,229.517c-4.879,0-8.871-3.948-8.871-8.828s3.905-8.828,8.785-8.828h0.086   c4.879,0,8.828,3.948,8.828,8.828S128.552,229.517,123.672,229.517z"/>
</g>
<path style="fill:#D5DCED;" d="M395.635,314.21c-4.903-2.04-8.085-6.748-8.314-12.018c-8.09,10.03-20.359,16.551-34.217,16.551  c-13.859,0-26.127-6.521-34.217-16.552c-0.232,5.272-3.414,9.978-8.319,12.021l-3.53,1.47c11.32,12.692,27.763,20.717,46.066,20.717  c18.303,0,34.744-8.026,46.066-20.717L395.635,314.21z"/>
<g>
</g>
<g>
</g>
<g>
</g>
<g>
</g>
<g>
</g>
<g>
</g>
<g>
</g>
<g>
</g>
<g>
</g>
<g>
</g>
<g>
</g>
<g>
</g>
<g>
</g>
<g>
</g>
<g>
</g>
</svg>