<?xml version="1.0" encoding="windows-1252"?>
<!-- Generator: Adobe Illustrator 19.0.0, SVG Export Plug-In . SVG Version: 6.00 Build 0)  -->
<svg version="1.1" id="Layer_1" xmlns="http://www.w3.org/2000/svg" xmlns:xlink="http://www.w3.org/1999/xlink" x="0px" y="0px" viewBox="0 0 512 512" style="enable-background:new 0 0 512 512;" xml:space="preserve">
<rect x="220.69" y="414.897" style="fill:#464655;" width="70.621" height="52.966"/>
<circle style="fill:#707487;" cx="256" cy="211.862" r="211.862"/>
<circle style="fill:#AFB9D2;" cx="256" cy="211.862" r="88.276"/>
<circle style="fill:#464655;" cx="256" cy="211.862" r="61.793"/>
<circle style="fill:#5B5D6E;" cx="256" cy="211.862" r="35.31"/>
<circle style="fill:#9BF57D;" cx="256" cy="61.793" r="17.655"/>
<path style="fill:#707487;" d="M361.931,512H150.069c-4.875,0-8.828-3.953-8.828-8.828V483.77c0-4.138,2.873-7.72,6.913-8.617  l72.535-16.119h70.621l72.535,16.119c4.039,0.897,6.913,4.48,6.913,8.617v19.402C370.759,508.047,366.806,512,361.931,512z"/>
<path style="fill:#D5DCED;" d="M282.483,220.69c-4.879,0-8.828-3.948-8.828-8.828c0-9.732-7.923-17.655-17.655-17.655  c-4.879,0-8.828-3.948-8.828-8.828c0-4.879,3.948-8.828,8.828-8.828c19.474,0,35.31,15.837,35.31,35.31  C291.31,216.742,287.362,220.69,282.483,220.69z"/>
<g>
	<path style="fill:#5B5D6E;" d="M344.276,388.414c-117.009,0-211.862-94.854-211.862-211.862   c0-72.141,36.086-135.822,91.161-174.082C121.96,18.077,44.138,105.88,44.138,211.862c0,117.009,94.854,211.862,211.862,211.862   c44.867,0,86.447-13.985,120.701-37.78C366.13,387.567,355.302,388.414,344.276,388.414z"/>
	<path style="fill:#5B5D6E;" d="M229.517,503.172V483.77c0-4.138,2.1-7.72,5.052-8.618l53.006-16.118H220.69l-72.535,16.119   c-4.039,0.897-6.913,4.48-6.913,8.618v19.401c0,4.875,3.953,8.828,8.828,8.828h85.899C232.405,512,229.517,508.047,229.517,503.172   z"/>
</g>
<g>
</g>
<g>
</g>
<g>
</g>
<g>
</g>
<g>
</g>
<g>
</g>
<g>
</g>
<g>
</g>
<g>
</g>
<g>
</g>
<g>
</g>
<g>
</g>
<g>
</g>
<g>
</g>
<g>
</g>
</svg>