<?xml version="1.0" encoding="windows-1252"?>
<!-- Generator: Adobe Illustrator 19.0.0, SVG Export Plug-In . SVG Version: 6.00 Build 0)  -->
<svg version="1.1" id="Layer_1" xmlns="http://www.w3.org/2000/svg" xmlns:xlink="http://www.w3.org/1999/xlink" x="0px" y="0px" viewBox="0 0 512.001 512.001" style="enable-background:new 0 0 512.001 512.001;" xml:space="preserve">
<path style="fill:#D5DCED;" d="M482.953,359.367c-11.211,14.234-29.534,22.595-49.643,19.62  c-23.193-3.431-41.789-22.677-44.519-45.963c-3.765-32.115,21.229-59.369,52.589-59.369c16.96,0,32.026,7.992,41.711,20.397  c3.022,3.871,7.683,6.086,12.594,6.086h0.072c8.971,0,16.243-7.272,16.243-16.243V150.07c0-14.626-11.857-26.483-26.483-26.483  h-116.17c-8.971,0-16.243-7.272-16.243-16.243v-0.063c0-4.993,2.34-9.654,6.263-12.744c14.234-11.211,22.595-29.534,19.62-49.643  c-3.431-23.193-22.677-41.789-45.963-44.519c-32.115-3.764-59.369,21.23-59.369,52.59c0,16.96,7.992,32.026,20.397,41.711  c3.871,3.022,6.086,7.683,6.086,12.595v0.072c0,8.971-7.272,16.243-16.243,16.243H150.07c-14.626,0-26.483,11.857-26.483,26.483  v133.826c0,8.971-7.272,16.243-16.243,16.243h-0.063c-4.993,0-9.654-2.34-12.744-6.263c-11.211-14.234-29.534-22.595-49.643-19.62  c-23.193,3.431-41.789,22.677-44.519,45.963c-3.764,32.115,21.23,59.369,52.59,59.369c16.96,0,32.026-7.992,41.711-20.397  c3.022-3.872,7.683-6.086,12.595-6.086h0.072c8.971,0,16.243,7.272,16.243,16.243v116.171c0,14.626,11.857,26.483,26.483,26.483  h133.826c8.971,0,16.243-7.272,16.243-16.243v-0.063c0-4.993-2.34-9.654-6.263-12.744c-14.234-11.211-22.595-29.534-19.62-49.643  c3.431-23.193,22.677-41.789,45.963-44.519c32.115-3.764,59.369,21.23,59.369,52.59c0,16.96-7.992,32.026-20.397,41.711  c-3.871,3.022-6.086,7.683-6.086,12.594v0.072c0,8.971,7.272,16.243,16.243,16.243h116.171c14.626,0,26.483-11.857,26.483-26.483  v-116.17c0-8.971-7.272-16.243-16.243-16.243h-0.063C490.702,353.104,486.041,355.445,482.953,359.367z"/>

<g>
</g>
<g>
</g>
<g>
</g>
<g>
</g>
<g>
</g>
<g>
</g>
<g>
</g>
<g>
</g>
<g>
</g>
<g>
</g>
<g>
</g>
<g>
</g>
<g>
</g>
<g>
</g>
<g>
</g>
</svg>