<?xml version="1.0" encoding="windows-1252"?>
<!-- Generator: Adobe Illustrator 19.0.0, SVG Export Plug-In . SVG Version: 6.00 Build 0)  -->
<svg version="1.1" id="Layer_1" xmlns="http://www.w3.org/2000/svg" xmlns:xlink="http://www.w3.org/1999/xlink" x="0px" y="0px" viewBox="0 0 512.001 512.001" style="enable-background:new 0 0 512.001 512.001;" xml:space="preserve">
<path style="fill:#E4EAF8;" d="M370.759,432.553H17.655C7.904,432.553,0,424.649,0,414.897V114.759  c0-9.751,7.904-17.655,17.655-17.655h353.103c9.751,0,17.655,7.904,17.655,17.655v300.138  C388.414,424.649,380.51,432.553,370.759,432.553z"/>
<g>
	<path style="fill:#D5DCED;" d="M388.414,194.208l-127.371,127.37l-22.635,48.505c-2.805,6.012,3.43,12.247,9.441,9.441   l48.504-22.636l92.061-92.06V194.208z"/>
	<path style="fill:#D5DCED;" d="M370.759,97.104H35.31v26.483c0,4.875,3.953,8.828,8.828,8.828h344.276v-17.655   C388.414,105.009,380.51,97.104,370.759,97.104z"/>
</g>
<rect x="317.793" y="97.104" style="fill:#FFF082;" width="35.31" height="35.31"/>
<rect x="282.483" y="97.104" style="fill:#FF5050;" width="35.31" height="35.31"/>
<path style="fill:#A0FFB4;" d="M388.414,132.415h-35.31v-35.31h17.655c9.751,0,17.655,7.904,17.655,17.655V132.415z"/>

<path style="fill:#FFFFFF;" d="M361.931,414.897H26.483c-4.875,0-8.828-3.953-8.828-8.828V158.897c0-4.875,3.953-8.828,8.828-8.828  h335.448c4.875,0,8.828,3.953,8.828,8.828V406.07C370.759,410.945,366.806,414.897,361.931,414.897z"/><path style="fill:#E4EAF8;" d="M370.759,211.863L261.043,321.579l-22.635,48.505c-2.805,6.012,3.43,12.247,9.441,9.441  l48.504-22.636l74.405-74.406V211.863z"/>
<path style="fill:#5B5D6E;" d="M229.565,371.327l42.868-20.004c3.73-1.74,7.126-4.119,10.036-7.029l226.946-226.946  c3.447-3.447,3.447-9.037,0-12.484l-22.826-22.826c-3.447-3.447-9.037-3.447-12.484,0L247.158,308.983  c-2.91,2.91-5.289,6.306-7.029,10.036l-20.004,42.868C217.318,367.897,223.553,374.132,229.565,371.327z"/>
<g>
	<path style="fill:#464655;" d="M471.519,119.93L221.538,369.912c1.96,1.96,5.021,2.817,8.026,1.415l42.868-20.004   c3.73-1.74,7.126-4.119,10.036-7.03l206.707-206.706L471.519,119.93z"/>
	
</g>




<path style="fill:#7F8499;" d="M291.31,335.449L256,300.139l-8.843,8.843c-2.91,2.91-5.289,6.306-7.029,10.036l-20.004,42.867  c-2.805,6.012,3.43,12.246,9.441,9.441l42.867-20.004c3.73-1.74,7.126-4.119,10.036-7.03L291.31,335.449z"/>
<path style="fill:#707487;" d="M273.655,317.794l-52.117,52.117c1.96,1.96,5.021,2.817,8.026,1.415l42.868-20.004  c3.73-1.74,7.126-4.119,10.036-7.03l8.842-8.842L273.655,317.794z"/>
<path style="fill:#7F8499;" d="M486.589,82.034c-3.448-3.448-9.036-3.448-12.484,0l-20.241,20.241l35.31,35.31l20.241-20.241  c3.448-3.448,3.448-9.037,0-12.484L486.589,82.034z"/>
<path style="fill:#707487;" d="M509.415,104.86l-11.413-11.413l-26.483,26.483l17.655,17.655l20.241-20.241  C512.862,113.898,512.862,108.308,509.415,104.86z"/>
<g>
</g>
<g>
</g>
<g>
</g>
<g>
</g>
<g>
</g>
<g>
</g>
<g>
</g>
<g>
</g>
<g>
</g>
<g>
</g>
<g>
</g>
<g>
</g>
<g>
</g>
<g>
</g>
<g>
</g>
</svg>