<?xml version="1.0" encoding="windows-1252"?>
<!-- Generator: Adobe Illustrator 19.0.0, SVG Export Plug-In . SVG Version: 6.00 Build 0)  -->
<svg version="1.1" id="Layer_1" xmlns="http://www.w3.org/2000/svg" xmlns:xlink="http://www.w3.org/1999/xlink" x="0px" y="0px" viewBox="0 0 512 512" style="enable-background:new 0 0 512 512;" xml:space="preserve">
<path style="fill:#E4EAF8;" d="M97.103,17.655C97.103,7.904,105.007,0,114.759,0h264.828l88.276,88.276v406.069  c0,9.751-7.904,17.655-17.655,17.655H114.759c-9.751,0-17.655-7.904-17.655-17.655V17.655z"/>
<g>
	
	
<path style="fill:#D5DCED;" d="M379.586,0v70.621c0,9.75,7.905,17.655,17.655,17.655h70.621L379.586,0z"/></g>

<g>
	
	
	
</g>
<g>
	<path style="fill:#9BF57D;" d="M194.207,256h35.31c4.875,0,8.828-3.953,8.828-8.828v-8.828c0-4.875-3.953-8.828-8.828-8.828h-35.31   c-4.875,0-8.828,3.953-8.828,8.828v8.828C185.379,252.047,189.332,256,194.207,256z"/>
	<path style="fill:#9BF57D;" d="M194.207,211.862h35.31c4.875,0,8.828-3.953,8.828-8.828v-8.828c0-4.875-3.953-8.828-8.828-8.828   h-35.31c-4.875,0-8.828,3.953-8.828,8.828v8.828C185.379,207.91,189.332,211.862,194.207,211.862z"/>
</g>
<path style="fill:#7DC86E;" d="M194.207,167.724h35.31c4.875,0,8.828-3.953,8.828-8.828v-8.828c0-4.875-3.953-8.828-8.828-8.828  h-35.31c-4.875,0-8.828,3.953-8.828,8.828v8.828C185.379,163.772,189.332,167.724,194.207,167.724z"/>
<g>
	<path style="fill:#AFB9D2;" d="M264.828,256h35.31c4.875,0,8.828-3.953,8.828-8.828v-8.828c0-4.875-3.953-8.828-8.828-8.828h-35.31   c-4.875,0-8.828,3.953-8.828,8.828v8.828C256,252.047,259.953,256,264.828,256z"/>
	<path style="fill:#AFB9D2;" d="M264.828,211.862h35.31c4.875,0,8.828-3.953,8.828-8.828v-8.828c0-4.875-3.953-8.828-8.828-8.828   h-35.31c-4.875,0-8.828,3.953-8.828,8.828v8.828C256,207.91,259.953,211.862,264.828,211.862z"/>
</g>
<path style="fill:#7DC86E;" d="M264.828,167.724h35.31c4.875,0,8.828-3.953,8.828-8.828v-8.828c0-4.875-3.953-8.828-8.828-8.828  h-35.31c-4.875,0-8.828,3.953-8.828,8.828v8.828C256,163.772,259.953,167.724,264.828,167.724z"/>
<g>
	<path style="fill:#AFB9D2;" d="M335.448,256h35.31c4.875,0,8.828-3.953,8.828-8.828v-8.828c0-4.875-3.953-8.828-8.828-8.828h-35.31   c-4.875,0-8.828,3.953-8.828,8.828v8.828C326.621,252.047,330.573,256,335.448,256z"/>
	<path style="fill:#AFB9D2;" d="M335.448,211.862h35.31c4.875,0,8.828-3.953,8.828-8.828v-8.828c0-4.875-3.953-8.828-8.828-8.828   h-35.31c-4.875,0-8.828,3.953-8.828,8.828v8.828C326.621,207.91,330.573,211.862,335.448,211.862z"/>
</g>
<path style="fill:#7DC86E;" d="M335.448,167.724h35.31c4.875,0,8.828-3.953,8.828-8.828v-8.828c0-4.875-3.953-8.828-8.828-8.828  h-35.31c-4.875,0-8.828,3.953-8.828,8.828v8.828C326.621,163.772,330.573,167.724,335.448,167.724z"/>
<g>
</g>
<g>
</g>
<g>
</g>
<g>
</g>
<g>
</g>
<g>
</g>
<g>
</g>
<g>
</g>
<g>
</g>
<g>
</g>
<g>
</g>
<g>
</g>
<g>
</g>
<g>
</g>
<g>
</g>
</svg>