<?xml version="1.0" encoding="windows-1252"?>
<!-- Generator: Adobe Illustrator 19.0.0, SVG Export Plug-In . SVG Version: 6.00 Build 0)  -->
<svg version="1.1" id="Layer_1" xmlns="http://www.w3.org/2000/svg" xmlns:xlink="http://www.w3.org/1999/xlink" x="0px" y="0px" viewBox="0 0 512 512" style="enable-background:new 0 0 512 512;" xml:space="preserve">
<path style="fill:#00C3FF;" d="M485.517,300.138H238.345c-14.626,0-26.483-11.857-26.483-26.483V97.103  c0-14.626,11.857-26.483,26.483-26.483h247.172c14.626,0,26.483,11.857,26.483,26.483v176.552  C512,288.281,500.143,300.138,485.517,300.138z"/>

<circle style="fill:#80DAC0;" cx="445.793" cy="136.828" r="39.724"/>
<path style="fill:#8CE16E;" d="M303.794,144.897c-6.894-6.894-18.073-6.894-24.968,0l-66.964,66.965v61.793  c0,14.626,11.857,26.483,26.483,26.483h220.69L303.794,144.897z"/>

<path style="fill:#9BF57D;" d="M485.517,300.138c11.97,0,21.965-7.992,25.246-18.893L409.726,180.207  c-6.894-6.894-18.073-6.894-24.968,0l-119.93,119.93H485.517z"/>

<circle style="fill:#FFF082;" cx="445.793" cy="136.828" r="22.069"/>

<g>
	
	
</g>
<g>
</g>
<g>
</g>
<g>
</g>
<g>
</g>
<g>
</g>
<g>
</g>
<g>
</g>
<g>
</g>
<g>
</g>
<g>
</g>
<g>
</g>
<g>
</g>
<g>
</g>
<g>
</g>
<g>
</g>
</svg>