<svg xmlns="http://www.w3.org/2000/svg" width="182.854" height="182.645" viewBox="0 0 182.854 182.645">
  <g id="barbell" transform="translate(0 -26.294)">
    <path id="Path_31" data-name="Path 31" d="M4.911,162.453l9.837-9.841-9.717-9.717a10.917,10.917,0,0,1,0-15.435L8.189,124.3a10.917,10.917,0,0,1,15.435,0l25.5,25.5L124.04,74.934,100.077,49.325c-4.261-4.261-6.171-10.536-1.911-14.8l3.158-3.158a10.917,10.917,0,0,1,15.435,0l9.717,9.717,9.841-9.837a10.914,10.914,0,0,1,15.439,0l8.056,8.052,10.94-10.935a7.087,7.087,0,0,1,10.018,10.027l-10.94,10.931,8.061,8.061c4.265,4.265,3.337,11.21-.928,15.475l-9.677,9.493,10.485,10.03a10.229,10.229,0,0,1,0,14.854l-3.942,3.041c-4.261,4.261-9.656,4.261-13.917,0L134.109,85.118l-74.969,74.7,25.5,25.5a10.917,10.917,0,0,1,0,15.435l-3.158,3.158a10.917,10.917,0,0,1-15.435,0l-9.722-9.722-9.837,9.841a10.914,10.914,0,0,1-15.439,0l-8.056-8.056C9.438,209.524,36.8,182.151,12.1,206.862A7.087,7.087,0,0,1,2.072,196.844l10.891-10.9c.045,0,.091.086-8.052-8.056a10.914,10.914,0,0,1,0-15.439Z" transform="translate(0 0)" fill="#4d4e59"/>
    <g id="Group_10" data-name="Group 10" transform="translate(1.713 1.888)">
      <path id="Path_32" data-name="Path 32" d="M7.065,369.85a10.914,10.914,0,0,1,0-15.439l9.839-9.839,41.575,41.574-9.839,9.839a10.914,10.914,0,0,1-15.439,0L7.065,369.85Z" transform="translate(-3.866 -193.846)" fill="#aaa"/>
      <path id="Path_33" data-name="Path 33" d="M7.339,295.22a10.917,10.917,0,0,1,0-15.435l3.158-3.158a10.917,10.917,0,0,1,15.435,0l61.013,61.013a10.917,10.917,0,0,1,0,15.435l-3.158,3.158a10.917,10.917,0,0,1-15.435,0Z" transform="translate(-4.021 -154.214)" fill="#aaa"/>
      <path id="Path_34" data-name="Path 34" d="M276.519,26.04a10.917,10.917,0,0,1,0-15.435l3.158-3.158a10.917,10.917,0,0,1,15.435,0l61.013,61.013a10.917,10.917,0,0,1,0,15.435l-3.158,3.158a10.917,10.917,0,0,1-15.435,0L276.519,26.04Z" transform="translate(-179.983 21.748)" fill="#aaa"/>
    </g>
    <path id="Path_35" data-name="Path 35" d="M395.877,33.309a10.914,10.914,0,0,1,0,15.439l-9.839,9.839L344.464,17.012,354.3,7.173a10.914,10.914,0,0,1,15.439,0l26.135,26.135Z" transform="translate(-217.903 23.79)" fill="#999"/>
    <path id="Path_36" data-name="Path 36" d="M79.762,358.783a10.906,10.906,0,0,1-11.409-2.551L7.339,295.219a10.917,10.917,0,0,1,0-15.435l3.158-3.158a10.917,10.917,0,0,1,15.435,0L27.81,278.5c-2.792.993-3.9,2.425-7.184,5.709a10.917,10.917,0,0,0,0,15.435Z" transform="translate(-2.309 -152.325)" fill="#b2b2b2"/>
    <path id="Path_37" data-name="Path 37" d="M348.942,89.605a10.906,10.906,0,0,1-11.409-2.551L276.519,26.041a10.917,10.917,0,0,1,0-15.435l3.158-3.158a10.917,10.917,0,0,1,15.435,0l1.878,1.878c-2.792.993-3.9,2.425-7.184,5.709a10.917,10.917,0,0,0,0,15.435Z" transform="translate(-178.27 23.635)" fill="#b2b2b2"/>
    <path id="Path_38" data-name="Path 38" d="M45.349,398.25A10.92,10.92,0,0,1,33.2,395.987L7.065,369.852a10.914,10.914,0,0,1,0-15.439l9.841-9.837L21.335,349l-5.412,5.408a10.914,10.914,0,0,0,0,15.439C44.147,398.076,42.818,397.135,45.349,398.25Z" transform="translate(-2.154 -191.961)" fill="#b2b2b2"/>
  </g>
</svg>
