<?xml version="1.0"?>
<svg xmlns="http://www.w3.org/2000/svg" id="Layer_1" enable-background="new 0 0 471.754 471.754" height="512px" viewBox="0 0 471.754 471.754" width="512px" class=""><g><path d="m11.089 366.788 22.21-22.22-21.94-21.94c-9.62-9.62-9.62-25.23 0-34.85l7.13-7.13c9.62-9.62 25.23-9.62 34.85 0l57.57 57.57 227.2-227.2-57.57-57.57c-9.62-9.62-9.62-25.23 0-34.85l7.13-7.13c9.62-9.62 25.23-9.62 34.85 0l21.94 21.94 22.22-22.21c9.63-9.63 25.23-9.63 34.86 0l18.19 18.18 24.7-24.69c3.12-3.12 7.22-4.68 11.31-4.68 14.161 0 21.401 17.229 11.31 27.32-.003.003-24.697 24.677-24.7 24.68l18.2 18.2c9.63 9.63 9.63 25.23 0 34.86l-22.22 22.21 21.95 21.95c9.62 9.62 9.62 25.23 0 34.85l-7.13 7.13c-9.62 9.62-25.23 9.62-34.85 0l-57.57-57.57-227.2 227.2 57.57 57.57c9.62 9.62 9.62 25.229 0 34.85l-7.13 7.13c-9.62 9.62-25.23 9.62-34.85 0l-21.95-21.95-22.21 22.22c-9.63 9.63-25.23 9.63-34.86 0l-18.19-18.19c-30.6 30.6 31.183-31.205-24.59 24.59-6.25 6.25-16.38 6.25-22.63.01-6.25-6.25-6.25-16.38-.01-22.63l24.59-24.6c.102 0 .205.195-18.18-18.19-9.63-9.631-9.63-25.231 0-34.86z" fill="#4d4e59" data-original="#4D4E59" class=""/><g fill="#aaa"><path d="m11.089 401.647c-9.63-9.63-9.63-25.23 0-34.86l22.215-22.215 93.87 93.87-22.215 22.215c-9.63 9.63-25.23 9.63-34.86 0-6.257-6.256-52.777-52.777-59.01-59.01z" data-original="#AAA" class=""/><path d="m11.359 322.627c-9.62-9.62-9.62-25.23 0-34.85l7.13-7.13c9.62-9.62 25.23-9.62 34.85 0l137.76 137.76c9.62 9.62 9.62 25.23 0 34.85l-7.13 7.13c-9.62 9.62-25.23 9.62-34.85 0z" data-original="#AAA" class=""/><path d="m280.539 53.447c-9.62-9.62-9.62-25.23 0-34.85l7.13-7.13c9.62-9.62 25.23-9.62 34.85 0l137.76 137.76c9.62 9.62 9.62 25.23 0 34.85l-7.13 7.13c-9.62 9.62-25.23 9.62-34.85 0-6.055-6.054-131.72-131.719-137.76-137.76z" data-original="#AAA" class=""/></g><path d="m460.549 70.207c9.63 9.63 9.63 25.23 0 34.86l-22.215 22.215-93.87-93.87 22.215-22.215c9.63-9.63 25.23-9.63 34.86 0 6.25 6.25 52.76 52.761 59.01 59.01z" fill="#999" data-original="#999" class=""/><path d="m174.879 466.146c-8.7 3.13-18.8 1.2-25.76-5.76l-137.76-137.76c-9.62-9.62-9.62-25.23 0-34.85l7.13-7.13c9.62-9.62 25.23-9.62 34.85 0l4.24 4.24c-6.304 2.241-8.804 5.475-16.22 12.89-9.62 9.62-9.62 25.23 0 34.85z" fill="#b2b2b2" data-original="#B2B2B2" class="active-path"/><path d="m444.059 196.968c-8.7 3.13-18.8 1.2-25.76-5.76l-137.76-137.76c-9.62-9.62-9.62-25.23 0-34.85l7.13-7.13c9.62-9.62 25.23-9.62 34.85 0l4.24 4.24c-6.304 2.241-8.804 5.475-16.22 12.89-9.62 9.62-9.62 25.23 0 34.85z" fill="#b2b2b2" data-original="#B2B2B2" class="active-path"/><path d="m97.529 465.766c-9.05 4.01-20.01 2.31-27.43-5.11l-59.01-59.01c-9.63-9.63-9.63-25.23 0-34.86l22.22-22.21 10 10-12.22 12.21c-9.63 9.63-9.63 25.23 0 34.86 63.725 63.726 60.726 61.602 66.44 64.12z" fill="#b2b2b2" data-original="#B2B2B2" class="active-path"/></g> </svg>
