<svg xmlns="http://www.w3.org/2000/svg" width="423.721" height="406.092" viewBox="0 0 423.721 406.092">
  <g id="chemistry" transform="translate(-52.966)">
    <path id="Path_160" data-name="Path 160" d="M317.793,406.069H467.859a8.828,8.828,0,0,0,8.828-8.831l-.006-12.051a88.594,88.594,0,0,0-47.105-43.616,8.951,8.951,0,0,1-5.85-8.27V211.862H370.759V333.3a8.955,8.955,0,0,1-5.85,8.27A88.594,88.594,0,0,0,317.8,385.187" fill="#e4eaf8"/>
    <path id="Path_161" data-name="Path 161" d="M423.724,211.862H370.758V333.3a8.953,8.953,0,0,1-5.85,8.269A88.6,88.6,0,0,0,317.8,385.186l-.009,20.883h44.138s0-44.138,31.41-64.5c2.25-1.459,3.9-4.548,3.9-8.269V247.172a8.829,8.829,0,0,1,8.828-8.828h17.655V211.862Z" fill="#d5dced"/>
    <path id="Path_162" data-name="Path 162" d="M423.724,220.69H370.758a8.828,8.828,0,0,1,0-17.656h52.966a8.828,8.828,0,0,1,0,17.656Z" fill="#e4eaf8"/>
    <path id="Path_163" data-name="Path 163" d="M328.936,406.069H465.548a70.448,70.448,0,0,0-19.1-32.9,8.808,8.808,0,0,0-6.15-2.411H354.184a8.808,8.808,0,0,0-6.15,2.411A70.444,70.444,0,0,0,328.936,406.069Z" fill="#00c3ff"/>
    <path id="Path_164" data-name="Path 164" d="M354.184,370.759a8.808,8.808,0,0,0-6.15,2.411,70.448,70.448,0,0,0-19.1,32.9h33a99.709,99.709,0,0,1,7.747-35.31Z" fill="#00aaf0"/>
    <path id="Path_165" data-name="Path 165" d="M211.862,406.069,163.146,349.22a17.654,17.654,0,0,1-4.249-11.488V176.552H105.931v161.18a17.652,17.652,0,0,1-4.249,11.488L52.966,406.07h158.9Z" fill="#e4eaf8"/>
    <path id="Path_166" data-name="Path 166" d="M137.107,353.1h-9.386a8.827,8.827,0,0,0-6.782,3.177L79.448,406.069H185.379L143.888,356.28A8.83,8.83,0,0,0,137.107,353.1Z" fill="#9bf57d"/>
    <path id="Path_167" data-name="Path 167" d="M97.1,406.069l35.185-56.849a22.065,22.065,0,0,0,3.069-11.488V211.862a8.829,8.829,0,0,1,8.828-8.828H158.9V176.551H105.931V337.732a17.654,17.654,0,0,1-4.249,11.488L52.966,406.069H97.1Z" fill="#d5dced"/>
    <path id="Path_168" data-name="Path 168" d="M158.9,185.379H105.931a8.828,8.828,0,0,1,0-17.656H158.9a8.828,8.828,0,0,1,0,17.656Z" fill="#e4eaf8"/>
    <g id="Group_26" data-name="Group 26">
      <path id="Path_170" data-name="Path 170" d="M293.536,254.791a17.747,17.747,0,0,1-11.053-16.314V70.621H229.517V238.469a17.8,17.8,0,0,1-11.1,16.343,96.837,96.837,0,0,0-37.174,151.28l149.662-.02a97.038,97.038,0,0,0-37.368-151.281Z" fill="#e4eaf8"/>
      <path id="Path_171" data-name="Path 171" d="M264.914,17.655A8.828,8.828,0,1,1,264.828,0h.086a8.828,8.828,0,1,1,0,17.655Z" fill="#e4eaf8"/>
      <path id="Path_172" data-name="Path 172" d="M238.431,44.138a8.828,8.828,0,0,1-.086-17.656h.086a8.828,8.828,0,1,1,0,17.656Z" fill="#e4eaf8"/>
    </g>
    <path id="Path_173" data-name="Path 173" d="M229.517,70.621V238.468a17.793,17.793,0,0,1-11.1,16.343,96.837,96.837,0,0,0-37.174,151.28l44.836-.006c-7.54-14.279-12.547-31.931-13.853-51.112-3.05-44.8,13.322-84.194,37.512-100.163,4.231-2.794,7.063-9.131,7.063-16.343V105.931a8.829,8.829,0,0,1,8.828-8.828h16.854V70.621Z" fill="#d5dced"/>
    <path id="Path_174" data-name="Path 174" d="M282.483,79.448H229.517a8.828,8.828,0,1,1,0-17.656h52.966a8.828,8.828,0,1,1,0,17.656Z" fill="#e4eaf8"/>
    <path id="Path_175" data-name="Path 175" d="M176.552,344.276a79.257,79.257,0,0,0,29.564,61.793h99.77a79.263,79.263,0,0,0,29.563-61.793,78.263,78.263,0,0,0-2.688-20.269,8.652,8.652,0,0,0-8.437-6.214H187.677a8.652,8.652,0,0,0-8.437,6.214A78.219,78.219,0,0,0,176.552,344.276Z" fill="#ff5050"/>
    <path id="Path_176" data-name="Path 176" d="M187.677,317.793a8.652,8.652,0,0,0-8.437,6.214,78.267,78.267,0,0,0-2.688,20.269,79.257,79.257,0,0,0,29.564,61.793h19.957c-7.537-14.275-12.54-31.921-13.844-51.094a151.64,151.64,0,0,1,2.014-37.182Z" fill="#c84146"/>
    <g id="Group_27" data-name="Group 27">
      <path id="Path_177" data-name="Path 177" d="M308.966,361.931a8.828,8.828,0,0,1-.086-17.656h.086a8.828,8.828,0,0,1,0,17.656Z" fill="#ff6464"/>
      <path id="Path_178" data-name="Path 178" d="M256.086,379.586A8.828,8.828,0,0,1,256,361.93h.086a8.828,8.828,0,0,1,0,17.656Z" fill="#ff6464"/>
      <path id="Path_179" data-name="Path 179" d="M211.948,361.931a8.828,8.828,0,0,1-.086-17.656h.086a8.828,8.828,0,0,1,0,17.656Z" fill="#ff6464"/>
    </g>
    <path id="Path_180" data-name="Path 180" d="M213.02,361.715c-.26-2.25-.637-4.444-.792-6.74-.246-3.609-.333-7.171-.328-10.7h-.038a8.828,8.828,0,0,0,.086,17.656A8.554,8.554,0,0,0,213.02,361.715Z" fill="#ff5050"/>
    <path id="Path_181" data-name="Path 181" d="M79.448,406.069H97.1L129.884,353.1h-2.163a8.828,8.828,0,0,0-6.782,3.176Z" fill="#8ce16e"/>
  </g>
</svg>
