<svg xmlns="http://www.w3.org/2000/svg" width="248.377" height="220.667" viewBox="0 0 248.377 220.667">
  <g id="Group_774" data-name="Group 774" transform="translate(-3897.576 7291.327)">
    <path id="Path_433" data-name="Path 433" d="M371.318,168.54a8.871,8.871,0,0,0,8.871-8.87V148.18a8.87,8.87,0,0,0-5.887-8.354L261.967,99.707a17.742,17.742,0,0,0-11.934,0L137.7,139.826a8.871,8.871,0,0,0-5.887,8.354v11.49a8.871,8.871,0,0,0,8.871,8.87h8.871V283.857h-8.871a8.871,8.871,0,0,0-8.87,8.871v17.741a8.871,8.871,0,0,0,8.87,8.871H371.316a8.871,8.871,0,0,0,8.871-8.871V292.728a8.871,8.871,0,0,0-8.871-8.871h-8.87V168.54Z" transform="translate(3765.764 -7390)" fill="#afb9d2"/>
    <g id="Group_67" data-name="Group 67" transform="translate(3765.764 -7385)">
      <rect id="Rectangle_16" data-name="Rectangle 16" width="212.892" height="17.741" transform="translate(149.557 168.54)" fill="#959cb5"/>
      <rect id="Rectangle_17" data-name="Rectangle 17" width="212.892" height="17.741" transform="translate(149.557 266.115)" fill="#959cb5"/>
    </g>
    <g id="Group_68" data-name="Group 68" transform="translate(3765.764 -7385)">
      <rect id="Rectangle_18" data-name="Rectangle 18" width="19.959" height="115.317" transform="translate(269.309 168.54)" fill="#707487"/>
      <rect id="Rectangle_19" data-name="Rectangle 19" width="19.959" height="115.317" transform="translate(222.739 168.54)" fill="#707487"/>
      <rect id="Rectangle_20" data-name="Rectangle 20" width="19.959" height="115.317" transform="translate(176.169 168.54)" fill="#707487"/>
      <rect id="Rectangle_21" data-name="Rectangle 21" width="19.959" height="115.317" transform="translate(315.879 168.54)" fill="#707487"/>
    </g>
    <g id="Group_69" data-name="Group 69" transform="translate(3765.764 -7385)">
      <rect id="Rectangle_22" data-name="Rectangle 22" width="19.959" height="17.741" transform="translate(269.309 168.54)" fill="#5b5d6e"/>
      <rect id="Rectangle_23" data-name="Rectangle 23" width="19.959" height="17.741" transform="translate(222.739 168.54)" fill="#5b5d6e"/>
      <rect id="Rectangle_24" data-name="Rectangle 24" width="19.959" height="17.741" transform="translate(176.169 168.54)" fill="#5b5d6e"/>
      <rect id="Rectangle_25" data-name="Rectangle 25" width="19.959" height="17.741" transform="translate(315.879 168.54)" fill="#5b5d6e"/>
    </g>
  </g>
</svg>
