<?xml version="1.0" encoding="windows-1252"?>
<!-- Generator: Adobe Illustrator 19.0.0, SVG Export Plug-In . SVG Version: 6.00 Build 0)  -->
<svg version="1.1" id="Layer_1" xmlns="http://www.w3.org/2000/svg" xmlns:xlink="http://www.w3.org/1999/xlink" x="0px" y="0px" viewBox="0 0 512 512" style="enable-background:new 0 0 512 512;" xml:space="preserve">
<path style="fill:#00C3FF;" d="M27.429,365.714c-10.099,0-18.286-8.186-18.286-18.286V18.286C9.143,8.186,17.329,0,27.429,0h457.143  c10.099,0,18.286,8.186,18.286,18.286v329.143c0,10.099-8.186,18.286-18.286,18.286H27.429z"/>

<g>
	<path style="fill:#9BF57D;" d="M219.429,146.286c-5.054,0-9.143-4.089-9.143-9.143V128c0-5.054,4.089-9.143,9.143-9.143   c5.054,0,9.143,4.089,9.143,9.143v9.143C228.571,142.197,224.482,146.286,219.429,146.286z"/>
	<path style="fill:#9BF57D;" d="M73.143,64H54.857c-5.054,0-9.143-4.089-9.143-9.143s4.089-9.143,9.143-9.143h18.286   c5.054,0,9.143,4.089,9.143,9.143S78.197,64,73.143,64z"/>
	<path style="fill:#9BF57D;" d="M320,274.286c-5.054,0-9.143-4.089-9.143-9.143V256c0-5.054,4.089-9.143,9.143-9.143   s9.143,4.089,9.143,9.143v9.143C329.143,270.197,325.054,274.286,320,274.286z"/>
	<path style="fill:#9BF57D;" d="M438.857,246.857l-23.358,15.571c-2.544,1.696-4.071,4.551-4.071,7.607v4.25   c0,5.049,4.094,9.143,9.143,9.143h18.286c5.049,0,9.143,4.094,9.143,9.143l0,0h18.286c5.049,0,9.143-4.094,9.143-9.143v-5.355   c0-2.425-0.963-4.751-2.678-6.465L448,246.857H438.857z"/>
	<path style="fill:#9BF57D;" d="M402.286,246.857h-9.143c-1.419,0-2.822-0.33-4.089-0.965l-18.286-9.143   c-4.518-2.259-6.349-7.75-4.089-12.267c2.267-4.518,7.75-6.33,12.267-4.089l16.358,8.178h6.982c5.054,0,9.143,4.089,9.143,9.143   S407.339,246.857,402.286,246.857z"/>
	<path style="fill:#9BF57D;" d="M429.714,228.571c-5.054,0-9.143-4.089-9.143-9.143v-9.143c0-5.054,4.089-9.143,9.143-9.143   s9.143,4.089,9.143,9.143v9.143C438.857,224.482,434.768,228.571,429.714,228.571z"/>
	<path style="fill:#9BF57D;" d="M310.857,64c-2.339,0-4.679-0.893-6.464-2.679c-3.571-3.571-3.571-9.358,0-12.929l9.143-9.143   c3.571-3.571,9.358-3.571,12.929,0c3.571,3.571,3.571,9.358,0,12.929l-9.143,9.143C315.536,63.107,313.197,64,310.857,64z"/>
	<path style="fill:#9BF57D;" d="M137.143,91.429c-2.339,0-4.679-0.893-6.464-2.679l-9.143-9.143c-3.571-3.571-3.571-9.358,0-12.929   c3.571-3.571,9.358-3.571,12.929,0l9.143,9.143c3.571,3.571,3.571,9.358,0,12.929C141.822,90.536,139.482,91.429,137.143,91.429z"/>
</g>

<g>
	
	
	
	
</g>
<g>
	<circle style="fill:#9BF57D;" cx="100.571" cy="45.714" r="9.143"/>
	<path style="fill:#9BF57D;" d="M137.143,210.286c0-5.049-4.094-9.143-9.143-9.143H91.429V192c0-5.049,4.094-9.143,9.143-9.143   h18.286l31.215-31.216c3.43-3.43,5.357-8.081,5.357-12.93V128c0-5.049-4.094-9.143-9.143-9.143H128v4.571   c0,7.574-6.141,13.714-13.714,13.714s-13.714-6.141-13.714-13.714v-32v-9.143c0-5.049-4.094-9.143-9.143-9.143   s-9.143,4.094-9.143,9.143H9.143v36.571h14.249c7.871,0,14.858,5.037,17.347,12.503l27.747,67.584   c2.816,6.862,9.498,11.342,16.915,11.342h24.312c5.049,0,9.143,4.094,9.143,9.143v28.757c0,3.822,2.185,7.544,5.809,8.757   c7.25,2.427,12.477,9.275,12.477,17.344v51.582c0,3.382,4.483,4.573,6.161,1.637l30.41-53.218v-45.714L137.143,210.286z"/>
</g>

<path style="fill:#9BF57D;" d="M451.786,82.286c-2.425,0-4.75-0.963-6.464-2.678l-12.93-12.929c-1.714-1.714-4.04-2.678-6.465-2.678  h-23.641c-5.049,0-9.143-4.094-9.143-9.143v-9.143h-18.286l-91.909,50.133c-1.048-5.31-4.282-9.979-9.171-12.597  c-5.974-3.206-13.161-2.848-18.777,0.902l-13.215,8.813c-4.206,2.803-5.339,8.482-2.536,12.679  c2.794,4.197,8.482,5.321,12.679,2.536l13.215-8.815v19.491c-15.125,0-27.429,12.304-27.429,27.429v7.134  c-4.699,4.238-7.874,10.035-8.77,16.606c-0.245,1.191-0.373,2.425-0.373,3.689v9.143c-5.049,0-9.143,4.094-9.143,9.143v36.571  h18.286c10.098,0,18.286,8.186,18.286,18.286v27.429c0,5.049,4.094,9.143,9.143,9.143c15.149,0,27.429-12.28,27.429-27.429v-18.286  L320,192h27.429v13.249c0,5.233,6.326,7.853,10.026,4.153L374.857,192l10.4,10.4c4.08,4.08,10.872,3.407,14.072-1.393l12.099-18.15  c0-9.975,7.986-18.083,17.913-18.282c10.133-0.202,18.658-7.425,18.658-17.56v-9.872c0-5.049,4.094-9.143,9.143-9.143h17.206  l-7.098,14.197c-2.259,4.518-0.429,10.009,4.089,12.267c1.312,0.651,2.705,0.965,4.08,0.965c3.358,0,6.581-1.848,8.187-5.054  L494.794,128h8.063V82.286H451.786z M283.429,173.714c0,5.049-4.094,9.143-9.143,9.143h-27.429v-9.143  c0-5.049,4.094-9.143,9.143-9.143h18.286C279.335,164.571,283.429,168.665,283.429,173.714L283.429,173.714z"/>

<g>
</g>
<g>
</g>
<g>
</g>
<g>
</g>
<g>
</g>
<g>
</g>
<g>
</g>
<g>
</g>
<g>
</g>
<g>
</g>
<g>
</g>
<g>
</g>
<g>
</g>
<g>
</g>
<g>
</g>
</svg>