<svg xmlns="http://www.w3.org/2000/svg" width="347.042" height="398.098" viewBox="0 0 347.042 398.098">
  <g id="geografia4" transform="translate(-7074 7378.53)">
    <g id="earth-globe" transform="translate(7013.206 -7371)">
      <circle id="Ellipse_24" data-name="Ellipse 24" cx="173.496" cy="173.496" r="173.496" transform="translate(60.844 43.559)" fill="#59d8ff"/>
      <path id="Path_316" data-name="Path 316" d="M271.994,325.252A173.211,173.211,0,0,1,213.282,44.934a173.431,173.431,0,0,0-45.341,332.413c67.962,28.151,143.451,9.785,191.5-40.261A172.551,172.551,0,0,1,271.994,325.252Z" fill="#00c3f0"/>
      <g id="Group_51" data-name="Group 51">
        <path id="Path_318" data-name="Path 318" d="M338.434,147.658a8.676,8.676,0,0,1-6.133-14.809l8.675-8.675a8.674,8.674,0,0,1,12.267,12.267l-8.675,8.675A8.648,8.648,0,0,1,338.434,147.658Z" fill="#b4ff87"/>
        <path id="Path_319" data-name="Path 319" d="M264.823,96.789l19.534,1.878,2.521-7.11L248.965,78.11a9.948,9.948,0,0,0-6.116-.172L220.2,84.558a5.244,5.244,0,0,1-6.392-6.847l1.766-4.8a6.188,6.188,0,0,0-3.739-7.972l-.937-.332a23.933,23.933,0,0,0-18.29.95L187.7,67.9a5.982,5.982,0,0,1-7.974-2.828L174.5,54.411a173.522,173.522,0,0,0-64.556,41.842l-.362,33.539A15.088,15.088,0,0,0,119.625,144.3l1.939.687v14.277a34.693,34.693,0,0,0,16.308,29.423l24.813,15.508-6.97,8.934-5.043,14.221a15.087,15.087,0,0,0,1.654,13.393l12.525,18.85a15.09,15.09,0,0,1,1.654,13.393l-6.723,18.956a59.84,59.84,0,0,0-3.335,23.566l1.3,21.793a7.3,7.3,0,0,0,4.7,6.391l.044.016a7.3,7.3,0,0,0,9.465-4.386l7.507-21.168,14.428-3.641a17.953,17.953,0,0,0,10.322-7.122l8.714-12.469a7.543,7.543,0,0,1,8.47-2.469l3.544,1.257a7.543,7.543,0,0,0,8.808-2.939l8.321-12.542a17.948,17.948,0,0,0,1.248-17.643l-1.607-3.375a17.954,17.954,0,0,0-10.206-9.2l-2.542-.9a11.963,11.963,0,0,1-6.8-6.131L211.27,218.114c-2.956-5.4-19.517-16.219-19.517-16.219L153.62,178.064a8.409,8.409,0,0,1-3.476-9.925h0a17.992,17.992,0,0,1,22.931-10.958l3.5,1.242-2.654,5.551a8.678,8.678,0,0,0,15.657,7.488l8.2-17.148,50.406-26.6a5.982,5.982,0,0,1,4.573-.237l8.506,3.017a5.981,5.981,0,0,0,6.029-1.216l2.7-2.46a5.982,5.982,0,0,0,.751-8.021l-10.462-13.9A5.076,5.076,0,0,1,264.823,96.789Z" fill="#b4ff87"/>
        <path id="Path_320" data-name="Path 320" d="M394.626,283.45a172.864,172.864,0,0,0,12.765-56.1l-10.918-3.628a17.952,17.952,0,0,0-10.391-.487l-5,1.262a17.35,17.35,0,0,1-17.631-5.784l-8.884-10.774a35.9,35.9,0,0,0-15.7-10.995l-13.009-4.614a17.948,17.948,0,0,0-19.478,5.063l-8.857,10.073a34.557,34.557,0,0,0-2.832,41.944l.619.933a34.564,34.564,0,0,0,17.23,13.444l.422.15a17.949,17.949,0,0,1,10.917,22.917l-6.715,18.935a47.843,47.843,0,0,0-2.656,19.064l1.524,23.739c.353,5.511,5.451,11.723,10.534,15.263A172.554,172.554,0,0,0,394.626,283.45Z" fill="#b4ff87"/>
        <path id="Path_321" data-name="Path 321" d="M407.117,202.387a173.974,173.974,0,0,0-23.459-73.3l-13.682,5.606a7.541,7.541,0,0,0-3.866,4.289l-4.249,11.98a16.405,16.405,0,0,1-15.774,10.92L333.6,160.836a11.968,11.968,0,0,0-12.275,7.926l-2.916,8.224a11.965,11.965,0,0,0,7.278,15.277l9.677,3.432a11.965,11.965,0,0,0,12.588-2.946l11.185-11.531Z" fill="#b4ff87"/>
      </g>
      <g id="Group_52" data-name="Group 52">
        <path id="Path_322" data-name="Path 322" d="M166.258,185.964l-12.64-7.9a8.411,8.411,0,0,1-3.478-9.924A17.953,17.953,0,0,1,165.265,156.3,172.812,172.812,0,0,1,178.1,98.567,170.439,170.439,0,0,1,197.7,63.861a23.817,23.817,0,0,0-5.1,1.7L187.7,67.9a5.982,5.982,0,0,1-7.974-2.828L174.5,54.41l-.043.016a173.525,173.525,0,0,0-64.513,41.825l-.362,33.539A15.088,15.088,0,0,0,119.626,144.3l1.939.687v14.277a34.7,34.7,0,0,0,16.308,29.423l24.813,15.508-6.97,8.934-5.043,14.221a15.087,15.087,0,0,0,1.654,13.393l12.525,18.849a15.092,15.092,0,0,1,1.654,13.394l-6.723,18.956a59.835,59.835,0,0,0-3.335,23.565l1.3,21.794a7.3,7.3,0,0,0,4.7,6.391l.044.016a7.3,7.3,0,0,0,9.465-4.386l7.507-21.168,14.428-3.641a17.953,17.953,0,0,0,10.322-7.122l8.714-12.469a7.5,7.5,0,0,1,7.916-2.572A173.815,173.815,0,0,1,166.258,185.964Z" fill="#9bf57d"/>
        <path id="Path_323" data-name="Path 323" d="M359.419,337.087a173.67,173.67,0,0,1-44.139-.2l.75,11.7c.351,5.48,5.4,11.647,10.454,15.2.555-.349,1.129-.666,1.68-1.02,1.7-1.091,3.35-2.258,5.012-3.408,1.982-1.376,3.968-2.744,5.895-4.2,1.249-.943,2.454-1.947,3.679-2.924,2.275-1.823,4.543-3.655,6.731-5.6.734-.648,1.435-1.337,2.158-2,2.6-2.383,5.158-4.808,7.614-7.359C359.31,337.207,359.363,337.145,359.419,337.087Z" fill="#9bf57d"/>
      </g>
    </g>
    <g id="placeholder" transform="translate(7704.915 -7373)">
      <path id="Path_3298" data-name="Path 3298" d="M114.646.006A49.21,49.21,0,0,1,162.27,41.969c5.619,39.328-39.05,71.6-47.114,77.082a2.18,2.18,0,0,1-2.468,0C105.1,113.9,65.085,85,65.085,48.836A48.836,48.836,0,0,1,114.646.006Z" transform="translate(-618 -5.531)" fill="#ffdc64"/>
      <ellipse id="Ellipse_250" data-name="Ellipse 250" cx="35.517" cy="35.517" rx="35.517" ry="35.517" transform="translate(-539.596 7.789)" fill="#ffc850"/>
    </g>
  </g>
</svg>
