<svg xmlns="http://www.w3.org/2000/svg" width="512" height="432.552" viewBox="0 0 512 432.552">
  <g id="code" transform="translate(0 -39.724)">
    <path id="Path_1" data-name="Path 1" d="M494.345,472.276H17.655A17.654,17.654,0,0,1,0,454.621V57.379A17.654,17.654,0,0,1,17.655,39.724h476.69A17.654,17.654,0,0,1,512,57.379V454.62A17.655,17.655,0,0,1,494.345,472.276Z" fill="#e4eaf8"/>
    <path id="Path_2" data-name="Path 2" d="M732.69,472.276H256V83.862H768V454.621C768,464.372,752.192,472.276,732.69,472.276Z" transform="translate(-256)" fill="#5b5d6e"/>
    <path id="Path_3" data-name="Path 3" d="M512,83.862H0V57.379A17.654,17.654,0,0,1,17.655,39.724h476.69A17.654,17.654,0,0,1,512,57.379Z" fill="#d5dced"/>
    <path id="Path_4" data-name="Path 4" d="M26.483,75.034H17.655a8.829,8.829,0,0,1-8.828-8.828V57.378a8.829,8.829,0,0,1,8.828-8.828h8.828a8.829,8.829,0,0,1,8.828,8.828v8.828A8.829,8.829,0,0,1,26.483,75.034Z" fill="#e4eaf8"/>
    <path id="Path_5" data-name="Path 5" d="M423.724,75.034H414.9a8.829,8.829,0,0,1-8.828-8.828V57.378A8.829,8.829,0,0,1,414.9,48.55h8.828a8.829,8.829,0,0,1,8.828,8.828v8.828A8.828,8.828,0,0,1,423.724,75.034Z" fill="#ff5050"/>
    <path id="Path_6" data-name="Path 6" d="M459.034,75.034h-8.828a8.829,8.829,0,0,1-8.828-8.828V57.378a8.829,8.829,0,0,1,8.828-8.828h8.828a8.829,8.829,0,0,1,8.828,8.828v8.828A8.827,8.827,0,0,1,459.034,75.034Z" fill="#fff082"/>
    <path id="Path_7" data-name="Path 7" d="M494.345,75.034h-8.828a8.829,8.829,0,0,1-8.828-8.828V57.378a8.829,8.829,0,0,1,8.828-8.828h8.828a8.829,8.829,0,0,1,8.828,8.828v8.828A8.829,8.829,0,0,1,494.345,75.034Z" fill="#a0ffb4"/>
    <g id="Group_2" data-name="Group 2" transform="translate(-256)">
      <path id="Path_13" data-name="Path 13" d="M317.793,163.31H300.138a8.828,8.828,0,0,1,0-17.656h17.655a8.828,8.828,0,0,1,0,17.656Z" fill="#ff5050"/>
      <path id="Path_14" data-name="Path 14" d="M317.793,233.931H300.138a8.828,8.828,0,0,1,0-17.656h17.655a8.828,8.828,0,0,1,0,17.656Z" fill="#ff5050"/>
    </g>
    <path id="Path_15" data-name="Path 15" d="M344.276,198.621H326.621a8.828,8.828,0,0,1,0-17.656h17.655a8.828,8.828,0,0,1,0,17.656Z" transform="translate(-265)" fill="#a0ffb4"/>
    <path id="Path_16" data-name="Path 16" d="M467.862,163.31H353.1a8.828,8.828,0,0,1,0-17.656H467.862a8.828,8.828,0,0,1,0,17.656Z" transform="translate(-256)" fill="#fff"/>
    <path id="Path_17" data-name="Path 17" d="M467.862,233.931H353.1a8.828,8.828,0,0,1,0-17.656H467.862a8.828,8.828,0,0,1,0,17.656Z" transform="translate(-256)" fill="#fff082"/>
    <path id="Path_18" data-name="Path 18" d="M467.862,198.621H379.586a8.828,8.828,0,0,1,0-17.656h88.276a8.828,8.828,0,0,1,0,17.656Z" transform="translate(-256)" fill="#d5dced"/>
    <path id="Path_19" data-name="Path 19" d="M344.276,269.241H326.621a8.828,8.828,0,1,1,0-17.656h17.655a8.828,8.828,0,0,1,0,17.656Z" transform="translate(-265)" fill="#a0ffb4"/>
    <path id="Path_20" data-name="Path 20" d="M467.862,269.241H379.586a8.828,8.828,0,1,1,0-17.656h88.276a8.828,8.828,0,0,1,0,17.656Z" transform="translate(-256)" fill="#d5dced"/>
    <g id="Group_3" data-name="Group 3" transform="translate(-256)">
      <path id="Path_21" data-name="Path 21" d="M317.793,304.552H300.138a8.828,8.828,0,1,1,0-17.656h17.655a8.828,8.828,0,0,1,0,17.656Z" fill="#ff5050"/>
      <path id="Path_22" data-name="Path 22" d="M317.793,375.172H300.138a8.828,8.828,0,1,1,0-17.656h17.655a8.828,8.828,0,0,1,0,17.656Z" fill="#ff5050"/>
    </g>
    <path id="Path_23" data-name="Path 23" d="M344.276,339.862H326.621a8.828,8.828,0,0,1,0-17.656h17.655a8.828,8.828,0,0,1,0,17.656Z" transform="translate(-265)" fill="#a0ffb4"/>
    <path id="Path_24" data-name="Path 24" d="M467.862,304.552H353.1a8.828,8.828,0,0,1,0-17.656H467.862a8.828,8.828,0,0,1,0,17.656Z" transform="translate(-256)" fill="#fff"/>
    <path id="Path_25" data-name="Path 25" d="M467.862,375.172H353.1a8.828,8.828,0,0,1,0-17.656H467.862a8.828,8.828,0,0,1,0,17.656Z" transform="translate(-256)" fill="#fff082"/>
    <path id="Path_26" data-name="Path 26" d="M467.862,339.862H379.586a8.828,8.828,0,0,1,0-17.656h88.276a8.828,8.828,0,0,1,0,17.656Z" transform="translate(-256)" fill="#d5dced"/>
    <path id="Path_27" data-name="Path 27" d="M344.276,410.483H326.621a8.828,8.828,0,0,1,0-17.656h17.655a8.828,8.828,0,0,1,0,17.656Z" transform="translate(-265)" fill="#a0ffb4"/>
    <path id="Path_28" data-name="Path 28" d="M467.862,410.483H379.586a8.828,8.828,0,1,1,0-17.656h88.276a8.828,8.828,0,0,1,0,17.656Z" transform="translate(-256)" fill="#d5dced"/>
  </g>
</svg>
