<?xml version="1.0" encoding="windows-1252"?>
<!-- Generator: Adobe Illustrator 19.0.0, SVG Export Plug-In . SVG Version: 6.00 Build 0)  -->
<svg version="1.1" id="Layer_1" xmlns="http://www.w3.org/2000/svg" xmlns:xlink="http://www.w3.org/1999/xlink" x="0px" y="0px" viewBox="0 0 512 512" style="enable-background:new 0 0 512 512;" xml:space="preserve">
<path style="fill:#464655;" d="M450.207,92.69H61.793c-14.626,0-26.483,11.857-26.483,26.483v282.483H476.69V119.172  C476.69,104.546,464.833,92.69,450.207,92.69z"/>
<path style="fill:#FFFFFF;" d="M441.379,366.345H70.621c-4.875,0-8.828-3.953-8.828-8.828V128c0-4.875,3.953-8.828,8.828-8.828  h370.759c4.875,0,8.828,3.953,8.828,8.828v229.517C450.207,362.392,446.254,366.345,441.379,366.345z"/>
<path style="fill:#7F8499;" d="M437.844,428.138H74.156c-8.202,0-16.364-1.143-24.252-3.396L6.402,412.312  C2.613,411.23,0,407.765,0,403.825v-2.169c0-4.875,3.953-8.828,8.828-8.828h494.345c4.875,0,8.828,3.953,8.828,8.828v2.169  c0,3.941-2.613,7.405-6.402,8.488l-43.502,12.429C454.208,426.995,446.046,428.138,437.844,428.138z"/>

<path style="fill:#C84146;" d="M300.138,180.966H194.207c-4.879,0-8.828-3.953-8.828-8.828c0-4.875,3.948-8.828,8.828-8.828h105.931  c4.879,0,8.828,3.953,8.828,8.828C308.966,177.013,305.017,180.966,300.138,180.966z"/>
<path style="fill:#FF5050;" d="M406.069,180.966h-70.621c-4.879,0-8.828-3.953-8.828-8.828c0-4.875,3.948-8.828,8.828-8.828h70.621  c4.879,0,8.828,3.953,8.828,8.828C414.897,177.013,410.948,180.966,406.069,180.966z"/>
<path style="fill:#707487;" d="M211.862,216.276h-17.655c-4.879,0-8.828-3.953-8.828-8.828s3.948-8.828,8.828-8.828h17.655  c4.879,0,8.828,3.953,8.828,8.828S216.742,216.276,211.862,216.276z"/>
<g>
	<path style="fill:#7F8499;" d="M406.069,216.276h-52.966c-4.879,0-8.828-3.953-8.828-8.828s3.948-8.828,8.828-8.828h52.966   c4.879,0,8.828,3.953,8.828,8.828S410.948,216.276,406.069,216.276z"/>
	<path style="fill:#7F8499;" d="M317.793,216.276h-70.621c-4.879,0-8.828-3.953-8.828-8.828s3.948-8.828,8.828-8.828h70.621   c4.879,0,8.828,3.953,8.828,8.828S322.673,216.276,317.793,216.276z"/>
	<path style="fill:#7F8499;" d="M176.552,251.586h-70.621c-4.879,0-8.828-3.953-8.828-8.828s3.948-8.828,8.828-8.828h70.621   c4.879,0,8.828,3.953,8.828,8.828S181.431,251.586,176.552,251.586z"/>
	<path style="fill:#7F8499;" d="M406.069,251.586h-88.276c-4.879,0-8.828-3.953-8.828-8.828s3.948-8.828,8.828-8.828h88.276   c4.879,0,8.828,3.953,8.828,8.828S410.948,251.586,406.069,251.586z"/>
</g>
<path style="fill:#707487;" d="M282.483,251.586h-70.621c-4.879,0-8.828-3.953-8.828-8.828s3.948-8.828,8.828-8.828h70.621  c4.879,0,8.828,3.953,8.828,8.828S287.362,251.586,282.483,251.586z"/>
<path style="fill:#7F8499;" d="M211.862,286.897H105.931c-4.879,0-8.828-3.953-8.828-8.828s3.948-8.828,8.828-8.828h105.931  c4.879,0,8.828,3.953,8.828,8.828S216.742,286.897,211.862,286.897z"/>
<g>
	<path style="fill:#707487;" d="M406.069,286.897h-52.966c-4.879,0-8.828-3.953-8.828-8.828s3.948-8.828,8.828-8.828h52.966   c4.879,0,8.828,3.953,8.828,8.828S410.948,286.897,406.069,286.897z"/>
	<path style="fill:#707487;" d="M335.448,322.207h-70.621c-4.879,0-8.828-3.953-8.828-8.828s3.948-8.828,8.828-8.828h70.621   c4.879,0,8.828,3.953,8.828,8.828S340.328,322.207,335.448,322.207z"/>
</g>
<g>
	<path style="fill:#7F8499;" d="M406.069,322.207h-35.31c-4.879,0-8.828-3.953-8.828-8.828s3.948-8.828,8.828-8.828h35.31   c4.879,0,8.828,3.953,8.828,8.828S410.948,322.207,406.069,322.207z"/>
	<path style="fill:#7F8499;" d="M317.793,286.897h-70.621c-4.879,0-8.828-3.953-8.828-8.828s3.948-8.828,8.828-8.828h70.621   c4.879,0,8.828,3.953,8.828,8.828S322.673,286.897,317.793,286.897z"/>
</g>
<path style="fill:#707487;" d="M141.241,322.207h-35.31c-4.879,0-8.828-3.953-8.828-8.828s3.948-8.828,8.828-8.828h35.31  c4.879,0,8.828,3.953,8.828,8.828S146.121,322.207,141.241,322.207z"/>
<path style="fill:#7F8499;" d="M229.517,322.207h-52.966c-4.879,0-8.828-3.953-8.828-8.828s3.948-8.828,8.828-8.828h52.966  c4.879,0,8.828,3.953,8.828,8.828S234.397,322.207,229.517,322.207z"/>
<g>
</g>
<g>
</g>
<g>
</g>
<g>
</g>
<g>
</g>
<g>
</g>
<g>
</g>
<g>
</g>
<g>
</g>
<g>
</g>
<g>
</g>
<g>
</g>
<g>
</g>
<g>
</g>
<g>
</g>
</svg>