<svg xmlns="http://www.w3.org/2000/svg" width="511.998" height="370.759" viewBox="0 0 511.998 370.759">
  <g id="inglese" transform="translate(0 -70.62)">
    <rect id="Rectangle_61" data-name="Rectangle 61" width="68.667" height="17.653" transform="translate(386.598 328.454) rotate(-135)" fill="#464655"/>
    <circle id="Ellipse_69" data-name="Ellipse 69" cx="123.586" cy="123.586" r="123.586" transform="translate(141.242 70.62)" fill="#959cb5"/>
    <circle id="Ellipse_70" data-name="Ellipse 70" cx="97.103" cy="97.103" r="97.103" transform="translate(167.725 97.103)" fill="#baefff"/>
    <g id="Group_168" data-name="Group 168">
      <path id="Path_961" data-name="Path 961" d="M123.586,132.413H8.828a8.828,8.828,0,0,1,0-17.656H123.587a8.828,8.828,0,1,1,0,17.656Z" fill="#959cb5"/>
      <path id="Path_962" data-name="Path 962" d="M26.483,167.723H8.828a8.828,8.828,0,0,1,0-17.656H26.483a8.828,8.828,0,0,1,0,17.656Z" fill="#959cb5"/>
    </g>
    <path id="Path_963" data-name="Path 963" d="M114.759,167.723H61.793a8.828,8.828,0,0,1,0-17.656h52.966a8.828,8.828,0,0,1,0,17.656Z" fill="#707487"/>
    <path id="Path_964" data-name="Path 964" d="M105.931,203.033H8.828a8.828,8.828,0,0,1,0-17.656h97.1a8.828,8.828,0,0,1,0,17.656Z" fill="#959cb5"/>
    <path id="Path_965" data-name="Path 965" d="M61.793,238.344H8.828a8.828,8.828,0,0,1,0-17.656H61.794a8.828,8.828,0,1,1,0,17.656Z" fill="#707487"/>
    <path id="Path_966" data-name="Path 966" d="M114.759,238.344H97.1a8.828,8.828,0,0,1,0-17.656h17.655a8.828,8.828,0,0,1,0,17.656Z" fill="#959cb5"/>
    <path id="Path_967" data-name="Path 967" d="M123.586,273.654H61.793a8.828,8.828,0,0,1,0-17.656h61.793a8.828,8.828,0,0,1,0,17.656Z" fill="#707487"/>
    <path id="Path_968" data-name="Path 968" d="M26.483,273.654H8.828a8.828,8.828,0,0,1,0-17.656H26.483a8.828,8.828,0,0,1,0,17.656Z" fill="#959cb5"/>
    <path id="Path_969" data-name="Path 969" d="M320.8,250.472a4.415,4.415,0,0,1-7.546-3.3q.123-2.19.126-4.413a97.1,97.1,0,0,0-97.1-97.1q-2.223,0-4.413.126a4.415,4.415,0,0,1-3.3-7.546A79.364,79.364,0,1,1,320.8,250.472Z" fill="#d4f5ff"/>
    <path id="Path_970" data-name="Path 970" d="M291.31,238.344h-8.828a8.819,8.819,0,0,1-8.371-6.035l-9.284-27.844-9.284,27.844a8.817,8.817,0,0,1-8.371,6.035h-8.828a8.836,8.836,0,0,1-8.491-6.4L212.2,170.15a8.832,8.832,0,0,1,16.983-4.854l13.888,48.617,13.388-40.156a8.823,8.823,0,0,1,16.741,0l13.388,40.156L300.474,165.3a8.832,8.832,0,0,1,16.983,4.854L299.8,231.944A8.836,8.836,0,0,1,291.31,238.344Z" fill="#464655"/>
    <path id="Path_971" data-name="Path 971" d="M469.38,436.208l-89.791-89.791a17.656,17.656,0,0,1,0-24.968l12.48-12.48a17.656,17.656,0,0,1,24.968,0l89.791,89.791a17.656,17.656,0,0,1,0,24.968l-12.48,12.48A17.656,17.656,0,0,1,469.38,436.208Z" fill="#707487"/>
    <g id="Group_169" data-name="Group 169">
      <path id="Path_972" data-name="Path 972" d="M484.452,421.136l-89.791-89.791A17.6,17.6,0,0,1,393.5,307.8a17.409,17.409,0,0,0-1.427,1.165l-12.48,12.48a17.656,17.656,0,0,0,0,24.968l89.791,89.791a17.655,17.655,0,0,0,24.968,0l12.48-12.48a17.2,17.2,0,0,0,1.165-1.426A17.6,17.6,0,0,1,484.452,421.136Z" fill="#5b5d6e"/>
      <path id="Path_973" data-name="Path 973" d="M311.388,159.237a8.848,8.848,0,0,0-10.914,6.06l-5.806,20.324a96.75,96.75,0,0,1,12.07,22.045l10.719-37.516A8.832,8.832,0,0,0,311.388,159.237Z" fill="#5b5d6e"/>
    </g>
  </g>
</svg>
