<?xml version="1.0" encoding="windows-1252"?>
<!-- Generator: Adobe Illustrator 19.0.0, SVG Export Plug-In . SVG Version: 6.00 Build 0)  -->
<svg version="1.1" id="Layer_1" xmlns="http://www.w3.org/2000/svg" xmlns:xlink="http://www.w3.org/1999/xlink" x="0px" y="0px" viewBox="0 0 512 512" style="enable-background:new 0 0 512 512;" xml:space="preserve">



<path style="fill:#464655;" d="M503.172,388.414h-17.655v-35.31c0-63.276-51.482-114.759-114.759-114.759S256,289.827,256,353.103  v35.31h-17.655v-35.31c0-73.017,59.396-132.414,132.414-132.414s132.414,59.396,132.414,132.414V388.414z"/>
<g>
	<path style="fill:#959CB5;" d="M273.655,459.034H256c-14.626,0-26.483-11.857-26.483-26.483v-35.31   c0-14.626,11.857-26.483,26.483-26.483h17.655c4.875,0,8.828,3.953,8.828,8.828v70.621   C282.483,455.082,278.53,459.034,273.655,459.034z"/>
	<path style="fill:#959CB5;" d="M485.517,459.034h-17.655c-4.875,0-8.828-3.953-8.828-8.828v-70.621   c0-4.875,3.953-8.828,8.828-8.828h17.655c14.626,0,26.483,11.857,26.483,26.483v35.31C512,447.178,500.143,459.034,485.517,459.034   z"/>
</g>
<path style="fill:#FFFFFF;" d="M194.207,35.31H88.276c-19.501,0-35.31,15.809-35.31,35.31v70.621c0,19.501,15.809,35.31,35.31,35.31  h105.931c19.501,0,35.31-15.809,35.31-35.31V70.621C229.517,51.119,213.708,35.31,194.207,35.31z M169.588,113.826l-42.054,21.027  c-5.869,2.935-12.776-1.333-12.776-7.895V84.904c0-6.562,6.905-10.83,12.776-7.896l42.054,21.027  C176.094,101.288,176.094,110.573,169.588,113.826z"/>
<g>
</g>
<g>
</g>
<g>
</g>
<g>
</g>
<g>
</g>
<g>
</g>
<g>
</g>
<g>
</g>
<g>
</g>
<g>
</g>
<g>
</g>
<g>
</g>
<g>
</g>
<g>
</g>
<g>
</g>
</svg>