<?xml version="1.0" encoding="windows-1252"?>
<!-- Generator: Adobe Illustrator 19.0.0, SVG Export Plug-In . SVG Version: 6.00 Build 0)  -->
<svg version="1.1" id="Layer_1" xmlns="http://www.w3.org/2000/svg" xmlns:xlink="http://www.w3.org/1999/xlink" x="0px" y="0px" viewBox="0 0 512 512" style="enable-background:new 0 0 512 512;" xml:space="preserve">
<path style="fill:#E4EAF8;" d="M97.103,17.655C97.103,7.904,105.007,0,114.759,0h264.828l88.276,88.276v406.069  c0,9.751-7.904,17.655-17.655,17.655H114.759c-9.751,0-17.655-7.904-17.655-17.655V17.655z"/>
<g>
	<path style="fill:#D5DCED;" d="M379.586,0v70.621c0,9.75,7.905,17.655,17.655,17.655h70.621L379.586,0z"/>
	
</g>

<g>
	
	
	
</g>
<path style="fill:#64DCA0;" d="M282.483,105.931c-48.672,0-88.276,39.604-88.276,88.276v17.655h17.655v-17.655  c0-38.94,31.681-70.621,70.621-70.621s70.621,31.681,70.621,70.621v17.655h17.655v-17.655  C370.759,145.535,331.155,105.931,282.483,105.931z"/>
<g>
	<path style="fill:#7DF5A5;" d="M211.862,273.655h-8.828c-9.751,0-17.655-7.904-17.655-17.655v-35.31   c0-9.751,7.904-17.655,17.655-17.655h8.828c4.875,0,8.828,3.953,8.828,8.828v52.966   C220.69,269.703,216.737,273.655,211.862,273.655z"/>
	<path style="fill:#7DF5A5;" d="M353.103,203.034h8.828c9.751,0,17.655,7.904,17.655,17.655V256c0,9.751-7.904,17.655-17.655,17.655   h-8.828c-4.875,0-8.828-3.953-8.828-8.828v-52.966C344.276,206.987,348.228,203.034,353.103,203.034z"/>
</g>
<g>
</g>
<g>
</g>
<g>
</g>
<g>
</g>
<g>
</g>
<g>
</g>
<g>
</g>
<g>
</g>
<g>
</g>
<g>
</g>
<g>
</g>
<g>
</g>
<g>
</g>
<g>
</g>
<g>
</g>
</svg>