<svg xmlns="http://www.w3.org/2000/svg" width="213.07" height="238.336" viewBox="0 0 213.07 238.336">
  <g id="science-book" transform="translate(-144.346 -84.944)">
    <path id="Path_942" data-name="Path 942" d="M250.881,323.28c-32.161,0-48.982-59.95-48.982-119.168S218.72,84.944,250.881,84.944s48.984,59.95,48.984,119.168S283.043,323.28,250.881,323.28Zm0-220.587c-12.732,0-31.234,39.51-31.234,101.419s18.5,101.419,31.234,101.419,31.234-39.51,31.234-101.419S263.613,102.693,250.881,102.693Z" fill="#7f8499"/>
    <path id="Path_943" data-name="Path 943" d="M321.253,278.2A107.017,107.017,0,0,1,302.7,276.4c-22.818-4.03-49.919-14.637-76.308-29.869s-49.121-33.4-64.028-51.149c-21.57-25.7-19.89-41.837-14.681-50.855s18.356-18.555,51.383-12.709c22.818,4.03,49.919,14.637,76.308,29.869h0c26.389,15.235,49.121,33.4,64.028,51.149,21.57,25.7,19.89,41.837,14.681,50.855C349.991,270.787,340.987,278.2,321.253,278.2ZM180.71,147.8c-10.4,0-15.955,2.652-17.654,5.6-2.4,4.155-.459,14.655,12.9,30.571,13.607,16.206,34.666,32.963,59.3,47.189s49.685,24.089,70.519,27.767c20.488,3.619,30.531.048,32.924-4.1s.459-14.655-12.9-30.571c-13.607-16.206-34.666-32.963-59.3-47.189h0c-24.639-14.226-49.685-24.089-70.519-27.767A88.736,88.736,0,0,0,180.71,147.8Z" fill="#707487"/>
    <path id="Path_944" data-name="Path 944" d="M180.51,278.2c-19.733,0-28.738-7.41-32.829-14.508-5.208-9.013-6.89-25.155,14.681-50.851,14.907-17.749,37.639-35.914,64.028-51.149h0c26.389-15.231,53.49-25.839,76.308-29.869,33.054-5.846,46.184,3.692,51.383,12.714s6.89,25.155-14.681,50.851c-14.907,17.749-37.639,35.914-64.028,51.149s-53.49,25.839-76.308,29.869A107,107,0,0,1,180.51,278.2Zm54.754-101.133c-24.639,14.226-45.7,30.983-59.3,47.189-13.364,15.916-15.3,26.416-12.9,30.567s12.445,7.717,32.924,4.108c20.834-3.678,45.88-13.541,70.519-27.767s45.7-30.983,59.3-47.189c13.364-15.916,15.3-26.416,12.9-30.567s-12.436-7.713-32.924-4.108c-20.834,3.678-45.88,13.541-70.519,27.767Z" fill="#5b5d6e"/>
    <path id="Path_945" data-name="Path 945" d="M250.881,221.861a17.749,17.749,0,1,1,17.749-17.749A17.768,17.768,0,0,1,250.881,221.861Z" fill="#464655"/>
  </g>
</svg>
