<?xml version="1.0" encoding="windows-1252"?>
<!-- Generator: Adobe Illustrator 19.0.0, SVG Export Plug-In . SVG Version: 6.00 Build 0)  -->
<svg version="1.1" id="Layer_1" xmlns="http://www.w3.org/2000/svg" xmlns:xlink="http://www.w3.org/1999/xlink" x="0px" y="0px" viewBox="0 0 512 512" style="enable-background:new 0 0 512 512;" xml:space="preserve">
<path style="fill:#D4F5FF;" d="M414.897,194.207c-1.063,0-2.093,0.125-3.149,0.159c-19.817-41.801-62.275-70.78-111.609-70.78  c-48.106,0-89.692,27.545-110.111,67.669c-10.777-9.154-24.711-14.703-39.958-14.703c-31.334,0-57.156,23.342-61.184,53.576  c-3.101-0.367-6.238-0.61-9.437-0.61C35.57,229.517,0,265.087,0,308.966c0,43.878,35.57,79.448,79.448,79.448h335.448  c53.629,0,97.103-43.475,97.103-97.103S468.526,194.207,414.897,194.207z"/>
<path style="fill:#BAEFFF;" d="M79.449,344.276c0-43.879,35.57-79.448,79.448-79.448c3.199,0,6.336,0.243,9.437,0.61  c4.028-30.233,29.85-53.576,61.184-53.576c7.633,0,14.937,1.39,21.681,3.928c10.954,4.121,23.116,1.095,30.215-8.21  c22.558-29.574,58.104-48.684,98.174-48.684c2.402,0,4.774,0.126,7.14,0.262c-22.271-21.981-52.814-35.572-86.589-35.572  c-48.106,0-89.692,27.545-110.111,67.669c-10.777-9.154-24.711-14.703-39.958-14.703c-31.334,0-57.156,23.342-61.184,53.576  c-3.101-0.367-6.238-0.61-9.437-0.61c-45.629,0-82.272,38.464-79.277,84.736c2.734,42.228,39.682,74.161,81.998,74.161h10.676  C84.392,375.788,79.449,360.613,79.449,344.276z"/>

<g>
	
	
</g>
<g>
	
	
	
	
</g>

<g>
	
	
</g>
<g>
</g>
<g>
</g>
<g>
</g>
<g>
</g>
<g>
</g>
<g>
</g>
<g>
</g>
<g>
</g>
<g>
</g>
<g>
</g>
<g>
</g>
<g>
</g>
<g>
</g>
<g>
</g>
<g>
</g>
</svg>