<?xml version="1.0" encoding="windows-1252"?>
<!-- Generator: Adobe Illustrator 19.0.0, SVG Export Plug-In . SVG Version: 6.00 Build 0)  -->
<svg version="1.1" id="Layer_1" xmlns="http://www.w3.org/2000/svg" xmlns:xlink="http://www.w3.org/1999/xlink" x="0px" y="0px" viewBox="0 0 512 512" style="enable-background:new 0 0 512 512;" xml:space="preserve">
<path style="fill:#E4EAF8;" d="M494.345,322.207H158.897c-9.751,0-17.655-7.904-17.655-17.655V39.724  c0-9.751,7.904-17.655,17.655-17.655h335.448c9.751,0,17.655,7.904,17.655,17.655v264.828  C512,314.303,504.096,322.207,494.345,322.207z"/>

<path style="fill:#7DF5A5;" d="M467.862,286.897h-44.138V66.207c0-4.875,3.953-8.828,8.828-8.828h26.483  c4.875,0,8.828,3.953,8.828,8.828V286.897z"/>
<path style="fill:#FFDC64;" d="M388.414,286.897h-44.138V136.828c0-4.875,3.953-8.828,8.828-8.828h26.483  c4.875,0,8.828,3.953,8.828,8.828V286.897z"/>
<path style="fill:#FF5050;" d="M308.966,286.897h-44.138v-79.448c0-4.875,3.953-8.828,8.828-8.828h26.483  c4.875,0,8.828,3.953,8.828,8.828V286.897z"/>
<path style="fill:#00C3FF;" d="M229.517,286.897h-44.138v-35.31c0-4.875,3.953-8.828,8.828-8.828h26.483  c4.875,0,8.828,3.953,8.828,8.828V286.897z"/>

<path style="fill:#AFB9D2;" d="M476.69,295.724H176.552c-4.879,0-8.828-3.948-8.828-8.828c0-4.879,3.948-8.828,8.828-8.828H476.69  c4.879,0,8.828,3.948,8.828,8.828C485.517,291.776,481.569,295.724,476.69,295.724z"/>













<circle style="fill:#FFFFFF;" cx="141.241" cy="436.966" r="8.828"/>
<g>
</g>
<g>
</g>
<g>
</g>
<g>
</g>
<g>
</g>
<g>
</g>
<g>
</g>
<g>
</g>
<g>
</g>
<g>
</g>
<g>
</g>
<g>
</g>
<g>
</g>
<g>
</g>
<g>
</g>
</svg>