<svg xmlns="http://www.w3.org/2000/svg" width="512" height="424.117" viewBox="0 0 512 424.117">
  <g id="Internet_Connection" data-name="Internet Connection" transform="translate(-5645 7372.865)">
    <g id="Internet" transform="translate(5804 -7461.152)">
      <circle id="Ellipse_39" data-name="Ellipse 39" cx="65.394" cy="65.394" r="65.394" transform="translate(31.962 93.738)" fill="#00c3ff"/>
      <path id="Path_633" data-name="Path 633" d="M127.984,218.01A70.818,70.818,0,0,1,65.407,113.991a65.366,65.366,0,1,0,81.336,101.427A70.733,70.733,0,0,1,127.984,218.01Z" transform="translate(-3.379 -9.835)" fill="#00aaf0"/>
      <path id="Path_634" data-name="Path 634" d="M97.359,88.287A70.842,70.842,0,1,0,168.2,159.129,70.924,70.924,0,0,0,97.359,88.287Zm47.577,107.161c-2.937-1.188-5.892-2.3-8.883-3.263a107.34,107.34,0,0,0,4.737-27.606h16.236A59.546,59.546,0,0,1,144.937,195.448ZM37.691,164.58H53.927a107.349,107.349,0,0,0,4.738,27.607c-2.991.962-5.946,2.074-8.881,3.265A59.554,59.554,0,0,1,37.691,164.58Zm12.088-41.765c2.938,1.193,5.893,2.311,8.881,3.278a107.327,107.327,0,0,0-4.732,27.588H37.691A59.541,59.541,0,0,1,49.779,122.814Zm42.131-1.692a115.29,115.29,0,0,1-18.432-2.365C78.3,109.2,84.741,102.445,91.91,100.127Zm0,10.947v21.61H64.819A96.027,96.027,0,0,1,69.292,129,124.853,124.853,0,0,0,91.91,132.07Zm0,32.51v21.665A126.049,126.049,0,0,0,69.3,189.3a95.99,95.99,0,0,1-4.485-24.72H91.91Zm0,32.56v20.993c-7.169-2.318-13.608-9.073-18.432-18.631A115.072,115.072,0,0,1,91.91,197.14Zm10.9-10.9V164.579H129.9a96.023,96.023,0,0,1-4.486,24.724A126.194,126.194,0,0,0,102.809,186.238Zm18.428,13.27c-4.824,9.554-11.261,16.307-18.428,18.623v-21A115.285,115.285,0,0,1,121.237,199.508Zm-18.428-45.827v-21.61A124.824,124.824,0,0,0,125.427,129a96.053,96.053,0,0,1,4.473,24.685Zm0-32.556v-21c7.169,2.318,13.607,9.072,18.431,18.628A115.169,115.169,0,0,1,102.809,121.125Zm24.465-13.863a60.24,60.24,0,0,1,9.66,6.963c-1.615.588-3.234,1.154-4.865,1.669A68.777,68.777,0,0,0,127.274,107.262Zm-64.624,8.631c-1.632-.514-3.251-1.079-4.866-1.668a60.213,60.213,0,0,1,9.661-6.964A68.981,68.981,0,0,0,62.649,115.892Zm0,86.476A68.983,68.983,0,0,0,67.444,211a60.2,60.2,0,0,1-9.659-6.963C59.4,203.448,61.02,202.883,62.651,202.368Zm69.419,0c1.63.514,3.25,1.082,4.865,1.67a60.152,60.152,0,0,1-9.66,6.964A68.929,68.929,0,0,0,132.07,202.364Zm8.72-48.683a107.317,107.317,0,0,0-4.731-27.587c2.987-.967,5.94-2.087,8.878-3.281a59.549,59.549,0,0,1,12.09,30.868Z" transform="translate(-0.001)" fill="#e4eaf8"/>
      <path id="Path_635" data-name="Path 635" d="M132.295,211.693a59.485,59.485,0,0,1-5.022,3.257c.641-.975,1.242-2.014,1.844-3.051-1.5.094-2.988.228-4.512.228a71.435,71.435,0,0,1-8.409-.543c-3.938,5.215-8.484,8.916-13.389,10.5v-13.41a70.349,70.349,0,0,1-10.9-4.581v17.992c-7.169-2.318-13.608-9.073-18.432-18.631a114.231,114.231,0,0,1,13.918-1.968,71.073,71.073,0,0,1-12.032-9.334c-2.022.36-4.053.641-6.061,1.1a90.848,90.848,0,0,1-2.96-11.716,70.39,70.39,0,0,1-11.887-30.871c-.238,2.285-.422,4.606-.528,6.968H37.69a59.541,59.541,0,0,1,12.088-30.866c1.711.695,3.445,1.279,5.169,1.908a70.405,70.405,0,0,1,13.2-30.057,70.784,70.784,0,1,0,85.578,107.2A70.246,70.246,0,0,1,132.295,211.693Zm-94.6-43.16H53.926a107.349,107.349,0,0,0,4.738,27.607c-2.991.962-5.946,2.074-8.881,3.265A59.554,59.554,0,0,1,37.69,168.533Zm20.094,39.456c1.614-.588,3.235-1.153,4.865-1.667a68.984,68.984,0,0,0,4.793,8.63A60.184,60.184,0,0,1,57.784,207.989Z" transform="translate(0 -3.953)" fill="#d5dced"/>
    </g>
    <g id="Connection" transform="translate(-5575 598)">
      <g id="university" transform="translate(11220 -8049.374)">
        <path id="Path_3140" data-name="Path 3140" d="M423.724,290.764h-158.9V220.143H247.173v70.621H88.276a26.513,26.513,0,0,0-26.483,26.483V379.04a8.828,8.828,0,0,0,17.656,0V317.247a8.837,8.837,0,0,1,8.828-8.828h158.9V379.04h17.655V308.419h158.9a8.836,8.836,0,0,1,8.828,8.828V379.04a8.828,8.828,0,0,0,17.656,0V317.247A26.517,26.517,0,0,0,423.724,290.764Z" fill="#c7cfe2"/>
        <g id="Group_562" data-name="Group 562">
          <rect id="Rectangle_267" data-name="Rectangle 267" width="17.655" height="26.483" transform="translate(247.172 220.138)" fill="#afb9d2"/>
          <rect id="Rectangle_268" data-name="Rectangle 268" width="17.655" height="26.483" transform="translate(247.172 352.552)" fill="#afb9d2"/>
          <rect id="Rectangle_269" data-name="Rectangle 269" width="17.655" height="26.483" transform="translate(61.793 352.552)" fill="#afb9d2"/>
          <rect id="Rectangle_270" data-name="Rectangle 270" width="17.655" height="26.483" transform="translate(432.552 352.552)" fill="#afb9d2"/>
        </g>
        <rect id="Rectangle_281" data-name="Rectangle 281" width="35.31" height="35.31" transform="translate(52.966 458.483)" fill="#707487"/>
        <g id="Group_566" data-name="Group 566">
          <path id="Path_3142" data-name="Path 3142" d="M132.414,467.316H8.828A8.829,8.829,0,0,1,0,458.488V379.04a8.829,8.829,0,0,1,8.828-8.828H132.414a8.829,8.829,0,0,1,8.828,8.828v79.448A8.829,8.829,0,0,1,132.414,467.316Z" fill="#7f8499"/>
          <path id="Path_3143" data-name="Path 3143" d="M97.1,502.626H44.138a8.828,8.828,0,0,1,0-17.656H97.1a8.828,8.828,0,1,1,0,17.656Z" fill="#7f8499"/>
        </g>
        <rect id="Rectangle_282" data-name="Rectangle 282" width="105.931" height="61.793" transform="translate(17.655 387.862)" fill="#faebc8"/>
        <rect id="Rectangle_283" data-name="Rectangle 283" width="35.31" height="35.31" transform="translate(238.345 458.483)" fill="#707487"/>
        <g id="Group_567" data-name="Group 567">
          <path id="Path_3144" data-name="Path 3144" d="M317.793,467.316H194.207a8.829,8.829,0,0,1-8.828-8.828V379.04a8.829,8.829,0,0,1,8.828-8.828H317.793a8.829,8.829,0,0,1,8.828,8.828v79.448A8.829,8.829,0,0,1,317.793,467.316Z" fill="#7f8499"/>
          <path id="Path_3145" data-name="Path 3145" d="M282.483,502.626H229.517a8.828,8.828,0,0,1,0-17.656h52.966a8.828,8.828,0,0,1,0,17.656Z" fill="#7f8499"/>
        </g>
        <rect id="Rectangle_284" data-name="Rectangle 284" width="105.931" height="61.793" transform="translate(203.034 387.862)" fill="#faebc8"/>
        <rect id="Rectangle_285" data-name="Rectangle 285" width="35.31" height="35.31" transform="translate(423.724 458.483)" fill="#707487"/>
        <g id="Group_568" data-name="Group 568">
          <path id="Path_3146" data-name="Path 3146" d="M503.172,467.316H379.586a8.829,8.829,0,0,1-8.828-8.828V379.04a8.829,8.829,0,0,1,8.828-8.828H503.172A8.829,8.829,0,0,1,512,379.04v79.448A8.829,8.829,0,0,1,503.172,467.316Z" fill="#7f8499"/>
          <path id="Path_3147" data-name="Path 3147" d="M467.862,502.626H414.9a8.828,8.828,0,0,1,0-17.656h52.966a8.828,8.828,0,0,1,0,17.656Z" fill="#7f8499"/>
        </g>
        <rect id="Rectangle_286" data-name="Rectangle 286" width="105.931" height="61.793" transform="translate(388.414 387.862)" fill="#faebc8"/>
      </g>
    </g>
  </g>
</svg>
