<?xml version="1.0" encoding="iso-8859-1"?>
<!-- Generator: Adobe Illustrator 19.0.0, SVG Export Plug-In . SVG Version: 6.00 Build 0)  -->
<svg version="1.1" id="Layer_1" xmlns="http://www.w3.org/2000/svg" xmlns:xlink="http://www.w3.org/1999/xlink" x="0px" y="0px"
	 viewBox="0 0 512 512" style="enable-background:new 0 0 512 512;" xml:space="preserve">
<path style="fill:#FFDC64;" d="M353.103,507.586H158.897c-9.751,0-17.655-7.904-17.655-17.655V242.759
	c0-9.751,7.904-17.655,17.655-17.655h194.207c9.751,0,17.655,7.904,17.655,17.655v247.172
	C370.759,499.682,362.855,507.586,353.103,507.586z"/>
<path style="fill:#464655;" d="M256,4.414c-126.56,0-229.517,102.962-229.517,229.517v79.448h17.655v-79.448
	c0-116.819,95.043-211.862,211.862-211.862s211.862,95.043,211.862,211.862v79.448h17.655v-79.448
	C485.517,107.375,382.56,4.414,256,4.414z"/>
<path style="fill:#FF5050;" d="M289.345,291.149l19.62-13.08l19.62,13.08c2.933,1.955,6.862-0.147,6.862-3.672v-62.374
	c0-4.875-3.953-8.828-8.828-8.828h-35.31c-4.875,0-8.828,3.953-8.828,8.828v62.374C282.483,291.003,286.412,293.105,289.345,291.149
	z"/>
<path style="fill:#FFC850;" d="M176.552,481.103c-4.879,0-8.828-3.948-8.828-8.828V260.414c0-4.879,3.948-8.828,8.828-8.828
	c4.879,0,8.828,3.948,8.828,8.828v211.862C185.379,477.155,181.431,481.103,176.552,481.103z"/>
<path style="fill:#E1A546;" d="M300.138,357.517h-52.966c-4.879,0-8.828-3.948-8.828-8.828c0-4.879,3.948-8.828,8.828-8.828h52.966
	c4.879,0,8.828,3.948,8.828,8.828C308.966,353.569,305.017,357.517,300.138,357.517z"/>
<path style="fill:#FFC850;" d="M317.793,392.828h-88.276c-4.879,0-8.828-3.948-8.828-8.828s3.948-8.828,8.828-8.828h88.276
	c4.879,0,8.828,3.948,8.828,8.828S322.673,392.828,317.793,392.828z"/>
<path style="fill:#7F8499;" d="M17.655,295.724C7.905,295.724,0,303.629,0,313.379V419.31c0,9.751,7.905,17.655,17.655,17.655
	h26.483V295.724H17.655z"/>
<path style="fill:#959CB5;" d="M70.621,454.621H52.966c-9.751,0-17.655-7.904-17.655-17.655V295.724
	c0-9.751,7.904-17.655,17.655-17.655h17.655c9.751,0,17.655,7.904,17.655,17.655v141.241
	C88.276,446.716,80.372,454.621,70.621,454.621z"/>
<path style="fill:#7F8499;" d="M494.345,436.966c9.75,0,17.655-7.905,17.655-17.655V313.379c0-9.751-7.905-17.655-17.655-17.655
	h-26.483v141.241H494.345z"/>
<path style="fill:#959CB5;" d="M441.379,278.069h17.655c9.751,0,17.655,7.904,17.655,17.655v141.241
	c0,9.751-7.904,17.655-17.655,17.655h-17.655c-9.751,0-17.655-7.904-17.655-17.655V295.724
	C423.724,285.973,431.628,278.069,441.379,278.069z"/>
<path style="fill:#C84146;" d="M291.31,216.276c-4.875,0-8.828,3.953-8.828,8.828v62.374c0,3.526,3.929,5.628,6.862,3.672
	l19.62-13.08v-61.793H291.31z"/>
<g>
</g>
<g>
</g>
<g>
</g>
<g>
</g>
<g>
</g>
<g>
</g>
<g>
</g>
<g>
</g>
<g>
</g>
<g>
</g>
<g>
</g>
<g>
</g>
<g>
</g>
<g>
</g>
<g>
</g>
</svg>
