<?xml version="1.0" encoding="iso-8859-1"?>
<!-- Generator: Adobe Illustrator 19.0.0, SVG Export Plug-In . SVG Version: 6.00 Build 0)  -->
<svg version="1.1" id="Layer_1" xmlns="http://www.w3.org/2000/svg" xmlns:xlink="http://www.w3.org/1999/xlink" x="0px" y="0px"
	 viewBox="0 0 512 512" style="enable-background:new 0 0 512 512;" xml:space="preserve">
<path style="fill:#C7CFE2;" d="M326.621,512H185.379c-14.626,0-26.483-11.857-26.483-26.483V26.483
	C158.897,11.857,170.753,0,185.379,0h141.241c14.626,0,26.483,11.857,26.483,26.483v459.034
	C353.103,500.143,341.247,512,326.621,512z"/>
<circle style="fill:#959CB5;" cx="256" cy="406.069" r="61.793"/>
<path style="fill:#FF5050;" d="M308.966,247.172H203.034c-4.875,0-8.828-3.953-8.828-8.828V114.759c0-4.875,3.953-8.828,8.828-8.828
	h105.931c4.875,0,8.828,3.953,8.828,8.828v123.586C317.793,243.22,313.841,247.172,308.966,247.172z"/>
<path style="fill:#7F8499;" d="M300.138,70.621h-88.276c-9.751,0-17.655-7.904-17.655-17.655l0,0
	c0-9.751,7.904-17.655,17.655-17.655h88.276c9.751,0,17.655,7.904,17.655,17.655l0,0C317.793,62.717,309.889,70.621,300.138,70.621z
	"/>
<g>
	<path style="fill:#FFFFFF;" d="M291.31,158.897c0-4.879-3.948-8.828-8.828-8.828s-8.828,3.948-8.828,8.828
		c0,9.732-7.923,17.655-17.655,17.655s-17.655-7.923-17.655-17.655c0-4.879-3.948-8.828-8.828-8.828s-8.828,3.948-8.828,8.828
		c0,16.408,11.295,30.111,26.483,34.057v10.081c-4.879,0-8.828,3.948-8.828,8.828c0,4.879,3.948,8.828,8.828,8.828h17.655
		c4.879,0,8.828-3.948,8.828-8.828c0-4.879-3.948-8.828-8.828-8.828v-10.081C280.015,189.007,291.31,175.305,291.31,158.897z"/>
	<path style="fill:#FFFFFF;" d="M256,167.724c4.879,0,8.828-3.948,8.828-8.828v-17.655c0-4.879-3.948-8.828-8.828-8.828
		c-4.879,0-8.828,3.948-8.828,8.828v17.655C247.172,163.776,251.121,167.724,256,167.724z"/>
</g>
<circle style="fill:#D5DCED;" cx="256" cy="406.069" r="35.31"/>
<circle style="fill:#959CB5;" cx="211.862" cy="300.138" r="17.655"/>
<circle style="fill:#FF5050;" cx="300.138" cy="300.138" r="17.655"/>
<path style="fill:#AFB9D2;" d="M271.683,408.797l-22.451,13.471c-2.121,1.272-4.819-0.255-4.819-2.729v-26.941
	c0-2.473,2.698-4,4.819-2.728l22.451,13.47C273.742,404.576,273.742,407.562,271.683,408.797z"/>
<g>
	<circle style="fill:#707487;" cx="256" cy="52.966" r="17.655"/>
	<circle style="fill:#707487;" cx="300.138" cy="52.966" r="17.655"/>
	<circle style="fill:#707487;" cx="211.862" cy="52.966" r="17.655"/>
</g>
<g>
</g>
<g>
</g>
<g>
</g>
<g>
</g>
<g>
</g>
<g>
</g>
<g>
</g>
<g>
</g>
<g>
</g>
<g>
</g>
<g>
</g>
<g>
</g>
<g>
</g>
<g>
</g>
<g>
</g>
</svg>
