<?xml version="1.0" encoding="iso-8859-1"?>
<!-- Generator: Adobe Illustrator 19.0.0, SVG Export Plug-In . SVG Version: 6.00 Build 0)  -->
<svg version="1.1" id="Layer_1" xmlns="http://www.w3.org/2000/svg" xmlns:xlink="http://www.w3.org/1999/xlink" x="0px" y="0px"
	 viewBox="0 0 512 512" style="enable-background:new 0 0 512 512;" xml:space="preserve">
<path style="fill:#D29B6E;" d="M328.178,376.33l-77.369-23.806c-7.409-2.279-12.463-9.123-12.463-16.874v-48.754H114.759v48.754
	c0,7.751-5.055,14.595-12.462,16.874L24.927,376.33C10.11,380.889,0,394.578,0,410.079v35.714c0,9.75,7.905,17.655,17.655,17.655
	h317.793c9.75,0,17.655-7.905,17.655-17.655v-35.714C353.103,394.578,342.994,380.889,328.178,376.33z"/>
<path style="fill:#C7CFE2;" d="M328.178,376.33l-64.683-19.903c-15.879,32.003-48.796,54.056-86.943,54.056
	s-71.064-22.052-86.943-54.055l-64.683,19.903C10.11,380.889,0,394.578,0,410.079v35.714c0,9.75,7.905,17.655,17.655,17.655h317.793
	c9.75,0,17.655-7.905,17.655-17.655v-35.714C353.103,394.578,342.994,380.889,328.178,376.33z"/>
<path style="fill:#464655;" d="M176.552,48.552L176.552,48.552c-63.38,0-114.759,51.379-114.759,114.759v35.31H291.31v-35.31
	C291.31,99.93,239.932,48.552,176.552,48.552z"/>
<g>
	<path style="fill:#959CB5;" d="M97.103,189.793H70.621c-9.75,0-17.655,7.904-17.655,17.655v44.138
		c0,9.75,7.905,17.655,17.655,17.655h26.483V189.793z"/>
	<path style="fill:#959CB5;" d="M256,269.241h26.483c9.75,0,17.655-7.904,17.655-17.655v-44.138c0-9.75-7.905-17.655-17.655-17.655
		H256V269.241z"/>
</g>
<path style="fill:#F0C087;" d="M210.4,324.896l35.43-29.525c6.558-5.464,10.913-13.119,12.262-21.547l15.089-94.3
	c9.513-59.456-36.415-113.318-96.628-113.318l0,0c-60.213,0-106.141,53.862-96.628,113.318l15.089,94.3
	c1.348,8.428,5.705,16.083,12.262,21.547l35.43,29.525c4.759,3.966,10.759,6.138,16.953,6.138h33.79
	C199.641,331.034,205.641,328.863,210.4,324.896z"/>
<path style="fill:#E6AF78;" d="M176.552,331.033h-6.095c-2.236,0-4.399-2.172-6.116-6.138l-12.781-29.524
	c-2.366-5.464-3.937-13.119-4.424-21.547l-5.443-94.3c-3.431-59.441,13.13-113.287,34.842-113.314
	c-60.205,0.011-106.122,53.866-96.61,113.315l15.087,94.301c1.348,8.428,5.705,16.083,12.262,21.547l35.43,29.524
	c4.759,3.966,10.759,6.138,16.953,6.138h16.896V331.033z"/>
<path style="fill:#959CB5;" d="M485.517,216.276H361.931c-14.626,0-26.483,11.857-26.483,26.483v26.483l-34.343,34.343
	c-3.615,3.615-1.055,9.795,4.057,9.795h30.285v8.828c0,14.626,11.857,26.483,26.483,26.483h123.586
	c14.626,0,26.483-11.857,26.483-26.483v-79.448C512,228.132,500.143,216.276,485.517,216.276z"/>
<path style="fill:#E4EAF8;" d="M441.379,251.522c-5.85,0-11.036,2.846-14.249,7.228c-1.626,2.219-5.186,2.219-6.813,0
	c-3.212-4.383-8.398-7.228-14.249-7.228h-30.897c-2.438,0-4.414,1.976-4.414,4.414v52.966c0,2.438,1.976,4.414,4.414,4.414h30.897
	c5.85,0,11.036,2.846,14.249,7.228c1.626,2.219,5.186,2.219,6.813,0c3.212-4.383,8.398-7.228,14.249-7.228h30.897
	c2.438,0,4.414-1.976,4.414-4.414v-52.965c0-2.438-1.976-4.414-4.414-4.414L441.379,251.522L441.379,251.522z"/>
<path style="fill:#694B4B;" d="M176.552,66.207c-60.213,0-106.141,53.862-96.628,113.316l4.468,27.925c10.854,0,21.536,0,21.534,0
	l7.933-56.192c0.572-3.413,3.069-6.246,6.414-7.132c36.744-9.73,75.817-9.73,112.561,0c3.346,0.886,5.842,3.719,6.414,7.132
	l7.93,56.192h21.534l4.468-27.925C282.692,120.068,236.765,66.207,176.552,66.207z"/>
<path style="fill:#5A4146;" d="M79.924,179.523l4.468,27.925c10.854,0,21.536,0,21.534,0l7.933-56.192
	c0.572-3.413,3.069-6.246,6.414-7.132c7.289-1.931,14.688-3.368,22.124-4.532c3.889-41.613,17.478-73.364,34.138-73.385
	C116.329,66.219,70.412,120.074,79.924,179.523z"/>
<path style="fill:#AFB9D2;" d="M267.299,216.276l2.825-17.655h-54.572c-1.449,0-2.871,0.358-4.156,1.038l-11.164,5.953
	c-12.793-8.988-35.086-8.884-47.706,0.25l-14.241-6.453c-1.146-0.522-2.388-0.789-3.647-0.789H82.979l2.825,17.655h46.929
	l17.732,8.039c1.173,0.534,2.414,0.789,3.647,0.789c2.508,0,4.974-1.074,6.69-3.073c2.284-2.655,7.776-5.754,15.75-5.754
	c7.974,0,13.465,3.1,15.75,5.754c2.681,3.134,7.198,3.978,10.845,2.035l14.613-7.789H267.299z"/>
<g>
	<circle style="fill:#E4EAF8;" cx="141.241" cy="216.276" r="22.069"/>
	<circle style="fill:#E4EAF8;" cx="211.862" cy="216.276" r="22.069"/>
</g>
<g>
	<path style="fill:#AFB9D2;" d="M52.264,420.198L10.28,385.21C3.862,391.676,0,400.524,0,410.079v35.714
		c0,9.75,7.905,17.655,17.655,17.655h44.138v-22.906C61.793,432.682,58.302,425.228,52.264,420.198z"/>
	<path style="fill:#AFB9D2;" d="M300.84,420.198l41.984-34.987c6.418,6.464,10.28,15.313,10.28,24.868v35.714
		c0,9.75-7.905,17.655-17.655,17.655H291.31v-22.906C291.31,432.682,294.802,425.228,300.84,420.198z"/>
	<path style="fill:#AFB9D2;" d="M72.558,361.674c18.247,39.215,57.89,66.464,103.993,66.464s85.747-27.249,103.993-66.464
		l-17.05-5.246c-15.879,32.002-48.796,54.055-86.943,54.055s-71.064-22.052-86.943-54.055L72.558,361.674z"/>
</g>
<path style="fill:#D5DCED;" d="M432.552,253.974c-2.109,1.228-3.985,2.816-5.421,4.776c-1.626,2.219-5.186,2.219-6.813,0
	c-1.437-1.96-3.313-3.548-5.421-4.776v61.793c2.109,1.228,3.985,2.816,5.421,4.776c1.626,2.219,5.186,2.219,6.813,0
	c1.437-1.96,3.313-3.548,5.421-4.776V253.974z"/>
<g>
</g>
<g>
</g>
<g>
</g>
<g>
</g>
<g>
</g>
<g>
</g>
<g>
</g>
<g>
</g>
<g>
</g>
<g>
</g>
<g>
</g>
<g>
</g>
<g>
</g>
<g>
</g>
<g>
</g>
</svg>
