<?xml version="1.0" encoding="iso-8859-1"?>
<!-- Generator: Adobe Illustrator 19.0.0, SVG Export Plug-In . SVG Version: 6.00 Build 0)  -->
<svg version="1.1" id="Layer_1" xmlns="http://www.w3.org/2000/svg" xmlns:xlink="http://www.w3.org/1999/xlink" x="0px" y="0px"
	 viewBox="0 0 512 512" style="enable-background:new 0 0 512 512;" xml:space="preserve">
<path style="fill:#FF5050;" d="M399.218,510.598l-135.535-65.505c-4.853-2.346-10.513-2.346-15.366,0l-135.535,65.505
	c-11.636,4.9-24.505-3.645-24.505-16.271V17.655C88.276,7.904,96.18,0,105.931,0h300.138c9.751,0,17.655,7.904,17.655,17.655
	v476.671C423.724,506.953,410.855,515.498,399.218,510.598z"/>
<path style="fill:#FFFFFF;" d="M251.396,338.987c-8.621,0-17.233-1.219-25.638-3.699c-25.267-7.453-45.802-25.219-57.818-50.026
	c-11.88-24.526-13.992-53.038-5.949-80.294c16.672-56.565,72.396-90.146,124.285-74.854c38.638,11.396,67.776,51.668,67.776,93.668
	c0,28.409-10.578,50.146-29.017,59.638c-13.327,6.862-29.069,6.211-40.095-1.664c-4.319-3.086-7.543-7.005-9.551-11.47
	c-3.742,3.435-7.923,6.465-12.448,8.943c-12.129,6.664-24.836,8.108-34.802,4.013c-9.949-4.077-17.397-12.168-20.974-22.784
	c-4.629-13.75-2.094-29.961,7.147-45.651c16.025-27.215,39.086-39.086,68.604-35.276c5.19,0.672,9.793,3.375,12.957,7.612
	c3.155,4.22,4.483,9.612,3.656,14.793l-5.793,36.207c-0.009,0.025-0.009,0.052-0.018,0.077l-2.966,18.548
	c-0.647,4.431,0.845,8.043,4.448,10.616c4.681,3.34,13.207,4.733,21.759,0.337c7.258-3.737,19.439-14.414,19.439-43.939
	c0-29.728-20.621-66.556-55.121-76.737c-42.465-12.526-88.423,15.686-102.354,62.919c-6.793,23.03-5.052,47.039,4.914,67.599
	c9.818,20.276,26.483,34.763,46.922,40.793c22.431,6.616,46.914,2.044,67.172-12.526c3.957-2.854,9.483-1.94,12.319,2.008
	c2.854,3.957,1.949,9.474-2.008,12.319C291.026,332.552,271.207,338.987,251.396,338.987z M272.715,196.513
	c-18.25,0-32.431,8.974-43.198,27.254c-6.595,11.207-8.586,22.237-5.621,31.06c1.913,5.685,5.802,9.978,10.931,12.082
	c4.974,2.044,12.31,0.853,19.629-3.159c11.25-6.168,19.828-17.341,21.854-28.466l5.784-36.138c0.104-0.676-0.181-1.19-0.371-1.436
	c-0.199-0.267-0.543-0.599-1.086-0.668C277.922,196.69,275.276,196.513,272.715,196.513z"/>
<g>
	<path style="fill:#C84146;" d="M114.759,0v467.862c0,4.875,3.948,8.828,8.828,8.828c4.879,0,8.828-3.953,8.828-8.828V0H114.759z"/>
	<path style="fill:#C84146;" d="M379.586,0v467.862c0,4.875,3.948,8.828,8.828,8.828c4.879,0,8.828-3.953,8.828-8.828V0H379.586z"/>
</g>
<g>
</g>
<g>
</g>
<g>
</g>
<g>
</g>
<g>
</g>
<g>
</g>
<g>
</g>
<g>
</g>
<g>
</g>
<g>
</g>
<g>
</g>
<g>
</g>
<g>
</g>
<g>
</g>
<g>
</g>
</svg>
