<?xml version="1.0" encoding="iso-8859-1"?>
<!-- Generator: Adobe Illustrator 19.0.0, SVG Export Plug-In . SVG Version: 6.00 Build 0)  -->
<svg version="1.1" id="Layer_1" xmlns="http://www.w3.org/2000/svg" xmlns:xlink="http://www.w3.org/1999/xlink" x="0px" y="0px"
	 viewBox="0 0 512 512" style="enable-background:new 0 0 512 512;" xml:space="preserve">
<path style="fill:#E4EAF8;" d="M494.345,472.276H17.655C7.904,472.276,0,464.372,0,454.621V57.379
	c0-9.751,7.904-17.655,17.655-17.655h476.69c9.751,0,17.655,7.904,17.655,17.655v397.241
	C512,464.372,504.096,472.276,494.345,472.276z"/>
<g>
	<path style="fill:#707487;" d="M370.759,233.931h-17.655c-4.879,0-8.828-3.948-8.828-8.828c0-4.879,3.948-8.828,8.828-8.828h17.655
		c4.879,0,8.828,3.948,8.828,8.828C379.586,229.983,375.638,233.931,370.759,233.931z"/>
	<path style="fill:#707487;" d="M467.862,233.931h-61.793c-4.879,0-8.828-3.948-8.828-8.828c0-4.879,3.948-8.828,8.828-8.828h61.793
		c4.879,0,8.828,3.948,8.828,8.828C476.69,229.983,472.742,233.931,467.862,233.931z"/>
</g>
<g>
	<path style="fill:#7F8499;" d="M467.862,269.241H353.103c-4.875,0-8.828-3.953-8.828-8.828l0,0c0-4.875,3.953-8.828,8.828-8.828
		h114.759c4.875,0,8.828,3.953,8.828,8.828l0,0C476.69,265.289,472.737,269.241,467.862,269.241z"/>
	<path style="fill:#7F8499;" d="M467.862,304.552H353.103c-4.875,0-8.828-3.953-8.828-8.828l0,0c0-4.875,3.953-8.828,8.828-8.828
		h114.759c4.875,0,8.828,3.953,8.828,8.828l0,0C476.69,300.599,472.737,304.552,467.862,304.552z"/>
	<path style="fill:#7F8499;" d="M300.138,472.276H52.966V154.483c0-4.875,3.953-8.828,8.828-8.828H291.31
		c4.875,0,8.828,3.953,8.828,8.828V472.276z"/>
</g>
<path style="fill:#707487;" d="M194.207,348.69c0,58.504,47.426,105.931,105.931,105.931V242.759
	C241.633,242.759,194.207,290.185,194.207,348.69z"/>
<path style="fill:#D5DCED;" d="M512,83.862H0V57.379c0-9.751,7.904-17.655,17.655-17.655h476.69c9.751,0,17.655,7.904,17.655,17.655
	V83.862z"/>
<path style="fill:#E4EAF8;" d="M26.483,75.034h-8.828c-4.875,0-8.828-3.953-8.828-8.828v-8.828c0-4.875,3.953-8.828,8.828-8.828
	h8.828c4.875,0,8.828,3.953,8.828,8.828v8.828C35.31,71.082,31.358,75.034,26.483,75.034z"/>
<path style="fill:#FF5050;" d="M423.724,75.034h-8.828c-4.875,0-8.828-3.953-8.828-8.828v-8.828c0-4.875,3.953-8.828,8.828-8.828
	h8.828c4.875,0,8.828,3.953,8.828,8.828v8.828C432.552,71.082,428.599,75.034,423.724,75.034z"/>
<path style="fill:#FFF082;" d="M459.034,75.034h-8.828c-4.875,0-8.828-3.953-8.828-8.828v-8.828c0-4.875,3.953-8.828,8.828-8.828
	h8.828c4.875,0,8.828,3.953,8.828,8.828v8.828C467.862,71.082,463.91,75.034,459.034,75.034z"/>
<path style="fill:#A0FFB4;" d="M494.345,75.034h-8.828c-4.875,0-8.828-3.953-8.828-8.828v-8.828c0-4.875,3.953-8.828,8.828-8.828
	h8.828c4.875,0,8.828,3.953,8.828,8.828v8.828C503.172,71.082,499.22,75.034,494.345,75.034z"/>
<path style="fill:#5B5D6E;" d="M247.172,295.724H141.241c-4.879,0-8.828-3.948-8.828-8.828c0-4.879,3.948-8.828,8.828-8.828h105.931
	c4.879,0,8.828,3.948,8.828,8.828C256,291.776,252.052,295.724,247.172,295.724z"/>
<path style="fill:#464655;" d="M247.172,278.069H221.34c-4.86,5.419-9.174,11.317-12.846,17.655h38.679
	c4.879,0,8.828-3.948,8.828-8.828C256,282.017,252.052,278.069,247.172,278.069z"/>
<path style="fill:#5B5D6E;" d="M264.828,331.034H123.586c-4.879,0-8.828-3.948-8.828-8.828c0-4.879,3.948-8.828,8.828-8.828h141.241
	c4.879,0,8.828,3.948,8.828,8.828C273.655,327.086,269.707,331.034,264.828,331.034z"/>
<path style="fill:#464655;" d="M264.828,313.379h-64.463c-2.012,5.683-3.546,11.574-4.568,17.655h69.032
	c4.879,0,8.828-3.948,8.828-8.828C273.655,317.327,269.707,313.379,264.828,313.379z"/>
<path style="fill:#FF5050;" d="M441.379,145.655h-88.276c-4.879,0-8.828-3.948-8.828-8.828c0-4.879,3.948-8.828,8.828-8.828h88.276
	c4.879,0,8.828,3.948,8.828,8.828C450.207,141.707,446.259,145.655,441.379,145.655z"/>
<path style="fill:#C84146;" d="M467.862,180.966H353.103c-4.879,0-8.828-3.948-8.828-8.828c0-4.879,3.948-8.828,8.828-8.828h114.759
	c4.879,0,8.828,3.948,8.828,8.828C476.69,177.017,472.742,180.966,467.862,180.966z"/>
<path style="fill:#707487;" d="M88.276,472.276h-35.31V154.483c0-4.875,3.953-8.828,8.828-8.828h26.483V472.276z"/>
<path style="fill:#FF5050;" d="M151.725,219.367l-14.898-11.918l-14.898,11.918c-2.89,2.312-7.171,0.255-7.171-3.446v-70.265
	c0-4.875,3.953-8.828,8.828-8.828h26.483c4.875,0,8.828,3.953,8.828,8.828v70.265C158.897,219.622,154.615,221.678,151.725,219.367z
	"/>
<path style="fill:#C84146;" d="M123.586,136.828c-4.875,0-8.828,3.953-8.828,8.828v70.264c0,3.701,4.281,5.759,7.171,3.447
	l14.898-11.918v-70.621H123.586z"/>
<circle style="fill:#FF5050;" cx="300.138" cy="348.69" r="88.276"/>
<path style="fill:#C84146;" d="M322.207,422.253c-48.754,0-88.276-39.522-88.276-88.276c0-25.879,11.204-49.082,28.946-65.229
	c-30.105,14.059-51.015,44.521-51.015,79.942c0,48.754,39.522,88.276,88.276,88.276c22.874,0,43.649-8.775,59.331-23.048
	C348.136,419.211,335.541,422.253,322.207,422.253z"/>
<g>
	<path style="fill:#FFFFFF;" d="M264.828,392.828c-2.259,0-4.517-0.862-6.241-2.586c-3.448-3.448-3.448-9.035,0-12.483
		l70.621-70.621c3.448-3.448,9.035-3.448,12.483,0s3.448,9.035,0,12.483l-70.621,70.621
		C269.345,391.966,267.086,392.828,264.828,392.828z"/>
	<path style="fill:#FFFFFF;" d="M269.241,339.862c-12.172,0-22.069-9.897-22.069-22.069c0-12.172,9.897-22.069,22.069-22.069
		c12.172,0,22.069,9.897,22.069,22.069C291.31,329.965,281.414,339.862,269.241,339.862z M269.241,313.379
		c-2.431,0-4.414,1.983-4.414,4.414c0,2.431,1.983,4.414,4.414,4.414c2.431,0,4.414-1.983,4.414-4.414
		C273.655,315.362,271.672,313.379,269.241,313.379z"/>
	<path style="fill:#FFFFFF;" d="M331.034,401.655c-12.172,0-22.069-9.897-22.069-22.069s9.897-22.069,22.069-22.069
		s22.069,9.897,22.069,22.069S343.207,401.655,331.034,401.655z M331.034,375.172c-2.431,0-4.414,1.983-4.414,4.414
		s1.983,4.414,4.414,4.414s4.414-1.983,4.414-4.414S333.465,375.172,331.034,375.172z"/>
</g>
<g>
</g>
<g>
</g>
<g>
</g>
<g>
</g>
<g>
</g>
<g>
</g>
<g>
</g>
<g>
</g>
<g>
</g>
<g>
</g>
<g>
</g>
<g>
</g>
<g>
</g>
<g>
</g>
<g>
</g>
</svg>
