<?xml version="1.0" encoding="iso-8859-1"?>
<!-- Generator: Adobe Illustrator 19.0.0, SVG Export Plug-In . SVG Version: 6.00 Build 0)  -->
<svg version="1.1" id="Layer_1" xmlns="http://www.w3.org/2000/svg" xmlns:xlink="http://www.w3.org/1999/xlink" x="0px" y="0px"
	 viewBox="0 0 512 512" style="enable-background:new 0 0 512 512;" xml:space="preserve">
<path style="fill:#E4EAF8;" d="M494.345,441.379H17.655C7.904,441.379,0,433.475,0,423.724V88.276
	c0-9.751,7.904-17.655,17.655-17.655h476.69c9.751,0,17.655,7.904,17.655,17.655v335.448
	C512,433.475,504.096,441.379,494.345,441.379z"/>
<path style="fill:#AFB9D2;" d="M512,141.241H0V88.276c0-9.751,7.904-17.655,17.655-17.655h476.69
	c9.751,0,17.655,7.904,17.655,17.655V141.241z"/>
<g>
	<path style="fill:#E4EAF8;" d="M105.931,114.759H35.31c-4.879,0-8.828-3.953-8.828-8.828c0-4.875,3.948-8.828,8.828-8.828h70.621
		c4.879,0,8.828,3.953,8.828,8.828C114.759,110.806,110.81,114.759,105.931,114.759z"/>
	<path style="fill:#E4EAF8;" d="M308.966,114.759h-35.31c-4.879,0-8.828-3.953-8.828-8.828c0-4.875,3.948-8.828,8.828-8.828h35.31
		c4.879,0,8.828,3.953,8.828,8.828C317.793,110.806,313.845,114.759,308.966,114.759z"/>
	<path style="fill:#E4EAF8;" d="M379.586,114.759h-35.31c-4.879,0-8.828-3.953-8.828-8.828c0-4.875,3.948-8.828,8.828-8.828h35.31
		c4.879,0,8.828,3.953,8.828,8.828C388.414,110.806,384.466,114.759,379.586,114.759z"/>
</g>
<path style="fill:#C7CFE2;" d="M476.69,114.759h-61.793c-4.879,0-8.828-3.953-8.828-8.828c0-4.875,3.948-8.828,8.828-8.828h61.793
	c4.879,0,8.828,3.953,8.828,8.828C485.517,110.806,481.569,114.759,476.69,114.759z"/>
<path style="fill:#7F8499;" d="M150.069,114.759h-8.828c-4.879,0-8.828-3.953-8.828-8.828c0-4.875,3.948-8.828,8.828-8.828h8.828
	c4.879,0,8.828,3.953,8.828,8.828C158.897,110.806,154.948,114.759,150.069,114.759z"/>
<path style="fill:#FFDC64;" d="M238.345,114.759h-8.828c-4.879,0-8.828-3.953-8.828-8.828c0-4.875,3.948-8.828,8.828-8.828h8.828
	c4.879,0,8.828,3.953,8.828,8.828C247.172,110.806,243.224,114.759,238.345,114.759z"/>
<path style="fill:#7DF5A5;" d="M194.207,114.759h-8.828c-4.879,0-8.828-3.953-8.828-8.828c0-4.875,3.948-8.828,8.828-8.828h8.828
	c4.879,0,8.828,3.953,8.828,8.828C203.034,110.806,199.086,114.759,194.207,114.759z"/>
<g>
	<path style="fill:#707487;" d="M211.862,194.207H52.966c-4.879,0-8.828-3.953-8.828-8.828c0-4.875,3.948-8.828,8.828-8.828h158.897
		c4.879,0,8.828,3.953,8.828,8.828C220.69,190.254,216.742,194.207,211.862,194.207z"/>
	<path style="fill:#707487;" d="M185.379,264.828H52.966c-4.879,0-8.828-3.953-8.828-8.828s3.948-8.828,8.828-8.828h132.414
		c4.879,0,8.828,3.953,8.828,8.828S190.259,264.828,185.379,264.828z"/>
</g>
<g>
	<path style="fill:#5B5D6E;" d="M141.241,229.517H52.966c-4.879,0-8.828-3.953-8.828-8.828s3.948-8.828,8.828-8.828h88.276
		c4.879,0,8.828,3.953,8.828,8.828S146.121,229.517,141.241,229.517z"/>
	<path style="fill:#5B5D6E;" d="M317.793,194.207h-70.621c-4.879,0-8.828-3.953-8.828-8.828c0-4.875,3.948-8.828,8.828-8.828h70.621
		c4.879,0,8.828,3.953,8.828,8.828C326.621,190.254,322.673,194.207,317.793,194.207z"/>
</g>
<path style="fill:#707487;" d="M300.138,229.517H176.552c-4.879,0-8.828-3.953-8.828-8.828s3.948-8.828,8.828-8.828h123.586
	c4.879,0,8.828,3.953,8.828,8.828S305.017,229.517,300.138,229.517z"/>
<path style="fill:#5B5D6E;" d="M264.828,264.828H220.69c-4.879,0-8.828-3.953-8.828-8.828s3.948-8.828,8.828-8.828h44.138
	c4.879,0,8.828,3.953,8.828,8.828S269.707,264.828,264.828,264.828z"/>
<g>
	<path style="fill:#707487;" d="M459.034,229.517H335.448c-4.879,0-8.828-3.953-8.828-8.828s3.948-8.828,8.828-8.828h123.586
		c4.879,0,8.828,3.953,8.828,8.828S463.914,229.517,459.034,229.517z"/>
	<path style="fill:#707487;" d="M459.034,194.207H353.103c-4.879,0-8.828-3.953-8.828-8.828c0-4.875,3.948-8.828,8.828-8.828
		h105.931c4.879,0,8.828,3.953,8.828,8.828C467.862,190.254,463.914,194.207,459.034,194.207z"/>
	<path style="fill:#707487;" d="M211.862,317.793H52.966c-4.879,0-8.828-3.953-8.828-8.828s3.948-8.828,8.828-8.828h158.897
		c4.879,0,8.828,3.953,8.828,8.828S216.742,317.793,211.862,317.793z"/>
</g>
<g>
	<path style="fill:#5B5D6E;" d="M158.897,353.103H88.276c-4.879,0-8.828-3.953-8.828-8.828c0-4.875,3.948-8.828,8.828-8.828h70.621
		c4.879,0,8.828,3.953,8.828,8.828C167.724,349.151,163.776,353.103,158.897,353.103z"/>
	<path style="fill:#5B5D6E;" d="M317.793,317.793h-70.621c-4.879,0-8.828-3.953-8.828-8.828s3.948-8.828,8.828-8.828h70.621
		c4.879,0,8.828,3.953,8.828,8.828S322.673,317.793,317.793,317.793z"/>
</g>
<g>
	<path style="fill:#707487;" d="M300.138,353.103H194.207c-4.879,0-8.828-3.953-8.828-8.828c0-4.875,3.948-8.828,8.828-8.828
		h105.931c4.879,0,8.828,3.953,8.828,8.828C308.966,349.151,305.017,353.103,300.138,353.103z"/>
	<path style="fill:#707487;" d="M459.034,353.103H335.448c-4.879,0-8.828-3.953-8.828-8.828c0-4.875,3.948-8.828,8.828-8.828
		h123.586c4.879,0,8.828,3.953,8.828,8.828C467.862,349.151,463.914,353.103,459.034,353.103z"/>
	<path style="fill:#707487;" d="M459.034,317.793H353.103c-4.879,0-8.828-3.953-8.828-8.828s3.948-8.828,8.828-8.828h105.931
		c4.879,0,8.828,3.953,8.828,8.828S463.914,317.793,459.034,317.793z"/>
</g>
<path style="fill:#464655;" d="M52.966,406.069c-4.879,0-8.828-3.953-8.828-8.828v-52.966c0-4.875,3.948-8.828,8.828-8.828
	s8.828,3.953,8.828,8.828v52.966C61.793,402.116,57.845,406.069,52.966,406.069z"/>
<g>
</g>
<g>
</g>
<g>
</g>
<g>
</g>
<g>
</g>
<g>
</g>
<g>
</g>
<g>
</g>
<g>
</g>
<g>
</g>
<g>
</g>
<g>
</g>
<g>
</g>
<g>
</g>
<g>
</g>
</svg>
