<?xml version="1.0" encoding="iso-8859-1"?>
<!-- Generator: Adobe Illustrator 19.0.0, SVG Export Plug-In . SVG Version: 6.00 Build 0)  -->
<svg version="1.1" id="Layer_1" xmlns="http://www.w3.org/2000/svg" xmlns:xlink="http://www.w3.org/1999/xlink" x="0px" y="0px"
	 viewBox="0 0 512 512" style="enable-background:new 0 0 512 512;" xml:space="preserve">
<path style="fill:#00AAF0;" d="M379.586,512H132.414c-19.501,0-35.31-15.809-35.31-35.31V35.31c0-19.501,15.809-35.31,35.31-35.31
	h247.172c19.501,0,35.31,15.809,35.31,35.31V476.69C414.897,496.191,399.087,512,379.586,512z"/>
<path style="fill:#464655;" d="M379.586,432.552H132.414c-4.875,0-8.828-3.953-8.828-8.828V35.31c0-4.875,3.953-8.828,8.828-8.828
	h247.172c4.875,0,8.828,3.953,8.828,8.828v388.414C388.414,428.599,384.461,432.552,379.586,432.552z"/>
<path style="fill:#0096DC;" d="M273.655,494.345h-35.31c-4.875,0-8.828-3.953-8.828-8.828v-26.483c0-4.875,3.953-8.828,8.828-8.828
	h35.31c4.875,0,8.828,3.953,8.828,8.828v26.483C282.483,490.392,278.53,494.345,273.655,494.345z"/>
<path style="fill:#FFC850;" d="M198.621,348.69h-26.483c-4.875,0-8.828,3.953-8.828,8.828V384c0,4.875,3.953,8.828,8.828,8.828
	h26.483c4.875,0,8.828-3.953,8.828-8.828v-26.483C207.448,352.642,203.496,348.69,198.621,348.69z"/>
<path style="fill:#AFB9D2;" d="M198.621,278.069h-26.483c-4.875,0-8.828,3.953-8.828,8.828v26.483c0,4.875,3.953,8.828,8.828,8.828
	h26.483c4.875,0,8.828-3.953,8.828-8.828v-26.483C207.448,282.022,203.496,278.069,198.621,278.069z"/>
<path style="fill:#D5DCED;" d="M339.862,278.069h-26.483c-4.875,0-8.828,3.953-8.828,8.828v26.483c0,4.875,3.953,8.828,8.828,8.828
	h26.483c4.875,0,8.828-3.953,8.828-8.828v-26.483C348.69,282.022,344.737,278.069,339.862,278.069z"/>
<g>
	<path style="fill:#AFB9D2;" d="M269.241,278.069h-26.483c-4.875,0-8.828,3.953-8.828,8.828v26.483c0,4.875,3.953,8.828,8.828,8.828
		h26.483c4.875,0,8.828-3.953,8.828-8.828v-26.483C278.069,282.022,274.116,278.069,269.241,278.069z"/>
	<path style="fill:#AFB9D2;" d="M198.621,207.448h-26.483c-4.875,0-8.828,3.953-8.828,8.828v26.483c0,4.875,3.953,8.828,8.828,8.828
		h26.483c4.875,0,8.828-3.953,8.828-8.828v-26.483C207.448,211.401,203.496,207.448,198.621,207.448z"/>
</g>
<path style="fill:#D5DCED;" d="M339.862,207.448h-26.483c-4.875,0-8.828,3.953-8.828,8.828v26.483c0,4.875,3.953,8.828,8.828,8.828
	h26.483c4.875,0,8.828-3.953,8.828-8.828v-26.483C348.69,211.401,344.737,207.448,339.862,207.448z"/>
<g>
	<path style="fill:#AFB9D2;" d="M269.241,207.448h-26.483c-4.875,0-8.828,3.953-8.828,8.828v26.483c0,4.875,3.953,8.828,8.828,8.828
		h26.483c4.875,0,8.828-3.953,8.828-8.828v-26.483C278.069,211.401,274.116,207.448,269.241,207.448z"/>
	<path style="fill:#AFB9D2;" d="M198.621,136.828h-26.483c-4.875,0-8.828,3.953-8.828,8.828v26.483c0,4.875,3.953,8.828,8.828,8.828
		h26.483c4.875,0,8.828-3.953,8.828-8.828v-26.483C207.448,140.78,203.496,136.828,198.621,136.828z"/>
</g>
<path style="fill:#D5DCED;" d="M339.862,136.828h-26.483c-4.875,0-8.828,3.953-8.828,8.828v26.483c0,4.875,3.953,8.828,8.828,8.828
	h26.483c4.875,0,8.828-3.953,8.828-8.828v-26.483C348.69,140.78,344.737,136.828,339.862,136.828z"/>
<path style="fill:#AFB9D2;" d="M269.241,136.828h-26.483c-4.875,0-8.828,3.953-8.828,8.828v26.483c0,4.875,3.953,8.828,8.828,8.828
	h26.483c4.875,0,8.828-3.953,8.828-8.828v-26.483C278.069,140.78,274.116,136.828,269.241,136.828z"/>
<path style="fill:#FFC850;" d="M339.862,348.69h-97.103c-4.875,0-8.828,3.953-8.828,8.828V384c0,4.875,3.953,8.828,8.828,8.828
	h97.103c4.875,0,8.828-3.953,8.828-8.828v-26.483C348.69,352.642,344.737,348.69,339.862,348.69z"/>
<g>
	<path style="fill:#E4EAF8;" d="M344.276,97.103h-8.828c-4.879,0-8.828-3.953-8.828-8.828c0-4.875,3.948-8.828,8.828-8.828h8.828
		c4.879,0,8.828,3.953,8.828,8.828C353.103,93.151,349.155,97.103,344.276,97.103z"/>
	<path style="fill:#E4EAF8;" d="M256,97.103h-8.828c-4.879,0-8.828-3.953-8.828-8.828c0-4.875,3.948-8.828,8.828-8.828H256
		c4.879,0,8.828,3.953,8.828,8.828C264.828,93.151,260.879,97.103,256,97.103z"/>
	<path style="fill:#E4EAF8;" d="M300.138,97.103h-8.828c-4.879,0-8.828-3.953-8.828-8.828c0-4.875,3.948-8.828,8.828-8.828h8.828
		c4.879,0,8.828,3.953,8.828,8.828C308.966,93.151,305.017,97.103,300.138,97.103z"/>
</g>
<g>
	<path style="fill:#0096DC;" d="M194.207,485.517h-8.828c-4.875,0-8.828-3.953-8.828-8.828v-8.828c0-4.875,3.953-8.828,8.828-8.828
		h8.828c4.875,0,8.828,3.953,8.828,8.828v8.828C203.034,481.565,199.082,485.517,194.207,485.517z"/>
	<path style="fill:#0096DC;" d="M326.621,485.517h-8.828c-4.875,0-8.828-3.953-8.828-8.828v-8.828c0-4.875,3.953-8.828,8.828-8.828
		h8.828c4.875,0,8.828,3.953,8.828,8.828v8.828C335.448,481.565,331.496,485.517,326.621,485.517z"/>
</g>
<g>
</g>
<g>
</g>
<g>
</g>
<g>
</g>
<g>
</g>
<g>
</g>
<g>
</g>
<g>
</g>
<g>
</g>
<g>
</g>
<g>
</g>
<g>
</g>
<g>
</g>
<g>
</g>
<g>
</g>
</svg>
