<?xml version="1.0" encoding="iso-8859-1"?>
<!-- Generator: Adobe Illustrator 19.0.0, SVG Export Plug-In . SVG Version: 6.00 Build 0)  -->
<svg version="1.1" id="Layer_1" xmlns="http://www.w3.org/2000/svg" xmlns:xlink="http://www.w3.org/1999/xlink" x="0px" y="0px"
	 viewBox="0 0 512 512" style="enable-background:new 0 0 512 512;" xml:space="preserve">
<path style="fill:#D4F5FF;" d="M414.897,194.207c-1.063,0-2.093,0.125-3.149,0.159c-19.817-41.801-62.275-70.78-111.609-70.78
	c-48.106,0-89.692,27.545-110.111,67.669c-10.777-9.154-24.711-14.703-39.958-14.703c-31.334,0-57.156,23.342-61.184,53.576
	c-3.101-0.367-6.238-0.61-9.437-0.61C35.57,229.517,0,265.087,0,308.966c0,43.878,35.57,79.448,79.448,79.448h335.448
	c53.629,0,97.103-43.475,97.103-97.103S468.526,194.207,414.897,194.207z"/>
<path style="fill:#BAEFFF;" d="M79.449,344.276c0-43.879,35.57-79.448,79.448-79.448c3.199,0,6.336,0.243,9.437,0.61
	c4.028-30.233,29.85-53.576,61.184-53.576c7.633,0,14.937,1.39,21.681,3.928c10.954,4.121,23.116,1.095,30.215-8.21
	c22.558-29.574,58.104-48.684,98.174-48.684c2.402,0,4.774,0.126,7.14,0.262c-22.271-21.981-52.814-35.572-86.589-35.572
	c-48.106,0-89.692,27.545-110.111,67.669c-10.777-9.154-24.711-14.703-39.958-14.703c-31.334,0-57.156,23.342-61.184,53.576
	c-3.101-0.367-6.238-0.61-9.437-0.61c-45.629,0-82.272,38.464-79.277,84.736c2.734,42.228,39.682,74.161,81.998,74.161h10.676
	C84.392,375.788,79.449,360.613,79.449,344.276z"/>
<path style="fill:#FFDC64;" d="M264.828,388.414H123.587V238.345c0-4.875,3.953-8.828,8.828-8.828H256
	c4.875,0,8.828,3.953,8.828,8.828V388.414z"/>
<g>
	<path style="fill:#FF5050;" d="M234.513,271.739l-13.823-6.911l-13.823,6.911c-1.761,0.881-3.832-0.401-3.832-2.369v-39.852
		c0-4.875,3.953-8.828,8.828-8.828h17.655c4.875,0,8.828,3.953,8.828,8.828v39.853C238.345,271.339,236.273,272.619,234.513,271.739
		z"/>
	<path style="fill:#FF5050;" d="M300.138,186.043v158.233c0,4.875,3.953,8.828,8.828,8.828h115.079
		c7.214,0,11.383-8.185,7.139-14.019L316.105,180.851C311.077,173.937,300.138,177.494,300.138,186.043z M335.449,270.345
		l34.508,47.448h-34.508V270.345z"/>
</g>
<g>
	<path style="fill:#C84146;" d="M308.966,203.035h-8.828v17.655h8.828c4.879,0,8.828-3.953,8.828-8.828
		S313.845,203.035,308.966,203.035z"/>
	<path style="fill:#C84146;" d="M308.966,238.345h-8.828V256h8.828c4.879,0,8.828-3.953,8.828-8.828
		S313.845,238.345,308.966,238.345z"/>
	<path style="fill:#C84146;" d="M308.966,273.655h-8.828v17.655h8.828c4.879,0,8.828-3.953,8.828-8.828
		S313.845,273.655,308.966,273.655z"/>
	<path style="fill:#C84146;" d="M308.966,308.966h-8.828v17.655h8.828c4.879,0,8.828-3.953,8.828-8.828
		S313.845,308.966,308.966,308.966z"/>
</g>
<path style="fill:#E1A546;" d="M211.862,317.793h-35.31c-4.879,0-8.828-3.953-8.828-8.828s3.948-8.828,8.828-8.828h35.31
	c4.879,0,8.828,3.953,8.828,8.828S216.742,317.793,211.862,317.793z"/>
<g>
	<path style="fill:#FFC850;" d="M229.518,353.104h-70.621c-4.879,0-8.828-3.953-8.828-8.828s3.948-8.828,8.828-8.828h70.621
		c4.879,0,8.828,3.953,8.828,8.828S234.397,353.104,229.518,353.104z"/>
	<rect x="123.587" y="370.759" style="fill:#FFC850;" width="141.241" height="17.655"/>
</g>
<g>
</g>
<g>
</g>
<g>
</g>
<g>
</g>
<g>
</g>
<g>
</g>
<g>
</g>
<g>
</g>
<g>
</g>
<g>
</g>
<g>
</g>
<g>
</g>
<g>
</g>
<g>
</g>
<g>
</g>
</svg>
