<?xml version="1.0" encoding="iso-8859-1"?>
<!-- Generator: Adobe Illustrator 19.0.0, SVG Export Plug-In . SVG Version: 6.00 Build 0)  -->
<svg version="1.1" id="Layer_1" xmlns="http://www.w3.org/2000/svg" xmlns:xlink="http://www.w3.org/1999/xlink" x="0px" y="0px"
	 viewBox="0 0 512 512" style="enable-background:new 0 0 512 512;" xml:space="preserve">
<path style="fill:#D4F5FF;" d="M414.897,168.965c-1.063,0-2.093,0.125-3.149,0.159c-19.817-41.801-62.274-70.78-111.609-70.78
	c-48.106,0-89.692,27.545-110.111,67.669c-10.777-9.153-24.711-14.703-39.958-14.703c-31.334,0-57.156,23.342-61.184,53.576
	c-3.101-0.367-6.238-0.61-9.437-0.61C35.57,204.275,0,239.845,0,283.724c0,43.878,35.57,79.448,79.448,79.448h335.448
	c53.629,0,97.103-43.475,97.103-97.103S468.525,168.965,414.897,168.965z"/>
<g>
	<path style="fill:#BAEFFF;" d="M158.897,239.586c2.172,0,4.312,0.116,6.43,0.318c3.575,0.341,6.835,2.058,9.537,4.424
		c24.316,21.289,56.975,33.26,92.541,30.054c50.254-4.532,92.953-40.536,107.211-88.938c6.242-21.19,6.195-41.483,2.138-60.292
		c-0.324-0.258-0.647-0.535-0.969-0.83c-20.885-16.266-47.109-25.976-75.647-25.976c-48.106,0-89.692,27.545-110.111,67.669
		c-10.777-9.153-24.711-14.703-39.958-14.703c-31.334,0-57.156,23.342-61.184,53.576c-3.101-0.367-6.238-0.61-9.437-0.61
		C35.57,204.275,0,239.845,0,283.724c0,43.878,35.57,79.448,79.448,79.448h13.397c-8.454-12.627-13.397-27.802-13.397-44.138
		C79.448,275.155,115.018,239.586,158.897,239.586z"/>
	<path style="fill:#BAEFFF;" d="M300.138,292.55h-88.276c-14.626,0-26.483,11.857-26.483,26.483v44.138h141.241v-44.138
		C326.621,304.408,314.764,292.55,300.138,292.55z"/>
</g>
<circle style="fill:#00C3FF;" cx="256" cy="151.307" r="105.931"/>
<path style="fill:#FFFFFF;" d="M267.034,195.893v-62.685c3.78-1,6.621-4.289,6.621-8.382c0-4.875-3.948-8.828-8.828-8.828h-17.655
	c-4.879,0-8.828,3.953-8.828,8.828c0,4.093,2.841,7.382,6.621,8.382v62.685c-3.779,1-6.621,4.289-6.621,8.382
	c0,4.875,3.948,8.828,8.828,8.828h17.655c4.879,0,8.828-3.953,8.828-8.828C273.655,200.183,270.815,196.892,267.034,195.893z"/>
<g>
	<path style="fill:#00AAF0;" d="M308.966,398.481v-79.448c0-4.875-3.953-8.828-8.828-8.828h-88.276
		c-4.875,0-8.828,3.953-8.828,8.828v79.448h-16.436c-6.259,0-9.023,7.881-4.136,11.79l68.023,54.419
		c3.224,2.579,7.805,2.579,11.029,0l68.023-54.419c4.887-3.91,2.122-11.79-4.136-11.79H308.966z"/>
	<path style="fill:#00AAF0;" d="M282.483,239.586c-58.505,0-105.931-47.427-105.931-105.931c0-31.055,13.446-58.899,34.735-78.275
		c-36.128,16.871-61.218,53.426-61.218,95.93c0,58.504,47.426,105.931,105.931,105.931c27.449,0,52.38-10.53,71.197-27.657
		C313.598,235.934,298.484,239.586,282.483,239.586z"/>
</g>
<circle style="fill:#FFFFFF;" cx="256" cy="96.134" r="11.034"/>
<g>
</g>
<g>
</g>
<g>
</g>
<g>
</g>
<g>
</g>
<g>
</g>
<g>
</g>
<g>
</g>
<g>
</g>
<g>
</g>
<g>
</g>
<g>
</g>
<g>
</g>
<g>
</g>
<g>
</g>
</svg>
