<?xml version="1.0" encoding="iso-8859-1"?>
<!-- Generator: Adobe Illustrator 19.0.0, SVG Export Plug-In . SVG Version: 6.00 Build 0)  -->
<svg version="1.1" id="Layer_1" xmlns="http://www.w3.org/2000/svg" xmlns:xlink="http://www.w3.org/1999/xlink" x="0px" y="0px"
	 viewBox="0 0 512 512" style="enable-background:new 0 0 512 512;" xml:space="preserve">
<path style="fill:#E4EAF8;" d="M485.517,441.379H26.483C11.857,441.379,0,429.523,0,414.897V97.103
	c0-14.626,11.857-26.483,26.483-26.483h459.034c14.626,0,26.483,11.857,26.483,26.483v317.793
	C512,429.523,500.143,441.379,485.517,441.379z"/>
<path style="fill:#707487;" d="M26.483,441.379h97.103V70.621H26.483C11.857,70.621,0,82.477,0,97.103v317.793
	C0,429.523,11.857,441.379,26.483,441.379z"/>
<path style="fill:#C7CFE2;" d="M194.207,114.759h-35.31c-4.879,0-8.828-3.948-8.828-8.828c0-4.879,3.948-8.828,8.828-8.828h35.31
	c4.879,0,8.828,3.948,8.828,8.828C203.034,110.81,199.086,114.759,194.207,114.759z"/>
<path style="fill:#00C3FF;" d="M88.276,114.759H35.31c-4.879,0-8.828-3.948-8.828-8.828c0-4.879,3.948-8.828,8.828-8.828h52.966
	c4.879,0,8.828,3.948,8.828,8.828C97.103,110.81,93.155,114.759,88.276,114.759z"/>
<g>
	<path style="fill:#D5DCED;" d="M88.276,203.034H35.31c-4.879,0-8.828-3.948-8.828-8.828s3.948-8.828,8.828-8.828h52.966
		c4.879,0,8.828,3.948,8.828,8.828S93.155,203.034,88.276,203.034z"/>
	<path style="fill:#D5DCED;" d="M88.276,273.655H35.31c-4.879,0-8.828-3.948-8.828-8.828c0-4.879,3.948-8.828,8.828-8.828h52.966
		c4.879,0,8.828,3.948,8.828,8.828C97.103,269.707,93.155,273.655,88.276,273.655z"/>
	<path style="fill:#D5DCED;" d="M88.276,344.276H35.31c-4.879,0-8.828-3.948-8.828-8.828s3.948-8.828,8.828-8.828h52.966
		c4.879,0,8.828,3.948,8.828,8.828S93.155,344.276,88.276,344.276z"/>
	<path style="fill:#D5DCED;" d="M88.276,238.345H35.31c-4.879,0-8.828-3.948-8.828-8.828s3.948-8.828,8.828-8.828h52.966
		c4.879,0,8.828,3.948,8.828,8.828S93.155,238.345,88.276,238.345z"/>
	<path style="fill:#D5DCED;" d="M88.276,308.966H35.31c-4.879,0-8.828-3.948-8.828-8.828c0-4.879,3.948-8.828,8.828-8.828h52.966
		c4.879,0,8.828,3.948,8.828,8.828C97.103,305.017,93.155,308.966,88.276,308.966z"/>
</g>
<g>
	<path style="fill:#959CB5;" d="M70.621,397.241H35.31c-4.879,0-8.828-3.948-8.828-8.828s3.948-8.828,8.828-8.828h35.31
		c4.879,0,8.828,3.948,8.828,8.828S75.5,397.241,70.621,397.241z"/>
	<path style="fill:#959CB5;" d="M70.621,150.069H35.31c-4.879,0-8.828-3.948-8.828-8.828s3.948-8.828,8.828-8.828h35.31
		c4.879,0,8.828,3.948,8.828,8.828S75.5,150.069,70.621,150.069z"/>
</g>
<path style="fill:#00C3FF;" d="M264.828,114.759h-35.31c-4.879,0-8.828-3.948-8.828-8.828c0-4.879,3.948-8.828,8.828-8.828h35.31
	c4.879,0,8.828,3.948,8.828,8.828C273.655,110.81,269.707,114.759,264.828,114.759z"/>
<g>
	<path style="fill:#C7CFE2;" d="M335.448,114.759h-35.31c-4.879,0-8.828-3.948-8.828-8.828c0-4.879,3.948-8.828,8.828-8.828h35.31
		c4.879,0,8.828,3.948,8.828,8.828C344.276,110.81,340.328,114.759,335.448,114.759z"/>
	<path style="fill:#C7CFE2;" d="M406.069,114.759h-35.31c-4.879,0-8.828-3.948-8.828-8.828c0-4.879,3.948-8.828,8.828-8.828h35.31
		c4.879,0,8.828,3.948,8.828,8.828C414.897,110.81,410.948,114.759,406.069,114.759z"/>
	<path style="fill:#C7CFE2;" d="M476.69,114.759h-35.31c-4.879,0-8.828-3.948-8.828-8.828c0-4.879,3.948-8.828,8.828-8.828h35.31
		c4.879,0,8.828,3.948,8.828,8.828C485.517,110.81,481.569,114.759,476.69,114.759z"/>
</g>
<g>
	<path style="fill:#00C3FF;" d="M211.862,229.517c11.224,0,21.526,5.155,28.267,14.146c2.931,3.905,8.448,4.681,12.362,1.759
		c3.896-2.922,4.69-8.457,1.759-12.362c-10.103-13.474-25.56-21.198-42.388-21.198c-29.207,0-52.966,23.758-52.966,52.966
		c0,29.207,23.758,52.966,52.966,52.966c16.819,0,32.258-7.724,42.37-21.181c2.922-3.896,2.138-9.431-1.759-12.362
		c-3.887-2.914-9.431-2.138-12.362,1.759c-6.741,8.982-17.034,14.129-28.249,14.129c-19.474,0-35.31-15.837-35.31-35.31
		S192.388,229.517,211.862,229.517z"/>
	<path style="fill:#00C3FF;" d="M361.931,247.172c0-19.474-15.837-35.31-35.31-35.31h-44.138c-4.879,0-8.828,3.948-8.828,8.828
		v88.276c0,4.879,3.948,8.828,8.828,8.828s8.828-3.948,8.828-8.828v-26.483h22.073l23.832,31.776
		c1.732,2.319,4.38,3.534,7.069,3.534c1.845,0,3.699-0.577,5.284-1.768c3.905-2.922,4.698-8.457,1.768-12.353l-16.653-22.205
		C350.268,277.8,361.931,263.862,361.931,247.172z M326.621,264.828h-35.31v-35.31h35.31c9.732,0,17.655,7.923,17.655,17.655
		C344.276,256.905,336.353,264.828,326.621,264.828z"/>
	<path style="fill:#00C3FF;" d="M467.819,219.81c-0.405-4.043-3.526-7.293-7.552-7.862c-3.982-0.577-7.923,1.681-9.431,5.465
		l-27.112,67.785l-27.112-67.785c-1.517-3.785-5.492-6.051-9.431-5.465c-4.025,0.569-7.147,3.819-7.552,7.862l-8.828,88.276
		c-0.483,4.853,3.052,9.181,7.905,9.664c4.957,0.423,9.181-3.052,9.664-7.905l5.241-52.396l21.913,54.793
		c1.345,3.353,4.586,5.551,8.199,5.551c3.613,0,6.854-2.198,8.199-5.551l21.913-54.793l5.241,52.396
		c0.457,4.552,4.294,7.948,8.776,7.948c0.294,0,0.586-0.018,0.888-0.043c4.853-0.483,8.388-4.81,7.905-9.664L467.819,219.81z"/>
</g>
<g>
</g>
<g>
</g>
<g>
</g>
<g>
</g>
<g>
</g>
<g>
</g>
<g>
</g>
<g>
</g>
<g>
</g>
<g>
</g>
<g>
</g>
<g>
</g>
<g>
</g>
<g>
</g>
<g>
</g>
</svg>
