<?xml version="1.0" encoding="iso-8859-1"?>
<!-- Generator: Adobe Illustrator 19.0.0, SVG Export Plug-In . SVG Version: 6.00 Build 0)  -->
<svg version="1.1" id="Layer_1" xmlns="http://www.w3.org/2000/svg" xmlns:xlink="http://www.w3.org/1999/xlink" x="0px" y="0px"
	 viewBox="0 0 512.001 512.001" style="enable-background:new 0 0 512.001 512.001;" xml:space="preserve">
<path style="fill:#FAEBC8;" d="M225.747,17.656v406.077l23.439,85.943c0.845,3.101,5.243,3.101,6.089,0l23.439-85.943V17.656
	C278.714,7.904,270.81,0,261.058,0h-17.656C233.652,0,225.747,7.904,225.747,17.656z"/>
<rect x="225.748" y="44.139" style="fill:#FFDC64;" width="52.967" height="379.594"/>
<path style="fill:#FFC850;" d="M252.23,141.244V44.139h-26.483v379.594h26.483v-232.78c0-5.357,4.769-9.666,10.054-8.781
	c5.785,0.968,11.295,2.749,16.43,5.193v-46.119H252.23z"/>
<path style="fill:#AFB9D2;" d="M408.544,271.084c3.263-18.184,3.424-37.041,0.055-55.807l22.783-14.568
	c3.605-2.305,5.037-6.862,3.4-10.815l-14.847-35.844c-1.529-3.692-5.347-5.896-9.309-5.374l-28.081,3.701
	c-10.888-15.652-24.336-28.871-39.501-39.424l6.484-23.363c1.193-4.298-1.007-8.81-5.128-10.516l-35.95-14.89
	c-3.456-1.431-7.44-0.529-9.941,2.252l-18.395,20.452c-18.184-3.262-37.042-3.424-55.808-0.055l-10.797-18.549
	c-2.177-3.741-6.746-5.351-10.788-3.803L163.436,79.53c-3.865,1.481-6.183,5.449-5.574,9.543l3.543,23.814
	c-15.651,10.888-28.871,24.336-39.423,39.501l-19.968-3.411c-4.063-0.694-8.064,1.516-9.642,5.323l-15.157,36.593
	c-1.444,3.488-0.512,7.509,2.322,10.004l16.378,14.42c-3.263,18.185-3.423,37.042-0.055,55.808l-16.325,14.379
	c-2.833,2.495-3.765,6.515-2.321,10.003l15.157,36.593c1.577,3.808,5.579,6.017,9.642,5.323l19.9-3.4
	c10.888,15.652,24.336,28.871,39.501,39.423l-0.499,24.863c-0.073,3.635,2.089,6.942,5.448,8.333l36.241,15.012
	c4.081,1.691,8.783,0.104,11.006-3.713l10.735-18.428l1.4,0.001v-81.507c-31.589-11.185-54.041-41.697-52.927-77.372
	c1.291-41.326,35.761-75.7,77.091-76.878c44.939-1.28,81.769,34.767,81.769,79.417c0,34.577-22.129,63.914-52.967,74.832v81.559
	l1.441,0.001l18.353,20.398c2.502,2.781,6.485,3.682,9.941,2.251l35.95-14.891c4.121-1.707,6.322-6.22,5.128-10.518l-6.471-23.293
	c15.651-10.888,28.872-24.336,39.424-39.501l28.15,3.711c3.961,0.522,7.781-1.682,9.31-5.374l14.847-35.844
	c1.638-3.953,0.205-8.51-3.4-10.815L408.544,271.084z"/>
<path style="fill:#959CB5;" d="M358.256,199.283c-25.885-62.492-100.603-89.963-161.617-56.505
	c-45.823,25.126-69.01,79.775-55.263,130.194c9.381,34.403,32.709,59.948,61.544,73.656c3.116,1.482,5.172,4.519,5.172,7.97v67.375
	c2.247-0.558,4.28-1.898,5.521-4.029l10.735-18.428l1.4,0.001l-0.034-81.421c-23.974-8.497-43.78-28.399-50.711-56.1
	c-8.149-32.569,5.811-67.684,34.185-85.63c45.978-29.081,105.535-5.576,119.766,46.116c8.342,30.299-2.428,63.64-27.212,82.963
	c-7.254,5.656-15.051,9.837-23.027,12.663l-0.001,81.459l1.441,0.001l16.214,18.022v-62.797c0-3.456,2.071-6.504,5.193-7.987
	C356.39,320.757,381.749,256.002,358.256,199.283z"/>
<path style="fill:#F5DCB4;" d="M225.747,423.732L225.747,423.732l23.439,85.943c0.423,1.55,1.734,2.325,3.044,2.325v-88.268H225.747
	z"/>
<path style="fill:#5B5D6E;" d="M237.785,467.871l11.401,41.804c0.845,3.101,5.243,3.101,6.089,0l11.401-41.804H237.785z"/>
<path style="fill:#464655;" d="M237.785,467.871l11.401,41.804c0.423,1.55,1.734,2.325,3.044,2.325v-44.129H237.785z"/>
<path style="fill:#F5DCB4;" d="M252.23,44.139h-26.483V17.656C225.747,7.904,233.651,0,243.403,0h8.828V44.139z"/>
<g>
</g>
<g>
</g>
<g>
</g>
<g>
</g>
<g>
</g>
<g>
</g>
<g>
</g>
<g>
</g>
<g>
</g>
<g>
</g>
<g>
</g>
<g>
</g>
<g>
</g>
<g>
</g>
<g>
</g>
</svg>
