<?xml version="1.0" encoding="iso-8859-1"?>
<!-- Generator: Adobe Illustrator 19.0.0, SVG Export Plug-In . SVG Version: 6.00 Build 0)  -->
<svg version="1.1" id="Layer_1" xmlns="http://www.w3.org/2000/svg" xmlns:xlink="http://www.w3.org/1999/xlink" x="0px" y="0px"
	 viewBox="0 0 512 512" style="enable-background:new 0 0 512 512;" xml:space="preserve">
<rect x="114.759" y="317.793" style="fill:#C7CFE2;" width="88.276" height="44.138"/>
<path style="fill:#E4EAF8;" d="M300.138,326.621H17.655C7.904,326.621,0,318.717,0,308.965V132.414
	c0-9.751,7.904-17.655,17.655-17.655h282.483c9.751,0,17.655,7.904,17.655,17.655v176.552
	C317.793,318.717,309.889,326.621,300.138,326.621z"/>
<path style="fill:#7F8499;" d="M499.634,203.034l-105.931-79.448l-10.586,14.121l101.103,75.832l-35.826,128.97h18.329
	l36.125-130.051C503.823,208.957,502.548,205.216,499.634,203.034z"/>
<path style="fill:#5B5D6E;" d="M300.138,114.759H17.655C7.904,114.759,0,122.663,0,132.414V291.31h317.793V132.414
	C317.793,122.664,309.889,114.759,300.138,114.759z"/>
<rect x="17.655" y="132.414" style="fill:#FFDC64;" width="282.483" height="141.241"/>
<path style="fill:#FFFFFF;" d="M273.741,273.655V166.952c0-3.857-2.659-7.196-6.428-8.01c-12.632-2.727-41.674-8.331-67.046-8.331
	c-23.521,0-34.749,5.24-39.08,8.052c-1.396,0.906-3.102,0.906-4.498,0c-4.331-2.812-15.559-8.052-39.079-8.052
	c-25.37,0-54.412,5.603-67.046,8.331c-3.769,0.814-6.429,4.153-6.429,8.01v106.703H273.741z"/>
<path style="fill:#707487;" d="M247.181,194.207c-0.439,0-0.879-0.034-1.327-0.095c-28.724-4.337-51.448-4.922-67.267-1.181
	c-4.733,1.146-9.508-1.811-10.621-6.552c-1.129-4.742,1.811-9.5,6.552-10.621c18.182-4.301,42.802-3.81,73.974,0.888
	c4.819,0.733,8.138,5.233,7.414,10.051C255.242,191.069,251.474,194.207,247.181,194.207z"/>
<path style="fill:#7F8499;" d="M247.181,264.828c-0.439,0-0.879-0.034-1.327-0.095c-28.724-4.337-51.448-4.922-67.267-1.181
	c-4.733,1.121-9.508-1.811-10.621-6.552c-1.129-4.742,1.811-9.5,6.552-10.621c18.182-4.31,42.802-3.81,73.974,0.888
	c4.819,0.733,8.138,5.233,7.414,10.051C255.242,261.689,251.474,264.828,247.181,264.828z"/>
<path style="fill:#707487;" d="M176.543,228.483c-4,0-7.62-2.733-8.586-6.802c-1.112-4.742,1.818-9.5,6.569-10.621
	c2.845-0.664,6.051-1.276,9.664-1.768c4.871-0.621,9.284,2.741,9.94,7.561c0.655,4.836-2.733,9.284-7.561,9.94
	c-2.991,0.405-5.646,0.897-7.991,1.457C177.897,228.405,177.216,228.483,176.543,228.483z"/>
<g>
	<path style="fill:#7F8499;" d="M247.181,229.517c-0.439,0-0.879-0.034-1.327-0.095c-9.207-1.397-17.888-2.397-25.818-2.991
		c-4.862-0.362-8.509-4.595-8.147-9.457c0.362-4.862,4.638-8.518,9.457-8.147c8.371,0.621,17.5,1.681,27.147,3.129
		c4.819,0.733,8.138,5.233,7.414,10.051C255.242,226.379,251.474,229.517,247.181,229.517z"/>
	<path style="fill:#7F8499;" d="M70.612,194.207c-4.294,0-8.061-3.138-8.724-7.509c-0.724-4.819,2.595-9.319,7.414-10.051
		c31.172-4.69,55.801-5.19,73.974-0.888c4.742,1.121,7.681,5.879,6.552,10.621c-1.121,4.742-5.897,7.699-10.621,6.552
		c-15.819-3.742-38.535-3.155-67.267,1.181C71.491,194.173,71.052,194.207,70.612,194.207z"/>
</g>
<g>
	<path style="fill:#707487;" d="M70.612,264.828c-4.294,0-8.061-3.138-8.724-7.509c-0.724-4.819,2.595-9.319,7.414-10.051
		c31.172-4.69,55.801-5.19,73.974-0.888c4.742,1.121,7.681,5.879,6.552,10.621c-1.121,4.742-5.897,7.672-10.621,6.552
		c-15.819-3.742-38.535-3.155-67.267,1.181C71.491,264.793,71.052,264.828,70.612,264.828z"/>
	<path style="fill:#707487;" d="M141.25,228.483c-0.672,0-1.354-0.077-2.035-0.233c-2.345-0.561-5-1.052-7.991-1.457
		c-4.828-0.655-8.215-5.103-7.561-9.94c0.664-4.819,5.086-8.181,9.94-7.561c3.612,0.491,6.819,1.103,9.664,1.768
		c4.75,1.121,7.681,5.879,6.569,10.621C148.871,225.741,145.25,228.483,141.25,228.483z"/>
</g>
<path style="fill:#7F8499;" d="M70.612,229.517c-4.294,0-8.061-3.138-8.724-7.509c-0.724-4.819,2.595-9.319,7.414-10.051
	c9.646-1.449,18.776-2.508,27.147-3.129c4.991-0.457,9.095,3.285,9.457,8.147c0.362,4.862-3.285,9.095-8.147,9.457
	c-7.932,0.595-16.612,1.594-25.818,2.991C71.491,229.483,71.052,229.517,70.612,229.517z"/>
<g>
	<path style="fill:#C7CFE2;" d="M467.862,335.448h-70.621c-9.75,0-17.655,7.904-17.655,17.655v17.655h105.931v-17.655
		C485.517,343.352,477.612,335.448,467.862,335.448z"/>
	<circle style="fill:#C7CFE2;" cx="494.345" cy="211.862" r="17.655"/>
</g>
<path style="fill:#E4EAF8;" d="M384.648,108.819c-13.034-6.635-28.98-1.448-35.615,11.586l-25.475,49.773l47.201,24.029
	l25.475-49.773C402.87,131.4,397.682,115.454,384.648,108.819z"/>
<path style="fill:#C7CFE2;" d="M388.61,229.704l-104.041-52.964c-5.369-2.733-6.483-9.924-2.191-14.154l26.508-26.127
	c2.706-2.667,6.815-3.304,10.201-1.58l83.062,42.284c3.387,1.724,5.289,5.421,4.725,9.178l-5.53,36.808
	C400.45,229.107,393.981,232.437,388.61,229.704z"/>
<path style="fill:#F5DCB4;" d="M503.172,406.069H8.828c-4.875,0-8.828-3.953-8.828-8.828v-17.655c0-4.875,3.953-8.828,8.828-8.828
	h494.345c4.875,0,8.828,3.953,8.828,8.828v17.655C512,402.116,508.047,406.069,503.172,406.069z"/>
<path style="fill:#E4EAF8;" d="M220.69,370.759H97.103c-4.875,0-8.828-3.953-8.828-8.828l0,0c0-4.875,3.953-8.828,8.828-8.828
	H220.69c4.875,0,8.828,3.953,8.828,8.828l0,0C229.517,366.806,225.565,370.759,220.69,370.759z"/>
<g>
</g>
<g>
</g>
<g>
</g>
<g>
</g>
<g>
</g>
<g>
</g>
<g>
</g>
<g>
</g>
<g>
</g>
<g>
</g>
<g>
</g>
<g>
</g>
<g>
</g>
<g>
</g>
<g>
</g>
</svg>
