<?xml version="1.0" encoding="iso-8859-1"?>
<!-- Generator: Adobe Illustrator 19.0.0, SVG Export Plug-In . SVG Version: 6.00 Build 0)  -->
<svg version="1.1" id="Layer_1" xmlns="http://www.w3.org/2000/svg" xmlns:xlink="http://www.w3.org/1999/xlink" x="0px" y="0px"
	 viewBox="0 0 512 512" style="enable-background:new 0 0 512 512;" xml:space="preserve">
<path style="fill:#E4EAF8;" d="M97.103,17.655C97.103,7.904,105.007,0,114.759,0h264.828l88.276,88.276v406.069
	c0,9.751-7.904,17.655-17.655,17.655H114.759c-9.751,0-17.655-7.904-17.655-17.655V17.655z"/>
<g>
	<path style="fill:#D5DCED;" d="M300.138,467.862H97.103V308.966h203.034c19.501,0,35.31,15.809,35.31,35.31v88.276
		C335.448,452.053,319.639,467.862,300.138,467.862z"/>
	<path style="fill:#D5DCED;" d="M379.586,0v70.621c0,9.75,7.905,17.655,17.655,17.655h70.621L379.586,0z"/>
</g>
<path style="fill:#00AAF0;" d="M220.69,185.379v52.966c0,4.875,3.953,8.828,8.828,8.828h105.931c4.875,0,8.828-3.953,8.828-8.828
	v-52.966H220.69z"/>
<g>
	<path style="fill:#0096DC;" d="M379.586,176.543l-17.655,0.018l0.086,70.621c0.009,4.871,3.957,8.819,8.828,8.819h0.009
		c4.879-0.009,8.828-3.966,8.819-8.836L379.586,176.543z"/>
	<path style="fill:#0096DC;" d="M220.69,213.655l48.146,12.839c4.45,1.186,9.042,1.789,13.647,1.789
		c4.606,0,9.197-0.601,13.647-1.789l48.146-12.839v-28.276H220.69V213.655z"/>
</g>
<path style="fill:#00C3FF;" d="M273.385,143.668l-112.263,29.937c-3.019,0.806-3.019,5.09,0,5.895l112.263,29.937
	c5.961,1.59,12.235,1.59,18.196,0l112.263-29.937c3.019-0.806,3.019-5.09,0-5.895l-112.263-29.937
	C285.62,142.078,279.346,142.078,273.385,143.668z"/>
<circle style="fill:#00AAF0;" cx="370.759" cy="273.655" r="8.828"/>
<path style="fill:#00C3FF;" d="M300.138,450.207H61.793c-9.751,0-17.655-7.904-17.655-17.655v-88.276
	c0-9.751,7.904-17.655,17.655-17.655h238.345c9.751,0,17.655,7.904,17.655,17.655v88.276
	C317.793,442.303,309.889,450.207,300.138,450.207z"/>
<g>
	<path style="fill:#FFFFFF;" d="M105.931,423.724H79.448c-4.879,0-8.828-3.948-8.828-8.828v-52.966c0-4.879,3.948-8.828,8.828-8.828
		h26.483c19.474,0,35.31,15.837,35.31,35.31S125.405,423.724,105.931,423.724z M88.276,406.069h17.655
		c9.732,0,17.655-7.923,17.655-17.655s-7.923-17.655-17.655-17.655H88.276V406.069z"/>
	<path style="fill:#FFFFFF;" d="M185.379,423.724c-19.474,0-35.31-15.837-35.31-35.31s15.837-35.31,35.31-35.31
		s35.31,15.837,35.31,35.31S204.853,423.724,185.379,423.724z M185.379,370.759c-9.732,0-17.655,7.923-17.655,17.655
		s7.923,17.655,17.655,17.655s17.655-7.923,17.655-17.655S195.112,370.759,185.379,370.759z"/>
	<path style="fill:#FFFFFF;" d="M264.828,423.724c-19.474,0-35.31-15.837-35.31-35.31s15.837-35.31,35.31-35.31
		c10.051,0,19.656,4.301,26.345,11.801c3.25,3.638,2.931,9.224-0.707,12.466c-3.647,3.233-9.216,2.931-12.466-0.707
		c-3.345-3.75-8.146-5.905-13.172-5.905c-9.732,0-17.655,7.923-17.655,17.655s7.923,17.655,17.655,17.655
		c5.009,0,9.811-2.146,13.173-5.897c3.258-3.62,8.828-3.932,12.466-0.672c3.629,3.25,3.932,8.828,0.672,12.466
		C284.439,419.439,274.845,423.724,264.828,423.724z"/>
</g>
<g>
</g>
<g>
</g>
<g>
</g>
<g>
</g>
<g>
</g>
<g>
</g>
<g>
</g>
<g>
</g>
<g>
</g>
<g>
</g>
<g>
</g>
<g>
</g>
<g>
</g>
<g>
</g>
<g>
</g>
</svg>
