<?xml version="1.0" encoding="iso-8859-1"?>
<!-- Generator: Adobe Illustrator 19.0.0, SVG Export Plug-In . SVG Version: 6.00 Build 0)  -->
<svg version="1.1" id="Layer_1" xmlns="http://www.w3.org/2000/svg" xmlns:xlink="http://www.w3.org/1999/xlink" x="0px" y="0px"
	 viewBox="0 0 512 512" style="enable-background:new 0 0 512 512;" xml:space="preserve">
<rect x="216.991" y="425.251" style="fill:#5B5D6E;" width="34.699" height="60.724"/>
<path style="fill:#7F8499;" d="M234.048,433.931c-27.609,0-55.649-5.304-82.707-16.511l6.642-16.028
	c101.607,42.087,218.582-6.337,260.685-107.982c42.103-101.641-6.337-218.586-107.978-260.689l6.642-16.028
	C427.808,62.456,480.459,189.57,434.696,300.052C400.141,383.474,319.195,433.931,234.048,433.931z"/>
<path style="fill:#AFB9D2;" d="M148.113,433.943c-1.109,0-2.237-0.216-3.321-0.665c-4.422-1.834-6.523-6.908-4.693-11.335
	L312.622,5.353c1.83-4.426,6.938-6.519,11.335-4.693c4.422,1.834,6.523,6.908,4.693,11.335L156.127,428.586
	C154.746,431.923,151.511,433.943,148.113,433.943z"/>
<path style="fill:#959CB5;" d="M166.919,357.18l-13.533,32.679c2.605,1.218,5.233,2.404,7.916,3.515
	c2.692,1.116,5.4,2.139,8.113,3.123l13.547-32.712L166.919,357.18z"/>
<circle style="fill:#59D8FF;" cx="234.34" cy="217.055" r="173.496"/>
<path style="fill:#00C3F0;" d="M271.994,325.252c-88.525-36.668-130.565-138.158-93.896-226.684
	c8.518-20.564,20.646-38.491,35.184-53.634c-60.008,7.4-114.447,45.881-139.236,105.729c-36.668,88.525,5.37,190.016,93.895,226.684
	c67.962,28.151,143.451,9.785,191.5-40.261C330.687,340.63,300.672,337.13,271.994,325.252z"/>
<path style="fill:#7F8499;" d="M319.232,512H149.441c-4.836,0-7.982-5.09-5.82-9.415l10.244-20.488
	c1.469-2.939,4.473-4.795,7.759-4.795h145.424c3.286,0,6.289,1.856,7.759,4.795l10.244,20.488
	C327.214,506.911,324.068,512,319.232,512z"/>
<g>
	<path style="fill:#B4FF87;" d="M338.434,147.658c-2.22,0-4.439-0.847-6.133-2.542c-3.389-3.389-3.389-8.879,0-12.267l8.675-8.675
		c3.389-3.389,8.879-3.389,12.267,0s3.389,8.879,0,12.267l-8.675,8.675C342.873,146.811,340.653,147.658,338.434,147.658z"/>
	<path style="fill:#B4FF87;" d="M264.823,96.789l19.534,1.878l2.521-7.11L248.965,78.11c-1.969-0.698-4.11-0.759-6.116-0.172
		l-22.649,6.62c-4.134,1.208-7.881-2.805-6.392-6.847l1.766-4.796c1.192-3.235-0.49-6.82-3.739-7.972l-0.937-0.332
		c-5.981-2.121-12.56-1.779-18.29,0.95l-4.912,2.34c-2.983,1.422-6.553,0.155-7.974-2.828l-5.221-10.662
		c-24.17,8.899-46.302,23.059-64.556,41.842l-0.362,33.539c-0.124,6.493,3.921,12.337,10.042,14.508l1.939,0.687v14.277
		c0,11.964,6.162,23.083,16.308,29.423l24.813,15.508l-6.97,8.934l-5.043,14.221c-1.587,4.475-0.975,9.437,1.654,13.393
		l12.525,18.85c2.628,3.956,3.241,8.918,1.654,13.393l-6.723,18.956c-2.678,7.553-3.813,15.567-3.335,23.566l1.301,21.793
		c0.171,2.87,2.011,5.373,4.701,6.391l0.044,0.016c3.827,1.45,8.098-0.529,9.465-4.386l7.507-21.168l14.428-3.641
		c4.185-1.056,7.85-3.585,10.322-7.122l8.714-12.469c1.997-2.56,5.409-3.555,8.47-2.469l3.544,1.257
		c3.263,1.157,6.894-0.054,8.808-2.939l8.321-12.542c3.486-5.254,3.96-11.951,1.248-17.643l-1.607-3.375
		c-2.047-4.298-5.719-7.607-10.206-9.199l-2.542-0.902c-2.991-1.06-5.438-3.266-6.803-6.131l-10.892-22.865
		c-2.956-5.396-19.517-16.219-19.517-16.219l-38.133-23.831c-3.339-2.086-4.784-6.21-3.476-9.925l0,0
		c3.285-9.335,13.604-14.267,22.931-10.958l3.501,1.242l-2.654,5.551c-2.067,4.324-0.237,9.505,4.084,11.572
		c1.211,0.576,2.482,0.847,3.736,0.847c3.236,0,6.346-1.817,7.837-4.931l8.201-17.148l50.406-26.597
		c1.432-0.682,3.077-0.768,4.573-0.237l8.506,3.017c2.08,0.738,4.397,0.271,6.029-1.216l2.701-2.46
		c2.283-2.079,2.608-5.554,0.751-8.021l-10.462-13.901C257.623,101.369,260.426,96.366,264.823,96.789z"/>
	<path style="fill:#B4FF87;" d="M394.626,283.45c7.612-18.378,11.649-37.305,12.765-56.104l-10.918-3.628
		c-3.34-1.184-6.955-1.354-10.391-0.487l-5.001,1.262c-6.501,1.641-13.366-0.612-17.631-5.784l-8.884-10.774
		c-4.139-5.019-9.565-8.82-15.697-10.995l-13.009-4.614c-6.917-2.454-14.631-0.448-19.478,5.063l-8.857,10.073
		c-2.903,3.301-5.15,7.126-6.619,11.27c-3.636,10.251-2.233,21.615,3.787,30.674l0.619,0.933
		c4.138,6.227,10.184,10.944,17.23,13.444l0.422,0.15c9.343,3.314,14.231,13.574,10.917,22.917l-6.715,18.935
		c-2.168,6.109-3.071,12.595-2.656,19.064l1.524,23.739c0.353,5.511,5.451,11.723,10.534,15.263
		C356.026,345.373,380.306,318.022,394.626,283.45z"/>
	<path style="fill:#B4FF87;" d="M407.117,202.387c-2.227-25.977-10.341-50.996-23.459-73.302l-13.682,5.606
		c-1.807,0.86-3.197,2.403-3.866,4.289l-4.249,11.98c-1.454,4.101-4.478,7.456-8.406,9.328c-2.3,1.095-4.822,1.641-7.368,1.592
		l-12.488-1.044c-5.416-0.452-10.458,2.802-12.275,7.926l-2.916,8.224c-2.209,6.229,1.05,13.069,7.278,15.277l9.677,3.432
		c4.411,1.565,9.33,0.413,12.588-2.946l11.185-11.531L407.117,202.387z"/>
</g>
<g>
	<path style="fill:#9BF57D;" d="M166.258,185.964l-12.64-7.9c-3.34-2.086-4.784-6.21-3.478-9.924
		c2.374-6.747,8.433-11.136,15.125-11.836c0.964-19.336,5.001-38.826,12.833-57.737c5.225-12.614,11.941-24.11,19.607-34.706
		c-1.743,0.388-3.458,0.918-5.096,1.698l-4.912,2.34c-2.983,1.422-6.553,0.155-7.974-2.828l-5.221-10.661
		c-0.014,0.005-0.029,0.011-0.043,0.016c-24.153,8.9-46.269,23.053-64.513,41.825l-0.362,33.539
		c-0.124,6.493,3.921,12.337,10.042,14.508l1.939,0.687v14.277c0,11.964,6.163,23.083,16.308,29.423l24.813,15.508l-6.97,8.934
		l-5.043,14.221c-1.587,4.475-0.975,9.437,1.654,13.393l12.525,18.849c2.628,3.956,3.241,8.918,1.654,13.394l-6.723,18.956
		c-2.678,7.553-3.813,15.566-3.335,23.565l1.301,21.794c0.171,2.87,2.011,5.373,4.701,6.391l0.044,0.016
		c3.827,1.45,8.098-0.529,9.465-4.386l7.507-21.168l14.428-3.641c4.185-1.056,7.85-3.585,10.322-7.122l8.714-12.469
		c1.879-2.408,5.003-3.363,7.916-2.572C190.482,264.323,171.241,226.474,166.258,185.964z"/>
	<path style="fill:#9BF57D;" d="M359.419,337.087c-14.503,1.786-29.326,1.768-44.139-0.202l0.75,11.698
		c0.351,5.48,5.399,11.647,10.454,15.196c0.555-0.349,1.129-0.666,1.68-1.02c1.698-1.091,3.35-2.258,5.012-3.408
		c1.982-1.376,3.968-2.744,5.895-4.205c1.249-0.943,2.454-1.947,3.679-2.924c2.275-1.823,4.543-3.655,6.731-5.597
		c0.734-0.648,1.435-1.337,2.158-2c2.595-2.383,5.158-4.808,7.614-7.359C359.31,337.207,359.363,337.145,359.419,337.087z"/>
</g>
<g>
</g>
<g>
</g>
<g>
</g>
<g>
</g>
<g>
</g>
<g>
</g>
<g>
</g>
<g>
</g>
<g>
</g>
<g>
</g>
<g>
</g>
<g>
</g>
<g>
</g>
<g>
</g>
<g>
</g>
</svg>
