<?xml version="1.0" encoding="iso-8859-1"?>
<!-- Generator: Adobe Illustrator 19.0.0, SVG Export Plug-In . SVG Version: 6.00 Build 0)  -->
<svg version="1.1" id="Layer_1" xmlns="http://www.w3.org/2000/svg" xmlns:xlink="http://www.w3.org/1999/xlink" x="0px" y="0px"
	 viewBox="0 0 512 512" style="enable-background:new 0 0 512 512;" xml:space="preserve">
<path style="fill:#E4EAF8;" d="M484.875,269.68c8.338-8.336,13.021-19.644,13.021-31.434V43.275c0-9.821-7.961-17.782-17.782-17.782
	H17.782C7.961,25.493,0,33.454,0,43.275v320.076c0,9.821,7.961,17.782,17.782,17.782h337.225c11.791,0,23.098-4.683,31.434-13.021
	L484.875,269.68z"/>
<path style="fill:#C7CFE2;" d="M386.443,368.113l98.432-98.432c6.415-6.415,10.607-14.601,12.226-23.401
	c-3.41,16.085-17.669,28.162-34.769,28.162h-53.346c-9.821,0-17.782,7.961-17.782,17.782v53.346c0,17.1-12.077,31.36-28.162,34.769
	C371.841,378.719,380.027,374.528,386.443,368.113z"/>
<rect x="240.057" y="25.493" style="fill:#D5DCED;" width="17.782" height="355.64"/>
<path style="fill:#464655;" d="M424.078,312.961v110.526c0,3.535,3.925,5.656,6.883,3.718l21.523-14.106l29.269,70.662
	c0.939,2.268,3.54,3.345,5.808,2.406l21.694-8.985c2.268-0.939,3.345-3.54,2.406-5.808l-29.269-70.662l25.289-5.119
	c3.475-0.703,4.769-4.993,2.262-7.501l-78.274-78.274C428.867,307.017,424.078,309,424.078,312.961z"/>
<path style="fill:#00AAF0;" d="M213.384,87.73h-53.346c-4.914,0-8.891-3.977-8.891-8.891c0-4.914,3.977-8.891,8.891-8.891h53.346
	c4.914,0,8.891,3.977,8.891,8.891C222.275,83.754,218.298,87.73,213.384,87.73z"/>
<path style="fill:#7F8499;" d="M213.384,123.294h-53.346c-4.914,0-8.891-3.977-8.891-8.891s3.977-8.891,8.891-8.891h53.346
	c4.914,0,8.891,3.977,8.891,8.891S218.298,123.294,213.384,123.294z"/>
<path style="fill:#707487;" d="M213.384,158.858h-53.346c-4.914,0-8.891-3.977-8.891-8.891s3.977-8.891,8.891-8.891h53.346
	c4.914,0,8.891,3.977,8.891,8.891S218.298,158.858,213.384,158.858z"/>
<path style="fill:#7F8499;" d="M213.384,194.422h-53.346c-4.914,0-8.891-3.977-8.891-8.891s3.977-8.891,8.891-8.891h53.346
	c4.914,0,8.891,3.977,8.891,8.891S218.298,194.422,213.384,194.422z"/>
<path style="fill:#707487;" d="M71.128,229.986H44.455c-4.914,0-8.891-3.977-8.891-8.891s3.976-8.891,8.891-8.891h26.673
	c4.914,0,8.891,3.977,8.891,8.891S76.042,229.986,71.128,229.986z"/>
<path style="fill:#7F8499;" d="M213.384,229.986H106.692c-4.914,0-8.891-3.977-8.891-8.891s3.977-8.891,8.891-8.891h106.692
	c4.914,0,8.891,3.977,8.891,8.891S218.298,229.986,213.384,229.986z"/>
<path style="fill:#FFC850;" d="M453.441,229.986H284.512c-4.914,0-8.891-3.977-8.891-8.891s3.977-8.891,8.891-8.891h168.929
	c4.914,0,8.891,3.977,8.891,8.891S458.355,229.986,453.441,229.986z"/>
<path style="fill:#7F8499;" d="M355.64,265.55h-71.128c-4.914,0-8.891-3.977-8.891-8.891c0-4.915,3.977-8.891,8.891-8.891h71.128
	c4.914,0,8.891,3.977,8.891,8.891C364.531,261.574,360.554,265.55,355.64,265.55z"/>
<path style="fill:#707487;" d="M302.294,301.114h-17.782c-4.914,0-8.891-3.977-8.891-8.891s3.977-8.891,8.891-8.891h17.782
	c4.914,0,8.891,3.977,8.891,8.891S307.208,301.114,302.294,301.114z"/>
<g>
	<path style="fill:#7F8499;" d="M355.64,301.114h-17.782c-4.914,0-8.891-3.977-8.891-8.891s3.977-8.891,8.891-8.891h17.782
		c4.914,0,8.891,3.977,8.891,8.891S360.554,301.114,355.64,301.114z"/>
	<path style="fill:#7F8499;" d="M355.64,336.678h-71.128c-4.914,0-8.891-3.977-8.891-8.891c0-4.914,3.977-8.891,8.891-8.891h71.128
		c4.914,0,8.891,3.977,8.891,8.891C364.531,332.701,360.554,336.678,355.64,336.678z"/>
	<path style="fill:#7F8499;" d="M142.256,265.55H44.455c-4.914,0-8.891-3.977-8.891-8.891c0-4.915,3.976-8.891,8.891-8.891h97.801
		c4.914,0,8.891,3.977,8.891,8.891C151.147,261.574,147.17,265.55,142.256,265.55z"/>
</g>
<path style="fill:#707487;" d="M213.384,265.55H177.82c-4.914,0-8.891-3.977-8.891-8.891c0-4.915,3.977-8.891,8.891-8.891h35.564
	c4.914,0,8.891,3.977,8.891,8.891C222.275,261.574,218.298,265.55,213.384,265.55z"/>
<g>
	<path style="fill:#7F8499;" d="M213.384,301.114H44.455c-4.914,0-8.891-3.977-8.891-8.891s3.976-8.891,8.891-8.891h168.929
		c4.914,0,8.891,3.977,8.891,8.891S218.298,301.114,213.384,301.114z"/>
	<path style="fill:#7F8499;" d="M213.384,336.678h-88.91c-4.914,0-8.891-3.977-8.891-8.891c0-4.914,3.976-8.891,8.891-8.891h88.91
		c4.914,0,8.891,3.977,8.891,8.891C222.275,332.701,218.298,336.678,213.384,336.678z"/>
</g>
<path style="fill:#707487;" d="M88.91,336.678H44.455c-4.914,0-8.891-3.977-8.891-8.891c0-4.914,3.976-8.891,8.891-8.891H88.91
	c4.914,0,8.891,3.977,8.891,8.891C97.801,332.701,93.824,336.678,88.91,336.678z"/>
<path style="fill:#00C3FF;" d="M115.583,185.531H44.455c-4.91,0-8.891-3.981-8.891-8.891V78.883c0-4.91,3.981-8.891,8.891-8.891
	h71.128c4.91,0,8.891,3.981,8.891,8.891v97.758C124.474,181.551,120.493,185.531,115.583,185.531z"/>
<path style="fill:#FFDC64;" d="M453.441,185.531H284.512c-4.91,0-8.891-3.981-8.891-8.891V78.883c0-4.91,3.981-8.891,8.891-8.891
	h168.929c4.91,0,8.891,3.981,8.891,8.891v97.758C462.332,181.551,458.351,185.531,453.441,185.531z"/>
<g>
</g>
<g>
</g>
<g>
</g>
<g>
</g>
<g>
</g>
<g>
</g>
<g>
</g>
<g>
</g>
<g>
</g>
<g>
</g>
<g>
</g>
<g>
</g>
<g>
</g>
<g>
</g>
<g>
</g>
</svg>
