<?xml version="1.0" encoding="iso-8859-1"?>
<!-- Generator: Adobe Illustrator 19.0.0, SVG Export Plug-In . SVG Version: 6.00 Build 0)  -->
<svg version="1.1" id="Layer_1" xmlns="http://www.w3.org/2000/svg" xmlns:xlink="http://www.w3.org/1999/xlink" x="0px" y="0px"
	 viewBox="0 0 512 512" style="enable-background:new 0 0 512 512;" xml:space="preserve">
<path style="fill:#00C3FF;" d="M441.379,512H70.621c-9.751,0-17.655-7.904-17.655-17.655V26.483c0-9.751,7.904-17.655,17.655-17.655
	h370.759c9.751,0,17.655,7.904,17.655,17.655v467.862C459.034,504.096,451.13,512,441.379,512z"/>
<path style="fill:#707487;" d="M342.51,127.117l28.248-21.186l28.248,21.186c2.91,2.183,7.062,0.106,7.062-3.531V8.828
	c0-4.875-3.953-8.828-8.828-8.828h-52.966c-4.875,0-8.828,3.953-8.828,8.828v114.759C335.448,127.223,339.601,129.3,342.51,127.117z
	"/>
<path style="fill:#00AAF0;" d="M88.276,485.517c-4.879,0-8.828-3.953-8.828-8.828V44.138c0-4.875,3.948-8.828,8.828-8.828
	c4.879,0,8.828,3.953,8.828,8.828V476.69C97.103,481.565,93.155,485.517,88.276,485.517z"/>
<g>
	<path style="fill:#5B5D6E;" d="M229.517,185.379v79.448h-24.654c-3.933,0-5.901,4.755-3.121,7.534l56.844,56.844
		c3.447,3.447,9.037,3.447,12.484,0l56.844-56.844c2.781-2.781,0.811-7.534-3.121-7.534h-24.657v-79.448
		c0-4.875-3.953-8.828-8.828-8.828h-52.965C233.47,176.552,229.517,180.504,229.517,185.379z"/>
	<path style="fill:#5B5D6E;" d="M344.276,379.586H185.379c-9.732,0-17.655-7.918-17.655-17.655v-26.483
		c0-4.875,3.948-8.828,8.828-8.828c4.879,0,8.828,3.953,8.828,8.828v26.483h158.897v-26.483c0-4.875,3.948-8.828,8.828-8.828
		c4.879,0,8.828,3.953,8.828,8.828v26.483C361.931,371.668,354.008,379.586,344.276,379.586z"/>
</g>
<g>
</g>
<g>
</g>
<g>
</g>
<g>
</g>
<g>
</g>
<g>
</g>
<g>
</g>
<g>
</g>
<g>
</g>
<g>
</g>
<g>
</g>
<g>
</g>
<g>
</g>
<g>
</g>
<g>
</g>
</svg>
