<?xml version="1.0" encoding="iso-8859-1"?>
<!-- Generator: Adobe Illustrator 19.0.0, SVG Export Plug-In . SVG Version: 6.00 Build 0)  -->
<svg version="1.1" id="Layer_1" xmlns="http://www.w3.org/2000/svg" xmlns:xlink="http://www.w3.org/1999/xlink" x="0px" y="0px"
	 viewBox="0 0 512 512" style="enable-background:new 0 0 512 512;" xml:space="preserve">
<rect x="185.379" y="406.069" style="fill:#5B5D6E;" width="141.241" height="70.621"/>
<rect x="185.379" y="406.069" style="fill:#464655;" width="141.241" height="26.483"/>
<path style="fill:#707487;" d="M494.345,414.897H17.655C7.904,414.897,0,406.993,0,397.241V97.103
	c0-9.751,7.904-17.655,17.655-17.655h476.69c9.751,0,17.655,7.904,17.655,17.655v300.138
	C512,406.993,504.096,414.897,494.345,414.897z"/>
<rect x="61.793" y="79.448" style="fill:#5B5D6E;" width="388.414" height="35.31"/>
<path style="fill:#FFFFFF;" d="M467.862,379.586H44.138c-4.875,0-8.828-3.953-8.828-8.828V123.586c0-4.875,3.953-8.828,8.828-8.828
	h423.724c4.875,0,8.828,3.953,8.828,8.828v247.172C476.69,375.634,472.737,379.586,467.862,379.586z"/>
<path style="fill:#FFC850;" d="M414.897,264.828H97.103c-9.751,0-17.655-7.904-17.655-17.655V61.793
	c0-9.751,7.904-17.655,17.655-17.655h317.793c9.751,0,17.655,7.904,17.655,17.655v185.379
	C432.552,256.924,424.648,264.828,414.897,264.828z"/>
<g>
	<path style="fill:#FFDC64;" d="M97.103,353.103H79.448c-4.879,0-8.828-3.948-8.828-8.828c0-4.879,3.948-8.828,8.828-8.828h17.655
		c4.879,0,8.828,3.948,8.828,8.828C105.931,349.155,101.983,353.103,97.103,353.103z"/>
	<path style="fill:#FFDC64;" d="M97.103,317.793H79.448c-4.879,0-8.828-3.948-8.828-8.828s3.948-8.828,8.828-8.828h17.655
		c4.879,0,8.828,3.948,8.828,8.828S101.983,317.793,97.103,317.793z"/>
</g>
<path style="fill:#707487;" d="M203.034,317.793h-70.621c-4.879,0-8.828-3.948-8.828-8.828s3.948-8.828,8.828-8.828h70.621
	c4.879,0,8.828,3.948,8.828,8.828S207.914,317.793,203.034,317.793z"/>
<path style="fill:#7F8499;" d="M238.345,353.103H132.414c-4.879,0-8.828-3.948-8.828-8.828c0-4.879,3.948-8.828,8.828-8.828h105.931
	c4.879,0,8.828,3.948,8.828,8.828C247.172,349.155,243.224,353.103,238.345,353.103z"/>
<g>
	<path style="fill:#FFDC64;" d="M291.31,353.103h-17.655c-4.879,0-8.828-3.948-8.828-8.828c0-4.879,3.948-8.828,8.828-8.828h17.655
		c4.879,0,8.828,3.948,8.828,8.828C300.138,349.155,296.19,353.103,291.31,353.103z"/>
	<path style="fill:#FFDC64;" d="M291.31,317.793h-17.655c-4.879,0-8.828-3.948-8.828-8.828s3.948-8.828,8.828-8.828h17.655
		c4.879,0,8.828,3.948,8.828,8.828S296.19,317.793,291.31,317.793z"/>
</g>
<path style="fill:#707487;" d="M397.241,317.793h-70.621c-4.879,0-8.828-3.948-8.828-8.828s3.948-8.828,8.828-8.828h70.621
	c4.879,0,8.828,3.948,8.828,8.828S402.121,317.793,397.241,317.793z"/>
<path style="fill:#7F8499;" d="M432.552,353.103H326.621c-4.879,0-8.828-3.948-8.828-8.828c0-4.879,3.948-8.828,8.828-8.828h105.931
	c4.879,0,8.828,3.948,8.828,8.828C441.379,349.155,437.431,353.103,432.552,353.103z"/>
<path style="fill:#E4EAF8;" d="M310.066,26.483c-42.002,0-54.002,12.789-54.002,12.789s-12-12.789-54.002-12.789
	c-37.18,0-80.393,9.21-92.625,11.999c-2.007,0.458-3.378,2.233-3.378,4.292V236.76c0,2.826,2.567,4.932,5.325,4.318
	c14.371-3.204,55.262-11.561,90.677-11.561c28.582,0,43.271,5.922,49.739,9.707c2.63,1.538,5.895,1.538,8.524,0
	c6.468-3.785,21.158-9.707,49.739-9.707c35.415,0,76.306,8.356,90.678,11.56c2.758,0.615,5.325-1.492,5.325-4.318V42.773
	c0-2.059-1.37-3.834-3.378-4.292C390.46,35.693,347.246,26.483,310.066,26.483z"/>
<path style="fill:#707487;" d="M220.698,186.327c-0.319,0-0.647-0.018-0.974-0.052c-9.956-1.095-21.879-1.112-33.802-0.362
	c-4.828,0.156-9.06-3.388-9.362-8.258c-0.301-4.862,3.388-9.052,8.258-9.362c12.931-0.81,25.845-0.767,36.836,0.431
	c4.845,0.534,8.345,4.888,7.81,9.741C228.966,182.983,225.146,186.327,220.698,186.327z"/>
<g>
	<path style="fill:#7F8499;" d="M141.224,191.164c-4.242,0-7.982-3.06-8.698-7.38c-0.802-4.81,2.449-9.354,7.258-10.155
		c2.897-0.483,5.897-0.957,8.983-1.414c4.94-0.655,9.319,2.63,10.026,7.439c0.715,4.828-2.621,9.311-7.439,10.026
		c-2.983,0.439-5.879,0.897-8.672,1.362C142.189,191.129,141.707,191.164,141.224,191.164z"/>
	<path style="fill:#7F8499;" d="M141.224,155.853c-4.242,0-7.982-3.06-8.698-7.38c-0.802-4.81,2.449-9.362,7.258-10.155
		c32.871-5.465,60.353-7.267,81.87-4.905c4.845,0.534,8.345,4.888,7.81,9.741c-0.534,4.836-4.845,8.294-9.741,7.81
		c-19.801-2.164-45.87-0.405-77.043,4.767C142.189,155.819,141.698,155.853,141.224,155.853z"/>
	<path style="fill:#7F8499;" d="M220.698,115.706c-0.31,0-0.629-0.018-0.948-0.052c-2.595-0.276-5.37-0.5-8.345-0.655
		c-4.871-0.258-8.612-4.405-8.362-9.276c0.258-4.871,4.337-8.672,9.276-8.362c3.319,0.172,6.422,0.431,9.311,0.742
		c4.845,0.518,8.353,4.871,7.837,9.716C228.983,112.345,225.155,115.706,220.698,115.706z"/>
</g>
<path style="fill:#707487;" d="M141.224,120.543c-4.242,0-7.982-3.06-8.698-7.388c-0.802-4.81,2.457-9.354,7.267-10.146
	c12.698-2.103,24.802-3.672,35.982-4.655c4.974-0.414,9.138,3.164,9.569,8.018c0.431,4.862-3.164,9.146-8.018,9.569
	c-10.733,0.948-22.397,2.457-34.655,4.483C142.189,120.509,141.698,120.543,141.224,120.543z"/>
<path style="fill:#7F8499;" d="M141.224,85.233c-4.242,0-7.982-3.06-8.698-7.38c-0.802-4.81,2.449-9.362,7.258-10.155
	c32.871-5.457,60.353-7.267,81.87-4.905c4.845,0.534,8.345,4.888,7.81,9.741c-0.534,4.836-4.845,8.31-9.741,7.81
	c-19.801-2.164-45.87-0.396-77.043,4.767C142.189,85.198,141.698,85.233,141.224,85.233z"/>
<path style="fill:#707487;" d="M291.302,186.327c-4.448,0-8.267-3.345-8.767-7.871c-0.526-4.845,2.966-9.198,7.819-9.732
	c11-1.198,23.923-1.233,36.828-0.431c4.871,0.31,8.569,4.5,8.258,9.362c-0.31,4.871-4.552,8.431-9.362,8.258
	c-11.887-0.759-23.819-0.733-33.811,0.362C291.948,186.311,291.62,186.327,291.302,186.327z"/>
<g>
	<path style="fill:#7F8499;" d="M370.776,191.164c-0.483,0-0.966-0.034-1.457-0.12c-2.793-0.466-5.689-0.922-8.672-1.362
		c-4.819-0.715-8.156-5.198-7.439-10.026c0.707-4.819,5.19-8.207,10.026-7.439c3.086,0.457,6.087,0.931,8.983,1.414
		c4.81,0.802,8.061,5.345,7.258,10.155C378.759,188.104,375.017,191.164,370.776,191.164z"/>
	<path style="fill:#7F8499;" d="M370.776,155.853c-0.474,0-0.966-0.034-1.457-0.12c-31.138-5.173-57.146-6.94-77.052-4.767
		c-4.759,0.491-9.198-2.974-9.732-7.819c-0.526-4.845,2.966-9.198,7.819-9.732c21.535-2.354,49.026-0.552,81.863,4.905
		c4.81,0.793,8.061,5.345,7.258,10.155C378.759,152.793,375.017,155.853,370.776,155.853z"/>
	<path style="fill:#7F8499;" d="M291.302,115.706c-4.457,0-8.285-3.362-8.767-7.887c-0.517-4.853,2.991-9.198,7.837-9.716
		c2.905-0.31,5.992-0.569,9.311-0.742c4.879-0.319,9.017,3.491,9.276,8.362c0.25,4.871-3.491,9.017-8.362,9.276
		c-2.974,0.156-5.75,0.38-8.345,0.655C291.932,115.69,291.612,115.706,291.302,115.706z"/>
</g>
<path style="fill:#707487;" d="M370.776,120.543c-0.474,0-0.966-0.034-1.449-0.12c-12.258-2.026-23.914-3.534-34.646-4.483
	c-4.853-0.431-8.448-4.707-8.018-9.569c0.431-4.853,4.621-8.448,9.569-8.018c11.172,0.983,23.276,2.552,35.975,4.655
	c4.81,0.793,8.07,5.336,7.267,10.146C378.759,117.483,375.017,120.543,370.776,120.543z"/>
<path style="fill:#7F8499;" d="M370.776,85.233c-0.474,0-0.966-0.034-1.457-0.12c-31.138-5.164-57.146-6.931-77.052-4.767
	c-4.759,0.509-9.198-2.974-9.732-7.819c-0.526-4.845,2.966-9.198,7.819-9.732c21.535-2.354,49.026-0.552,81.863,4.905
	c4.81,0.793,8.061,5.345,7.258,10.155C378.759,82.173,375.017,85.233,370.776,85.233z"/>
<path style="fill:#707487;" d="M370.759,485.517H141.241c-4.879,0-8.828-3.948-8.828-8.828c0-4.879,3.948-8.828,8.828-8.828h229.517
	c4.879,0,8.828,3.948,8.828,8.828C379.586,481.569,375.638,485.517,370.759,485.517z"/>
<g>
</g>
<g>
</g>
<g>
</g>
<g>
</g>
<g>
</g>
<g>
</g>
<g>
</g>
<g>
</g>
<g>
</g>
<g>
</g>
<g>
</g>
<g>
</g>
<g>
</g>
<g>
</g>
<g>
</g>
</svg>
