<?xml version="1.0" encoding="iso-8859-1"?>
<!-- Generator: Adobe Illustrator 19.0.0, SVG Export Plug-In . SVG Version: 6.00 Build 0)  -->
<svg version="1.1" id="Layer_1" xmlns="http://www.w3.org/2000/svg" xmlns:xlink="http://www.w3.org/1999/xlink" x="0px" y="0px"
	 viewBox="0 0 512 512" style="enable-background:new 0 0 512 512;" xml:space="preserve">
<path style="fill:#5B5D6E;" d="M406.069,512H105.931c-14.626,0-26.483-11.857-26.483-26.483V26.483
	C79.448,11.857,91.305,0,105.931,0h300.138c14.626,0,26.483,11.857,26.483,26.483v459.034C432.552,500.143,420.695,512,406.069,512z
	"/>
<path style="fill:#D5DCED;" d="M388.414,423.724H123.586c-4.875,0-8.828-3.953-8.828-8.828V44.138c0-4.875,3.953-8.828,8.828-8.828
	h264.828c4.875,0,8.828,3.953,8.828,8.828v370.759C397.241,419.772,393.289,423.724,388.414,423.724z"/>
<circle style="fill:#959CB5;" cx="256" cy="467.862" r="22.069"/>
<g>
	<circle style="fill:#707487;" cx="194.207" cy="467.862" r="13.241"/>
	<circle style="fill:#707487;" cx="317.793" cy="467.862" r="13.241"/>
	<path style="fill:#707487;" d="M353.103,158.897H256c-4.879,0-8.828-3.953-8.828-8.828c0-4.875,3.948-8.828,8.828-8.828h97.103
		c4.879,0,8.828,3.953,8.828,8.828C361.931,154.944,357.983,158.897,353.103,158.897z"/>
	<path style="fill:#707487;" d="M353.103,123.586h-26.483c-4.879,0-8.828-3.953-8.828-8.828c0-4.875,3.948-8.828,8.828-8.828h26.483
		c4.879,0,8.828,3.953,8.828,8.828C361.931,119.634,357.983,123.586,353.103,123.586z"/>
	<path style="fill:#707487;" d="M353.103,88.276H256c-4.879,0-8.828-3.953-8.828-8.828c0-4.875,3.948-8.828,8.828-8.828h97.103
		c4.879,0,8.828,3.953,8.828,8.828C361.931,84.323,357.983,88.276,353.103,88.276z"/>
</g>
<path style="fill:#5B5D6E;" d="M291.31,123.586H256c-4.879,0-8.828-3.953-8.828-8.828c0-4.875,3.948-8.828,8.828-8.828h35.31
	c4.879,0,8.828,3.953,8.828,8.828C300.138,119.634,296.19,123.586,291.31,123.586z"/>
<g>
	<path style="fill:#707487;" d="M247.172,194.207h-88.276c-4.879,0-8.828-3.953-8.828-8.828c0-4.875,3.948-8.828,8.828-8.828h88.276
		c4.879,0,8.828,3.953,8.828,8.828C256,190.254,252.052,194.207,247.172,194.207z"/>
	<path style="fill:#707487;" d="M247.172,264.828h-88.276c-4.879,0-8.828-3.953-8.828-8.828s3.948-8.828,8.828-8.828h88.276
		c4.879,0,8.828,3.953,8.828,8.828S252.052,264.828,247.172,264.828z"/>
</g>
<path style="fill:#5B5D6E;" d="M273.655,229.517H158.897c-4.879,0-8.828-3.953-8.828-8.828s3.948-8.828,8.828-8.828h114.759
	c4.879,0,8.828,3.953,8.828,8.828S278.535,229.517,273.655,229.517z"/>
<path style="fill:#707487;" d="M353.103,229.517h-44.138c-4.879,0-8.828-3.953-8.828-8.828s3.948-8.828,8.828-8.828h44.138
	c4.879,0,8.828,3.953,8.828,8.828S357.983,229.517,353.103,229.517z"/>
<g>
	<path style="fill:#5B5D6E;" d="M353.103,194.207h-70.621c-4.879,0-8.828-3.953-8.828-8.828c0-4.875,3.948-8.828,8.828-8.828h70.621
		c4.879,0,8.828,3.953,8.828,8.828C361.931,190.254,357.983,194.207,353.103,194.207z"/>
	<path style="fill:#5B5D6E;" d="M211.862,353.103h-52.966c-4.879,0-8.828-3.953-8.828-8.828c0-4.875,3.948-8.828,8.828-8.828h52.966
		c4.879,0,8.828,3.953,8.828,8.828C220.69,349.151,216.742,353.103,211.862,353.103z"/>
</g>
<g>
	<path style="fill:#707487;" d="M273.655,317.793H158.897c-4.879,0-8.828-3.953-8.828-8.828s3.948-8.828,8.828-8.828h114.759
		c4.879,0,8.828,3.953,8.828,8.828S278.535,317.793,273.655,317.793z"/>
	<path style="fill:#707487;" d="M353.103,353.103H247.172c-4.879,0-8.828-3.953-8.828-8.828c0-4.875,3.948-8.828,8.828-8.828
		h105.931c4.879,0,8.828,3.953,8.828,8.828C361.931,349.151,357.983,353.103,353.103,353.103z"/>
</g>
<path style="fill:#5B5D6E;" d="M353.103,317.793h-44.138c-4.879,0-8.828-3.953-8.828-8.828s3.948-8.828,8.828-8.828h44.138
	c4.879,0,8.828,3.953,8.828,8.828S357.983,317.793,353.103,317.793z"/>
<path style="fill:#707487;" d="M256,388.414h-97.103c-4.879,0-8.828-3.953-8.828-8.828s3.948-8.828,8.828-8.828H256
	c4.879,0,8.828,3.953,8.828,8.828S260.879,388.414,256,388.414z"/>
<path style="fill:#5B5D6E;" d="M229.25,147.927l-15.982-63.935c-1.966-7.876-9.01-13.372-17.13-13.372h-12.69
	c-8.12,0-15.164,5.495-17.129,13.37l-15.982,63.935c-1.19,4.733,1.689,9.526,6.422,10.707c4.698,1.173,9.517-1.703,10.698-6.422
	l2.743-10.969h39.187l2.742,10.969c1,4.009,4.595,6.69,8.552,6.686c0.707,0,1.431-0.082,2.146-0.263
	C227.561,157.452,230.44,152.66,229.25,147.927z M174.616,123.586l8.832-35.31h12.698l8.828,35.31H174.616z"/>
<g>
</g>
<g>
</g>
<g>
</g>
<g>
</g>
<g>
</g>
<g>
</g>
<g>
</g>
<g>
</g>
<g>
</g>
<g>
</g>
<g>
</g>
<g>
</g>
<g>
</g>
<g>
</g>
<g>
</g>
</svg>
