<?xml version="1.0" encoding="iso-8859-1"?>
<!-- Generator: Adobe Illustrator 19.0.0, SVG Export Plug-In . SVG Version: 6.00 Build 0)  -->
<svg version="1.1" id="Layer_1" xmlns="http://www.w3.org/2000/svg" xmlns:xlink="http://www.w3.org/1999/xlink" x="0px" y="0px"
	 viewBox="0 0 512.001 512.001" style="enable-background:new 0 0 512.001 512.001;" xml:space="preserve">
<path style="fill:#E4EAF8;" d="M432.552,459.035H26.483C11.857,459.035,0,447.178,0,432.552V79.449
	c0-14.626,11.857-26.483,26.483-26.483h406.069c14.626,0,26.483,11.857,26.483,26.483v353.103
	C459.034,447.178,447.178,459.035,432.552,459.035z"/>
<g>
	<path style="fill:#FF5050;" d="M105.931,114.759c4.879,0,8.828-3.948,8.828-8.828c0-4.879-3.948-8.828-8.828-8.828H52.966
		c-4.879,0-8.828,3.948-8.828,8.828v88.276c0,4.879,3.948,8.828,8.828,8.828h52.966c4.879,0,8.828-3.948,8.828-8.828
		c0-4.879-3.948-8.828-8.828-8.828H61.793v-26.483h35.31c4.879,0,8.828-3.948,8.828-8.828c0-4.879-3.948-8.828-8.828-8.828h-35.31
		v-26.483H105.931z"/>
	<path style="fill:#FF5050;" d="M208.552,99.035c-3.81-3.043-9.362-2.406-12.414,1.379l-28.414,35.518l-28.414-35.518
		c-3.043-3.801-8.595-4.431-12.414-1.379c-3.801,3.052-4.423,8.604-1.379,12.414l30.897,38.621l-30.897,38.621
		c-3.043,3.81-2.422,9.362,1.379,12.414c1.63,1.302,3.577,1.931,5.508,1.931c2.595,0,5.155-1.138,6.905-3.31l28.414-35.517
		l28.414,35.517c1.75,2.182,4.31,3.31,6.905,3.31c1.931,0,3.88-0.629,5.508-1.931c3.801-3.052,4.423-8.604,1.379-12.414
		l-30.897-38.621l30.897-38.621C212.974,107.638,212.353,102.087,208.552,99.035z"/>
	<path style="fill:#FF5050;" d="M271.629,97.104h-13.603c-10.474,0-19.577,7.457-21.638,17.741l-15.525,77.63
		c-0.957,4.785,2.146,9.431,6.922,10.388c4.767,0.957,9.431-2.138,10.388-6.922l3.878-19.388h45.555l3.878,19.388
		c0.836,4.199,4.526,7.095,8.647,7.095c0.569,0,1.155-0.052,1.741-0.172c4.776-0.957,7.88-5.603,6.922-10.388l-15.526-77.63
		C291.207,104.561,282.103,97.104,271.629,97.104z M245.581,158.897l8.117-40.586c0.414-2.06,2.232-3.552,4.328-3.552h13.603
		c2.094,0,3.914,1.492,4.328,3.552l8.117,40.586H245.581z"/>
	<path style="fill:#FF5050;" d="M408.561,97.466c-3.785-1.138-7.801,0.396-9.913,3.69l-32.302,50.241l-32.301-50.241
		c-2.121-3.285-6.138-4.828-9.913-3.69c-3.758,1.103-6.336,4.552-6.336,8.466v88.276c0,4.879,3.948,8.828,8.828,8.828
		s8.828-3.948,8.828-8.828v-58.216l23.474,36.509c3.242,5.052,11.604,5.052,14.845,0l23.474-36.509v58.216
		c0,4.879,3.948,8.828,8.828,8.828c4.879,0,8.828-3.948,8.828-8.828v-88.276C414.897,102.018,412.319,98.569,408.561,97.466z"/>
	<circle style="fill:#FF5050;" cx="70.621" cy="256" r="17.655"/>
	<circle style="fill:#FF5050;" cx="70.621" cy="326.621" r="17.655"/>
	<circle style="fill:#FF5050;" cx="70.621" cy="397.242" r="17.655"/>
</g>
<path style="fill:#707487;" d="M264.828,264.828H123.586c-4.879,0-8.828-3.948-8.828-8.828c0-4.879,3.948-8.828,8.828-8.828h141.241
	c4.879,0,8.828,3.948,8.828,8.828C273.655,260.88,269.707,264.828,264.828,264.828z"/>
<path style="fill:#7F8499;" d="M158.897,335.449h-35.31c-4.879,0-8.828-3.948-8.828-8.828c0-4.879,3.948-8.828,8.828-8.828h35.31
	c4.879,0,8.828,3.948,8.828,8.828C167.724,331.501,163.776,335.449,158.897,335.449z"/>
<path style="fill:#707487;" d="M211.862,406.069h-88.276c-4.879,0-8.828-3.948-8.828-8.828c0-4.879,3.948-8.828,8.828-8.828h88.276
	c4.879,0,8.828,3.948,8.828,8.828C220.69,402.121,216.742,406.069,211.862,406.069z"/>
<path style="fill:#7F8499;" d="M388.414,335.449H194.207c-4.879,0-8.828-3.948-8.828-8.828c0-4.879,3.948-8.828,8.828-8.828h194.207
	c4.879,0,8.828,3.948,8.828,8.828C397.241,331.501,393.293,335.449,388.414,335.449z"/>
<path style="fill:#D5DCED;" d="M459.034,141.242L261.043,339.232l-22.635,48.505c-2.805,6.012,3.43,12.247,9.441,9.441
	l48.504-22.636l162.681-162.68V141.242z"/>
<polygon style="fill:#707487;" points="353.103,317.794 282.483,317.794 264.828,335.449 335.448,335.449 "/>
<path style="fill:#FFDC64;" d="M229.565,388.981l42.868-20.004c3.73-1.74,7.126-4.119,10.036-7.029l226.946-226.946
	c3.447-3.447,3.447-9.037,0-12.484l-22.827-22.828c-3.447-3.447-9.037-3.447-12.484,0L247.157,326.635
	c-2.91,2.91-5.289,6.306-7.029,10.036l-20.004,42.868C217.318,385.552,223.552,391.786,229.565,388.981z"/>
<path style="fill:#FFC850;" d="M221.538,387.566c1.96,1.96,5.021,2.817,8.026,1.415l42.868-20.004
	c3.73-1.741,7.126-4.119,10.036-7.03l206.707-206.707l-17.655-17.655L221.538,387.566z"/>
<path style="fill:#FAEBC8;" d="M291.31,353.104L256,317.794l-8.843,8.843c-2.91,2.91-5.289,6.306-7.029,10.036l-20.004,42.867
	c-2.805,6.012,3.43,12.246,9.441,9.441l42.867-20.004c3.73-1.74,7.126-4.119,10.036-7.03L291.31,353.104z"/>
<path style="fill:#F5DCB4;" d="M273.655,335.449l-52.117,52.117c1.96,1.96,5.021,2.817,8.026,1.415l42.868-20.004
	c3.73-1.74,7.126-4.119,10.036-7.03l8.842-8.842L273.655,335.449z"/>
<path style="fill:#FAEBC8;" d="M486.589,99.689c-3.448-3.448-9.036-3.448-12.484,0l-20.241,20.241l35.31,35.31L509.415,135
	c3.448-3.448,3.448-9.037,0-12.484L486.589,99.689z"/>
<path style="fill:#F5DCB4;" d="M509.415,122.515l-11.413-11.413l-26.483,26.483l17.655,17.655L509.415,135
	C512.862,131.552,512.862,125.962,509.415,122.515z"/>
<g>
</g>
<g>
</g>
<g>
</g>
<g>
</g>
<g>
</g>
<g>
</g>
<g>
</g>
<g>
</g>
<g>
</g>
<g>
</g>
<g>
</g>
<g>
</g>
<g>
</g>
<g>
</g>
<g>
</g>
</svg>
