<?xml version="1.0" encoding="iso-8859-1"?>
<!-- Generator: Adobe Illustrator 19.0.0, SVG Export Plug-In . SVG Version: 6.00 Build 0)  -->
<svg version="1.1" id="Layer_1" xmlns="http://www.w3.org/2000/svg" xmlns:xlink="http://www.w3.org/1999/xlink" x="0px" y="0px"
	 viewBox="0 0 511.999 511.999" style="enable-background:new 0 0 511.999 511.999;" xml:space="preserve">
<path style="fill:#FAEBC8;" d="M300.138,70.62c-7.023,0-13.76-2.791-18.727-7.756l-37.452-37.452
	c-4.967-4.967-11.702-7.757-18.726-7.757h-57.51v70.621h132.414V70.62z"/>
<path style="fill:#EBC9A0;" d="M247.172,70.62c-7.023,0-13.76-2.791-18.727-7.756l-37.452-37.452
	c-4.967-4.967-11.702-7.757-18.726-7.757h-57.51v70.621h132.414V70.62z"/>
<path style="fill:#F5DCB4;" d="M423.724,70.62H194.207c-7.023,0-13.76-2.791-18.727-7.756l-37.452-37.452
	c-4.967-4.967-11.702-7.757-18.726-7.757H17.655C7.904,17.655,0,25.559,0,35.31v370.759c0,9.751,7.904,17.655,17.655,17.655h406.069
	c9.751,0,17.655-7.904,17.655-17.655V88.275C441.379,78.524,433.475,70.62,423.724,70.62z"/>
<path style="fill:#EBC9A0;" d="M429.522,349.449c-6.668-6.668-15.535-10.342-24.967-10.342c-3.133,0-6.202,0.405-9.15,1.191
	l-7.484-7.484c17.491-25.076,26.975-54.931,26.975-85.643c0-82.749-67.32-150.069-150.069-150.069s-150.069,67.32-150.069,150.069
	s67.32,150.069,150.069,150.069c30.712,0,60.567-9.484,85.643-26.975l7.502,7.502c-3.133,11.78-0.088,24.876,9.133,34.098
	l11.858,11.858h44.76c9.75,0,17.655-7.905,17.655-17.655v-44.761L429.522,349.449z"/>
<rect x="344.878" y="346.475" transform="matrix(-0.7071 -0.7071 0.7071 -0.7071 385.4587 870.2651)" style="fill:#464655;" width="56.178" height="17.653"/>
<path style="fill:#7F8499;" d="M264.828,114.758c-73.13,0-132.414,59.284-132.414,132.414s59.284,132.414,132.414,132.414
	s132.414-59.284,132.414-132.414S337.957,114.758,264.828,114.758L264.828,114.758z"/>
<path style="fill:#FFFFFF;" d="M264.828,361.93c-63.278,0-114.759-51.48-114.759-114.759s51.48-114.759,114.759-114.759
	s114.759,51.48,114.759,114.759S328.106,361.93,264.828,361.93z"/>
<path style="fill:#FAEBC8;" d="M319.912,306.846c-63.278,0-114.759-51.48-114.759-114.759c0-7.982,0.938-15.732,2.522-23.244
	c-24.164,17.681-39.951,46.161-39.951,78.328c0,53.543,43.56,97.103,97.103,97.103c32.168,0,60.648-15.788,78.328-39.951
	C335.642,305.908,327.894,306.846,319.912,306.846z"/>
<path style="fill:#959CB5;" d="M141.241,132.413H52.966c-4.875,0-8.828-3.953-8.828-8.828V105.93c0-4.875,3.953-8.828,8.828-8.828
	h88.276c4.875,0,8.828,3.953,8.828,8.828v17.655C150.069,128.461,146.116,132.413,141.241,132.413z"/>
<g>
	<path style="fill:#707487;" d="M132.414,167.724H61.793c-4.879,0-8.828-3.953-8.828-8.828s3.948-8.828,8.828-8.828h70.621
		c4.879,0,8.828,3.953,8.828,8.828S137.293,167.724,132.414,167.724z"/>
	<path style="fill:#707487;" d="M469.38,489.173l-89.791-89.791c-6.894-6.894-6.894-18.073,0-24.968l12.48-12.48
		c6.894-6.894,18.073-6.894,24.968,0l89.791,89.791c6.894,6.894,6.894,18.073,0,24.968l-12.48,12.48
		C487.454,496.068,476.276,496.068,469.38,489.173z"/>
</g>
<path style="fill:#5B5D6E;" d="M487.036,471.517l-89.791-89.791c-6.006-6.006-6.771-15.261-2.312-22.104
	c-1.012,0.66-1.975,1.423-2.863,2.312l-12.48,12.48c-6.894,6.895-6.894,18.073,0,24.968l89.791,89.791
	c6.895,6.895,18.073,6.895,24.968,0l12.48-12.48c0.888-0.888,1.653-1.852,2.312-2.863
	C502.296,478.289,493.042,477.524,487.036,471.517z"/>
<g>
	<path style="fill:#00C3FF;" d="M314.136,199.377l24.217,24.217c3.32,3.32,3.46,8.658,0.319,12.148l-67.284,74.76
		c-3.507,3.896-9.617,3.896-13.123,0l-67.284-74.76c-3.14-3.49-3-8.828,0.32-12.148l24.217-24.217
		c3.311-3.311,7.801-5.171,12.484-5.171h73.65C306.335,194.206,310.826,196.067,314.136,199.377z"/>
	<polygon style="fill:#00C3FF;" points="247.172,194.206 238.345,229.517 291.31,229.517 282.483,194.206 	"/>
</g>
<path style="fill:#80E1FF;" d="M340.918,229.517c-0.078-2.155-0.927-4.285-2.564-5.922l-24.22-24.22
	c-3.31-3.309-7.799-5.169-12.481-5.169h-19.17l8.828,35.31L340.918,229.517L340.918,229.517z"/>
<g>
	<path style="fill:#00AAF0;" d="M238.345,229.517l8.828-35.31h-19.17c-4.682,0-9.171,1.859-12.481,5.169l-24.22,24.22
		c-1.637,1.638-2.485,3.768-2.563,5.922L238.345,229.517L238.345,229.517z"/>
	<path style="fill:#00AAF0;" d="M238.345,229.517l22.617,82.931c2.45,1.205,5.281,1.205,7.731,0l22.617-82.931H238.345z"/>
</g>
<g>
</g>
<g>
</g>
<g>
</g>
<g>
</g>
<g>
</g>
<g>
</g>
<g>
</g>
<g>
</g>
<g>
</g>
<g>
</g>
<g>
</g>
<g>
</g>
<g>
</g>
<g>
</g>
<g>
</g>
</svg>
