<?xml version="1.0" encoding="iso-8859-1"?>
<!-- Generator: Adobe Illustrator 19.0.0, SVG Export Plug-In . SVG Version: 6.00 Build 0)  -->
<svg version="1.1" id="Layer_1" xmlns="http://www.w3.org/2000/svg" xmlns:xlink="http://www.w3.org/1999/xlink" x="0px" y="0px"
	 viewBox="0 0 512 512" style="enable-background:new 0 0 512 512;" xml:space="preserve">
<path style="fill:#FAEBC8;" d="M335.835,53.223c-7.058,0-13.827-2.804-18.818-7.794L279.384,7.794
	C274.393,2.804,267.624,0,260.566,0h-57.789v70.964h133.058V53.223H335.835z"/>
<path style="fill:#EBC9A0;" d="M282.612,53.223c-7.058,0-13.827-2.804-18.818-7.794L226.161,7.794C221.17,2.804,214.401,0,207.343,0
	h-57.789v70.964h133.058V53.223H282.612z"/>
<path style="fill:#F5DCB4;" d="M460.023,53.223H229.389c-7.058,0-13.827-2.804-18.818-7.794L172.938,7.794
	C167.947,2.804,161.177,0,154.12,0H51.978C42.18,0,34.237,7.942,34.237,17.741v372.561c0,9.799,7.942,17.741,17.741,17.741h408.043
	c9.799,0,17.741-7.942,17.741-17.741V70.964C477.764,61.165,469.82,53.223,460.023,53.223z"/>
<path style="fill:#EBC9A0;" d="M300.353,337.079h-88.705c-14.697,0-26.612,11.914-26.612,26.612v44.353h141.928v-44.353
	C326.965,348.993,315.05,337.079,300.353,337.079z"/>
<path style="fill:#AFB9D2;" d="M371.318,168.54c4.899,0,8.871-3.972,8.871-8.87v-11.49c0-3.749-2.356-7.093-5.887-8.354
	L261.967,99.707c-3.859-1.378-8.075-1.378-11.934,0l-112.334,40.119c-3.53,1.261-5.887,4.605-5.887,8.354v11.49
	c0,4.899,3.972,8.87,8.871,8.87h8.871v115.317h-8.871c-4.899,0-8.87,3.972-8.87,8.871v17.741c0,4.899,3.972,8.871,8.87,8.871
	h230.633c4.899,0,8.871-3.972,8.871-8.871v-17.741c0-4.899-3.972-8.871-8.871-8.871h-8.87V168.54H371.318z"/>
<g>
	<rect x="149.557" y="168.54" style="fill:#959CB5;" width="212.892" height="17.741"/>
	<rect x="149.557" y="266.115" style="fill:#959CB5;" width="212.892" height="17.741"/>
</g>
<path style="fill:#5B5D6E;" d="M309.224,443.525v-79.835c0-4.899-3.972-8.87-8.871-8.87h-88.705c-4.899,0-8.87,3.972-8.87,8.87
	v79.835h-16.516c-6.289,0-9.067,7.919-4.156,11.848l68.354,54.683c3.24,2.591,7.843,2.591,11.083,0l68.354-54.683
	c4.911-3.929,2.132-11.848-4.156-11.848H309.224z"/>
<g>
	<rect x="269.309" y="168.54" style="fill:#707487;" width="19.959" height="115.317"/>
	<rect x="222.739" y="168.54" style="fill:#707487;" width="19.959" height="115.317"/>
	<rect x="176.169" y="168.54" style="fill:#707487;" width="19.959" height="115.317"/>
	<rect x="315.879" y="168.54" style="fill:#707487;" width="19.959" height="115.317"/>
</g>
<g>
	<rect x="269.309" y="168.54" style="fill:#5B5D6E;" width="19.959" height="17.741"/>
	<rect x="222.739" y="168.54" style="fill:#5B5D6E;" width="19.959" height="17.741"/>
	<rect x="176.169" y="168.54" style="fill:#5B5D6E;" width="19.959" height="17.741"/>
	<rect x="315.879" y="168.54" style="fill:#5B5D6E;" width="19.959" height="17.741"/>
</g>
<g>
</g>
<g>
</g>
<g>
</g>
<g>
</g>
<g>
</g>
<g>
</g>
<g>
</g>
<g>
</g>
<g>
</g>
<g>
</g>
<g>
</g>
<g>
</g>
<g>
</g>
<g>
</g>
<g>
</g>
</svg>
