<?xml version="1.0" encoding="iso-8859-1"?>
<!-- Generator: Adobe Illustrator 19.0.0, SVG Export Plug-In . SVG Version: 6.00 Build 0)  -->
<svg version="1.1" id="Layer_1" xmlns="http://www.w3.org/2000/svg" xmlns:xlink="http://www.w3.org/1999/xlink" x="0px" y="0px"
	 viewBox="0 0 512 512" style="enable-background:new 0 0 512 512;" xml:space="preserve">
<path style="fill:#7F8499;" d="M282.483,322.207c-4.879,0-8.828-3.948-8.828-8.828c0-9.732-7.923-17.655-17.655-17.655
	s-17.655,7.923-17.655,17.655c0,4.879-3.948,8.828-8.828,8.828s-8.828-3.948-8.828-8.828c0-19.474,15.837-35.31,35.31-35.31
	s35.31,15.837,35.31,35.31C291.31,318.259,287.362,322.207,282.483,322.207z"/>
<path style="fill:#707487;" d="M379.586,119.172h30.56c17.009,0,32.69,9.949,39.939,25.345l61.078,129.793l-15.982,7.518
	l-61.069-129.793c-4.353-9.242-13.759-15.208-23.966-15.208h-30.56c-4.879,0-8.828-3.948-8.828-8.828
	C370.759,123.121,374.707,119.172,379.586,119.172z"/>
<path style="fill:#7F8499;" d="M504.904,314.798l-37.042,7.409v-52.966h35.31c4.875,0,8.828,3.953,8.828,8.828v28.074
	C512,310.35,509.03,313.973,504.904,314.798z"/>
<path style="fill:#959CB5;" d="M273.655,322.207v-35.31c0-14.603,11.88-26.483,26.483-26.483h150.069
	c14.603,0,26.483,11.88,26.483,26.483v35.31c0,38.94-31.681,70.621-70.621,70.621h-61.793
	C305.336,392.828,273.655,361.146,273.655,322.207z"/>
<path style="fill:#FFFFFF;" d="M300.138,278.069c-4.871,0-8.828,3.957-8.828,8.828v35.31c0,29.207,23.758,52.966,52.966,52.966
	h61.793c29.207,0,52.966-23.758,52.966-52.966v-35.31c0-4.871-3.957-8.828-8.828-8.828H300.138z"/>
<path style="fill:#707487;" d="M132.414,119.172h-30.56c-17.009,0-32.69,9.949-39.939,25.345L0.836,274.311l15.982,7.518
	l61.069-129.793c4.353-9.242,13.759-15.208,23.966-15.208h30.56c4.879,0,8.828-3.948,8.828-8.828
	C141.241,123.121,137.293,119.172,132.414,119.172z"/>
<g>
	<path style="fill:#00AAF0;" d="M361.931,355.31c-4.879,0-8.828-3.948-8.828-8.828v-39.724c0-4.879,3.948-8.828,8.828-8.828
		s8.828,3.948,8.828,8.828v39.724C370.759,351.362,366.81,355.31,361.931,355.31z"/>
	<path style="fill:#00AAF0;" d="M397.241,355.31c-4.879,0-8.828-3.948-8.828-8.828v-39.724c0-4.879,3.948-8.828,8.828-8.828
		c4.879,0,8.828,3.948,8.828,8.828v39.724C406.069,351.362,402.121,355.31,397.241,355.31z"/>
</g>
<path style="fill:#7F8499;" d="M7.096,314.798l37.042,7.409v-52.966H8.828c-4.875,0-8.828,3.953-8.828,8.828v28.074
	C0,310.35,2.97,313.973,7.096,314.798z"/>
<path style="fill:#959CB5;" d="M167.724,392.828h-61.793c-38.94,0-70.621-31.681-70.621-70.621v-35.31
	c0-14.603,11.88-26.483,26.483-26.483h150.069c14.603,0,26.483,11.88,26.483,26.483v35.31
	C238.345,361.146,206.664,392.828,167.724,392.828z"/>
<path style="fill:#FFFFFF;" d="M61.793,278.069c-4.871,0-8.828,3.957-8.828,8.828v35.31c0,29.207,23.758,52.966,52.966,52.966
	h61.793c29.207,0,52.966-23.758,52.966-52.966v-35.31c0-4.871-3.957-8.828-8.828-8.828H61.793z"/>
<path style="fill:#7DF5A5;" d="M114.759,302.866v47.51c0,3.282,3.453,5.416,6.388,3.948l47.51-23.755
	c3.253-1.626,3.253-6.269,0-7.895l-47.51-23.755C118.211,297.451,114.759,299.585,114.759,302.866z"/>
<g>
</g>
<g>
</g>
<g>
</g>
<g>
</g>
<g>
</g>
<g>
</g>
<g>
</g>
<g>
</g>
<g>
</g>
<g>
</g>
<g>
</g>
<g>
</g>
<g>
</g>
<g>
</g>
<g>
</g>
</svg>
