<?xml version="1.0" encoding="iso-8859-1"?>
<!-- Generator: Adobe Illustrator 19.0.0, SVG Export Plug-In . SVG Version: 6.00 Build 0)  -->
<svg version="1.1" id="Layer_1" xmlns="http://www.w3.org/2000/svg" xmlns:xlink="http://www.w3.org/1999/xlink" x="0px" y="0px"
	 viewBox="0 0 512 512" style="enable-background:new 0 0 512 512;" xml:space="preserve">
<g>
	<path style="fill:#E4EAF8;" d="M440.207,148.207l-8.043-50.84c-0.75-4.814-5.259-8.082-10.094-7.34
		c-4.819,0.762-8.104,5.284-7.336,10.099l3.034,19.187C377.698,71.928,318.727,44.138,256,44.138
		c-75.991,0-146.578,41.06-184.224,107.164l15.345,8.733C121.63,99.439,186.336,61.793,256,61.793
		c57.578,0,111.706,25.546,148.437,69.095l-18.703-6.47c-4.612-1.582-9.63,0.85-11.233,5.461c-1.594,4.608,0.853,9.633,5.457,11.229
		l48.647,16.823c0.948,0.323,1.922,0.483,2.888,0.483c2.044,0,4.061-0.712,5.673-2.06
		C439.534,154.362,440.698,151.267,440.207,148.207z"/>
	<path style="fill:#E4EAF8;" d="M416.233,365.771c-36.293,52.872-96.19,84.436-160.233,84.436
		c-45.592,0-88.531-15.593-123.149-44.141l22.356,3.784c4.81,0.836,9.362-2.422,10.182-7.229c0.81-4.806-2.422-9.362-7.233-10.177
		l-50.75-8.59c-3.052-0.538-6.164,0.604-8.181,2.962c-2.017,2.354-2.646,5.595-1.664,8.539l16.301,48.823
		c1.233,3.694,4.672,6.035,8.371,6.035c0.922,0,1.87-0.151,2.793-0.457c4.629-1.547,7.121-6.548,5.578-11.172l-5.287-15.838
		c37.113,29.239,82.561,45.118,130.684,45.118c69.863,0,135.207-34.431,174.784-92.099L416.233,365.771z"/>
</g>
<path style="fill:#D5DCED;" d="M26.483,132.414H291.31c14.626,0,26.483,11.857,26.483,26.483v141.241
	c0,14.626-11.857,26.483-26.483,26.483H123.586l-49.331,49.331c-7.857,7.857-21.29,2.292-21.29-8.819v-40.512H26.483
	C11.857,326.621,0,314.764,0,300.138V158.897C0,144.27,11.857,132.414,26.483,132.414z"/>
<path style="fill:#C7CFE2;" d="M176.552,326.621H291.31c14.626,0,26.483-11.857,26.483-26.483V167.724H220.69
	c-24.376,0-44.138,19.762-44.138,44.138V326.621z"/>
<path style="fill:#5B5D6E;" d="M70.621,185.379H44.138c-4.879,0-8.828-3.953-8.828-8.828s3.948-8.828,8.828-8.828h26.483
	c4.879,0,8.828,3.953,8.828,8.828S75.5,185.379,70.621,185.379z"/>
<g>
	<path style="fill:#707487;" d="M273.655,185.379H105.931c-4.879,0-8.828-3.953-8.828-8.828s3.948-8.828,8.828-8.828h167.724
		c4.879,0,8.828,3.953,8.828,8.828S278.535,185.379,273.655,185.379z"/>
	<path style="fill:#707487;" d="M105.931,220.69H44.138c-4.879,0-8.828-3.953-8.828-8.828c0-4.875,3.948-8.828,8.828-8.828h61.793
		c4.879,0,8.828,3.953,8.828,8.828C114.759,216.737,110.81,220.69,105.931,220.69z"/>
</g>
<g>
	<path style="fill:#5B5D6E;" d="M141.241,203.034c-4.879,0-8.828,3.953-8.828,8.828c0,4.875,3.948,8.828,8.828,8.828h70.621v-17.655
		H141.241z"/>
	<path style="fill:#5B5D6E;" d="M158.897,256H44.138c-4.879,0-8.828-3.953-8.828-8.828s3.948-8.828,8.828-8.828h114.759
		c4.879,0,8.828,3.953,8.828,8.828S163.776,256,158.897,256z"/>
	<path style="fill:#5B5D6E;" d="M70.621,291.31H44.138c-4.879,0-8.828-3.953-8.828-8.828s3.948-8.828,8.828-8.828h26.483
		c4.879,0,8.828,3.953,8.828,8.828S75.5,291.31,70.621,291.31z"/>
</g>
<path style="fill:#707487;" d="M105.931,273.655c-4.879,0-8.828,3.953-8.828,8.828s3.948,8.828,8.828,8.828h105.931v-17.655H105.931
	z"/>
<g>
	<path style="fill:#5B5D6E;" d="M185.579,185.379h88.076c4.879,0,8.828-3.953,8.828-8.828s-3.948-8.828-8.828-8.828H220.69
		C206.296,167.724,193.636,174.718,185.579,185.379z"/>
	<rect x="176.552" y="273.655" style="fill:#5B5D6E;" width="35.31" height="17.655"/>
</g>
<path style="fill:#9BF57D;" d="M485.517,185.379H220.69c-14.626,0-26.483,11.857-26.483,26.483v141.241
	c0,14.626,11.857,26.483,26.483,26.483h167.724l49.331,49.331c7.857,7.857,21.29,2.292,21.29-8.819v-40.512h26.483
	c14.626,0,26.483-11.857,26.483-26.483V211.862C512,197.236,500.143,185.379,485.517,185.379z"/>
<g>
	<path style="fill:#FFFFFF;" d="M437.845,257.768c-3.887-2.935-9.431-2.125-12.353,1.763l-19.423,25.896l-19.423-25.897
		c-2.922-3.896-8.466-4.707-12.353-1.763c-3.905,2.922-4.698,8.457-1.768,12.358l22.51,30.014l-22.509,30.013
		c-2.931,3.901-2.138,9.436,1.768,12.358c1.587,1.194,3.439,1.768,5.284,1.768c2.69,0,5.336-1.219,7.069-3.53l19.422-25.897
		l19.423,25.897c1.732,2.311,4.38,3.53,7.069,3.53c1.845,0,3.699-0.574,5.284-1.768c3.905-2.922,4.698-8.457,1.768-12.358
		l-22.51-30.013l22.509-30.013C442.543,266.225,441.75,260.69,437.845,257.768z"/>
	<path style="fill:#FFFFFF;" d="M450.207,220.69h-88.276c-3.345,0-6.397,1.888-7.896,4.879l-49.483,98.969l-23-46.004
		c-1.5-2.991-4.552-4.879-7.896-4.879h-26.483c-4.879,0-8.828,3.953-8.828,8.828s3.948,8.828,8.828,8.828h21.026l24.043,48.086
		c1.5,2.991,4.552,4.879,7.896,4.879h8.828c3.345,0,6.397-1.888,7.896-4.879l50.526-101.052h82.819c4.879,0,8.828-3.953,8.828-8.828
		S455.086,220.69,450.207,220.69z"/>
</g>
<g>
</g>
<g>
</g>
<g>
</g>
<g>
</g>
<g>
</g>
<g>
</g>
<g>
</g>
<g>
</g>
<g>
</g>
<g>
</g>
<g>
</g>
<g>
</g>
<g>
</g>
<g>
</g>
<g>
</g>
</svg>
