<?xml version="1.0" encoding="iso-8859-1"?>
<!-- Generator: Adobe Illustrator 19.0.0, SVG Export Plug-In . SVG Version: 6.00 Build 0)  -->
<svg version="1.1" id="Layer_1" xmlns="http://www.w3.org/2000/svg" xmlns:xlink="http://www.w3.org/1999/xlink" x="0px" y="0px"
	 viewBox="0 0 512 512" style="enable-background:new 0 0 512 512;" xml:space="preserve">
<path style="fill:#FFF082;" d="M211.862,467.862c0,9.751,7.904,17.655,17.655,17.655h52.966c9.751,0,17.655-7.904,17.655-17.655
	v-62.073c0-13.444,7.554-25.897,19.717-31.625c50.945-23.989,86.214-75.777,86.214-135.819c0-88.514-76.632-159.13-167.172-149.121
	c-68.003,7.518-123.313,61.961-131.764,129.854c-8.46,67.962,28.575,128.382,84.755,154.965
	c12.244,5.793,19.975,18.191,19.975,31.736V467.862z"/>
<circle style="fill:#FFF8C1;" cx="256" cy="238.345" r="123.586"/>
<circle style="fill:#FFFFFF;" cx="256" cy="238.345" r="97.103"/>
<path style="fill:#959CB5;" d="M229.517,476.69v17.655c0,9.75,7.905,17.655,17.655,17.655h17.655c9.75,0,17.655-7.905,17.655-17.655
	V476.69H229.517z"/>
<g>
	<path style="fill:#FFF082;" d="M485.517,247.172h-44.138c-4.879,0-8.828-3.953-8.828-8.828c0-4.875,3.948-8.828,8.828-8.828h44.138
		c4.879,0,8.828,3.953,8.828,8.828C494.345,243.22,490.397,247.172,485.517,247.172z"/>
	<path style="fill:#FFF082;" d="M79.448,247.172H26.483c-4.879,0-8.828-3.953-8.828-8.828c0-4.875,3.948-8.828,8.828-8.828h52.966
		c4.879,0,8.828,3.953,8.828,8.828C88.276,243.22,84.328,247.172,79.448,247.172z"/>
	<path style="fill:#FFF082;" d="M256,61.793c-4.879,0-8.828-3.953-8.828-8.828V8.828C247.172,3.953,251.121,0,256,0
		c4.879,0,8.828,3.953,8.828,8.828v44.138C264.828,57.841,260.879,61.793,256,61.793z"/>
</g>
<g>
	<path style="fill:#E1A546;" d="M256,300.138L256,300.138c-6.573,0-11.974-5.193-12.232-11.761l-4.733-120.695
		c-0.377-9.613,7.315-17.613,16.936-17.613h0.057c9.621,0,17.313,7.999,16.936,17.613l-4.733,120.695
		C267.974,294.945,262.573,300.138,256,300.138z"/>
	<circle style="fill:#E1A546;" cx="256" cy="331.034" r="13.241"/>
</g>
<g>
	<path style="fill:#FFF8C1;" d="M348.681,86.63c-1.5,0-3.017-0.38-4.405-1.181c-4.224-2.44-5.673-7.837-3.233-12.061l13.241-22.935
		c2.44-4.228,7.844-5.677,12.061-3.233c4.224,2.44,5.673,7.837,3.233,12.061l-13.241,22.935
		C354.698,85.047,351.733,86.63,348.681,86.63z"/>
	<path style="fill:#FFF8C1;" d="M150.06,430.65c-1.5,0-3.017-0.38-4.405-1.181c-4.224-2.44-5.673-7.837-3.233-12.061l13.241-22.935
		c2.44-4.224,7.837-5.677,12.061-3.233c4.224,2.44,5.673,7.837,3.233,12.061l-13.241,22.935
		C156.077,429.069,153.112,430.65,150.06,430.65z"/>
	<path style="fill:#FFF8C1;" d="M163.319,86.63c-3.052,0-6.017-1.582-7.656-4.414l-13.241-22.935
		c-2.44-4.224-0.991-9.621,3.233-12.061c4.199-2.444,9.612-0.995,12.061,3.233l13.241,22.935c2.44,4.224,0.991,9.621-3.233,12.061
		C166.336,86.25,164.819,86.63,163.319,86.63z"/>
	<path style="fill:#FFF8C1;" d="M361.94,430.65c-3.052,0-6.017-1.582-7.656-4.414l-13.241-22.935
		c-2.44-4.224-0.991-9.621,3.233-12.061c4.207-2.444,9.612-0.991,12.061,3.233l13.241,22.935c2.44,4.224,0.991,9.621-3.233,12.061
		C364.957,430.272,363.439,430.65,361.94,430.65z"/>
	<path style="fill:#FFF8C1;" d="M439.466,353.103c-1.5,0-3.017-0.38-4.405-1.181l-22.931-13.241
		c-4.224-2.44-5.673-7.84-3.233-12.061c2.44-4.233,7.837-5.668,12.061-3.233l22.931,13.241c4.224,2.44,5.673,7.84,3.233,12.061
		C445.483,351.521,442.517,353.103,439.466,353.103z"/>
	<path style="fill:#FFF8C1;" d="M95.448,154.483c-1.5,0-3.017-0.38-4.405-1.181l-22.931-13.241c-4.224-2.44-5.673-7.84-3.233-12.061
		c2.44-4.228,7.844-5.677,12.061-3.233l22.931,13.241c4.224,2.44,5.673,7.84,3.233,12.061
		C101.465,152.9,98.5,154.483,95.448,154.483z"/>
	<path style="fill:#FFF8C1;" d="M416.552,154.483c-3.052,0-6.017-1.582-7.656-4.414c-2.44-4.22-0.991-9.621,3.233-12.061
		l22.931-13.241c4.207-2.444,9.612-0.995,12.061,3.233c2.44,4.22,0.991,9.621-3.233,12.061l-22.931,13.241
		C419.569,154.103,418.051,154.483,416.552,154.483z"/>
	<path style="fill:#FFF8C1;" d="M72.534,353.103c-3.052,0-6.017-1.582-7.656-4.414c-2.44-4.22-0.991-9.621,3.233-12.061
		l22.931-13.241c4.207-2.435,9.621-1,12.061,3.233c2.44,4.22,0.991,9.621-3.233,12.061l-22.931,13.241
		C75.552,352.724,74.035,353.103,72.534,353.103z"/>
</g>
<path style="fill:#C7CFE2;" d="M282.483,485.517h-52.966c-9.751,0-17.655-7.904-17.655-17.655v-44.138h88.276v44.138
	C300.138,477.613,292.234,485.517,282.483,485.517z"/>
<path style="fill:#AFB9D2;" d="M300.138,441.379h-88.276c-4.875,0-8.828-3.953-8.828-8.828l0,0c0-4.875,3.953-8.828,8.828-8.828
	h88.276c4.875,0,8.828,3.953,8.828,8.828l0,0C308.966,437.427,305.013,441.379,300.138,441.379z"/>
<g>
</g>
<g>
</g>
<g>
</g>
<g>
</g>
<g>
</g>
<g>
</g>
<g>
</g>
<g>
</g>
<g>
</g>
<g>
</g>
<g>
</g>
<g>
</g>
<g>
</g>
<g>
</g>
<g>
</g>
</svg>
