<?xml version="1.0" encoding="iso-8859-1"?>
<!-- Generator: Adobe Illustrator 19.0.0, SVG Export Plug-In . SVG Version: 6.00 Build 0)  -->
<svg version="1.1" id="Layer_1" xmlns="http://www.w3.org/2000/svg" xmlns:xlink="http://www.w3.org/1999/xlink" x="0px" y="0px"
	 viewBox="0 0 512 512" style="enable-background:new 0 0 512 512;" xml:space="preserve">
<path style="fill:#00C3FF;" d="M485.517,300.138H238.345c-14.626,0-26.483-11.857-26.483-26.483V97.103
	c0-14.626,11.857-26.483,26.483-26.483h247.172c14.626,0,26.483,11.857,26.483,26.483v176.552
	C512,288.281,500.143,300.138,485.517,300.138z"/>
<path style="fill:#0096DC;" d="M317.793,300.138h-79.448c-14.626,0-26.483-11.857-26.483-26.483v-79.448h61.793
	c24.376,0,44.138,19.762,44.138,44.138V300.138z"/>
<circle style="fill:#80DAC0;" cx="445.793" cy="136.828" r="39.724"/>
<path style="fill:#8CE16E;" d="M303.794,144.897c-6.894-6.894-18.073-6.894-24.968,0l-66.964,66.965v61.793
	c0,14.626,11.857,26.483,26.483,26.483h220.69L303.794,144.897z"/>
<path style="fill:#7DC86E;" d="M273.655,194.207h-44.138l-17.655,17.655v61.793c0,14.626,11.857,26.483,26.483,26.483h79.448
	v-61.793C317.793,213.969,298.031,194.207,273.655,194.207z"/>
<path style="fill:#9BF57D;" d="M485.517,300.138c11.97,0,21.965-7.992,25.246-18.893L409.726,180.207
	c-6.894-6.894-18.073-6.894-24.968,0l-119.93,119.93H485.517z"/>
<polygon style="fill:#8CE16E;" points="264.828,300.138 317.793,300.138 317.793,247.172 "/>
<circle style="fill:#FFF082;" cx="445.793" cy="136.828" r="22.069"/>
<path style="fill:#FFC850;" d="M273.655,441.379H26.483C11.857,441.379,0,429.523,0,414.897V238.345
	c0-14.626,11.857-26.483,26.483-26.483h247.172c14.626,0,26.483,11.857,26.483,26.483v176.552
	C300.138,429.523,288.281,441.379,273.655,441.379z"/>
<g>
	<path style="fill:#FFFFFF;" d="M138.44,266.001c-3.431-12.388-14.802-21.035-27.656-21.035H92.25
		c-12.853,0-24.224,8.647-27.656,21.043L29.086,394.302c-1.621,5.87,1.818,11.948,7.699,13.578
		c5.845,1.587,11.948-1.818,13.578-7.699l7.533-27.215h87.244l7.533,27.215c1.354,4.897,5.793,8.095,10.63,8.095
		c0.974,0,1.965-0.129,2.948-0.396c5.879-1.63,9.319-7.706,7.699-13.578L138.44,266.001z M64.003,350.897l21.867-79
		c0.785-2.862,3.414-4.862,6.379-4.862h18.535c2.966,0,5.594,2.001,6.379,4.853l21.869,79.009H64.003z"/>
	<path style="fill:#FFFFFF;" d="M271.448,386.431v-68.638c0-6.094-4.94-11.034-11.034-11.034c-4.821,0-8.806,3.135-10.31,7.442
		c-7.228-4.661-15.782-7.442-25.001-7.442c-25.551,0-46.345,20.793-46.345,46.345v8.828c0,25.551,20.793,46.345,46.345,46.345
		c10.301,0,19.733-3.493,27.437-9.202c3.533,5.515,9.682,9.202,16.701,9.202c6.094,0,11.034-4.94,11.034-11.034
		C280.276,391.905,276.483,387.448,271.448,386.431z M225.103,386.207c-13.388,0-24.276-10.888-24.276-24.276v-8.828
		c0-13.388,10.888-24.276,24.276-24.276c13.388,0,24.276,10.888,24.276,24.276v8.828
		C249.379,375.319,238.492,386.207,225.103,386.207z"/>
</g>
<g>
</g>
<g>
</g>
<g>
</g>
<g>
</g>
<g>
</g>
<g>
</g>
<g>
</g>
<g>
</g>
<g>
</g>
<g>
</g>
<g>
</g>
<g>
</g>
<g>
</g>
<g>
</g>
<g>
</g>
</svg>
