<?xml version="1.0" encoding="iso-8859-1"?>
<!-- Generator: Adobe Illustrator 19.0.0, SVG Export Plug-In . SVG Version: 6.00 Build 0)  -->
<svg version="1.1" id="Layer_1" xmlns="http://www.w3.org/2000/svg" xmlns:xlink="http://www.w3.org/1999/xlink" x="0px" y="0px"
	 viewBox="0 0 512 512" style="enable-background:new 0 0 512 512;" xml:space="preserve">
<circle style="fill:#00C3FF;" cx="256" cy="256" r="150.069"/>
<path style="fill:#00AAF0;" d="M293.517,381.057c-82.881,0-150.069-67.189-150.069-150.069c0-43.994,19.048-83.441,49.208-110.89
	c-51.18,23.901-86.726,75.688-86.726,135.902c0,82.88,67.188,150.069,150.069,150.069c38.888,0,74.204-14.918,100.863-39.181
	C337.597,375.886,316.184,381.057,293.517,381.057z"/>
<g>
	<path style="fill:#E4EAF8;" d="M256,0C182.97,0,114.781,30.52,66.244,84.237l4.29-30.023c0.69-4.828-2.664-9.302-7.491-9.992
		c-4.845-0.655-9.302,2.664-9.992,7.491l-8.828,61.793c-0.431,3.034,0.733,6.069,3.086,8.025c1.612,1.346,3.62,2.054,5.655,2.054
		c0.94,0,1.879-0.147,2.793-0.457l52.966-17.655c4.621-1.535,7.121-6.535,5.578-11.164c-1.535-4.621-6.492-7.129-11.164-5.578
		l-24.606,8.202C123.772,46.383,187.615,17.655,256,17.655c131.423,0,238.345,106.922,238.345,238.345
		c0,35.75-7.715,70.112-22.931,102.146c-2.094,4.396-0.215,9.664,4.19,11.758c1.216,0.577,2.508,0.853,3.776,0.853
		c3.302,0,6.474-1.863,7.982-5.043C503.706,331.302,512,294.388,512,256C512,114.845,397.155,0,256,0z"/>
	<path style="fill:#E4EAF8;" d="M456.242,388.871l-52.966,17.655c-4.621,1.535-7.121,6.535-5.578,11.164
		c1.535,4.621,6.508,7.129,11.164,5.578l24.522-8.174c-45.21,50.548-108.834,79.252-177.384,79.252
		C124.577,494.345,17.655,387.423,17.655,256c0-35.75,7.715-70.112,22.931-102.146c2.094-4.396,0.215-9.664-4.19-11.758
		c-4.38-2.078-9.673-0.207-11.758,4.19C8.294,180.698,0,217.612,0,256c0,141.155,114.845,256,256,256
		c73.251,0,141.259-30.524,189.764-84.296l-4.299,30.08c-0.69,4.828,2.664,9.302,7.491,9.992c0.423,0.061,0.845,0.086,1.259,0.086
		c4.328,0,8.104-3.172,8.733-7.577l8.828-61.793c0.431-3.034-0.733-6.069-3.086-8.025
		C462.336,388.5,459.147,387.905,456.242,388.871z"/>
</g>
<g>
	<circle style="fill:#FFFFFF;" cx="256" cy="176.552" r="17.655"/>
	<path style="fill:#FFFFFF;" d="M273.655,326.621v-97.103c4.879,0,8.828-3.948,8.828-8.828s-3.948-8.828-8.828-8.828h-35.31
		c-4.879,0-8.828,3.948-8.828,8.828s3.948,8.828,8.828,8.828v97.103c-4.879,0-8.828,3.948-8.828,8.828s3.948,8.828,8.828,8.828
		h35.31c4.879,0,8.828-3.948,8.828-8.828S278.535,326.621,273.655,326.621z"/>
</g>
<g>
</g>
<g>
</g>
<g>
</g>
<g>
</g>
<g>
</g>
<g>
</g>
<g>
</g>
<g>
</g>
<g>
</g>
<g>
</g>
<g>
</g>
<g>
</g>
<g>
</g>
<g>
</g>
<g>
</g>
</svg>
