<?xml version="1.0" encoding="iso-8859-1"?>
<!-- Generator: Adobe Illustrator 19.0.0, SVG Export Plug-In . SVG Version: 6.00 Build 0)  -->
<svg version="1.1" id="Layer_1" xmlns="http://www.w3.org/2000/svg" xmlns:xlink="http://www.w3.org/1999/xlink" x="0px" y="0px"
	 viewBox="0 0 512 512" style="enable-background:new 0 0 512 512;" xml:space="preserve">
<path style="fill:#C7CFE2;" d="M388.414,167.724v44.138c0,4.866-3.957,8.828-8.828,8.828H256.095h-0.009H132.414
	c-4.871,0-8.828-3.961-8.828-8.828v-44.138h-17.655v44.138c0,14.603,11.88,26.483,26.483,26.483h114.833l-0.074,52.952l17.655,0.025
	l0.074-52.978h114.685c14.603,0,26.483-11.88,26.483-26.483v-44.138H388.414z"/>
<g>
	<rect x="105.931" y="167.724" style="fill:#AFB9D2;" width="17.655" height="26.483"/>
	<rect x="388.414" y="167.724" style="fill:#AFB9D2;" width="17.655" height="26.483"/>
	<rect x="247.172" y="264.828" style="fill:#AFB9D2;" width="17.655" height="26.483"/>
</g>
<path style="fill:#E4EAF8;" d="M485.517,494.345H26.483C11.857,494.345,0,482.488,0,467.862V308.966
	c0-14.626,11.857-26.483,26.483-26.483h459.034c14.626,0,26.483,11.857,26.483,26.483v158.897
	C512,482.488,500.143,494.345,485.517,494.345z"/>
<g>
	<path style="fill:#C7CFE2;" d="M361.931,470.069H150.069c-6.094,0-11.034-4.94-11.034-11.034S143.975,448,150.069,448h211.862
		c6.094,0,11.034,4.94,11.034,11.034S368.025,470.069,361.931,470.069z"/>
	<path style="fill:#C7CFE2;" d="M114.759,470.069H97.103c-6.094,0-11.034-4.94-11.034-11.034S91.009,448,97.103,448h17.655
		c6.094,0,11.034,4.94,11.034,11.034S120.853,470.069,114.759,470.069z"/>
	<path style="fill:#C7CFE2;" d="M61.793,470.069H44.138c-6.094,0-11.034-4.94-11.034-11.034S38.044,448,44.138,448h17.655
		c6.094,0,11.034,4.94,11.034,11.034S67.887,470.069,61.793,470.069z"/>
	<path style="fill:#C7CFE2;" d="M467.862,470.069h-17.655c-6.094,0-11.034-4.94-11.034-11.034S444.113,448,450.207,448h17.655
		c6.094,0,11.034,4.94,11.034,11.034S473.956,470.069,467.862,470.069z"/>
	<path style="fill:#C7CFE2;" d="M414.897,470.069h-17.655c-6.094,0-11.034-4.94-11.034-11.034S391.147,448,397.241,448h17.655
		c6.094,0,11.034,4.94,11.034,11.034S420.991,470.069,414.897,470.069z"/>
	<path style="fill:#C7CFE2;" d="M467.862,434.759h-35.31c-6.094,0-11.034-4.94-11.034-11.034c0-6.094,4.94-11.034,11.034-11.034
		h35.31c6.094,0,11.034,4.94,11.034,11.034C478.897,429.818,473.956,434.759,467.862,434.759z"/>
	<path style="fill:#C7CFE2;" d="M397.241,434.759h-17.655c-6.094,0-11.034-4.94-11.034-11.034c0-6.094,4.94-11.034,11.034-11.034
		h17.655c6.094,0,11.034,4.94,11.034,11.034C408.276,429.818,403.336,434.759,397.241,434.759z"/>
	<path style="fill:#C7CFE2;" d="M344.276,434.759h-17.655c-6.094,0-11.034-4.94-11.034-11.034c0-6.094,4.94-11.034,11.034-11.034
		h17.655c6.094,0,11.034,4.94,11.034,11.034C355.31,429.818,350.37,434.759,344.276,434.759z"/>
	<path style="fill:#C7CFE2;" d="M291.31,434.759h-17.655c-6.094,0-11.034-4.94-11.034-11.034c0-6.094,4.94-11.034,11.034-11.034
		h17.655c6.094,0,11.034,4.94,11.034,11.034C302.345,429.818,297.405,434.759,291.31,434.759z"/>
	<path style="fill:#C7CFE2;" d="M238.345,434.759H220.69c-6.094,0-11.034-4.94-11.034-11.034c0-6.094,4.94-11.034,11.034-11.034
		h17.655c6.094,0,11.034,4.94,11.034,11.034C249.379,429.818,244.439,434.759,238.345,434.759z"/>
	<path style="fill:#C7CFE2;" d="M185.379,434.759h-17.655c-6.094,0-11.034-4.94-11.034-11.034c0-6.094,4.94-11.034,11.034-11.034
		h17.655c6.094,0,11.034,4.94,11.034,11.034C196.414,429.818,191.474,434.759,185.379,434.759z"/>
	<path style="fill:#C7CFE2;" d="M132.414,434.759h-17.655c-6.094,0-11.034-4.94-11.034-11.034c0-6.094,4.94-11.034,11.034-11.034
		h17.655c6.094,0,11.034,4.94,11.034,11.034C143.448,429.818,138.508,434.759,132.414,434.759z"/>
	<path style="fill:#C7CFE2;" d="M79.448,434.759h-35.31c-6.094,0-11.034-4.94-11.034-11.034c0-6.094,4.94-11.034,11.034-11.034
		h35.31c6.094,0,11.034,4.94,11.034,11.034C90.483,429.818,85.543,434.759,79.448,434.759z"/>
	<path style="fill:#C7CFE2;" d="M467.862,364.138h-35.31c-6.094,0-11.034-4.94-11.034-11.034s4.94-11.034,11.034-11.034h35.31
		c6.094,0,11.034,4.94,11.034,11.034S473.956,364.138,467.862,364.138z"/>
	<path style="fill:#C7CFE2;" d="M397.241,364.138h-17.655c-6.094,0-11.034-4.94-11.034-11.034s4.94-11.034,11.034-11.034h17.655
		c6.094,0,11.034,4.94,11.034,11.034S403.336,364.138,397.241,364.138z"/>
	<path style="fill:#C7CFE2;" d="M344.276,364.138h-17.655c-6.094,0-11.034-4.94-11.034-11.034s4.94-11.034,11.034-11.034h17.655
		c6.094,0,11.034,4.94,11.034,11.034S350.37,364.138,344.276,364.138z"/>
	<path style="fill:#C7CFE2;" d="M291.31,364.138h-17.655c-6.094,0-11.034-4.94-11.034-11.034s4.94-11.034,11.034-11.034h17.655
		c6.094,0,11.034,4.94,11.034,11.034S297.405,364.138,291.31,364.138z"/>
	<path style="fill:#C7CFE2;" d="M238.345,364.138H220.69c-6.094,0-11.034-4.94-11.034-11.034s4.94-11.034,11.034-11.034h17.655
		c6.094,0,11.034,4.94,11.034,11.034S244.439,364.138,238.345,364.138z"/>
	<path style="fill:#C7CFE2;" d="M185.379,364.138h-17.655c-6.094,0-11.034-4.94-11.034-11.034s4.94-11.034,11.034-11.034h17.655
		c6.094,0,11.034,4.94,11.034,11.034S191.474,364.138,185.379,364.138z"/>
	<path style="fill:#C7CFE2;" d="M132.414,364.138h-17.655c-6.094,0-11.034-4.94-11.034-11.034s4.94-11.034,11.034-11.034h17.655
		c6.094,0,11.034,4.94,11.034,11.034S138.508,364.138,132.414,364.138z"/>
	<path style="fill:#C7CFE2;" d="M79.448,364.138h-35.31c-6.094,0-11.034-4.94-11.034-11.034s4.94-11.034,11.034-11.034h35.31
		c6.094,0,11.034,4.94,11.034,11.034S85.543,364.138,79.448,364.138z"/>
	<path style="fill:#C7CFE2;" d="M467.862,399.448h-17.655c-6.094,0-11.034-4.94-11.034-11.034s4.94-11.034,11.034-11.034h17.655
		c6.094,0,11.034,4.94,11.034,11.034S473.956,399.448,467.862,399.448z"/>
	<path style="fill:#C7CFE2;" d="M414.897,399.448h-17.655c-6.094,0-11.034-4.94-11.034-11.034s4.94-11.034,11.034-11.034h17.655
		c6.094,0,11.034,4.94,11.034,11.034S420.991,399.448,414.897,399.448z"/>
	<path style="fill:#C7CFE2;" d="M361.931,399.448h-17.655c-6.094,0-11.034-4.94-11.034-11.034s4.94-11.034,11.034-11.034h17.655
		c6.094,0,11.034,4.94,11.034,11.034S368.025,399.448,361.931,399.448z"/>
	<path style="fill:#C7CFE2;" d="M308.966,399.448H291.31c-6.094,0-11.034-4.94-11.034-11.034s4.94-11.034,11.034-11.034h17.655
		c6.094,0,11.034,4.94,11.034,11.034S315.06,399.448,308.966,399.448z"/>
	<path style="fill:#C7CFE2;" d="M256,399.448h-17.655c-6.094,0-11.034-4.94-11.034-11.034s4.94-11.034,11.034-11.034H256
		c6.094,0,11.034,4.94,11.034,11.034S262.094,399.448,256,399.448z"/>
	<path style="fill:#C7CFE2;" d="M203.034,399.448h-17.655c-6.094,0-11.034-4.94-11.034-11.034s4.94-11.034,11.034-11.034h17.655
		c6.094,0,11.034,4.94,11.034,11.034S209.129,399.448,203.034,399.448z"/>
	<path style="fill:#C7CFE2;" d="M150.069,399.448h-17.655c-6.094,0-11.034-4.94-11.034-11.034s4.94-11.034,11.034-11.034h17.655
		c6.094,0,11.034,4.94,11.034,11.034S156.163,399.448,150.069,399.448z"/>
	<path style="fill:#C7CFE2;" d="M97.103,399.448H44.138c-6.094,0-11.034-4.94-11.034-11.034s4.94-11.034,11.034-11.034h52.966
		c6.094,0,11.034,4.94,11.034,11.034S103.198,399.448,97.103,399.448z"/>
	<path style="fill:#C7CFE2;" d="M467.862,328.828h-17.655c-6.094,0-11.034-4.94-11.034-11.034c0-6.094,4.94-11.034,11.034-11.034
		h17.655c6.094,0,11.034,4.94,11.034,11.034C478.897,323.887,473.956,328.828,467.862,328.828z"/>
	<path style="fill:#C7CFE2;" d="M414.897,328.828h-17.655c-6.094,0-11.034-4.94-11.034-11.034c0-6.094,4.94-11.034,11.034-11.034
		h17.655c6.094,0,11.034,4.94,11.034,11.034C425.931,323.887,420.991,328.828,414.897,328.828z"/>
	<path style="fill:#C7CFE2;" d="M361.931,328.828h-17.655c-6.094,0-11.034-4.94-11.034-11.034c0-6.094,4.94-11.034,11.034-11.034
		h17.655c6.094,0,11.034,4.94,11.034,11.034C372.966,323.887,368.025,328.828,361.931,328.828z"/>
	<path style="fill:#C7CFE2;" d="M308.966,328.828H291.31c-6.094,0-11.034-4.94-11.034-11.034c0-6.094,4.94-11.034,11.034-11.034
		h17.655c6.094,0,11.034,4.94,11.034,11.034C320,323.887,315.06,328.828,308.966,328.828z"/>
	<path style="fill:#C7CFE2;" d="M256,328.828h-17.655c-6.094,0-11.034-4.94-11.034-11.034c0-6.094,4.94-11.034,11.034-11.034H256
		c6.094,0,11.034,4.94,11.034,11.034C267.034,323.887,262.094,328.828,256,328.828z"/>
	<path style="fill:#C7CFE2;" d="M203.034,328.828h-17.655c-6.094,0-11.034-4.94-11.034-11.034c0-6.094,4.94-11.034,11.034-11.034
		h17.655c6.094,0,11.034,4.94,11.034,11.034C214.069,323.887,209.129,328.828,203.034,328.828z"/>
	<path style="fill:#C7CFE2;" d="M150.069,328.828h-17.655c-6.094,0-11.034-4.94-11.034-11.034c0-6.094,4.94-11.034,11.034-11.034
		h17.655c6.094,0,11.034,4.94,11.034,11.034C161.103,323.887,156.163,328.828,150.069,328.828z"/>
	<path style="fill:#C7CFE2;" d="M97.103,328.828H44.138c-6.094,0-11.034-4.94-11.034-11.034c0-6.094,4.94-11.034,11.034-11.034
		h52.966c6.094,0,11.034,4.94,11.034,11.034C108.138,323.887,103.198,328.828,97.103,328.828z"/>
</g>
<path style="fill:#E4EAF8;" d="M503.172,176.552H291.31c-4.875,0-8.828-3.953-8.828-8.828V26.483c0-4.875,3.953-8.828,8.828-8.828
	h211.862c4.875,0,8.828,3.953,8.828,8.828v141.241C512,172.599,508.047,176.552,503.172,176.552z"/>
<path style="fill:#7F8499;" d="M476.69,44.138h-65.164c-6.741,0-12.793,3.742-15.794,9.759l-33.801,67.607l-16.147-32.289
	c-3-6.025-9.052-9.767-15.793-9.767h-12.199c-4.879,0-8.828,3.953-8.828,8.828c0,4.875,3.948,8.828,8.828,8.828h12.199
	l24.043,48.086c1.5,2.991,4.552,4.879,7.896,4.879c3.345,0,6.397-1.888,7.896-4.879l41.698-83.396h65.164
	c4.879,0,8.828-3.953,8.828-8.828S481.569,44.138,476.69,44.138z"/>
<path style="fill:#707487;" d="M473.517,81.495c-3.767-3.125-9.311-2.612-12.439,1.129l-15.285,18.343l-15.285-18.342
	c-3.121-3.742-8.681-4.254-12.439-1.129c-3.742,3.121-4.25,8.685-1.129,12.431l17.359,20.831l-17.359,20.832
	c-3.121,3.746-2.612,9.311,1.129,12.431c1.655,1.375,3.656,2.047,5.646,2.047c2.535,0,5.043-1.081,6.793-3.177l15.285-18.342
	l15.285,18.342c1.75,2.094,4.258,3.177,6.793,3.177c1.992,0,3.991-0.672,5.646-2.047c3.742-3.121,4.25-8.685,1.129-12.431
	l-17.359-20.832l17.359-20.832C477.768,90.182,477.259,84.617,473.517,81.495z"/>
<path style="fill:#E4EAF8;" d="M132.414,17.655c-5.85,0-11.036,2.846-14.249,7.228c-1.626,2.219-5.186,2.219-6.813,0
	c-3.213-4.382-8.398-7.228-14.249-7.228H8.828C3.953,17.655,0,21.608,0,26.483v141.241c0,4.875,3.953,8.828,8.828,8.828h88.276
	c5.85,0,11.036,2.846,14.249,7.228c1.626,2.219,5.186,2.219,6.813,0c3.212-4.383,8.398-7.228,14.249-7.228h88.276
	c4.875,0,8.828-3.953,8.828-8.828V26.483c0-4.875-3.953-8.828-8.828-8.828H132.414z"/>
<g>
	<path style="fill:#7F8499;" d="M79.448,70.621H35.31c-4.879,0-8.828-3.953-8.828-8.828s3.948-8.828,8.828-8.828h44.138
		c4.879,0,8.828,3.953,8.828,8.828S84.328,70.621,79.448,70.621z"/>
	<path style="fill:#7F8499;" d="M79.448,141.241H35.31c-4.879,0-8.828-3.953-8.828-8.828c0-4.875,3.948-8.828,8.828-8.828h44.138
		c4.879,0,8.828,3.953,8.828,8.828C88.276,137.289,84.328,141.241,79.448,141.241z"/>
</g>
<g>
	<path style="fill:#707487;" d="M79.448,105.931H35.31c-4.879,0-8.828-3.953-8.828-8.828c0-4.875,3.948-8.828,8.828-8.828h44.138
		c4.879,0,8.828,3.953,8.828,8.828C88.276,101.978,84.328,105.931,79.448,105.931z"/>
	<path style="fill:#707487;" d="M194.207,70.621h-44.138c-4.879,0-8.828-3.953-8.828-8.828s3.948-8.828,8.828-8.828h44.138
		c4.879,0,8.828,3.953,8.828,8.828S199.086,70.621,194.207,70.621z"/>
	<path style="fill:#707487;" d="M194.207,141.241h-44.138c-4.879,0-8.828-3.953-8.828-8.828c0-4.875,3.948-8.828,8.828-8.828h44.138
		c4.879,0,8.828,3.953,8.828,8.828C203.034,137.289,199.086,141.241,194.207,141.241z"/>
</g>
<path style="fill:#7F8499;" d="M194.207,105.931h-44.138c-4.879,0-8.828-3.953-8.828-8.828c0-4.875,3.948-8.828,8.828-8.828h44.138
	c4.879,0,8.828,3.953,8.828,8.828C203.034,101.978,199.086,105.931,194.207,105.931z"/>
<path style="fill:#D5DCED;" d="M123.586,20.107c-2.109,1.228-3.985,2.816-5.421,4.776c-1.626,2.219-5.186,2.219-6.813,0
	c-1.437-1.96-3.313-3.548-5.421-4.776v158.897c2.109,1.228,3.985,2.816,5.421,4.776c1.626,2.219,5.186,2.219,6.813,0
	c1.437-1.96,3.313-3.548,5.421-4.776C123.586,179.004,123.586,20.107,123.586,20.107z"/>
<g>
</g>
<g>
</g>
<g>
</g>
<g>
</g>
<g>
</g>
<g>
</g>
<g>
</g>
<g>
</g>
<g>
</g>
<g>
</g>
<g>
</g>
<g>
</g>
<g>
</g>
<g>
</g>
<g>
</g>
</svg>
