<?xml version="1.0" encoding="iso-8859-1"?>
<!-- Generator: Adobe Illustrator 19.0.0, SVG Export Plug-In . SVG Version: 6.00 Build 0)  -->
<svg version="1.1" id="Layer_1" xmlns="http://www.w3.org/2000/svg" xmlns:xlink="http://www.w3.org/1999/xlink" x="0px" y="0px"
	 viewBox="0 0 512 512" style="enable-background:new 0 0 512 512;" xml:space="preserve">
<circle style="fill:#59D8FF;" cx="256" cy="308.966" r="203.034"/>
<path style="fill:#00C3F0;" d="M185.379,264.828c0-29.948,6.509-58.36,18.161-83.94c1.726-3.789,5.971-5.771,10.027-4.835
	l26.553,6.127c5.201,1.199,10.543,1.809,15.88,1.809c5.336,0,10.679-0.608,15.88-1.809l79.562-18.36
	c10.967-2.53,20.056-8.942,26.112-17.494c-32.436-24.28-72.413-38.931-115.751-40.156c0.036-0.029,0.07-0.061,0.106-0.089
	c-1.97-0.056-3.928-0.149-5.909-0.149c-116.382,0-209.892,97.92-202.639,215.868c6.287,102.246,90.272,185.015,192.591,189.959
	c51.735,2.499,99.434-14.423,136.555-44.044C273.112,464.579,185.379,374.979,185.379,264.828z"/>
<path style="fill:#E4EAF8;" d="M364.23,200.897c18.212-3.722,36.25-8.352,54.041-13.955c-3.871-5.14-7.978-10.092-12.31-14.837
	c-15.66,4.68-31.488,8.745-47.493,11.922c-10.934-28.878-25.658-52.585-42.965-69.215c-18.819-5.761-38.795-8.881-59.502-8.881
	s-40.682,3.119-59.501,8.879c-17.282,16.608-31.991,40.275-42.921,69.101c-15.977-3.19-31.775-7.262-47.405-11.947
	c-4.339,4.742-8.45,9.692-12.328,14.83c17.767,5.613,35.779,10.247,53.965,13.982c-9.086,29.419-14.514,63.137-15.275,99.361H53.189
	c-0.126,2.93-0.223,5.867-0.223,8.828s0.097,5.898,0.223,8.828h79.347c0.761,36.217,6.186,69.931,15.27,99.346
	c-18.215,3.709-36.256,8.317-54.018,13.922c3.874,5.139,7.982,10.091,12.318,14.833c15.646-4.682,31.46-8.747,47.452-11.931
	c10.904,28.779,25.554,52.483,42.787,69.112C215.208,508.867,235.237,512,256,512s40.792-3.133,59.657-8.924
	c17.235-16.631,31.885-40.337,42.789-69.117c15.99,3.183,31.802,7.256,47.446,11.939c4.335-4.743,8.444-9.695,12.319-14.834
	c-17.762-5.601-35.8-10.22-54.015-13.928c9.082-29.415,14.507-63.127,15.268-99.345h79.347c0.126-2.93,0.223-5.867,0.223-8.828
	s-0.097-5.898-0.223-8.828h-79.347C378.705,263.964,373.292,230.287,364.23,200.897z M247.173,511.241
	c-30.959-4.922-58.186-35.421-75.866-80.469c25.095-4.098,50.461-6.338,75.866-6.764V511.241z M247.173,406.355
	c-27.413,0.444-54.778,2.953-81.829,7.533c-8.941-28.276-14.37-61.05-15.157-96.095h96.986V406.355z M247.173,300.138h-96.986
	c0.787-35.038,6.214-67.808,15.153-96.081c26.988,4.616,54.322,7.167,81.834,7.63V300.138z M247.173,193.919
	c-25.401-0.439-50.761-2.692-75.848-6.805c17.681-45.024,44.898-75.503,75.848-80.424V193.919z M264.828,106.69
	c30.97,4.924,58.206,35.442,75.886,80.518c-25.102,4.086-50.476,6.311-75.886,6.721V106.69z M264.828,511.241v-87.234
	c25.407,0.425,50.774,2.663,75.868,6.761C323.015,475.819,295.788,506.318,264.828,511.241z M346.657,413.889
	c-27.052-4.579-54.419-7.09-81.83-7.534v-88.562h96.986C361.027,352.838,355.6,385.613,346.657,413.889z M264.828,300.138v-88.439
	c27.519-0.433,54.865-2.954,81.864-7.542c8.92,28.25,14.337,60.984,15.123,95.981H264.828z"/>
<path style="fill:#D5DCED;" d="M327.546,458.456c-16.83,29.598-38.632,48.956-62.718,52.785v-85.378
	c-7.724-5.932-15.017-12.401-21.806-19.362c-26.022,0.62-51.992,3.041-77.678,7.391c-8.942-28.276-14.371-61.054-15.158-96.099
	h42.229c-1.561-5.786-2.862-11.676-3.912-17.655h-38.316c0.787-35.04,6.214-67.811,15.154-96.085
	c9.335,1.597,18.724,2.855,28.136,3.957c1.704-5.846,3.71-11.558,5.912-17.173c-9.379-1.016-18.743-2.201-28.06-3.729
	c17.681-45.021,44.897-75.498,75.846-80.418v12.429c4.711-4.565,9.602-8.943,14.734-13.039c-1.969-0.055-3.927-0.148-5.908-0.148
	c-20.707,0-40.682,3.119-59.501,8.879c-17.281,16.608-31.99,40.271-42.919,69.096c-15.975-3.19-31.774-7.26-47.403-11.946
	c-4.339,4.742-8.451,9.692-12.329,14.83c17.768,5.612,35.778,10.246,53.963,13.981c-9.086,29.42-14.514,63.14-15.275,99.366H53.189
	c-0.126,2.93-0.223,5.867-0.223,8.828c0,2.961,0.097,5.898,0.223,8.828h79.347c0.761,36.22,6.187,69.934,15.271,99.351
	c-18.212,3.709-36.254,8.318-54.017,13.921c3.874,5.139,7.983,10.091,12.318,14.833c15.647-4.683,31.459-8.747,47.449-11.932
	c10.932,28.851,25.649,52.535,42.942,69.154C215.318,508.881,235.293,512,256,512c20.841,0,40.868-3.313,59.787-9.154
	c10.931-10.572,20.833-23.946,29.378-39.713C339.188,461.835,333.314,460.266,327.546,458.456z M247.173,511.241
	c-30.959-4.922-58.185-35.42-75.865-80.468c25.095-4.1,50.461-6.342,75.865-6.769V511.241z"/>
<rect x="414.897" y="44.138" style="fill:#464655;" width="17.655" height="97.103"/>
<path style="fill:#5B5D6E;" d="M357.517,35.31H154.483l-10.276,82.216c-1.684,13.472,7.094,26.037,20.323,29.089l79.561,18.36
	c7.838,1.809,15.982,1.809,23.82,0l79.561-18.36c13.229-3.053,22.007-15.617,20.323-29.089L357.517,35.31z"/>
<path style="fill:#464655;" d="M357.517,35.31H154.483l-10.276,82.216c-1.684,13.473,7.094,26.036,20.323,29.089l79.561,18.36
	c3.918,0.904,7.914,1.356,11.91,1.356v-52.758c0-4.255,3.036-7.905,7.22-8.68l100.665-18.642L357.517,35.31z"/>
<path style="fill:#707487;" d="M256,0L48.988,38.336c-6.435,1.192-6.435,10.413,0,11.605L256,88.276L463.013,49.94
	c6.435-1.192,6.435-10.413,0-11.605L256,0z"/>
<g>
	<circle style="fill:#5B5D6E;" cx="423.746" cy="150.069" r="17.655"/>
	<path style="fill:#5B5D6E;" d="M423.747,167.724L423.747,167.724c-9.751,0-17.655,7.904-17.655,17.655v35.31
		c0,4.875,3.953,8.828,8.828,8.828h17.655c4.875,0,8.828-3.953,8.828-8.828v-35.31C441.403,175.628,433.498,167.724,423.747,167.724
		z"/>
</g>
<g>
</g>
<g>
</g>
<g>
</g>
<g>
</g>
<g>
</g>
<g>
</g>
<g>
</g>
<g>
</g>
<g>
</g>
<g>
</g>
<g>
</g>
<g>
</g>
<g>
</g>
<g>
</g>
<g>
</g>
</svg>
