<?xml version="1.0" encoding="iso-8859-1"?>
<!-- Generator: Adobe Illustrator 19.0.0, SVG Export Plug-In . SVG Version: 6.00 Build 0)  -->
<svg version="1.1" id="Layer_1" xmlns="http://www.w3.org/2000/svg" xmlns:xlink="http://www.w3.org/1999/xlink" x="0px" y="0px"
	 viewBox="0 0 511.999 511.999" style="enable-background:new 0 0 511.999 511.999;" xml:space="preserve">
<path style="fill:#959CB5;" d="M494.345,467.846H176.575c-9.75,0-17.654-7.903-17.654-17.654V264.826
	c0-9.751,7.903-17.654,17.654-17.654h317.771c9.75,0,17.654,7.903,17.654,17.654v185.366
	C511.999,459.942,504.096,467.846,494.345,467.846z"/>
<path style="fill:#7F8499;" d="M265.975,247.173h-89.401c-9.749,0-17.654,7.903-17.654,17.654v69.304
	C208.725,327.477,249.675,293.211,265.975,247.173z"/>
<path style="fill:#E4EAF8;" d="M389.522,229.519c-41.999,0-53.998,12.788-53.998,12.788s-11.999-12.788-53.998-12.788
	c-37.177,0-80.387,9.21-92.618,11.998c-2.007,0.458-3.377,2.233-3.377,4.292v193.972c0,2.826,2.566,4.932,5.325,4.317
	c14.371-3.203,55.259-11.559,90.672-11.559c28.579,0,43.268,5.922,49.736,9.706c2.629,1.538,5.894,1.538,8.524,0
	c6.468-3.785,21.156-9.706,49.736-9.706c35.413,0,76.3,8.356,90.672,11.559c2.757,0.615,5.325-1.492,5.325-4.317V245.809
	c0-2.059-1.37-3.834-3.377-4.292C469.91,238.727,426.7,229.519,389.522,229.519z"/>
<path style="fill:#D5DCED;" d="M270.969,229.769c-34.433,1.437-70.973,9.219-82.061,11.746c-2.007,0.458-3.379,2.233-3.379,4.292
	V327.7C228.69,312.367,261.609,275.42,270.969,229.769z"/>
<path style="fill:#707487;" d="M300.161,389.352c-0.319,0-0.647-0.018-0.974-0.052c-9.956-1.095-21.878-1.112-33.8-0.362
	c-4.827,0.156-9.06-3.387-9.361-8.258c-0.301-4.861,3.387-9.051,8.258-9.361c12.93-0.81,25.843-0.767,36.834,0.431
	c4.845,0.534,8.345,4.888,7.81,9.741C308.427,386.007,304.608,389.352,300.161,389.352z"/>
<g>
	<path style="fill:#7F8499;" d="M220.692,394.188c-4.241,0-7.982-3.06-8.698-7.379c-0.802-4.81,2.448-9.353,7.258-10.154
		c2.896-0.483,5.896-0.957,8.983-1.413c4.94-0.655,9.318,2.629,10.025,7.439c0.715,4.827-2.62,9.309-7.439,10.025
		c-2.982,0.439-5.879,0.897-8.671,1.362C221.657,394.152,221.175,394.188,220.692,394.188z"/>
	<path style="fill:#7F8499;" d="M220.692,358.88c-4.241,0-7.982-3.06-8.698-7.379c-0.802-4.81,2.448-9.361,7.258-10.154
		c32.868-5.465,60.349-7.267,81.865-4.904c4.845,0.534,8.345,4.888,7.81,9.741c-0.534,4.836-4.845,8.293-9.741,7.81
		c-19.8-2.164-45.867-0.405-77.037,4.767C221.657,358.845,221.166,358.88,220.692,358.88z"/>
	<path style="fill:#7F8499;" d="M300.161,318.736c-0.31,0-0.629-0.018-0.948-0.052c-2.595-0.276-5.37-0.5-8.345-0.655
		c-4.87-0.258-8.612-4.405-8.361-9.275c0.258-4.87,4.336-8.671,9.275-8.361c3.319,0.172,6.422,0.431,9.31,0.741
		c4.845,0.517,8.353,4.87,7.836,9.715C308.445,315.374,304.617,318.736,300.161,318.736z"/>
</g>
<path style="fill:#707487;" d="M220.692,323.572c-4.241,0-7.982-3.06-8.698-7.387c-0.802-4.81,2.457-9.353,7.267-10.146
	c12.698-2.103,24.8-3.672,35.98-4.655c4.974-0.414,9.137,3.163,9.568,8.017c0.431,4.861-3.163,9.146-8.017,9.568
	c-10.732,0.948-22.395,2.457-34.652,4.483C221.657,323.537,221.166,323.572,220.692,323.572z"/>
<path style="fill:#7F8499;" d="M220.692,288.264c-4.241,0-7.982-3.06-8.698-7.378c-0.802-4.81,2.448-9.361,7.258-10.154
	c32.868-5.456,60.349-7.267,81.865-4.904c4.845,0.534,8.345,4.888,7.81,9.741c-0.534,4.836-4.845,8.309-9.741,7.81
	c-19.8-2.164-45.867-0.396-77.037,4.767C221.657,288.229,221.166,288.264,220.692,288.264z"/>
<path style="fill:#707487;" d="M370.759,389.352c-4.448,0-8.266-3.344-8.766-7.87c-0.526-4.845,2.966-9.198,7.818-9.732
	c11-1.198,23.921-1.232,36.825-0.431c4.87,0.31,8.569,4.5,8.258,9.361c-0.31,4.87-4.551,8.431-9.361,8.258
	c-11.887-0.759-23.817-0.733-33.808,0.362C371.405,389.334,371.078,389.352,370.759,389.352z"/>
<g>
	<path style="fill:#7F8499;" d="M450.228,394.188c-0.483,0-0.965-0.034-1.456-0.12c-2.793-0.466-5.689-0.922-8.671-1.362
		c-4.818-0.715-8.155-5.198-7.439-10.025c0.707-4.818,5.189-8.207,10.025-7.439c3.086,0.457,6.086,0.931,8.983,1.413
		c4.81,0.802,8.06,5.345,7.258,10.154C458.21,391.127,454.468,394.188,450.228,394.188z"/>
	<path style="fill:#7F8499;" d="M450.228,358.88c-0.474,0-0.965-0.034-1.456-0.12c-31.136-5.173-57.142-6.939-77.046-4.767
		c-4.759,0.491-9.198-2.974-9.732-7.818c-0.526-4.845,2.966-9.198,7.818-9.732c21.533-2.353,49.023-0.552,81.857,4.904
		c4.81,0.793,8.06,5.345,7.258,10.154C458.21,355.819,454.468,358.88,450.228,358.88z"/>
	<path style="fill:#7F8499;" d="M370.759,318.736c-4.457,0-8.284-3.362-8.766-7.887c-0.517-4.853,2.991-9.198,7.836-9.715
		c2.905-0.31,5.991-0.569,9.31-0.741c4.879-0.319,9.017,3.491,9.275,8.361c0.25,4.87-3.491,9.017-8.361,9.275
		c-2.974,0.156-5.75,0.38-8.345,0.655C371.389,318.718,371.069,318.736,370.759,318.736z"/>
</g>
<path style="fill:#707487;" d="M450.228,323.572c-0.474,0-0.965-0.034-1.449-0.12c-12.257-2.026-23.912-3.534-34.644-4.483
	c-4.853-0.431-8.447-4.707-8.017-9.568c0.431-4.853,4.621-8.447,9.568-8.017c11.172,0.983,23.274,2.552,35.972,4.655
	c4.81,0.793,8.069,5.336,7.267,10.145C458.21,320.511,454.468,323.572,450.228,323.572z"/>
<path style="fill:#7F8499;" d="M450.228,288.264c-0.474,0-0.965-0.034-1.456-0.12c-31.136-5.164-57.142-6.93-77.046-4.767
	c-4.759,0.509-9.198-2.974-9.732-7.818c-0.526-4.845,2.966-9.198,7.818-9.732c21.533-2.353,49.023-0.552,81.857,4.904
	c4.81,0.793,8.06,5.345,7.258,10.154C458.21,285.203,454.468,288.264,450.228,288.264z"/>
<path style="fill:#E4EAF8;" d="M303.756,144.369c-4.637-1.456-9.611,1.06-11.111,5.698l-0.788,2.447
	C270.611,88.972,210.724,44.152,141.268,44.152c-58.772,0-112.51,32.231-140.223,84.107c-2.302,4.301-0.672,9.654,3.62,11.947
	c4.319,2.293,9.663,0.672,11.947-3.62C41.257,90.46,89.021,61.807,141.268,61.807c62.905,0,117.049,41.319,134.954,99.493
	l-5.326-4.802c-3.611-3.258-9.189-2.982-12.465,0.638c-3.267,3.62-2.982,9.207,0.638,12.465l25.378,22.886
	c1.646,1.483,3.758,2.275,5.913,2.275c0.767,0,1.535-0.104,2.293-0.301c2.888-0.776,5.189-2.966,6.112-5.818l10.689-33.162
	C310.944,150.843,308.393,145.869,303.756,144.369z"/>
<circle style="fill:#00C3FF;" cx="141.263" cy="203.041" r="105.924"/>
<path style="fill:#00AAF0;" d="M185.402,282.48c-63.374,0-114.75-51.375-114.75-114.75c0-19.426,4.867-37.701,13.387-53.739
	c-29.266,18.849-48.695,51.649-48.695,89.046c0,58.5,47.423,105.923,105.924,105.923c29.065,0,55.38-11.723,74.519-30.678
	C206.094,280.941,195.938,282.48,185.402,282.48z"/>
<path style="fill:#E4EAF8;" d="M141.267,88.287c-63.272,0-114.75,51.479-114.75,114.75s51.479,114.75,114.75,114.75
	s114.75-51.479,114.75-114.75S204.538,88.287,141.267,88.287z M218.332,261.866c-4.757-1.925-9.544-3.728-14.388-5.286
	c4.284-13.471,6.948-28.578,7.673-44.716h26.299C236.219,230.577,229.157,247.721,218.332,261.866z M44.617,211.865h26.299
	c0.725,16.139,3.39,31.246,7.674,44.718c-4.844,1.558-9.631,3.36-14.386,5.288C53.378,247.724,46.314,230.579,44.617,211.865z
	 M64.197,144.214c4.759,1.933,9.546,3.744,14.385,5.309c-4.279,13.463-6.941,28.561-7.665,44.686h-26.3
	C46.313,175.5,53.374,158.358,64.197,144.214z M132.44,141.474c-10.008-0.476-19.99-1.74-29.856-3.831
	c7.815-15.481,18.243-26.423,29.856-30.178V141.474z M132.44,159.206v35.004H88.558c0.747-14.402,3.322-27.963,7.245-39.983
	C107.842,156.995,120.072,158.672,132.44,159.206z M132.44,211.865v35.093c-12.289,0.532-24.536,2.191-36.618,4.949
	c-3.934-12.034-6.517-25.615-7.265-40.041H132.44z M132.44,264.606v34.004c-11.613-3.754-22.042-14.697-29.856-30.178
	C112.45,266.34,122.432,265.08,132.44,264.606z M150.094,246.947v-35.083h43.882c-0.749,14.429-3.332,28.011-7.267,40.048
	C174.625,249.155,162.38,247.48,150.094,246.947z M179.943,268.442c-7.814,15.476-18.24,26.414-29.849,30.166v-34.016
	C160.099,265.069,170.077,266.35,179.943,268.442z M150.094,194.211v-35.003c12.367-0.534,24.596-2.212,36.637-4.981
	c3.922,12.02,6.498,25.581,7.245,39.984H150.094z M150.094,141.477v-34.012c11.612,3.754,22.04,14.695,29.854,30.174
	C170.081,139.731,160.1,141.002,150.094,141.477z M189.722,119.022c5.597,3.242,10.826,7.025,15.648,11.279
	c-2.616,0.953-5.239,1.87-7.881,2.703C195.14,127.989,192.548,123.318,189.722,119.022z M85.044,133.002
	c-2.643-0.833-5.266-1.748-7.882-2.701c4.823-4.255,10.051-8.038,15.649-11.28C89.985,123.318,87.394,127.989,85.044,133.002z
	 M85.047,273.075c2.349,5.013,4.94,9.682,7.764,13.978c-5.597-3.242-10.825-7.024-15.646-11.278
	C79.78,274.823,82.404,273.908,85.047,273.075z M197.491,273.068c2.641,0.833,5.264,1.752,7.88,2.705
	c-4.822,4.255-10.049,8.038-15.648,11.28C192.549,282.756,195.141,278.083,197.491,273.068z M211.616,194.211
	c-0.724-16.126-3.385-31.222-7.664-44.685c4.838-1.566,9.622-3.38,14.381-5.314c10.824,14.145,17.886,31.288,19.583,49.999
	L211.616,194.211L211.616,194.211z"/>
<path style="fill:#D5DCED;" d="M197.857,281.776c-2.616,1.889-5.328,3.651-8.135,5.276c1.038-1.58,2.011-3.263,2.987-4.942
	c-2.429,0.153-4.84,0.369-7.308,0.369c-4.618,0-9.147-0.351-13.621-0.88c-6.379,8.447-13.742,14.442-21.687,17.01v-21.722
	c-6.131-1.982-12.022-4.483-17.654-7.421v29.143c-11.613-3.754-22.042-14.697-29.856-30.178c7.459-1.581,14.993-2.538,22.545-3.188
	c-7.031-4.355-13.578-9.396-19.49-15.119c-3.275,0.583-6.565,1.039-9.818,1.782c-1.953-5.973-3.567-12.328-4.795-18.977
	c-10.089-14.574-16.814-31.604-19.255-50.005c-0.386,3.702-0.684,7.46-0.855,11.286H44.617c1.696-18.71,8.757-35.852,19.58-49.996
	c2.771,1.125,5.58,2.072,8.372,3.091c3.252-18.068,10.735-34.618,21.382-48.686c-39.708,18.068-67.437,58.027-67.437,104.42
	c0,63.272,51.479,114.75,114.75,114.75c37.26,0,70.329-17.932,91.305-45.532C221.774,277.138,210.125,280.451,197.857,281.776z
	 M44.617,211.865h26.299c0.725,16.139,3.39,31.246,7.674,44.718c-4.844,1.558-9.631,3.36-14.386,5.288
	C53.378,247.724,46.314,230.579,44.617,211.865z M77.165,275.775c2.615-0.952,5.24-1.867,7.881-2.7
	c2.349,5.013,4.94,9.682,7.764,13.978C87.214,283.812,81.986,280.029,77.165,275.775z"/>
<g>
</g>
<g>
</g>
<g>
</g>
<g>
</g>
<g>
</g>
<g>
</g>
<g>
</g>
<g>
</g>
<g>
</g>
<g>
</g>
<g>
</g>
<g>
</g>
<g>
</g>
<g>
</g>
<g>
</g>
</svg>
