<?xml version="1.0" encoding="iso-8859-1"?>
<!-- Generator: Adobe Illustrator 19.0.0, SVG Export Plug-In . SVG Version: 6.00 Build 0)  -->
<svg version="1.1" id="Layer_1" xmlns="http://www.w3.org/2000/svg" xmlns:xlink="http://www.w3.org/1999/xlink" x="0px" y="0px"
	 viewBox="0 0 512 512" style="enable-background:new 0 0 512 512;" xml:space="preserve">
<path style="fill:#C7CFE2;" d="M388.414,238.345H273.58l0.075-61.784L256,176.543l-0.075,61.802H141.241
	c-14.603,0-26.483,11.88-26.483,26.483v61.793h17.655v-61.793c0-4.866,3.957-8.828,8.828-8.828h123.491h0.009h123.672
	c4.871,0,8.828,3.961,8.828,8.828v61.793h17.655v-61.793C414.897,250.225,403.017,238.345,388.414,238.345z"/>
<g>
	<path style="fill:#AFB9D2;" d="M273.655,176.552H256v24.861c2.774,0.986,5.716,1.622,8.828,1.622c3.112,0,6.054-0.636,8.828-1.622
		V176.552z"/>
	<rect x="114.759" y="300.138" style="fill:#AFB9D2;" width="17.655" height="26.483"/>
	<rect x="397.241" y="300.138" style="fill:#AFB9D2;" width="17.655" height="26.483"/>
</g>
<path style="fill:#E4EAF8;" d="M459.034,317.793H353.103c-4.875,0-8.828,3.953-8.828,8.828v176.552c0,4.875,3.953,8.828,8.828,8.828
	h97.103c9.751,0,17.655-7.904,17.655-17.655V326.621C467.862,321.746,463.91,317.793,459.034,317.793z"/>
<path style="fill:#D5DCED;" d="M450.207,512h-35.31V397.241c0-14.626,11.857-26.483,26.483-26.483h26.483v123.586
	C467.862,504.096,459.958,512,450.207,512z"/>
<path style="fill:#00C3FF;" d="M454.621,485.517h-97.103c-2.438,0-4.414-1.976-4.414-4.414V348.69c0-2.438,1.976-4.414,4.414-4.414
	h97.103c2.438,0,4.414,1.976,4.414,4.414v132.414C459.034,483.541,457.058,485.517,454.621,485.517z"/>
<path style="fill:#00AAF0;" d="M441.379,370.759c-14.626,0-26.483,11.857-26.483,26.483v88.276h39.724
	c2.438,0,4.414-1.976,4.414-4.414V370.759H441.379z"/>
<path style="fill:#5B5D6E;" d="M441.379,512h52.966c4.875,0,8.828-3.953,8.828-8.828V397.241c0-4.875-3.953-8.828-8.828-8.828
	h-52.966c-4.875,0-8.828,3.953-8.828,8.828v105.931C432.552,508.047,436.504,512,441.379,512z"/>
<path style="fill:#E4EAF8;" d="M309.346,0c-25.312,0-37.395,5.64-42.056,8.665c-1.502,0.975-3.338,0.975-4.841,0
	C257.789,5.64,245.707,0,220.395,0c-27.303,0-58.556,6.03-72.15,8.966c-4.056,0.876-6.918,4.47-6.918,8.619v153.429
	c0,2.817,2.561,4.926,5.312,4.32c12.588-2.772,45.315-9.315,73.756-9.315c12.793,0,22.193,1.44,28.969,3.256
	c3.908,1.047,6.636,3.208,6.636,7.254v0.023c0,4.879,3.948,8.828,8.828,8.828c4.879,0,8.828-3.948,8.828-8.828l0,0
	c0-4.042,2.723-6.199,6.626-7.251c6.782-1.828,16.209-3.283,29.065-3.283c28.44,0,61.167,6.543,73.756,9.315
	c2.751,0.606,5.312-1.503,5.312-4.32V17.585c0-4.15-2.861-7.744-6.918-8.619C367.902,6.03,336.649,0,309.346,0z"/>
<path style="fill:#707487;" d="M353.112,56.724c-0.439,0-0.879-0.034-1.327-0.095c-28.724-4.337-51.448-4.922-67.267-1.181
	c-4.733,1.146-9.508-1.811-10.621-6.552c-1.129-4.742,1.811-9.5,6.552-10.621c18.182-4.301,42.802-3.81,73.974,0.888
	c4.819,0.733,8.138,5.233,7.414,10.051C361.173,53.587,357.405,56.724,353.112,56.724z"/>
<path style="fill:#7F8499;" d="M353.112,127.345c-0.439,0-0.879-0.034-1.327-0.095c-28.724-4.337-51.448-4.922-67.267-1.181
	c-4.733,1.121-9.508-1.811-10.621-6.552c-1.129-4.742,1.811-9.5,6.552-10.621c18.182-4.31,42.802-3.81,73.974,0.888
	c4.819,0.733,8.138,5.233,7.414,10.051C361.173,124.207,357.405,127.345,353.112,127.345z"/>
<path style="fill:#707487;" d="M282.474,91c-4,0-7.62-2.733-8.586-6.802c-1.112-4.742,1.818-9.5,6.569-10.621
	c2.845-0.664,6.051-1.276,9.664-1.768c4.871-0.621,9.284,2.741,9.94,7.561c0.655,4.836-2.733,9.284-7.561,9.94
	c-2.991,0.405-5.646,0.897-7.991,1.457C283.828,90.922,283.147,91,282.474,91z"/>
<g>
	<path style="fill:#7F8499;" d="M353.112,92.034c-0.439,0-0.879-0.034-1.327-0.095c-9.207-1.397-17.888-2.397-25.818-2.991
		c-4.862-0.362-8.509-4.595-8.147-9.457c0.362-4.862,4.638-8.518,9.457-8.147c8.371,0.621,17.5,1.681,27.147,3.129
		c4.819,0.733,8.138,5.233,7.414,10.051C361.173,88.897,357.405,92.034,353.112,92.034z"/>
	<path style="fill:#7F8499;" d="M176.543,56.724c-4.294,0-8.061-3.138-8.724-7.509c-0.724-4.819,2.595-9.319,7.414-10.051
		c31.172-4.69,55.801-5.19,73.974-0.888c4.742,1.121,7.681,5.879,6.552,10.621c-1.121,4.742-5.897,7.699-10.621,6.552
		c-15.819-3.742-38.535-3.155-67.267,1.181C177.422,56.69,176.983,56.724,176.543,56.724z"/>
</g>
<g>
	<path style="fill:#707487;" d="M176.543,127.345c-4.294,0-8.061-3.138-8.724-7.509c-0.724-4.819,2.595-9.319,7.414-10.051
		c31.172-4.69,55.801-5.19,73.974-0.888c4.742,1.121,7.681,5.879,6.552,10.621c-1.121,4.742-5.897,7.672-10.621,6.552
		c-15.819-3.742-38.535-3.155-67.267,1.181C177.422,127.31,176.983,127.345,176.543,127.345z"/>
	<path style="fill:#707487;" d="M247.181,91c-0.672,0-1.354-0.077-2.035-0.233c-2.345-0.561-5-1.052-7.991-1.457
		c-4.828-0.655-8.215-5.103-7.561-9.94c0.664-4.819,5.086-8.181,9.94-7.561c3.612,0.491,6.819,1.103,9.664,1.768
		c4.75,1.121,7.681,5.879,6.569,10.621C254.802,88.258,251.181,91,247.181,91z"/>
</g>
<path style="fill:#7F8499;" d="M176.543,92.034c-4.294,0-8.061-3.138-8.724-7.509c-0.724-4.819,2.595-9.319,7.414-10.051
	c9.646-1.449,18.776-2.508,27.147-3.129c4.991-0.457,9.095,3.285,9.457,8.147c0.362,4.862-3.285,9.095-8.147,9.457
	c-7.932,0.595-16.612,1.594-25.818,2.991C177.422,92,176.983,92.034,176.543,92.034z"/>
<rect x="97.103" y="467.862" style="fill:#C7CFE2;" width="52.966" height="35.31"/>
<path style="fill:#5B5D6E;" d="M220.69,476.69H26.483c-9.751,0-17.655-7.904-17.655-17.655V335.448
	c0-9.751,7.904-17.655,17.655-17.655H220.69c9.751,0,17.655,7.904,17.655,17.655v123.586
	C238.345,468.786,230.441,476.69,220.69,476.69z"/>
<g>
	<path style="fill:#E4EAF8;" d="M158.897,512H88.276c-4.879,0-8.828-3.953-8.828-8.828c0-4.875,3.948-8.828,8.828-8.828h70.621
		c4.879,0,8.828,3.953,8.828,8.828C167.724,508.047,163.776,512,158.897,512z"/>
	<path style="fill:#E4EAF8;" d="M220.69,476.69H26.483c-9.751,0-17.655-7.904-17.655-17.655v-8.828h229.517v8.828
		C238.345,468.786,230.441,476.69,220.69,476.69z"/>
</g>
<path style="fill:#FFDC64;" d="M216.276,432.552H30.897c-2.438,0-4.414-1.976-4.414-4.414v-88.276c0-2.438,1.976-4.414,4.414-4.414
	h185.379c2.438,0,4.414,1.976,4.414,4.414v88.276C220.69,430.575,218.713,432.552,216.276,432.552z"/>
<path style="fill:#A0FFB4;" d="M489.931,494.345h-44.138c-2.438,0-4.414-1.976-4.414-4.414v-79.448c0-2.438,1.976-4.414,4.414-4.414
	h44.138c2.438,0,4.414,1.976,4.414,4.414v79.448C494.345,492.369,492.369,494.345,489.931,494.345z"/>
<g>
</g>
<g>
</g>
<g>
</g>
<g>
</g>
<g>
</g>
<g>
</g>
<g>
</g>
<g>
</g>
<g>
</g>
<g>
</g>
<g>
</g>
<g>
</g>
<g>
</g>
<g>
</g>
<g>
</g>
</svg>
