<?xml version="1.0" encoding="iso-8859-1"?>
<!-- Generator: Adobe Illustrator 19.0.0, SVG Export Plug-In . SVG Version: 6.00 Build 0)  -->
<svg version="1.1" id="Layer_1" xmlns="http://www.w3.org/2000/svg" xmlns:xlink="http://www.w3.org/1999/xlink" x="0px" y="0px"
	 viewBox="0 0 512 512" style="enable-background:new 0 0 512 512;" xml:space="preserve">
<path style="fill:#FFDC64;" d="M470.109,512H41.891c-20.565,0-37.236-16.671-37.236-37.236V46.545
	c0-20.565,16.671-37.236,37.236-37.236h428.218c20.565,0,37.236,16.671,37.236,37.236v428.218
	C507.345,495.329,490.674,512,470.109,512z"/>
<path style="fill:#FF5050;" d="M384.465,143.36l29.789-22.342l29.789,22.342c3.068,2.302,7.447,0.112,7.447-3.724V9.309
	c0-5.141-4.168-9.309-9.309-9.309h-55.855c-5.141,0-9.309,4.168-9.309,9.309v130.327
	C377.018,143.472,381.397,145.662,384.465,143.36z"/>
<path style="fill:#AFB9D2;" d="M256,325.818L256,325.818c-35.989,0-65.164-29.175-65.164-65.164v-93.091
	c0-35.989,29.175-65.164,65.164-65.164l0,0c35.989,0,65.164,29.175,65.164,65.164v93.091
	C321.164,296.643,291.989,325.818,256,325.818z"/>
<path style="fill:#7F8499;" d="M302.545,409.6h-23.273c-5.141,0-9.309-4.168-9.309-9.309v-46.545h-27.927v46.545
	c0,5.141-4.168,9.309-9.309,9.309h-23.273c-5.146,0-9.309,4.168-9.309,9.309c0,5.141,4.163,9.309,9.309,9.309h93.091
	c5.146,0,9.309-4.168,9.309-9.309C311.855,413.768,307.691,409.6,302.545,409.6z"/>
<path style="fill:#5B5D6E;" d="M339.782,214.109v46.545c0,46.195-37.582,83.782-83.782,83.782s-83.782-37.587-83.782-83.782v-46.545
	H153.6v46.545c0,56.463,45.937,102.4,102.4,102.4s102.4-45.937,102.4-102.4v-46.545H339.782z"/>
<path style="fill:#7F8499;" d="M256,325.818L256,325.818c-35.989,0-65.164-29.175-65.164-65.164v-46.545h130.327v46.545
	C321.164,296.643,291.989,325.818,256,325.818z"/>
<path style="fill:#959CB5;" d="M358.4,223.418H153.6c-5.146,0-9.309-4.168-9.309-9.309s4.163-9.309,9.309-9.309h204.8
	c5.146,0,9.309,4.168,9.309,9.309S363.546,223.418,358.4,223.418z"/>
<g>
	<path style="fill:#707487;" d="M256,102.4c-3.17,0-6.26,0.303-9.309,0.74v64.424c0,5.141,4.163,9.309,9.309,9.309
		c5.146,0,9.309-4.168,9.309-9.309V103.14C262.26,102.703,259.17,102.4,256,102.4z"/>
	<path style="fill:#707487;" d="M302.545,122c-5.34-5.454-11.646-9.928-18.618-13.246v58.809c0,5.141,4.163,9.309,9.309,9.309
		s9.309-4.168,9.309-9.309V122z"/>
	<path style="fill:#707487;" d="M209.455,122.001v45.562c0,5.141,4.163,9.309,9.309,9.309s9.309-4.168,9.309-9.309v-58.809
		C221.1,112.073,214.794,116.547,209.455,122.001z"/>
</g>
<path style="fill:#C84146;" d="M386.327,0c-5.141,0-9.309,4.168-9.309,9.309v130.327c0,3.835,4.379,6.025,7.447,3.724l29.789-22.342
	V0H386.327z"/>
<g>
</g>
<g>
</g>
<g>
</g>
<g>
</g>
<g>
</g>
<g>
</g>
<g>
</g>
<g>
</g>
<g>
</g>
<g>
</g>
<g>
</g>
<g>
</g>
<g>
</g>
<g>
</g>
<g>
</g>
</svg>
