<?xml version="1.0" encoding="iso-8859-1"?>
<!-- Generator: Adobe Illustrator 19.0.0, SVG Export Plug-In . SVG Version: 6.00 Build 0)  -->
<svg version="1.1" id="Layer_1" xmlns="http://www.w3.org/2000/svg" xmlns:xlink="http://www.w3.org/1999/xlink" x="0px" y="0px"
	 viewBox="0 0 512 512" style="enable-background:new 0 0 512 512;" xml:space="preserve">
<path style="fill:#FF5050;" d="M220.69,203.034L356.664,7.573C359.964,2.828,365.378,0,371.156,0h52.948
	c3.565,0,5.66,4.008,3.624,6.934l-136.417,196.1H220.69z"/>
<polygon style="fill:#C84146;" points="220.69,203.034 291.311,203.034 302.064,187.576 266.754,136.818 "/>
<polygon style="fill:#FFC850;" points="266.761,203.034 407.998,0 386.481,0 245.245,203.034 "/>
<g>
	<polygon style="fill:#E1A546;" points="279.031,154.466 245.245,203.034 266.761,203.034 289.789,169.931 	"/>
	<path style="fill:#E1A546;" d="M300.138,238.345h-88.276c-14.603,0-26.483-11.88-26.483-26.483
		c0-14.603,11.88-26.483,26.483-26.483h88.276c14.603,0,26.483,11.88,26.483,26.483
		C326.621,226.465,314.742,238.345,300.138,238.345z M211.863,203.034c-4.871,0-8.828,3.957-8.828,8.828
		c0,4.871,3.957,8.828,8.828,8.828h88.276c4.871,0,8.828-3.957,8.828-8.828c0-4.871-3.957-8.828-8.828-8.828H211.863z"/>
</g>
<circle style="fill:#FFC850;" cx="256.001" cy="370.759" r="141.241"/>
<circle style="fill:#FFDC64;" cx="256.001" cy="370.759" r="123.586"/>
<path style="fill:#FF5050;" d="M291.311,203.034L155.337,7.573C152.037,2.828,146.623,0,140.845,0H87.896
	c-3.565,0-5.66,4.008-3.624,6.934l136.418,196.1H291.311z"/>
<path style="fill:#E1A546;" d="M252.121,465.725c-7.724,0-15.439-1.086-22.966-3.31c-46.414-13.681-72.025-65.965-57.112-116.543
	c7.181-24.345,22.595-44.724,43.414-57.379c21.069-12.81,45.138-16.207,67.794-9.526c34.595,10.207,60.69,46.241,60.69,83.828
	c0,25.526-9.56,45.095-26.225,53.664c-12.138,6.25-26.474,5.638-36.526-1.551c-3.569-2.543-6.327-5.707-8.19-9.302
	c-3.104,2.716-6.517,5.129-10.182,7.138c-10.991,6.017-22.517,7.345-31.672,3.595c-8.94-3.663-15.914-11.242-19.121-20.776
	c-4.19-12.448-1.922-27.086,6.406-41.224c14.207-24.12,35.569-35.009,61.689-31.699c4.879,0.638,9.198,3.181,12.163,7.155
	c2.948,3.957,4.19,9,3.405,13.854l-7.758,48.491c-0.509,3.5,0.664,6.37,3.518,8.405c3.88,2.767,11.009,3.923,18.189,0.215
	c10.578-5.44,16.647-19.285,16.647-37.965c0-25.922-17.965-58.026-48.034-66.897c-17.775-5.224-36.828-2.517-53.63,7.681
	c-17.052,10.37-29.707,27.164-35.647,47.293c-12.163,41.233,8.104,83.681,45.173,94.612c19.518,5.741,40.871,1.768,58.535-10.931
	c3.957-2.836,9.483-1.949,12.319,2.008c2.845,3.957,1.949,9.474-2.008,12.319C287.587,459.966,269.846,465.725,252.121,465.725z
	 M269.656,340.12c-15.362,0-26.862,7.647-36.018,23.181c-5.681,9.646-7.414,19.104-4.879,26.63
	c1.594,4.742,4.828,8.328,9.095,10.078c4.12,1.689,10.276,0.655,16.474-2.75c9.707-5.319,17.086-14.931,18.828-24.491l5.103-31.923
	C275.259,340.362,272.397,340.12,269.656,340.12z"/>
<polygon style="fill:#FFC850;" points="104.001,0 245.242,203.034 266.759,203.034 125.518,0 "/>
<g>
</g>
<g>
</g>
<g>
</g>
<g>
</g>
<g>
</g>
<g>
</g>
<g>
</g>
<g>
</g>
<g>
</g>
<g>
</g>
<g>
</g>
<g>
</g>
<g>
</g>
<g>
</g>
<g>
</g>
</svg>
