<?xml version="1.0" encoding="iso-8859-1"?>
<!-- Generator: Adobe Illustrator 19.0.0, SVG Export Plug-In . SVG Version: 6.00 Build 0)  -->
<svg version="1.1" id="Layer_1" xmlns="http://www.w3.org/2000/svg" xmlns:xlink="http://www.w3.org/1999/xlink" x="0px" y="0px"
	 viewBox="0 0 512 512" style="enable-background:new 0 0 512 512;" xml:space="preserve">
<path style="fill:#E4EAF8;" d="M97.103,17.655C97.103,7.904,105.007,0,114.759,0h264.828l88.276,88.276v406.069
	c0,9.751-7.904,17.655-17.655,17.655H114.759c-9.751,0-17.655-7.904-17.655-17.655V17.655z"/>
<g>
	<path style="fill:#D5DCED;" d="M379.586,0v70.621c0,9.75,7.905,17.655,17.655,17.655h70.621L379.586,0z"/>
	<path style="fill:#D5DCED;" d="M317.793,467.862H97.103V308.966h220.69c19.501,0,35.31,15.809,35.31,35.31v88.276
		C353.103,452.053,337.294,467.862,317.793,467.862z"/>
</g>
<path style="fill:#FFB450;" d="M317.793,450.207h-256c-9.751,0-17.655-7.904-17.655-17.655v-88.276
	c0-9.751,7.904-17.655,17.655-17.655h256c9.751,0,17.655,7.904,17.655,17.655v88.276
	C335.448,442.303,327.544,450.207,317.793,450.207z"/>
<g>
	<path style="fill:#FFFFFF;" d="M141.241,353.103H130.94c-3.431,0-6.552,1.983-8,5.095l-12.595,26.991L97.75,358.198
		c-1.449-3.112-4.569-5.095-8-5.095H79.448c-4.879,0-8.828,3.948-8.828,8.828v52.966c0,4.879,3.948,8.828,8.828,8.828
		c4.879,0,8.828-3.948,8.828-8.828v-35.25l14.069,30.155c1.449,3.112,4.569,5.095,8,5.095c3.431,0,6.552-1.983,8-5.095
		l14.069-30.155v35.25c0,4.879,3.948,8.828,8.828,8.828s8.828-3.948,8.828-8.828v-52.966
		C150.069,357.052,146.121,353.103,141.241,353.103z"/>
	<path style="fill:#FFFFFF;" d="M204.483,386.207l21.724-17.379c3.801-3.052,4.423-8.604,1.379-12.414
		c-3.052-3.801-8.595-4.431-12.414-1.379l-29.793,23.834v-16.938c0-4.879-3.948-8.828-8.828-8.828c-4.879,0-8.828,3.948-8.828,8.828
		v52.966c0,4.879,3.948,8.828,8.828,8.828c4.879,0,8.828-3.948,8.828-8.828V401.49l5.234-4.186l23.836,23.836
		c1.725,1.725,3.982,2.586,6.241,2.586s4.518-0.862,6.241-2.586c3.448-3.448,3.448-9.035,0-12.483L204.483,386.207z"/>
	<path style="fill:#FFFFFF;" d="M302.931,353.56c-4.672-1.551-9.621,0.957-11.164,5.578l-15.647,46.931h-4.931l-15.647-46.931
		c-1.543-4.621-6.492-7.129-11.164-5.578c-4.621,1.535-7.121,6.535-5.578,11.164l15.638,46.922
		c2.406,7.224,9.138,12.077,16.75,12.077h4.931c7.612,0,14.345-4.853,16.742-12.069l15.647-46.931
		C310.051,360.095,307.552,355.095,302.931,353.56z"/>
</g>
<g>
	<circle style="fill:#FFB450;" cx="225.103" cy="145.655" r="39.724"/>
	<circle style="fill:#FFB450;" cx="304.552" cy="145.655" r="39.724"/>
	<path style="fill:#FFB450;" d="M326.621,273.655H203.034c-9.751,0-17.655-7.904-17.655-17.655v-52.966
		c0-9.751,7.904-17.655,17.655-17.655h123.586c9.751,0,17.655,7.904,17.655,17.655V256
		C344.276,265.751,336.372,273.655,326.621,273.655z"/>
</g>
<g>
	<path style="fill:#E69B41;" d="M344.276,211.862v35.31l33.579,6.716c5.462,1.092,10.559-3.085,10.559-8.657v-31.43
		c0-5.57-5.097-9.749-10.559-8.657L344.276,211.862z"/>
	<circle style="fill:#E69B41;" cx="225.103" cy="145.655" r="22.069"/>
	<circle style="fill:#E69B41;" cx="304.552" cy="145.655" r="22.069"/>
</g>
<g>
</g>
<g>
</g>
<g>
</g>
<g>
</g>
<g>
</g>
<g>
</g>
<g>
</g>
<g>
</g>
<g>
</g>
<g>
</g>
<g>
</g>
<g>
</g>
<g>
</g>
<g>
</g>
<g>
</g>
</svg>
