<?xml version="1.0" encoding="iso-8859-1"?>
<!-- Generator: Adobe Illustrator 19.0.0, SVG Export Plug-In . SVG Version: 6.00 Build 0)  -->
<svg version="1.1" id="Layer_1" xmlns="http://www.w3.org/2000/svg" xmlns:xlink="http://www.w3.org/1999/xlink" x="0px" y="0px"
	 viewBox="0 0 512 512" style="enable-background:new 0 0 512 512;" xml:space="preserve">
<path style="fill:#5B5D6E;" d="M377.818,238.346H134.182l-8.351,83.511c-1.292,12.923,6.978,24.877,19.527,28.223l92.446,24.653
	c11.923,3.179,24.47,3.179,36.391,0l92.446-24.653c12.549-3.347,20.819-15.3,19.527-28.223L377.818,238.346z"/>
<path style="fill:#464655;" d="M377.818,238.346H256H134.182l-8.351,83.511c-1.292,12.923,6.978,24.877,19.527,28.223l92.446,24.653
	c5.961,1.589,12.078,2.385,18.196,2.385v-69.748c0-4.484,3.383-8.099,7.819-8.761c1.416-0.211,2.823-0.48,4.216-0.804l113.09-26.387
	L377.818,238.346z"/>
<path style="fill:#707487;" d="M264.023,280.61l245.973-57.394c2.673-0.623,2.673-4.429,0-5.053L264.023,160.77
	c-5.278-1.231-10.768-1.231-16.047,0L2.004,218.164c-2.672,0.623-2.672,4.429,0,5.053l245.973,57.394
	C253.255,281.842,258.745,281.842,264.023,280.61z"/>
<path style="fill:#C7CFE2;" d="M349.627,127.063c-2.259,0-4.517-0.862-6.241-2.586C320.042,101.132,289.008,88.279,256,88.279
	s-64.042,12.853-87.386,36.198c-3.448,3.448-9.035,3.448-12.483,0c-3.448-3.448-3.448-9.035,0-12.483
	c26.672-26.681,62.145-41.37,99.869-41.37s73.197,14.69,99.869,41.37c3.448,3.448,3.448,9.035,0,12.483
	C354.144,126.201,351.886,127.063,349.627,127.063z"/>
<path style="fill:#AFB9D2;" d="M318.421,158.269c-2.259,0-4.517-0.862-6.241-2.586c-30.982-30.982-81.378-30.982-112.36,0
	c-3.448,3.448-9.035,3.448-12.483,0c-3.448-3.448-3.448-9.035,0-12.483c37.862-37.862,99.464-37.862,137.325,0
	c3.448,3.448,3.448,9.035,0,12.483C322.938,157.407,320.68,158.269,318.421,158.269z"/>
<path style="fill:#959CB5;" d="M287.206,189.484c-2.259,0-4.517-0.862-6.241-2.586c-13.345-13.345-36.585-13.345-49.93,0
	c-3.448,3.448-9.035,3.448-12.483,0c-3.448-3.448-3.448-9.035,0-12.483c10-10.008,23.301-15.517,37.448-15.517
	c14.147,0,27.448,5.508,37.448,15.517c3.448,3.448,3.448,9.035,0,12.483C291.723,188.622,289.465,189.484,287.206,189.484z"/>
<path style="fill:#7F8499;" d="M256,225.105c-7.301,0-13.241-5.94-13.241-13.241s5.94-13.241,13.241-13.241
	s13.241,5.94,13.241,13.241S263.301,225.105,256,225.105z"/>
<path style="fill:#464655;" d="M419.635,245.69l-125.954-35.051c-4.707-1.276-9.56,1.44-10.879,6.138
	c-1.302,4.698,1.449,9.569,6.138,10.879l125.954,35.051v81.568h17.655v-81.568C432.548,254.819,427.237,247.827,419.635,245.69z"/>
<g>
	<circle style="fill:#5B5D6E;" cx="423.715" cy="353.097" r="17.655"/>
	<path style="fill:#5B5D6E;" d="M432.548,441.376h-17.655c-4.875,0-8.827-3.952-8.827-8.827v-44.137
		c0-9.751,7.904-17.655,17.655-17.655l0,0c9.751,0,17.655,7.904,17.655,17.655v44.137
		C441.376,437.424,437.423,441.376,432.548,441.376z"/>
</g>
<g>
</g>
<g>
</g>
<g>
</g>
<g>
</g>
<g>
</g>
<g>
</g>
<g>
</g>
<g>
</g>
<g>
</g>
<g>
</g>
<g>
</g>
<g>
</g>
<g>
</g>
<g>
</g>
<g>
</g>
</svg>
