<?xml version="1.0" encoding="iso-8859-1"?>
<!-- Generator: Adobe Illustrator 19.0.0, SVG Export Plug-In . SVG Version: 6.00 Build 0)  -->
<svg version="1.1" id="Layer_1" xmlns="http://www.w3.org/2000/svg" xmlns:xlink="http://www.w3.org/1999/xlink" x="0px" y="0px"
	 viewBox="0 0 512 512" style="enable-background:new 0 0 512 512;" xml:space="preserve">
<path style="fill:#E4EAF8;" d="M256,512L256,512c-82.881,0-150.069-67.188-150.069-150.069V150.069C105.931,67.188,173.119,0,256,0
	l0,0c82.881,0,150.069,67.188,150.069,150.069v211.862C406.069,444.812,338.881,512,256,512z"/>
<path style="fill:#AFB9D2;" d="M256,211.862c-4.879,0-8.828-3.953-8.828-8.828V52.966c0-4.875,3.948-8.828,8.828-8.828
	c4.879,0,8.828,3.953,8.828,8.828v150.069C264.828,207.91,260.879,211.862,256,211.862z"/>
<path style="fill:#D5DCED;" d="M194.207,335.448V123.586c0-51.197,25.682-96.35,64.819-123.433C258.009,0.132,257.021,0,256,0
	c-82.881,0-150.069,67.188-150.069,150.069v211.862C105.931,444.812,173.119,512,256,512c31.683,0,61.031-9.875,85.25-26.636
	C259.779,483.736,194.207,417.309,194.207,335.448z"/>
<path style="fill:#FFFFFF;" d="M256,167.724L256,167.724c-9.751,0-17.655-7.904-17.655-17.655v-44.138
	c0-9.751,7.904-17.655,17.655-17.655l0,0c9.751,0,17.655,7.904,17.655,17.655v44.138C273.655,159.82,265.751,167.724,256,167.724z"
	/>
<path style="fill:#00C3FF;" d="M256,256c-58.414,0-105.931,47.521-105.931,105.931S197.587,467.862,256,467.862
	s105.931-47.521,105.931-105.931S314.414,256,256,256z M329.212,411.199c-5.518-2.14-11.083-4.098-16.734-5.736
	c2.748-10.699,4.493-22.365,5.063-34.705h26.287C342.345,385.626,337.164,399.42,329.212,411.199z M168.172,370.759h26.287
	c0.569,12.34,2.315,24.004,5.063,34.705c-5.651,1.638-11.214,3.596-16.734,5.736C174.836,399.42,169.655,385.626,168.172,370.759z
	 M182.707,312.799c5.536,2.153,11.13,4.06,16.785,5.709c-2.731,10.668-4.465,22.298-5.033,34.595h-26.287
	C169.65,338.291,174.804,324.549,182.707,312.799z M247.172,308.459c-8.334-0.397-16.642-1.249-24.873-2.771
	c6.327-15.047,15.055-25.998,24.873-30.17V308.459z M247.172,326.401v26.702h-35.079c0.563-10.767,2.182-20.99,4.575-30.353
	C226.706,324.743,236.887,325.956,247.172,326.401z M247.172,370.759v26.993c-10.219,0.444-20.414,1.449-30.485,3.435
	c-2.404-9.382-4.029-19.633-4.594-30.428H247.172z M247.172,415.402v32.941c-9.816-4.172-18.546-15.124-24.873-30.171
	C230.53,416.652,238.838,415.799,247.172,415.402z M264.828,415.402c8.334,0.397,16.642,1.25,24.873,2.771
	c-6.327,15.047-15.055,25.998-24.873,30.171L264.828,415.402L264.828,415.402z M264.828,397.751v-26.993h35.079
	c-0.565,10.796-2.189,21.046-4.594,30.428C285.241,399.201,275.047,398.196,264.828,397.751z M264.828,353.103v-26.702
	c10.285-0.445,20.467-1.658,30.504-3.651c2.395,9.363,4.012,19.586,4.575,30.353h-35.079V353.103z M264.828,308.459v-32.941
	c9.816,4.172,18.546,15.124,24.873,30.17C281.47,307.21,273.162,308.062,264.828,308.459z M298.577,284.651
	c6.758,3.738,12.946,8.363,18.476,13.673c-3.316,1.159-6.628,2.294-9.992,3.258C304.598,295.402,301.738,289.762,298.577,284.651z
	 M204.939,301.582c-3.363-0.966-6.676-2.1-9.992-3.258c5.53-5.31,11.719-9.933,18.476-13.673
	C210.262,289.762,207.402,295.402,204.939,301.582z M204.939,422.28c2.462,6.18,5.323,11.82,8.484,16.931
	c-6.758-3.738-12.946-8.363-18.476-13.673C198.263,424.378,201.575,423.244,204.939,422.28z M307.061,422.28
	c3.363,0.966,6.676,2.099,9.992,3.258c-5.53,5.311-11.719,9.934-18.476,13.673C301.738,434.1,304.599,428.46,307.061,422.28z
	 M317.54,353.103c-0.568-12.298-2.302-23.927-5.033-34.595c5.654-1.651,11.25-3.558,16.785-5.709
	c7.903,11.751,13.057,25.493,14.535,40.305H317.54z"/>
<path style="fill:#00AAF0;" d="M271.516,466.595c-10.058-5.581-19.311-12.376-27.782-20.03c-5.15-3.1-9.922-8.11-14.14-14.552
	c-19.34-22.903-31.935-51.633-34.722-83.243c-0.103,1.469-0.344,2.847-0.413,4.335h-26.287c1.478-14.813,6.632-28.554,14.535-40.305
	c3.793,1.474,7.651,2.671,11.5,3.912v-40.644c-26.678,19.254-44.138,50.525-44.138,85.865c0,58.41,47.518,105.931,105.931,105.931
	C261.284,467.862,266.436,467.346,271.516,466.595z M168.172,370.759h26.287c0.569,12.34,2.315,24.004,5.063,34.705
	c-5.651,1.638-11.214,3.596-16.734,5.736C174.836,399.42,169.655,385.626,168.172,370.759z M194.947,425.538
	c3.316-1.16,6.627-2.294,9.992-3.258c2.462,6.18,5.323,11.82,8.484,16.931C206.666,435.473,200.478,430.849,194.947,425.538z"/>
<g>
</g>
<g>
</g>
<g>
</g>
<g>
</g>
<g>
</g>
<g>
</g>
<g>
</g>
<g>
</g>
<g>
</g>
<g>
</g>
<g>
</g>
<g>
</g>
<g>
</g>
<g>
</g>
<g>
</g>
</svg>
