<?xml version="1.0" encoding="iso-8859-1"?>
<!-- Generator: Adobe Illustrator 19.0.0, SVG Export Plug-In . SVG Version: 6.00 Build 0)  -->
<svg version="1.1" id="Layer_1" xmlns="http://www.w3.org/2000/svg" xmlns:xlink="http://www.w3.org/1999/xlink" x="0px" y="0px"
	 viewBox="0 0 512 512" style="enable-background:new 0 0 512 512;" xml:space="preserve">
<path style="fill:#E4EAF8;" d="M97.103,17.655C97.103,7.904,105.007,0,114.759,0h264.828l88.276,88.276v406.069
	c0,9.751-7.904,17.655-17.655,17.655H114.759c-9.751,0-17.655-7.904-17.655-17.655V17.655z"/>
<g>
	<path style="fill:#D5DCED;" d="M379.586,0v70.621c0,9.75,7.905,17.655,17.655,17.655h70.621L379.586,0z"/>
	<path style="fill:#D5DCED;" d="M300.138,467.862H97.103V308.966h203.034c19.501,0,35.31,15.809,35.31,35.31v88.276
		C335.448,452.053,319.639,467.862,300.138,467.862z"/>
</g>
<path style="fill:#7DF5A5;" d="M300.138,450.207H61.793c-9.751,0-17.655-7.904-17.655-17.655v-88.276
	c0-9.751,7.904-17.655,17.655-17.655h238.345c9.751,0,17.655,7.904,17.655,17.655v88.276
	C317.793,442.303,309.889,450.207,300.138,450.207z"/>
<g>
	<path style="fill:#FFFFFF;" d="M194.207,353.103h-35.31c-4.879,0-8.828,3.948-8.828,8.828v52.966c0,4.879,3.948,8.828,8.828,8.828
		c4.879,0,8.828-3.948,8.828-8.828v-8.828h26.483c14.603,0,26.483-11.88,26.483-26.483
		C220.69,364.983,208.81,353.103,194.207,353.103z M194.207,388.414h-26.483v-17.655h26.483c4.871,0,8.828,3.957,8.828,8.828
		C203.034,384.457,199.078,388.414,194.207,388.414z"/>
	<path style="fill:#FFFFFF;" d="M135.794,353.775c-3.293-1.37-7.095-0.612-9.621,1.913l-20.242,20.243L85.689,355.69
		c-2.526-2.526-6.319-3.276-9.621-1.913c-3.302,1.363-5.448,4.586-5.448,8.155v52.966c0,4.879,3.948,8.828,8.828,8.828
		c4.879,0,8.828-3.948,8.828-8.828v-31.656l11.414,11.414c3.448,3.448,9.035,3.448,12.483,0l11.413-11.413v31.655
		c0,4.879,3.948,8.828,8.828,8.828c4.879,0,8.828-3.948,8.828-8.828v-52.966C141.241,358.362,139.095,355.138,135.794,353.775z"/>
	<path style="fill:#FFFFFF;" d="M291.31,375.172c0-12.172-9.897-22.069-22.069-22.069h-30.897c-4.879,0-8.828,3.948-8.828,8.828
		s3.948,8.828,8.828,8.828h30.897c2.431,0,4.414,1.983,4.414,4.414c0,2.431-1.983,4.414-4.414,4.414H256
		c-4.879,0-8.828,3.948-8.828,8.828s3.948,8.828,8.828,8.828h13.241c2.431,0,4.414,1.983,4.414,4.414
		c0,2.431-1.983,4.414-4.414,4.414h-30.897c-4.879,0-8.828,3.948-8.828,8.828c0,4.879,3.948,8.828,8.828,8.828h30.897
		c12.172,0,22.069-9.897,22.069-22.069c0-4.989-1.725-9.542-4.524-13.241C289.586,384.714,291.31,380.161,291.31,375.172z"/>
</g>
<path style="fill:#64DCA0;" d="M282.483,105.931c-48.672,0-88.276,39.604-88.276,88.276v17.655h17.655v-17.655
	c0-38.94,31.681-70.621,70.621-70.621s70.621,31.681,70.621,70.621v17.655h17.655v-17.655
	C370.759,145.535,331.155,105.931,282.483,105.931z"/>
<g>
	<path style="fill:#7DF5A5;" d="M211.862,273.655h-8.828c-9.751,0-17.655-7.904-17.655-17.655v-35.31
		c0-9.751,7.904-17.655,17.655-17.655h8.828c4.875,0,8.828,3.953,8.828,8.828v52.966
		C220.69,269.703,216.737,273.655,211.862,273.655z"/>
	<path style="fill:#7DF5A5;" d="M353.103,203.034h8.828c9.751,0,17.655,7.904,17.655,17.655V256c0,9.751-7.904,17.655-17.655,17.655
		h-8.828c-4.875,0-8.828-3.953-8.828-8.828v-52.966C344.276,206.987,348.228,203.034,353.103,203.034z"/>
</g>
<g>
</g>
<g>
</g>
<g>
</g>
<g>
</g>
<g>
</g>
<g>
</g>
<g>
</g>
<g>
</g>
<g>
</g>
<g>
</g>
<g>
</g>
<g>
</g>
<g>
</g>
<g>
</g>
<g>
</g>
</svg>
