<?xml version="1.0" encoding="iso-8859-1"?>
<!-- Generator: Adobe Illustrator 19.0.0, SVG Export Plug-In . SVG Version: 6.00 Build 0)  -->
<svg version="1.1" id="Layer_1" xmlns="http://www.w3.org/2000/svg" xmlns:xlink="http://www.w3.org/1999/xlink" x="0px" y="0px"
	 viewBox="0 0 512 512" style="enable-background:new 0 0 512 512;" xml:space="preserve">
<path style="fill:#7F8499;" d="M493.714,425.143H73.143c-10.099,0-18.286-8.186-18.286-18.286V123.429
	c0-10.099,8.186-18.286,18.286-18.286h420.571c10.099,0,18.286,8.186,18.286,18.286v283.429
	C512,416.957,503.814,425.143,493.714,425.143z"/>
<g>
	<path style="fill:#707487;" d="M91.429,297.143H54.857v109.714c0,10.098,8.187,18.286,18.286,18.286H128v-91.429
		C128,313.517,111.626,297.143,91.429,297.143z"/>
	<path style="fill:#707487;" d="M292.571,434.286h-18.286c-5.049,0-9.143-4.094-9.143-9.143v-27.429h36.571v27.429
		C301.714,430.192,297.621,434.286,292.571,434.286z"/>
</g>
<path style="fill:#C7CFE2;" d="M82.286,406.857h402.286c5.049,0,9.143-4.094,9.143-9.143v-27.429H73.143v27.429
	C73.143,402.763,77.237,406.857,82.286,406.857z"/>
<rect x="73.143" y="370.286" style="fill:#AFB9D2;" width="54.857" height="36.571"/>
<path style="fill:#E4EAF8;" d="M301.714,86.857c-6.059,0-11.43,2.947-14.758,7.486c-1.685,2.298-5.371,2.298-7.056,0
	c-3.328-4.538-8.698-7.486-14.758-7.486H82.286c-5.049,0-9.143,4.094-9.143,9.143v283.429c0,5.049,4.094,9.143,9.143,9.143h182.857
	c6.059,0,11.43,2.947,14.758,7.486c1.685,2.298,5.371,2.298,7.056,0c3.327-4.539,8.698-7.486,14.758-7.486h182.857
	c5.049,0,9.143-4.094,9.143-9.143V96c0-5.049-4.094-9.143-9.143-9.143H301.714z"/>
<g>
	<path style="fill:#D5DCED;" d="M91.429,297.143H73.143v82.286c0,5.049,4.094,9.143,9.143,9.143H128v-54.857
		C128,313.517,111.626,297.143,91.429,297.143z"/>
	<path style="fill:#D5DCED;" d="M292.571,89.393c-2.201,1.281-4.118,2.998-5.619,5.035c-1.719,2.331-5.328,2.331-7.047,0
		c-1.502-2.038-3.418-3.754-5.619-5.035v301.718c2.184,1.272,4.127,2.917,5.615,4.946c1.685,2.298,5.371,2.298,7.056,0
		c1.488-2.03,3.431-3.674,5.615-4.946L292.571,89.393L292.571,89.393z"/>
</g>
<path style="fill:#5B5D6E;" d="M18.286,498.286h73.143c10.099,0,18.286-8.186,18.286-18.286V333.714
	c0-10.099-8.186-18.286-18.286-18.286H18.286C8.186,315.429,0,323.615,0,333.714V480C0,490.099,8.186,498.286,18.286,498.286z"/>
<path style="fill:#FFFFFF;" d="M96,461.714H13.714c-2.525,0-4.571-2.047-4.571-4.571V338.286c0-2.525,2.047-4.571,4.571-4.571H96
	c2.525,0,4.571,2.047,4.571,4.571v118.857C100.571,459.667,98.525,461.714,96,461.714z"/>
<g>
	<path style="fill:#7F8499;" d="M82.286,443.429H27.429c-5.054,0-9.143-4.094-9.143-9.143s4.089-9.143,9.143-9.143h54.857
		c5.054,0,9.143,4.094,9.143,9.143S87.339,443.429,82.286,443.429z"/>
	<path style="fill:#7F8499;" d="M82.286,406.857H27.429c-5.054,0-9.143-4.094-9.143-9.143c0-5.049,4.089-9.143,9.143-9.143h54.857
		c5.054,0,9.143,4.094,9.143,9.143C91.429,402.763,87.339,406.857,82.286,406.857z"/>
</g>
<g>
	<path style="fill:#FFDC64;" d="M82.286,370.286H27.429c-5.054,0-9.143-4.094-9.143-9.143c0-5.049,4.089-9.143,9.143-9.143h54.857
		c5.054,0,9.143,4.094,9.143,9.143C91.429,366.192,87.339,370.286,82.286,370.286z"/>
	<path style="fill:#FFDC64;" d="M354.609,292.904l-12.08,30.199c-1.533,3.832-6.957,3.832-8.489,0l-12.08-30.199
		c-1.296-3.24-1.962-6.697-1.962-10.186V22.857c0-5.049,4.094-9.143,9.143-9.143h18.286c5.049,0,9.143,4.094,9.143,9.143v259.861
		C356.571,286.207,355.905,289.665,354.609,292.904z"/>
</g>
<path style="fill:#7F8499;" d="M237.714,141.714H118.857c-5.054,0-9.143-4.094-9.143-9.143c0-5.049,4.089-9.143,9.143-9.143h118.857
	c5.054,0,9.143,4.094,9.143,9.143C246.857,137.621,242.768,141.714,237.714,141.714z"/>
<g>
	<path style="fill:#707487;" d="M237.714,178.286h-54.857c-5.054,0-9.143-4.094-9.143-9.143c0-5.049,4.089-9.143,9.143-9.143h54.857
		c5.054,0,9.143,4.094,9.143,9.143C246.857,174.192,242.768,178.286,237.714,178.286z"/>
	<path style="fill:#707487;" d="M146.286,178.286h-27.429c-5.054,0-9.143-4.094-9.143-9.143c0-5.049,4.089-9.143,9.143-9.143h27.429
		c5.054,0,9.143,4.094,9.143,9.143C155.429,174.192,151.339,178.286,146.286,178.286z"/>
</g>
<path style="fill:#7F8499;" d="M164.571,214.857h-45.714c-5.054,0-9.143-4.094-9.143-9.143s4.089-9.143,9.143-9.143h45.714
	c5.054,0,9.143,4.094,9.143,9.143S169.625,214.857,164.571,214.857z"/>
<g>
	<path style="fill:#FAEBC8;" d="M342.53,323.103l12.079-30.199c1.296-3.24,1.962-6.697,1.962-10.187v-3.859H320v3.861
		c0,3.489,0.666,6.947,1.962,10.187l12.079,30.199C335.574,326.935,340.998,326.935,342.53,323.103z"/>
	<path style="fill:#FAEBC8;" d="M356.571,50.286H320V22.857c0-5.049,4.094-9.143,9.143-9.143h18.286
		c5.049,0,9.143,4.094,9.143,9.143V50.286z"/>
</g>
<rect x="320" y="50.286" style="fill:#FFC850;" width="18.286" height="228.571"/>
<g>
	<path style="fill:#F5DCB4;" d="M338.286,50.286H320V22.857c0-5.049,4.094-9.143,9.143-9.143h9.143V50.286z"/>
	<path style="fill:#F5DCB4;" d="M320,278.857v3.861c0,3.489,0.666,6.947,1.962,10.187l12.079,30.199
		c0.766,1.915,2.505,2.873,4.245,2.873v-47.12H320z"/>
</g>
<path style="fill:#5B5D6E;" d="M327.314,306.286l6.727,16.817c1.533,3.832,6.957,3.832,8.489,0l6.727-16.817H327.314z"/>
<circle style="fill:#464655;" cx="54.857" cy="480" r="11.429"/>
<g>
</g>
<g>
</g>
<g>
</g>
<g>
</g>
<g>
</g>
<g>
</g>
<g>
</g>
<g>
</g>
<g>
</g>
<g>
</g>
<g>
</g>
<g>
</g>
<g>
</g>
<g>
</g>
<g>
</g>
</svg>
