<?xml version="1.0" encoding="iso-8859-1"?>
<!-- Generator: Adobe Illustrator 19.0.0, SVG Export Plug-In . SVG Version: 6.00 Build 0)  -->
<svg version="1.1" id="Layer_1" xmlns="http://www.w3.org/2000/svg" xmlns:xlink="http://www.w3.org/1999/xlink" x="0px" y="0px"
	 viewBox="0 0 512 512" style="enable-background:new 0 0 512 512;" xml:space="preserve">
<path style="fill:#E4EAF8;" d="M97.103,17.655C97.103,7.904,105.007,0,114.759,0h264.828l88.276,88.276v406.069
	c0,9.751-7.904,17.655-17.655,17.655H114.759c-9.751,0-17.655-7.904-17.655-17.655V17.655z"/>
<g>
	<path style="fill:#D5DCED;" d="M379.586,0v70.621c0,9.75,7.905,17.655,17.655,17.655h70.621L379.586,0z"/>
	<path style="fill:#D5DCED;" d="M300.138,467.862H97.103V308.966h203.034c19.501,0,35.31,15.809,35.31,35.31v88.276
		C335.448,452.053,319.639,467.862,300.138,467.862z"/>
</g>
<path style="fill:#FF5050;" d="M300.138,450.207H61.793c-9.751,0-17.655-7.904-17.655-17.655v-88.276
	c0-9.751,7.904-17.655,17.655-17.655h238.345c9.751,0,17.655,7.904,17.655,17.655v88.276
	C317.793,442.303,309.889,450.207,300.138,450.207z"/>
<g>
	<path style="fill:#FFFFFF;" d="M114.759,353.103h-35.31c-4.879,0-8.828,3.948-8.828,8.828v52.966c0,4.879,3.948,8.828,8.828,8.828
		c4.879,0,8.828-3.948,8.828-8.828v-8.828h26.483c14.603,0,26.483-11.88,26.483-26.483
		C141.241,364.983,129.362,353.103,114.759,353.103z M114.759,388.414H88.276v-17.655h26.483c4.871,0,8.828,3.957,8.828,8.828
		C123.586,384.457,119.629,388.414,114.759,388.414z"/>
	<path style="fill:#FFFFFF;" d="M185.379,353.103h-26.483c-4.879,0-8.828,3.948-8.828,8.828v52.966c0,4.879,3.948,8.828,8.828,8.828
		h26.483c19.474,0,35.31-15.837,35.31-35.31S204.853,353.103,185.379,353.103z M185.379,406.069h-17.655v-35.31h17.655
		c9.732,0,17.655,7.923,17.655,17.655S195.112,406.069,185.379,406.069z"/>
	<path style="fill:#FFFFFF;" d="M282.483,353.103h-44.138c-4.879,0-8.828,3.948-8.828,8.828v52.966c0,4.879,3.948,8.828,8.828,8.828
		c4.879,0,8.828-3.948,8.828-8.828v-17.655h17.655c4.879,0,8.828-3.948,8.828-8.828s-3.948-8.828-8.828-8.828h-17.655v-8.828h35.31
		c4.879,0,8.828-3.948,8.828-8.828S287.362,353.103,282.483,353.103z"/>
</g>
<circle style="fill:#FF5050;" cx="282.483" cy="185.379" r="88.276"/>
<g>
	<path style="fill:#FFFFFF;" d="M282.569,150.069c4.879,0,8.828-3.948,8.828-8.828s-3.948-8.828-8.828-8.828h-0.086
		c-4.879,0-8.785,3.948-8.785,8.828S277.689,150.069,282.569,150.069z"/>
	<path style="fill:#FFFFFF;" d="M291.31,220.69v-44.138c4.879,0,8.828-3.948,8.828-8.828s-3.948-8.828-8.828-8.828h-17.655
		c-4.879,0-8.828,3.948-8.828,8.828s3.948,8.828,8.828,8.828v44.138c-4.879,0-8.828,3.948-8.828,8.828s3.948,8.828,8.828,8.828
		h17.655c4.879,0,8.828-3.948,8.828-8.828S296.19,220.69,291.31,220.69z"/>
</g>
<g>
</g>
<g>
</g>
<g>
</g>
<g>
</g>
<g>
</g>
<g>
</g>
<g>
</g>
<g>
</g>
<g>
</g>
<g>
</g>
<g>
</g>
<g>
</g>
<g>
</g>
<g>
</g>
<g>
</g>
</svg>
