<?xml version="1.0" encoding="iso-8859-1"?>
<!-- Generator: Adobe Illustrator 19.0.0, SVG Export Plug-In . SVG Version: 6.00 Build 0)  -->
<svg version="1.1" id="Layer_1" xmlns="http://www.w3.org/2000/svg" xmlns:xlink="http://www.w3.org/1999/xlink" x="0px" y="0px"
	 viewBox="0 0 512 512" style="enable-background:new 0 0 512 512;" xml:space="preserve">
<path style="fill:#FFDC64;" d="M258.834,0.021c93.068,1.349,173.01,71.905,186.176,164.047
	c21.967,153.744-152.658,279.925-184.184,301.338c-2.94,1.997-6.71,1.998-9.65,0.001C221.511,445.259,65.085,332.307,65.085,190.915
	C65.085,84.532,152.096-1.527,258.834,0.021z"/>
<circle style="fill:#FFC850;" cx="256" cy="190.915" r="138.847"/>
<path style="fill:#FFFFFF;" d="M299.764,95.458c-24.883,0-36.761,5.544-41.343,8.519c-1.476,0.959-3.281,0.959-4.759,0
	c-4.582-2.974-16.459-8.519-41.342-8.519c-26.84,0-57.563,5.928-70.927,8.814c-3.988,0.861-6.8,4.394-6.8,8.473v150.828
	c0,2.769,2.518,4.842,5.222,4.247c12.375-2.725,44.547-9.157,72.505-9.157c12.577,0,21.816,1.416,28.478,3.201
	c3.842,1.029,6.524,3.153,6.524,7.131v0.023c0,4.797,3.881,8.678,8.678,8.678s8.678-3.881,8.678-8.678l0,0
	c0-3.973,2.677-6.094,6.514-7.128c6.667-1.797,15.934-3.227,28.572-3.227c27.958,0,60.131,6.433,72.505,9.157
	c2.704,0.596,5.222-1.477,5.222-4.247V112.744c0-4.08-2.813-7.613-6.8-8.473C357.327,101.386,326.604,95.458,299.764,95.458z"/>
<path style="fill:#707487;" d="M342.788,151.22c-0.432,0-0.865-0.034-1.305-0.093c-28.237-4.263-50.576-4.839-66.127-1.161
	c-4.652,1.127-9.347-1.78-10.441-6.441c-1.11-4.661,1.78-9.339,6.441-10.441c17.873-4.228,42.076-3.746,72.72,0.873
	c4.737,0.72,8,5.144,7.288,9.881C350.712,148.136,347.008,151.22,342.788,151.22z"/>
<path style="fill:#7F8499;" d="M342.788,220.644c-0.432,0-0.865-0.034-1.305-0.093c-28.237-4.263-50.576-4.839-66.127-1.161
	c-4.652,1.102-9.347-1.78-10.441-6.441c-1.11-4.661,1.78-9.339,6.441-10.441c17.873-4.237,42.076-3.746,72.72,0.873
	c4.737,0.72,8,5.144,7.288,9.881C350.712,217.56,347.008,220.644,342.788,220.644z"/>
<path style="fill:#707487;" d="M273.347,184.915c-3.932,0-7.491-2.687-8.44-6.686c-1.093-4.661,1.788-9.339,6.457-10.441
	c2.796-0.653,5.949-1.254,9.5-1.738c4.788-0.611,9.127,2.695,9.771,7.433c0.644,4.754-2.687,9.127-7.433,9.771
	c-2.941,0.398-5.551,0.882-7.856,1.432C274.678,184.838,274.009,184.915,273.347,184.915z"/>
<g>
	<path style="fill:#7F8499;" d="M342.788,185.932c-0.432,0-0.865-0.034-1.305-0.093c-9.051-1.373-17.585-2.356-25.381-2.941
		c-4.779-0.356-8.364-4.517-8.009-9.296c0.356-4.779,4.559-8.373,9.296-8.009c8.229,0.611,17.203,1.652,26.687,3.076
		c4.737,0.72,8,5.144,7.288,9.881C350.712,182.848,347.008,185.932,342.788,185.932z"/>
	<path style="fill:#7F8499;" d="M169.212,151.22c-4.221,0-7.924-3.085-8.576-7.382c-0.712-4.737,2.551-9.161,7.288-9.881
		c30.644-4.61,54.856-5.102,72.72-0.873c4.661,1.102,7.551,5.78,6.441,10.441c-1.102,4.661-5.797,7.568-10.441,6.441
		c-15.551-3.678-37.881-3.101-66.127,1.161C170.076,151.186,169.644,151.22,169.212,151.22z"/>
</g>
<g>
	<path style="fill:#707487;" d="M169.212,220.644c-4.221,0-7.924-3.085-8.576-7.382c-0.712-4.737,2.551-9.161,7.288-9.881
		c30.644-4.61,54.856-5.102,72.72-0.873c4.661,1.102,7.551,5.78,6.441,10.441c-1.102,4.661-5.797,7.542-10.441,6.441
		c-15.551-3.678-37.881-3.101-66.127,1.161C170.076,220.61,169.644,220.644,169.212,220.644z"/>
	<path style="fill:#707487;" d="M238.653,184.915c-0.661,0-1.331-0.076-2-0.229c-2.305-0.551-4.915-1.034-7.856-1.432
		c-4.746-0.644-8.076-5.017-7.433-9.771c0.653-4.737,5-8.042,9.771-7.433c3.55,0.483,6.704,1.085,9.5,1.738
		c4.67,1.102,7.551,5.78,6.457,10.441C246.144,182.22,242.585,184.915,238.653,184.915z"/>
</g>
<path style="fill:#7F8499;" d="M169.212,185.932c-4.221,0-7.924-3.085-8.576-7.382c-0.712-4.737,2.551-9.161,7.288-9.881
	c9.483-1.424,18.458-2.466,26.687-3.076c4.906-0.449,8.94,3.229,9.296,8.009c0.356,4.779-3.229,8.94-8.009,9.296
	c-7.797,0.585-16.331,1.567-25.381,2.941C170.076,185.898,169.644,185.932,169.212,185.932z"/>
<path style="fill:#E4EAF8;" d="M308.068,512H203.932c-4.797,0-8.678-3.881-8.678-8.678c0-4.797,3.881-8.678,8.678-8.678h104.136
	c4.797,0,8.678,3.881,8.678,8.678C316.746,508.119,312.864,512,308.068,512z"/>
<g>
</g>
<g>
</g>
<g>
</g>
<g>
</g>
<g>
</g>
<g>
</g>
<g>
</g>
<g>
</g>
<g>
</g>
<g>
</g>
<g>
</g>
<g>
</g>
<g>
</g>
<g>
</g>
<g>
</g>
</svg>
