<?xml version="1.0" encoding="iso-8859-1"?>
<!-- Generator: Adobe Illustrator 19.0.0, SVG Export Plug-In . SVG Version: 6.00 Build 0)  -->
<svg version="1.1" id="Layer_1" xmlns="http://www.w3.org/2000/svg" xmlns:xlink="http://www.w3.org/1999/xlink" x="0px" y="0px"
	 viewBox="0 0 512 512" style="enable-background:new 0 0 512 512;" xml:space="preserve">
<g>
	<path style="fill:#5B5D6E;" d="M26.483,397.241v26.483c0,4.875,3.953,8.828,8.828,8.828h17.655c4.875,0,8.828-3.953,8.828-8.828
		v-26.483H26.483z"/>
	<path style="fill:#5B5D6E;" d="M450.207,397.241v26.483c0,4.875,3.953,8.828,8.828,8.828h17.655c4.875,0,8.828-3.953,8.828-8.828
		v-26.483H450.207z"/>
</g>
<path style="fill:#707487;" d="M494.345,406.069H17.655C7.904,406.069,0,398.165,0,388.414V264.828
	c0-9.751,7.904-17.655,17.655-17.655h476.69c9.751,0,17.655,7.904,17.655,17.655v123.586
	C512,398.165,504.096,406.069,494.345,406.069z"/>
<circle style="fill:#959CB5;" cx="353.103" cy="282.483" r="88.276"/>
<circle style="fill:#00C3F0;" cx="353.103" cy="282.483" r="61.793"/>
<g>
	<path style="fill:#464655;" d="M194.207,379.586c-4.879,0-8.828-3.953-8.828-8.828v-88.276c0-4.875,3.948-8.828,8.828-8.828
		s8.828,3.953,8.828,8.828v88.276C203.034,375.634,199.086,379.586,194.207,379.586z"/>
	<path style="fill:#464655;" d="M158.897,379.586c-4.879,0-8.828-3.953-8.828-8.828v-88.276c0-4.875,3.948-8.828,8.828-8.828
		c4.879,0,8.828,3.953,8.828,8.828v88.276C167.724,375.634,163.776,379.586,158.897,379.586z"/>
	<path style="fill:#464655;" d="M123.586,379.586c-4.879,0-8.828-3.953-8.828-8.828v-88.276c0-4.875,3.948-8.828,8.828-8.828
		c4.879,0,8.828,3.953,8.828,8.828v88.276C132.414,375.634,128.466,379.586,123.586,379.586z"/>
	<path style="fill:#464655;" d="M88.276,379.586c-4.879,0-8.828-3.953-8.828-8.828v-88.276c0-4.875,3.948-8.828,8.828-8.828
		c4.879,0,8.828,3.953,8.828,8.828v88.276C97.103,375.634,93.155,379.586,88.276,379.586z"/>
</g>
<path style="fill:#959CB5;" d="M439.5,203.039c-2.232,0-4.466-0.841-6.181-2.526c-21.569-21.142-50.051-32.789-80.215-32.789
	c-30.155,0-58.646,11.642-80.215,32.789c-3.491,3.396-9.078,3.362-12.483-0.129c-3.414-3.478-3.362-9.069,0.12-12.483
	c24.897-24.396,57.777-37.832,92.578-37.832c34.81,0,67.69,13.44,92.577,37.841c3.482,3.41,3.534,9,0.12,12.483
	C444.077,202.155,441.784,203.039,439.5,203.039z"/>
<path style="fill:#AFB9D2;" d="M243.207,176.552c-2.319,0-4.638-0.909-6.37-2.72c-3.38-3.521-3.258-9.108,0.267-12.483
	c31.353-30.042,72.552-46.59,116-46.59c43.439,0,84.638,16.543,115.991,46.578c3.526,3.371,3.647,8.961,0.267,12.483
	c-3.371,3.526-8.966,3.634-12.474,0.267c-28.06-26.876-64.913-41.673-103.784-41.673c-38.879,0-75.733,14.802-103.794,41.685
	C247.604,175.737,245.405,176.552,243.207,176.552z"/>
<path style="fill:#C7CFE2;" d="M485.56,149.354c-2.164,0-4.319-0.785-6.026-2.375c-34.449-32.164-79.345-49.876-126.431-49.876
	c-47.069,0-91.957,17.698-126.388,49.836c-3.577,3.336-9.146,3.138-12.483-0.431c-3.319-3.564-3.129-9.151,0.431-12.474
	c37.716-35.202,86.888-54.585,138.44-54.585c51.569,0,100.75,19.401,138.483,54.625c3.561,3.328,3.751,8.914,0.423,12.479
	C490.276,148.414,487.923,149.354,485.56,149.354z"/>
<g>
	<path style="fill:#59D8FF;" d="M373.702,323.678c-34.127,0-61.793-27.666-61.793-61.793c0-11.78,3.356-22.751,9.077-32.118
		c-17.772,10.852-29.675,30.369-29.675,52.716c0,34.127,27.666,61.793,61.793,61.793c22.347,0,41.864-11.903,52.716-29.675
		C396.451,320.322,385.482,323.678,373.702,323.678z"/>
	<circle style="fill:#59D8FF;" cx="357.517" cy="278.069" r="22.069"/>
</g>
<g>
</g>
<g>
</g>
<g>
</g>
<g>
</g>
<g>
</g>
<g>
</g>
<g>
</g>
<g>
</g>
<g>
</g>
<g>
</g>
<g>
</g>
<g>
</g>
<g>
</g>
<g>
</g>
<g>
</g>
</svg>
