<?xml version="1.0" encoding="iso-8859-1"?>
<!-- Generator: Adobe Illustrator 19.0.0, SVG Export Plug-In . SVG Version: 6.00 Build 0)  -->
<svg version="1.1" id="Layer_1" xmlns="http://www.w3.org/2000/svg" xmlns:xlink="http://www.w3.org/1999/xlink" x="0px" y="0px"
	 viewBox="0 0 512 512" style="enable-background:new 0 0 512 512;" xml:space="preserve">
<path style="fill:#E4EAF8;" d="M494.345,512H17.655C7.904,512,0,504.096,0,494.345V335.448c0-9.751,7.904-17.655,17.655-17.655
	h476.69c9.751,0,17.655,7.904,17.655,17.655v158.897C512,504.096,504.096,512,494.345,512z"/>
<g>
	<path style="fill:#707487;" d="M432.552,370.759H273.655c-4.879,0-8.828-3.953-8.828-8.828s3.948-8.828,8.828-8.828h158.897
		c4.879,0,8.828,3.953,8.828,8.828S437.431,370.759,432.552,370.759z"/>
	<path style="fill:#707487;" d="M467.862,441.379H273.655c-4.879,0-8.828-3.953-8.828-8.828s3.948-8.828,8.828-8.828h194.207
		c4.879,0,8.828,3.953,8.828,8.828S472.742,441.379,467.862,441.379z"/>
</g>
<g>
	<path style="fill:#7F8499;" d="M467.862,476.69H273.655c-4.879,0-8.828-3.948-8.828-8.828c0-4.879,3.948-8.828,8.828-8.828h194.207
		c4.879,0,8.828,3.948,8.828,8.828C476.69,472.742,472.742,476.69,467.862,476.69z"/>
	<path style="fill:#7F8499;" d="M308.966,406.069h-35.31c-4.879,0-8.828-3.953-8.828-8.828c0-4.875,3.948-8.828,8.828-8.828h35.31
		c4.879,0,8.828,3.953,8.828,8.828C317.793,402.116,313.845,406.069,308.966,406.069z"/>
	<path style="fill:#7F8499;" d="M467.862,406.069H344.276c-4.879,0-8.828-3.953-8.828-8.828c0-4.875,3.948-8.828,8.828-8.828
		h123.586c4.879,0,8.828,3.953,8.828,8.828C476.69,402.116,472.742,406.069,467.862,406.069z"/>
</g>
<path style="fill:#E4EAF8;" d="M494.345,229.517H17.655C7.904,229.517,0,221.613,0,211.862V52.966
	C0,43.214,7.904,35.31,17.655,35.31h476.69c9.751,0,17.655,7.904,17.655,17.655v158.897
	C512,221.613,504.096,229.517,494.345,229.517z"/>
<g>
	<path style="fill:#D5DCED;" d="M211.862,211.862H52.966c-19.501,0-35.31-15.809-35.31-35.31V35.31h229.517v141.241
		C247.172,196.053,231.363,211.862,211.862,211.862z"/>
	<path style="fill:#D5DCED;" d="M211.862,494.345H52.966c-19.501,0-35.31-15.809-35.31-35.31V317.793h229.517v141.241
		C247.172,478.536,231.363,494.345,211.862,494.345z"/>
</g>
<g>
	<path style="fill:#707487;" d="M432.552,88.276H273.655c-4.879,0-8.828-3.953-8.828-8.828c0-4.875,3.948-8.828,8.828-8.828h158.897
		c4.879,0,8.828,3.953,8.828,8.828C441.379,84.323,437.431,88.276,432.552,88.276z"/>
	<path style="fill:#707487;" d="M467.862,158.897H273.655c-4.879,0-8.828-3.953-8.828-8.828c0-4.875,3.948-8.828,8.828-8.828
		h194.207c4.879,0,8.828,3.953,8.828,8.828C476.69,154.944,472.742,158.897,467.862,158.897z"/>
</g>
<g>
	<path style="fill:#7F8499;" d="M467.862,194.207H273.655c-4.879,0-8.828-3.948-8.828-8.828c0-4.879,3.948-8.828,8.828-8.828
		h194.207c4.879,0,8.828,3.948,8.828,8.828C476.69,190.259,472.742,194.207,467.862,194.207z"/>
	<path style="fill:#7F8499;" d="M308.966,123.586h-35.31c-4.879,0-8.828-3.953-8.828-8.828c0-4.875,3.948-8.828,8.828-8.828h35.31
		c4.879,0,8.828,3.953,8.828,8.828C317.793,119.634,313.845,123.586,308.966,123.586z"/>
	<path style="fill:#7F8499;" d="M467.862,123.586H344.276c-4.879,0-8.828-3.953-8.828-8.828c0-4.875,3.948-8.828,8.828-8.828
		h123.586c4.879,0,8.828,3.953,8.828,8.828C476.69,119.634,472.742,123.586,467.862,123.586z"/>
</g>
<rect x="123.586" y="185.379" style="fill:#AFB9D2;" width="17.655" height="105.931"/>
<rect x="123.586" y="185.379" style="fill:#959CB5;" width="17.655" height="26.483"/>
<path style="fill:#FF5050;" d="M211.862,194.207H52.966c-9.751,0-17.655-7.904-17.655-17.655V17.655C35.31,7.904,43.214,0,52.966,0
	h158.897c9.751,0,17.655,7.904,17.655,17.655v158.897C229.517,186.303,221.613,194.207,211.862,194.207z"/>
<path style="fill:#FFFFFF;" d="M187.586,88.276c0-30.422-24.75-55.172-55.172-55.172s-55.172,24.75-55.172,55.172v17.655
	c0,30.422,24.75,55.172,55.172,55.172c11.229,0,21.672-3.39,30.396-9.173l5.941,5.941c2.155,2.155,4.974,3.233,7.801,3.233
	c2.827,0,5.646-1.078,7.801-3.233c4.31-4.31,4.31-11.293,0-15.604l-5.941-5.941c5.784-8.724,9.174-19.167,9.174-30.396V88.276z
	 M157.87,115.785c-4.31-4.31-11.293-4.31-15.604,0s-4.31,11.293,0,15.604l4.329,4.329c-4.316,2.065-9.087,3.317-14.182,3.317
	c-18.25,0-33.103-14.849-33.103-33.103V88.276c0-18.254,14.854-33.103,33.103-33.103s33.103,14.849,33.103,33.103v17.655
	c0,5.095-1.252,9.867-3.317,14.183L157.87,115.785z"/>
<path style="fill:#7DF5A5;" d="M211.862,476.69H52.966c-9.751,0-17.655-7.904-17.655-17.655V300.138
	c0-9.751,7.904-17.655,17.655-17.655h158.897c9.751,0,17.655,7.904,17.655,17.655v158.897
	C229.517,468.786,221.613,476.69,211.862,476.69z"/>
<path style="fill:#FFFFFF;" d="M187.258,429.879l-23.975-95.914c-2.714-10.818-12.396-18.379-23.551-18.379h-14.638
	c-11.155,0-20.836,7.561-23.552,18.388l-23.975,95.905c-1.474,5.906,2.121,11.896,8.034,13.379
	c5.888,1.483,11.896-2.112,13.379-8.034l4.532-18.121h57.802l4.53,18.121c1.259,5.017,5.75,8.362,10.698,8.362
	c0.888,0,1.784-0.104,2.681-0.328C185.138,441.775,188.733,435.785,187.258,429.879z M109.031,395.034l13.927-55.706
	c0.242-0.983,1.121-1.673,2.138-1.673h14.638c1.017,0,1.897,0.69,2.138,1.664l13.926,55.715H109.031z"/>
<g>
</g>
<g>
</g>
<g>
</g>
<g>
</g>
<g>
</g>
<g>
</g>
<g>
</g>
<g>
</g>
<g>
</g>
<g>
</g>
<g>
</g>
<g>
</g>
<g>
</g>
<g>
</g>
<g>
</g>
</svg>
