<?xml version="1.0" encoding="iso-8859-1"?>
<!-- Generator: Adobe Illustrator 19.0.0, SVG Export Plug-In . SVG Version: 6.00 Build 0)  -->
<svg version="1.1" id="Layer_1" xmlns="http://www.w3.org/2000/svg" xmlns:xlink="http://www.w3.org/1999/xlink" x="0px" y="0px"
	 viewBox="0 0 512 512" style="enable-background:new 0 0 512 512;" xml:space="preserve">
<path style="fill:#E4EAF8;" d="M494.345,441.379H17.655C7.904,441.379,0,433.475,0,423.724V88.276
	c0-9.751,7.904-17.655,17.655-17.655h476.69c9.751,0,17.655,7.904,17.655,17.655v335.448
	C512,433.475,504.096,441.379,494.345,441.379z"/>
<path style="fill:#FFFFFF;" d="M241.144,320.593l-29.282-29.282v-26.483c0-9.751-7.904-17.655-17.655-17.655H88.276
	c-9.751,0-17.655,7.904-17.655,17.655v70.621c0,9.751,7.904,17.655,17.655,17.655h105.931c9.751,0,17.655-7.904,17.655-17.655
	v-8.828h26.786C241.793,326.621,243.369,322.817,241.144,320.593z"/>
<path style="fill:#D29B6E;" d="M423.724,441.379v-40.241c0-7.599-4.863-14.346-12.072-16.749l-28.821-9.607
	c-7.209-2.403-12.072-9.15-12.072-16.749v-22.585h-52.966v22.585c0,7.599-4.863,14.346-12.072,16.749l-28.821,9.607
	c-7.209,2.403-12.072,9.15-12.072,16.749v40.241H423.724z"/>
<path style="fill:#5B5D6E;" d="M411.652,384.39l-28.821-9.608c-1.731-0.577-3.308-1.431-4.734-2.461
	c-8.097,9.751-20.158,16.093-33.822,16.093c-13.664,0-25.725-6.342-33.821-16.093c-1.426,1.03-3.002,1.885-4.734,2.461L276.9,384.39
	c-7.21,2.403-12.072,9.15-12.072,16.749v40.241h158.897v-40.241C423.724,393.539,418.861,386.793,411.652,384.39z"/>
<ellipse style="fill:#694B4B;" cx="344.276" cy="260.414" rx="70.621" ry="66.207"/>
<path style="fill:#5A4146;" d="M361.34,196.234c-5.474-1.276-11.169-2.027-17.064-2.027c-39.002,0-70.621,29.642-70.621,66.207
	c0,31.398,23.338,57.632,54.621,64.436c0-11.361,0-28.264,0-53.401C328.276,233.207,346.689,209.278,361.34,196.234z"/>
<path style="fill:#F0C087;" d="M388.79,330.846l-28.723,14.361c-9.941,4.97-21.642,4.97-31.583,0l-28.723-14.361
	c-5.28-2.639-8.891-7.744-9.623-13.601l-5.362-42.893c-0.632-5.056,3.108-9.569,8.192-9.901
	c16.454-1.077,50.767-5.207,71.922-21.047c3.567-2.671,8.547-2.201,11.596,1.05l24.542,26.174c1.795,1.914,2.645,4.529,2.319,7.133
	l-4.936,39.484C397.682,323.103,394.07,328.206,388.79,330.846z"/>
<path style="fill:#E6AF78;" d="M401.03,270.627l-24.543-26.174c-0.814-0.87-1.783-1.506-2.809-1.971
	c-0.337-0.152-0.703-0.184-1.054-0.292c-0.713-0.218-1.43-0.413-2.17-0.445c-0.632-0.026-1.26,0.055-1.886,0.168
	c-0.318,0.057-0.641,0.06-0.953,0.152c-0.953,0.286-1.881,0.708-2.721,1.337c-21.191,15.866-55.588,19.983-72.008,21.053
	c-5.113,0.333-8.742,4.812-8.106,9.896l5.362,42.892c0.733,5.858,4.343,10.962,9.623,13.602l28.723,14.361
	c4.289,2.144,8.919,3.178,13.58,3.473l-10.783-21.567c-3.064-6.13-4.66-12.888-4.66-19.741v-22.735c0-4.109,2.849-7.597,6.836-8.594
	c12.089-3.022,24.524-7.443,35.322-13.997l19.371,20.66c2.862,3.053,6.91,6.528,13.806,6.196l1.393-11.142
	C403.674,275.156,402.824,272.542,401.03,270.627z"/>
<g>
	<path style="fill:#707487;" d="M61.793,414.897H35.31c-4.879,0-8.828-3.948-8.828-8.828V105.931c0-4.879,3.948-8.828,8.828-8.828
		h26.483c4.879,0,8.828,3.948,8.828,8.828c0,4.879-3.948,8.828-8.828,8.828H44.138v282.483h17.655c4.879,0,8.828,3.948,8.828,8.828
		C70.621,410.948,66.673,414.897,61.793,414.897z"/>
	<path style="fill:#707487;" d="M476.69,414.897h-26.483c-4.879,0-8.828-3.948-8.828-8.828c0-4.879,3.948-8.828,8.828-8.828h17.655
		V114.759h-17.655c-4.879,0-8.828-3.948-8.828-8.828c0-4.879,3.948-8.828,8.828-8.828h26.483c4.879,0,8.828,3.948,8.828,8.828
		v300.138C485.517,410.948,481.569,414.897,476.69,414.897z"/>
</g>
<g>
	<path style="fill:#FF5050;" d="M123.586,158.897c0-14.603-11.88-26.483-26.483-26.483H79.448c-4.879,0-8.828,3.948-8.828,8.828
		v52.966c0,4.879,3.948,8.828,8.828,8.828c4.879,0,8.828-3.948,8.828-8.828v-8.828h5.173l15.069,15.069
		c1.724,1.725,3.982,2.586,6.241,2.586c2.259,0,4.518-0.862,6.241-2.586c3.448-3.448,3.448-9.035,0-12.483l-7.939-7.939
		C119.448,175.181,123.586,167.518,123.586,158.897z M97.103,167.724h-8.828v-17.655h8.828c4.871,0,8.828,3.957,8.828,8.828
		S101.974,167.724,97.103,167.724z"/>
	<path style="fill:#FF5050;" d="M176.552,150.069c4.879,0,8.828-3.948,8.828-8.828s-3.948-8.828-8.828-8.828h-35.31
		c-4.879,0-8.828,3.948-8.828,8.828v52.966c0,4.879,3.948,8.828,8.828,8.828h35.31c4.879,0,8.828-3.948,8.828-8.828
		s-3.948-8.828-8.828-8.828h-26.483v-8.828h8.828c4.879,0,8.828-3.948,8.828-8.828s-3.948-8.828-8.828-8.828h-8.828v-8.828H176.552z
		"/>
	<path style="fill:#FF5050;" d="M240.629,184.5c-2.922-3.914-8.457-4.698-12.353-1.768c-2.311,1.732-5.06,2.646-7.957,2.646
		c-7.302,0-13.241-5.94-13.241-13.241v-8.828c0-7.302,5.94-13.241,13.241-13.241c2.888,0,5.638,0.914,7.939,2.638
		c3.905,2.922,9.431,2.146,12.353-1.768c2.931-3.896,2.138-9.431-1.768-12.353c-5.379-4.034-11.785-6.173-18.526-6.173
		c-17.035,0-30.897,13.863-30.897,30.897v8.828c0,17.035,13.863,30.897,30.897,30.897c6.741,0,13.155-2.137,18.543-6.182
		C242.767,193.931,243.561,188.396,240.629,184.5z"/>
</g>
<path style="fill:#464655;" d="M414.897,176.552v52.966c0,4.879,3.948,8.828,8.828,8.828c4.879,0,8.828-3.948,8.828-8.828v-52.966
	H414.897z"/>
<path style="fill:#5B5D6E;" d="M397.241,185.379H291.31l-6.756,27.027c-1.154,4.619,1.561,9.321,6.138,10.628l48.733,13.923
	c3.17,0.906,6.53,0.906,9.7,0l48.733-13.923c4.578-1.308,7.294-6.01,6.138-10.628L397.241,185.379z"/>
<path style="fill:#707487;" d="M176.552,291.31h-70.621c-4.879,0-8.828-3.948-8.828-8.828s3.948-8.828,8.828-8.828h70.621
	c4.879,0,8.828,3.948,8.828,8.828S181.431,291.31,176.552,291.31z"/>
<path style="fill:#7F8499;" d="M176.552,326.621h-70.621c-4.879,0-8.828-3.948-8.828-8.828c0-4.879,3.948-8.828,8.828-8.828h70.621
	c4.879,0,8.828,3.948,8.828,8.828C185.379,322.673,181.431,326.621,176.552,326.621z"/>
<path style="fill:#464655;" d="M291.31,185.379l-6.758,27.027c-1.154,4.619,1.561,9.321,6.138,10.628l48.734,13.924
	c1.586,0.452,3.218,0.68,4.851,0.68v-52.259H291.31z"/>
<path style="fill:#707487;" d="M337.308,151.038l-78.962,22.351c-3.103,0.878-3.103,5.447,0,6.326l78.962,22.351
	c4.562,1.291,9.374,1.291,13.937,0l78.962-22.351c3.103-0.878,3.103-5.447,0-6.326l-78.962-22.351
	C346.681,149.746,341.87,149.746,337.308,151.038z"/>
<g>
</g>
<g>
</g>
<g>
</g>
<g>
</g>
<g>
</g>
<g>
</g>
<g>
</g>
<g>
</g>
<g>
</g>
<g>
</g>
<g>
</g>
<g>
</g>
<g>
</g>
<g>
</g>
<g>
</g>
</svg>
