<?xml version="1.0" encoding="iso-8859-1"?>
<!-- Generator: Adobe Illustrator 19.0.0, SVG Export Plug-In . SVG Version: 6.00 Build 0)  -->
<svg version="1.1" id="Layer_1" xmlns="http://www.w3.org/2000/svg" xmlns:xlink="http://www.w3.org/1999/xlink" x="0px" y="0px"
	 viewBox="0 0 512 512" style="enable-background:new 0 0 512 512;" xml:space="preserve">
<path style="fill:#7DF5A5;" d="M366.249,399.35H100.016c-9.803,0-17.749-7.946-17.749-17.749V26.623
	c0-9.803,7.946-17.749,17.749-17.749h266.233c9.803,0,17.749,7.946,17.749,17.749v354.978
	C383.998,391.404,376.052,399.35,366.249,399.35z"/>
<path style="fill:#64DCA0;" d="M350.885,298.29c-4.198-4.196-9.759-6.508-15.659-6.508c-12.253,0-22.223,9.959-22.223,22.199v85.369
	h53.247c9.802,0,17.749-7.947,17.749-17.749v-50.197L350.885,298.29z"/>
<path style="fill:#464655;" d="M330.751,313.982v126.096c0,4.587,5.094,7.339,8.93,4.824l23.425-15.353l31.881,76.969
	c1.876,4.528,7.067,6.678,11.596,4.803l17.669-7.319c4.528-1.876,6.678-7.067,4.803-11.594l-31.881-76.969l27.52-5.571
	c4.509-0.913,6.188-6.479,2.934-9.733l-89.295-89.295C335.536,308.043,330.751,310.025,330.751,313.982z"/>
<path style="fill:#5B5D6E;" d="M181.552,82.977l-14.978-11.982l-14.977,11.982c-2.905,2.324-7.209,0.256-7.209-3.464V8.874
	c0-4.901,3.974-8.874,8.874-8.874h26.623c4.901,0,8.874,3.974,8.874,8.874v70.637C188.76,83.233,184.457,85.301,181.552,82.977z"/>
<path style="fill:#7F8499;" d="M250.881,323.28c-32.161,0-48.982-59.95-48.982-119.168S218.72,84.944,250.881,84.944
	s48.984,59.95,48.984,119.168S283.043,323.28,250.881,323.28z M250.881,102.693c-12.732,0-31.234,39.51-31.234,101.419
	s18.503,101.419,31.234,101.419c12.73,0,31.234-39.51,31.234-101.419S263.613,102.693,250.881,102.693z"/>
<path style="fill:#707487;" d="M321.253,278.197c-5.356,0-11.5-0.546-18.555-1.794c-22.818-4.03-49.919-14.637-76.308-29.869
	c-26.389-15.235-49.121-33.4-64.028-51.149c-21.57-25.696-19.89-41.837-14.681-50.855c5.2-9.018,18.356-18.555,51.383-12.709
	c22.818,4.03,49.919,14.637,76.308,29.869l0,0c26.389,15.235,49.121,33.4,64.028,51.149c21.57,25.696,19.89,41.837,14.681,50.855
	C349.991,270.787,340.987,278.197,321.253,278.197z M180.71,147.802c-10.4,0-15.955,2.652-17.654,5.599
	c-2.401,4.155-0.459,14.655,12.905,30.571c13.607,16.206,34.666,32.963,59.305,47.189s49.685,24.089,70.519,27.767
	c20.488,3.619,30.531,0.048,32.924-4.103c2.401-4.155,0.459-14.655-12.905-30.571c-13.607-16.206-34.666-32.963-59.305-47.189l0,0
	c-24.639-14.226-49.685-24.089-70.519-27.767C190.035,148.249,184.965,147.802,180.71,147.802z"/>
<path style="fill:#5B5D6E;" d="M180.51,278.197c-19.733,0-28.738-7.41-32.829-14.508c-5.208-9.013-6.89-25.155,14.681-50.851
	c14.907-17.749,37.639-35.914,64.028-51.149l0,0c26.389-15.231,53.49-25.839,76.308-29.869c33.054-5.846,46.184,3.692,51.383,12.714
	c5.208,9.013,6.89,25.155-14.681,50.851c-14.907,17.749-37.639,35.914-64.028,51.149c-26.389,15.231-53.49,25.839-76.308,29.869
	C192.01,277.651,185.866,278.197,180.51,278.197z M235.264,177.064c-24.639,14.226-45.698,30.983-59.305,47.189
	c-13.364,15.916-15.305,26.416-12.905,30.567c2.392,4.151,12.445,7.717,32.924,4.108c20.834-3.678,45.88-13.541,70.519-27.767
	s45.698-30.983,59.305-47.189c13.364-15.916,15.305-26.416,12.905-30.567c-2.392-4.151-12.436-7.713-32.924-4.108
	C284.949,152.975,259.903,162.838,235.264,177.064L235.264,177.064z"/>
<path style="fill:#464655;" d="M250.881,221.861c-9.787,0-17.749-7.961-17.749-17.749c0-9.787,7.961-17.749,17.749-17.749
	s17.749,7.961,17.749,17.749C268.63,213.9,260.669,221.861,250.881,221.861z"/>
<path style="fill:#64DCA0;" d="M117.764,399.35h-17.749c-9.803,0-17.749-7.946-17.749-17.749V26.623
	c0-9.803,7.946-17.749,17.749-17.749h17.749V399.35z"/>
<path style="fill:#464655;" d="M153.262,0c-4.901,0-8.874,3.974-8.874,8.874v70.637c0,3.721,4.304,5.789,7.209,3.465l14.977-11.982
	V0H153.262z"/>
<g>
</g>
<g>
</g>
<g>
</g>
<g>
</g>
<g>
</g>
<g>
</g>
<g>
</g>
<g>
</g>
<g>
</g>
<g>
</g>
<g>
</g>
<g>
</g>
<g>
</g>
<g>
</g>
<g>
</g>
</svg>
