<?xml version="1.0" encoding="iso-8859-1"?>
<!-- Generator: Adobe Illustrator 19.0.0, SVG Export Plug-In . SVG Version: 6.00 Build 0)  -->
<svg version="1.1" id="Layer_1" xmlns="http://www.w3.org/2000/svg" xmlns:xlink="http://www.w3.org/1999/xlink" x="0px" y="0px"
	 viewBox="0 0 511.999 511.999" style="enable-background:new 0 0 511.999 511.999;" xml:space="preserve">
<rect x="334.228" y="289.105" transform="matrix(-0.7071 -0.7071 0.7071 -0.7071 418.5042 769.2129)" style="fill:#464655;" width="68.667" height="17.653"/>
<circle style="fill:#959CB5;" cx="264.828" cy="194.206" r="123.586"/>
<circle style="fill:#BAEFFF;" cx="264.828" cy="194.206" r="97.103"/>
<g>
	<path style="fill:#959CB5;" d="M123.586,132.413H8.828c-4.879,0-8.828-3.953-8.828-8.828c0-4.875,3.948-8.828,8.828-8.828h114.759
		c4.879,0,8.828,3.953,8.828,8.828C132.414,128.46,128.466,132.413,123.586,132.413z"/>
	<path style="fill:#959CB5;" d="M26.483,167.723H8.828c-4.879,0-8.828-3.953-8.828-8.828c0-4.875,3.948-8.828,8.828-8.828h17.655
		c4.879,0,8.828,3.953,8.828,8.828C35.31,163.771,31.362,167.723,26.483,167.723z"/>
</g>
<path style="fill:#707487;" d="M114.759,167.723H61.793c-4.879,0-8.828-3.953-8.828-8.828c0-4.875,3.948-8.828,8.828-8.828h52.966
	c4.879,0,8.828,3.953,8.828,8.828C123.586,163.771,119.638,167.723,114.759,167.723z"/>
<path style="fill:#959CB5;" d="M105.931,203.033H8.828c-4.879,0-8.828-3.953-8.828-8.828c0-4.875,3.948-8.828,8.828-8.828h97.103
	c4.879,0,8.828,3.953,8.828,8.828C114.759,199.081,110.81,203.033,105.931,203.033z"/>
<path style="fill:#707487;" d="M61.793,238.344H8.828c-4.879,0-8.828-3.953-8.828-8.828s3.948-8.828,8.828-8.828h52.966
	c4.879,0,8.828,3.953,8.828,8.828S66.673,238.344,61.793,238.344z"/>
<path style="fill:#959CB5;" d="M114.759,238.344H97.103c-4.879,0-8.828-3.953-8.828-8.828s3.948-8.828,8.828-8.828h17.655
	c4.879,0,8.828,3.953,8.828,8.828S119.638,238.344,114.759,238.344z"/>
<path style="fill:#707487;" d="M123.586,273.654H61.793c-4.879,0-8.828-3.953-8.828-8.828s3.948-8.828,8.828-8.828h61.793
	c4.879,0,8.828,3.953,8.828,8.828S128.466,273.654,123.586,273.654z"/>
<path style="fill:#959CB5;" d="M26.483,273.654H8.828c-4.879,0-8.828-3.953-8.828-8.828s3.948-8.828,8.828-8.828h17.655
	c4.879,0,8.828,3.953,8.828,8.828S31.362,273.654,26.483,273.654z"/>
<path style="fill:#D4F5FF;" d="M320.8,250.472c-2.862,2.841-7.773,0.725-7.546-3.302c0.082-1.46,0.126-2.931,0.126-4.413
	c0-53.629-43.475-97.103-97.103-97.103c-1.482,0-2.953,0.044-4.413,0.126c-4.026,0.225-6.141-4.685-3.3-7.546
	c15.008-15.119,36.014-24.259,59.196-23.422c41.349,1.493,74.966,35.107,76.465,76.457
	C345.063,214.451,335.922,235.462,320.8,250.472z"/>
<path style="fill:#464655;" d="M291.31,238.344h-8.828c-3.801,0-7.172-2.431-8.371-6.035l-9.284-27.844l-9.284,27.844
	c-1.198,3.604-4.569,6.035-8.371,6.035h-8.828c-3.939,0-7.405-2.612-8.491-6.401l-17.655-61.793
	c-1.336-4.69,1.379-9.574,6.069-10.914c4.655-1.336,9.569,1.37,10.914,6.06l13.888,48.617l13.388-40.156
	c1.197-3.603,4.568-6.034,8.37-6.034s7.172,2.431,8.371,6.035l13.388,40.156l13.888-48.617c1.345-4.69,6.276-7.401,10.914-6.06
	c4.69,1.341,7.405,6.225,6.069,10.914l-17.655,61.793C298.716,235.732,295.25,238.344,291.31,238.344z"/>
<path style="fill:#707487;" d="M469.38,436.208l-89.791-89.791c-6.894-6.894-6.894-18.073,0-24.968l12.48-12.48
	c6.894-6.894,18.073-6.894,24.968,0l89.791,89.791c6.894,6.894,6.894,18.073,0,24.968l-12.48,12.48
	C487.454,443.102,476.276,443.102,469.38,436.208z"/>
<g>
	<path style="fill:#5B5D6E;" d="M484.452,421.136l-89.791-89.791c-6.451-6.451-6.784-16.607-1.165-23.541
		c-0.477,0.387-0.983,0.721-1.427,1.165l-12.48,12.48c-6.894,6.895-6.894,18.073,0,24.968l89.791,89.791
		c6.895,6.895,18.073,6.895,24.968,0l12.48-12.48c0.444-0.444,0.779-0.949,1.165-1.426
		C501.06,427.921,490.903,427.586,484.452,421.136z"/>
	<path style="fill:#5B5D6E;" d="M311.388,159.237c-4.638-1.341-9.569,1.37-10.914,6.06l-5.806,20.324
		c4.927,6.749,8.999,14.135,12.07,22.045l10.719-37.516C318.793,165.46,316.077,160.576,311.388,159.237z"/>
</g>
<g>
</g>
<g>
</g>
<g>
</g>
<g>
</g>
<g>
</g>
<g>
</g>
<g>
</g>
<g>
</g>
<g>
</g>
<g>
</g>
<g>
</g>
<g>
</g>
<g>
</g>
<g>
</g>
<g>
</g>
</svg>
