<?xml version="1.0" encoding="iso-8859-1"?>
<!-- Generator: Adobe Illustrator 19.0.0, SVG Export Plug-In . SVG Version: 6.00 Build 0)  -->
<svg version="1.1" id="Layer_1" xmlns="http://www.w3.org/2000/svg" xmlns:xlink="http://www.w3.org/1999/xlink" x="0px" y="0px"
	 viewBox="0 0 512 512" style="enable-background:new 0 0 512 512;" xml:space="preserve">
<rect x="277.598" y="315.577" transform="matrix(-0.7071 -0.7071 0.7071 -0.7071 324.4168 783.1846)" style="fill:#464655;" width="93.627" height="17.653"/>
<circle style="fill:#7F8499;" cx="176.552" cy="176.552" r="176.552"/>
<circle style="fill:#00C3FF;" cx="176.552" cy="176.552" r="141.241"/>
<path style="fill:#00AAF0;" d="M264.828,264.828c-78.005,0-141.241-63.236-141.241-141.241c0-32.481,11.078-62.31,29.506-86.17
	C86.278,48.61,35.311,106.557,35.311,176.552c0,78.005,63.236,141.241,141.241,141.241c45.525,0,85.906-21.63,111.735-55.071
	C280.641,264.003,272.838,264.828,264.828,264.828z"/>
<path style="fill:#707487;" d="M469.378,506.829L338.034,375.486c-6.894-6.894-6.894-18.073,0-24.968l12.484-12.484
	c6.894-6.894,18.073-6.894,24.968,0l131.342,131.342c6.894,6.894,6.894,18.073,0,24.968l-12.483,12.486
	C487.451,513.724,476.272,513.724,469.378,506.829z"/>
<path style="fill:#5B5D6E;" d="M485.74,490.466L354.396,359.123c-6.23-6.23-6.774-15.928-1.745-22.833
	c-0.736,0.536-1.47,1.079-2.134,1.743l-12.483,12.483c-6.895,6.895-6.895,18.073,0,24.968l131.342,131.342
	c6.895,6.895,18.073,6.895,24.968,0l12.484-12.482c0.664-0.664,1.206-1.398,1.742-2.134
	C501.668,497.239,491.97,496.696,485.74,490.466z"/>
<g>
	<path style="fill:#E4EAF8;" d="M307.43,123.586h-18.696c-4.111,0-8.166-0.958-11.843-2.796l-6.514-3.257
		c-3.65-1.825-7.674-2.782-11.755-2.795l-11.683-0.039c-14.814-0.097-26.826,11.976-26.655,26.788l0.103,8.887
		c0.168,14.506,11.976,26.177,26.482,26.177h0.305c9.75,0,17.655,7.904,17.655,17.655v11.77c0,3.82,1.239,7.538,3.531,10.593
		l22.952,30.602h7.433c12.044-20.791,19.05-44.864,19.05-70.621C317.794,157.806,314.062,139.954,307.43,123.586z"/>
	<path style="fill:#E4EAF8;" d="M258.679,61.793h-11.506c-4.875,0-8.828,3.953-8.828,8.828v8.828c0,4.875-3.953,8.828-8.828,8.828
		s-8.828,3.953-8.828,8.828v8.808c0,4.874,3.949,8.824,8.823,8.828l26.485,0.014c4.876,0.003,8.83-3.949,8.83-8.825
		c0-4.874,3.951-8.825,8.825-8.825h19.66C283.953,83.373,272.174,71.468,258.679,61.793z"/>
	<path style="fill:#E4EAF8;" d="M194.207,203.034h-17.655l-22.035-14.69c-2.9-1.933-6.307-2.965-9.793-2.965h-21.138v25.862
		c0,5.903,2.951,11.415,7.862,14.69l18.621,12.414l15.317,45.95c1.397,4.19,5.318,7.016,9.734,7.016
		c5.666,0,10.26-4.594,10.26-10.26v-33.878l15.07-15.07c1.655-1.655,2.585-3.901,2.585-6.242v-13.998
		C203.035,206.987,199.083,203.034,194.207,203.034z"/>
	<path style="fill:#E4EAF8;" d="M40.962,137.27l30.536,38.17c5.026,6.282,12.634,9.939,20.68,9.939h4.927v-17.655
		c0-9.751,7.905-17.655,17.655-17.655h8.828l26.483-44.138h10.763c4.051,0,7.582-2.758,8.564-6.687l4.414-17.655
		c1.393-5.571-2.822-10.968-8.564-10.968h-30.159c-1.743,0-3.447,0.515-4.897,1.482l-24.258,16.173v-8.828
		c0-4.875-3.953-8.828-8.828-8.828H84.138h-0.793C63.449,88.142,48.529,111.112,40.962,137.27z"/>
</g>
<g>
	<path style="fill:#D5DCED;" d="M71.497,175.441c5.026,6.282,12.634,9.939,20.68,9.939h4.927v-17.655
		c0-9.751,7.905-17.655,17.655-17.655h8.828l2.046-3.411c-1.239-7.524-2.046-15.196-2.046-23.072
		c0-18.71,3.775-36.489,10.414-52.804c-1.353,0.17-2.668,0.561-3.811,1.322l-24.258,16.172v-8.828c0-4.875-3.953-8.828-8.828-8.828
		H84.138h-0.685c-19.944,17.492-34.936,40.446-42.525,66.609L71.497,175.441z"/>
	<path style="fill:#D5DCED;" d="M185.38,281.05v-33.878l4.204-4.204c-22.137-13.983-40.057-33.913-51.614-57.589h-14.383v25.862
		c0,5.903,2.951,11.415,7.862,14.69l18.621,12.414l15.317,45.95c1.397,4.19,5.318,7.016,9.734,7.016
		C180.786,291.31,185.38,286.717,185.38,281.05z"/>
</g>
<g>
</g>
<g>
</g>
<g>
</g>
<g>
</g>
<g>
</g>
<g>
</g>
<g>
</g>
<g>
</g>
<g>
</g>
<g>
</g>
<g>
</g>
<g>
</g>
<g>
</g>
<g>
</g>
<g>
</g>
</svg>
