<?xml version="1.0" encoding="iso-8859-1"?>
<!-- Generator: Adobe Illustrator 19.0.0, SVG Export Plug-In . SVG Version: 6.00 Build 0)  -->
<svg version="1.1" id="Layer_1" xmlns="http://www.w3.org/2000/svg" xmlns:xlink="http://www.w3.org/1999/xlink" x="0px" y="0px"
	 viewBox="0 0 512 512" style="enable-background:new 0 0 512 512;" xml:space="preserve">
<path style="fill:#E4EAF8;" d="M494.345,326.621H17.655C7.904,326.621,0,318.717,0,308.966V203.034
	c0-9.751,7.904-17.655,17.655-17.655h476.69c9.751,0,17.655,7.904,17.655,17.655v105.931
	C512,318.717,504.096,326.621,494.345,326.621z"/>
<path style="fill:#00C3FF;" d="M494.345,326.621H388.414c-9.751,0-17.655-7.904-17.655-17.655V203.034
	c0-9.751,7.904-17.655,17.655-17.655h105.931c9.751,0,17.655,7.904,17.655,17.655v105.931
	C512,318.717,504.096,326.621,494.345,326.621z"/>
<path style="fill:#FFFFFF;" d="M482.931,285.069l-20.072-20.072c3.101-5.252,5.003-11.296,5.003-17.825
	c0-19.47-15.837-35.31-35.31-35.31s-35.31,15.84-35.31,35.31s15.837,35.31,35.31,35.31c6.529,0,12.574-1.901,17.825-5.003
	l20.072,20.072c1.725,1.725,3.982,2.586,6.241,2.586c2.259,0,4.517-0.862,6.241-2.586
	C486.379,294.103,486.379,288.518,482.931,285.069z M414.897,247.172c0-9.737,7.923-17.655,17.655-17.655
	s17.655,7.918,17.655,17.655s-7.923,17.655-17.655,17.655S414.897,256.909,414.897,247.172z"/>
<path style="fill:#5B5D6E;" d="M35.31,300.138c-4.879,0-8.828-3.953-8.828-8.828V220.69c0-4.875,3.948-8.828,8.828-8.828
	s8.828,3.953,8.828,8.828v70.621C44.138,296.185,40.19,300.138,35.31,300.138z"/>
<g>
</g>
<g>
</g>
<g>
</g>
<g>
</g>
<g>
</g>
<g>
</g>
<g>
</g>
<g>
</g>
<g>
</g>
<g>
</g>
<g>
</g>
<g>
</g>
<g>
</g>
<g>
</g>
<g>
</g>
</svg>
