<?xml version="1.0" encoding="iso-8859-1"?>
<!-- Generator: Adobe Illustrator 19.0.0, SVG Export Plug-In . SVG Version: 6.00 Build 0)  -->
<svg version="1.1" id="Layer_1" xmlns="http://www.w3.org/2000/svg" xmlns:xlink="http://www.w3.org/1999/xlink" x="0px" y="0px"
	 viewBox="0 0 512 512" style="enable-background:new 0 0 512 512;" xml:space="preserve">
<path style="fill:#E4EAF8;" d="M370.759,512H17.655C7.904,512,0,504.096,0,494.345V194.207c0-9.751,7.904-17.655,17.655-17.655
	h353.103c9.751,0,17.655,7.904,17.655,17.655v300.138C388.414,504.096,380.51,512,370.759,512z"/>
<g>
	<path style="fill:#D5DCED;" d="M388.414,414.897H229.517c-19.501,0-35.31-15.809-35.31-35.31V176.552h176.552
		c9.751,0,17.655,7.904,17.655,17.655V414.897z"/>
	<path style="fill:#D5DCED;" d="M370.759,176.552H35.31v26.483c0,4.875,3.953,8.828,8.828,8.828h344.276v-17.655
		C388.414,184.457,380.51,176.552,370.759,176.552z"/>
</g>
<path style="fill:#FFFFFF;" d="M361.931,494.345H26.483c-4.875,0-8.828-3.953-8.828-8.828V238.345c0-4.875,3.953-8.828,8.828-8.828
	h335.448c4.875,0,8.828,3.953,8.828,8.828v247.172C370.759,490.392,366.806,494.345,361.931,494.345z"/>
<g>
	<circle style="fill:#7F8499;" cx="150.069" cy="450.207" r="17.655"/>
	<circle style="fill:#7F8499;" cx="264.828" cy="450.207" r="17.655"/>
</g>
<rect x="194.207" y="176.552" style="fill:#C7CFE2;" width="35.31" height="35.31"/>
<path style="fill:#E4EAF8;" d="M370.759,238.345c0-4.875-3.953-8.828-8.828-8.828H194.207v150.069
	c0,19.501,15.809,35.31,35.31,35.31h141.241V238.345z"/>
<path style="fill:#AFB9D2;" d="M282.483,423.724H134.319c-2.044,0-3.164-1.216-3.656-1.94c-0.492-0.724-1.198-2.216-0.439-4.113
	l8.168-20.43h91.125v-17.655h-34.229l-8.866-79.448h43.095v-17.655H103.948l-3.181-8.905C97.017,263.06,87,256,75.837,256H61.793
	c-4.879,0-8.828,3.948-8.828,8.828c0,4.879,3.948,8.828,8.828,8.828h14.044c3.715,0,7.06,2.354,8.31,5.854l38.833,108.723
	l-9.143,22.88c-2.733,6.802-1.906,14.492,2.198,20.561c4.113,6.078,10.948,9.707,18.284,9.707h148.164
	c4.879,0,8.828-3.948,8.828-8.828C291.31,427.672,287.362,423.724,282.483,423.724z M168.651,300.138l8.866,79.448h-11.258
	l-14.445-79.448H168.651z M110.255,300.138h23.623l14.445,79.448h-9.686L110.255,300.138z"/>
<g>
	<path style="fill:#959CB5;" d="M229.517,379.586h-34.229l-1.081-9.69v9.69c0,6.464,1.864,12.444,4.897,17.655h30.413V379.586z"/>
	<rect x="194.207" y="282.483" style="fill:#959CB5;" width="35.31" height="17.655"/>
</g>
<path style="fill:#FFDC64;" d="M494.345,397.241H229.517c-9.751,0-17.655-7.904-17.655-17.655V26.483
	c0-9.751,7.904-17.655,17.655-17.655h264.828c9.751,0,17.655,7.904,17.655,17.655v353.103
	C512,389.337,504.096,397.241,494.345,397.241z"/>
<path style="fill:#707487;" d="M310.622,82.539l-14.898-11.918l-14.898,11.918c-2.89,2.312-7.171,0.255-7.171-3.447V8.828
	c0-4.875,3.953-8.828,8.828-8.828h26.483c4.875,0,8.828,3.953,8.828,8.828v70.264C317.793,82.794,313.512,84.851,310.622,82.539z"/>
<path style="fill:#FFC850;" d="M247.172,397.241h-17.655c-9.751,0-17.655-7.904-17.655-17.655V26.483
	c0-9.751,7.904-17.655,17.655-17.655h17.655V397.241z"/>
<path style="fill:#5B5D6E;" d="M282.483,0c-4.875,0-8.828,3.953-8.828,8.828v70.264c0,3.701,4.281,5.759,7.171,3.447l14.898-11.918
	V0H282.483z"/>
<path style="fill:#707487;" d="M434.268,127.086c-4.526-3.362-10.225-4.371-15.612-2.75l-64.319,19.302
	c-11.122,3.319-18.889,13.75-18.889,25.362v100.242h17.655v-89.159l70.621-21.186v83.862h17.655V141.25
	C441.379,135.612,438.784,130.449,434.268,127.086z"/>
<g>
	<ellipse style="fill:#5B5D6E;" cx="326.621" cy="269.241" rx="26.483" ry="22.069"/>
	<ellipse style="fill:#5B5D6E;" cx="414.897" cy="242.759" rx="26.483" ry="22.069"/>
</g>
<g>
</g>
<g>
</g>
<g>
</g>
<g>
</g>
<g>
</g>
<g>
</g>
<g>
</g>
<g>
</g>
<g>
</g>
<g>
</g>
<g>
</g>
<g>
</g>
<g>
</g>
<g>
</g>
<g>
</g>
</svg>
