<?xml version="1.0" encoding="iso-8859-1"?>
<!-- Generator: Adobe Illustrator 19.0.0, SVG Export Plug-In . SVG Version: 6.00 Build 0)  -->
<svg version="1.1" id="Layer_1" xmlns="http://www.w3.org/2000/svg" xmlns:xlink="http://www.w3.org/1999/xlink" x="0px" y="0px"
	 viewBox="0 0 512 512" style="enable-background:new 0 0 512 512;" xml:space="preserve">
<path style="fill:#707487;" d="M485.517,136.828c14.626,0,26.483,11.857,26.483,26.483v300.138
	c0,14.626-11.857,26.483-26.483,26.483H26.483C11.857,489.931,0,478.074,0,463.448V163.31c0-14.626,11.857-26.483,26.483-26.483
	H485.517z"/>
<rect x="176.552" y="136.828" style="fill:#5B5D6E;" width="88.276" height="17.655"/>
<path style="fill:#FFFFFF;" d="M432.552,472.276H79.448c-4.875,0-8.828-3.953-8.828-8.828V163.31c0-4.875,3.953-8.828,8.828-8.828
	h353.103c4.875,0,8.828,3.953,8.828,8.828v300.138C441.379,468.323,437.427,472.276,432.552,472.276z"/>
<path style="fill:#7F8499;" d="M476.69,339.862c-9.75,0-17.655-7.905-17.655-17.655v-17.655c0-9.75,7.905-17.655,17.655-17.655
	c9.75,0,17.655,7.905,17.655,17.655v17.655C494.345,331.957,486.44,339.862,476.69,339.862z"/>
<g>
	<path style="fill:#464655;" d="M35.31,339.862c-4.879,0-8.828-3.953-8.828-8.828v-35.31c0-4.875,3.948-8.828,8.828-8.828
		s8.828,3.953,8.828,8.828v35.31C44.138,335.91,40.19,339.862,35.31,339.862z"/>
	<path style="fill:#464655;" d="M35.396,269.241c-4.879,0-8.871-3.953-8.871-8.828s3.905-8.828,8.785-8.828h0.086
		c4.879,0,8.828,3.953,8.828,8.828S40.276,269.241,35.396,269.241z"/>
</g>
<path style="fill:#D5DCED;" d="M229.517,22.069h-17.655c-4.875,0-8.828,3.953-8.828,8.828v88.276h35.31V30.897
	C238.345,26.02,234.392,22.069,229.517,22.069z"/>
<path style="fill:#707487;" d="M238.345,57.379h-35.31V30.897c0-4.875,3.953-8.828,8.828-8.828h17.655
	c4.875,0,8.828,3.953,8.828,8.828V57.379z"/>
<path style="fill:#959CB5;" d="M291.31,170.403v46.665c16.448,18.639,26.483,43.055,26.483,69.828
	c0,26.775-10.036,51.203-26.483,69.862v46.611c37.215-25.455,61.793-68.079,61.793-116.471
	C353.103,238.492,328.549,195.827,291.31,170.403z"/>
<path style="fill:#707487;" d="M203.034,225.103v44.138c0,4.875,3.953,8.828,8.828,8.828h17.655c4.875,0,8.828-3.953,8.828-8.828
	v-44.138H203.034z"/>
<path style="fill:#AFB9D2;" d="M291.31,233.931h-52.965v-61.793h52.965c4.875,0,8.828,3.953,8.828,8.828v44.138
	C300.138,229.978,296.185,233.931,291.31,233.931z"/>
<path style="fill:#959CB5;" d="M167.724,366.345h114.759c4.875,0,8.828-3.953,8.828-8.828v-8.828c0-4.875-3.953-8.828-8.828-8.828
	H167.724c-4.875,0-8.828,3.953-8.828,8.828v8.828C158.897,362.392,162.849,366.345,167.724,366.345z"/>
<path style="fill:#C7CFE2;" d="M203.034,233.931h35.31c4.875,0,8.828-3.953,8.828-8.828V119.172c0-4.875-3.953-8.828-8.828-8.828
	h-35.31c-4.875,0-8.828,3.953-8.828,8.828v105.931C194.207,229.978,198.159,233.931,203.034,233.931z"/>
<circle style="fill:#707487;" cx="300.138" cy="180.966" r="26.483"/>
<path style="fill:#C7CFE2;" d="M282.483,454.621v-86.102c0-10.951,8.877-19.829,19.829-19.829l0,0
	c9.099,0,17.03,6.193,19.236,15.019l22.728,90.912H282.483z"/>
<path style="fill:#AFB9D2;" d="M361.931,445.793H150.069c-4.875,0-8.828,3.953-8.828,8.828v17.655h229.517v-17.655
	C370.759,449.745,366.806,445.793,361.931,445.793z"/>
<path style="fill:#C7CFE2;" d="M238.345,401.655h-35.31c-4.875,0-8.828,3.953-8.828,8.828v35.31h52.966v-35.31
	C247.172,405.607,243.22,401.655,238.345,401.655z"/>
<circle style="fill:#707487;" cx="302.201" cy="368.276" r="8.828"/>
<g>
</g>
<g>
</g>
<g>
</g>
<g>
</g>
<g>
</g>
<g>
</g>
<g>
</g>
<g>
</g>
<g>
</g>
<g>
</g>
<g>
</g>
<g>
</g>
<g>
</g>
<g>
</g>
<g>
</g>
</svg>
