<?xml version="1.0" encoding="iso-8859-1"?>
<!-- Generator: Adobe Illustrator 19.0.0, SVG Export Plug-In . SVG Version: 6.00 Build 0)  -->
<svg version="1.1" id="Layer_1" xmlns="http://www.w3.org/2000/svg" xmlns:xlink="http://www.w3.org/1999/xlink" x="0px" y="0px"
	 viewBox="0 0 512 512" style="enable-background:new 0 0 512 512;" xml:space="preserve">
<path style="fill:#464655;" d="M407.932,64.232c-12.035,6.018-19.518,18.121-19.518,31.586v361.629
	c0,18.464-13.483,34.976-31.863,36.733c-15.757,1.506-29.591-7.443-35.576-20.671c5.871,2.657,12.531,3.861,19.616,2.794
	c17.686-2.663,30.168-18.929,30.168-36.814V95.818c0-13.465-7.482-25.569-19.518-31.586l-33.448-15.897v4.631V92.69l25.551,12.776
	c5.981,2.99,9.759,9.103,9.759,15.791v319.122c0,8.799-5.987,16.975-14.668,18.409c-11.044,1.824-20.642-6.696-20.642-17.408V204.6
	c0-18.432-13.444-34.92-31.79-36.704c-21.049-2.048-38.83,14.503-38.83,35.138v236.502c0,26.916-19.299,50.935-45.997,54.36
	c-32.3,4.143-59.934-21.019-59.934-52.518V326.621h-17.655v112.265c0,37.577,28.291,70.441,65.783,72.952
	c41.119,2.754,75.458-29.918,75.458-70.458V204.035c0-8.798,5.987-16.975,14.668-18.409c11.044-1.823,20.642,6.696,20.642,17.408
	v254.157c0,26.916,19.299,50.935,45.997,54.36c32.3,4.143,59.934-21.019,59.934-52.518V121.257c0-6.687,3.778-12.801,9.76-15.791
	l25.55-12.776V52.966v-4.631L407.932,64.232z"/>
<path style="fill:#5B5D6E;" d="M203.035,335.448H61.793c-9.751,0-17.655-7.904-17.655-17.655V17.655C44.138,7.904,52.042,0,61.793,0
	h141.241c9.751,0,17.655,7.904,17.655,17.655v300.138C220.69,327.544,212.786,335.448,203.035,335.448z"/>
<path style="fill:#FFFFFF;" d="M194.207,282.483H70.621c-4.875,0-8.828-3.953-8.828-8.828V61.793c0-4.875,3.953-8.828,8.828-8.828
	h123.586c4.875,0,8.828,3.953,8.828,8.828v211.862C203.035,278.53,199.082,282.483,194.207,282.483z"/>
<g>
	<path style="fill:#464655;" d="M141.241,35.31h-17.655c-4.879,0-8.828-3.948-8.828-8.828s3.948-8.828,8.828-8.828h17.655
		c4.879,0,8.828,3.948,8.828,8.828S146.121,35.31,141.241,35.31z"/>
	<path style="fill:#464655;" d="M97.19,35.31c-4.879,0-8.871-3.948-8.871-8.828s3.905-8.828,8.785-8.828h0.086
		c4.879,0,8.828,3.948,8.828,8.828S102.069,35.31,97.19,35.31z"/>
	<path style="fill:#464655;" d="M139.035,322.207h-13.241c-7.31,0-13.241-5.931-13.241-13.241s5.931-13.241,13.241-13.241h13.241
		c7.31,0,13.241,5.931,13.241,13.241S146.345,322.207,139.035,322.207z"/>
</g>
<g>
	<path style="fill:#5B5D6E;" d="M317.793,44.138h-17.655c-4.875,0-8.828,3.953-8.828,8.828v44.138c0,4.875,3.953,8.828,8.828,8.828
		h17.655c4.875,0,8.828-3.953,8.828-8.828V52.966C326.621,48.09,322.668,44.138,317.793,44.138z"/>
	<path style="fill:#5B5D6E;" d="M441.379,44.138h17.655c4.875,0,8.828,3.953,8.828,8.828v44.138c0,4.875-3.953,8.828-8.828,8.828
		h-17.655c-4.875,0-8.828-3.953-8.828-8.828V52.966C432.552,48.09,436.504,44.138,441.379,44.138z"/>
</g>
<g>
	<path style="fill:#707487;" d="M86.232,149.827c4.75,1.129,9.5-1.784,10.63-6.543l2.59-10.87h21.786l2.59,10.871
		c0.966,4.061,4.586,6.784,8.577,6.784c0.681,0,1.37-0.077,2.051-0.242c4.742-1.129,7.672-5.888,6.543-10.63l-10.991-46.173
		c-1.896-7.99-8.957-13.577-17.181-13.577h-4.966c-8.224,0-15.285,5.587-17.173,13.569l-11,46.182
		C78.56,143.939,81.492,148.698,86.232,149.827z M112.828,97.103l4.205,17.655h-13.376l4.205-17.655H112.828z"/>
	<path style="fill:#707487;" d="M158.897,114.759h17.655c4.879,0,8.828-3.948,8.828-8.828c0-4.879-3.948-8.828-8.828-8.828h-17.655
		c-4.879,0-8.828,3.948-8.828,8.828C150.069,110.81,154.017,114.759,158.897,114.759z"/>
</g>
<path style="fill:#7F8499;" d="M176.552,132.414h-17.655c-4.879,0-8.828,3.948-8.828,8.828s3.948,8.828,8.828,8.828h17.655
	c4.879,0,8.828-3.948,8.828-8.828S181.431,132.414,176.552,132.414z"/>
<path style="fill:#707487;" d="M176.552,167.724H88.276c-4.879,0-8.828,3.948-8.828,8.828c0,4.879,3.948,8.828,8.828,8.828h88.276
	c4.879,0,8.828-3.948,8.828-8.828C185.379,171.672,181.431,167.724,176.552,167.724z"/>
<path style="fill:#7F8499;" d="M176.552,203.034H88.276c-4.879,0-8.828,3.948-8.828,8.828c0,4.879,3.948,8.828,8.828,8.828h88.276
	c4.879,0,8.828-3.948,8.828-8.828C185.379,206.983,181.431,203.034,176.552,203.034z"/>
<path style="fill:#707487;" d="M176.552,238.345H88.276c-4.879,0-8.828,3.948-8.828,8.828c0,4.879,3.948,8.828,8.828,8.828h88.276
	c4.879,0,8.828-3.948,8.828-8.828C185.379,242.293,181.431,238.345,176.552,238.345z"/>
<g>
</g>
<g>
</g>
<g>
</g>
<g>
</g>
<g>
</g>
<g>
</g>
<g>
</g>
<g>
</g>
<g>
</g>
<g>
</g>
<g>
</g>
<g>
</g>
<g>
</g>
<g>
</g>
<g>
</g>
</svg>
