<?xml version="1.0" encoding="iso-8859-1"?>
<!-- Generator: Adobe Illustrator 19.0.0, SVG Export Plug-In . SVG Version: 6.00 Build 0)  -->
<svg version="1.1" id="Layer_1" xmlns="http://www.w3.org/2000/svg" xmlns:xlink="http://www.w3.org/1999/xlink" x="0px" y="0px"
	 viewBox="0 0 512 512" style="enable-background:new 0 0 512 512;" xml:space="preserve">
<path style="fill:#E4EAF8;" d="M494.345,322.207H158.897c-9.751,0-17.655-7.904-17.655-17.655V39.724
	c0-9.751,7.904-17.655,17.655-17.655h335.448c9.751,0,17.655,7.904,17.655,17.655v264.828
	C512,314.303,504.096,322.207,494.345,322.207z"/>
<path style="fill:#D5DCED;" d="M233.972,134.332L155.01,111.98c-3.837-1.086-7.798-1.635-11.776-1.635
	c-0.666,0-1.326,0.107-1.992,0.138v194.069c0,9.75,7.905,17.655,17.655,17.655h40.757c8.369-5.661,13.963-14.653,15.236-24.841
	l1.528-12.228c9.891-13.886,15.091-29.956,15.091-46.793c0-1.961-0.071-3.913-0.212-5.853c10.386-3.583,17.867-13.457,17.867-25.044
	v-52.966c0-0.637-0.033-1.265-0.099-1.885C248.317,143.94,242.44,136.729,233.972,134.332z"/>
<path style="fill:#7DF5A5;" d="M467.862,286.897h-44.138V66.207c0-4.875,3.953-8.828,8.828-8.828h26.483
	c4.875,0,8.828,3.953,8.828,8.828V286.897z"/>
<path style="fill:#FFDC64;" d="M388.414,286.897h-44.138V136.828c0-4.875,3.953-8.828,8.828-8.828h26.483
	c4.875,0,8.828,3.953,8.828,8.828V286.897z"/>
<path style="fill:#FF5050;" d="M308.966,286.897h-44.138v-79.448c0-4.875,3.953-8.828,8.828-8.828h26.483
	c4.875,0,8.828,3.953,8.828,8.828V286.897z"/>
<path style="fill:#00C3FF;" d="M229.517,286.897h-44.138v-35.31c0-4.875,3.953-8.828,8.828-8.828h26.483
	c4.875,0,8.828,3.953,8.828,8.828V286.897z"/>
<path style="fill:#00AAF0;" d="M229.517,251.586c0-4.875-3.953-8.828-8.828-8.828h-26.483c-4.875,0-8.828,3.953-8.828,8.828v35.31
	h30.819l0.22-1.759c6.535-9.174,10.806-19.358,13.099-30.03V251.586z"/>
<path style="fill:#AFB9D2;" d="M476.69,295.724H176.552c-4.879,0-8.828-3.948-8.828-8.828c0-4.879,3.948-8.828,8.828-8.828H476.69
	c4.879,0,8.828,3.948,8.828,8.828C485.517,291.776,481.569,295.724,476.69,295.724z"/>
<path style="fill:#959CB5;" d="M176.552,278.069c-4.879,0-8.828,3.948-8.828,8.828c0,4.879,3.948,8.828,8.828,8.828h38.543
	l1.323-10.586c1.618-2.272,2.909-4.686,4.274-7.069H176.552z"/>
<path style="fill:#D29B6E;" d="M222.681,481.103V379.07c0-7.599-4.863-14.346-12.072-16.749l-28.821-9.607
	c-7.209-2.403-12.072-9.15-12.072-16.749v-22.585h-52.966v22.585c0,7.599-4.863,14.346-12.072,16.749l-28.821,9.607
	c-7.209,2.403-12.072,9.15-12.072,16.749v102.034H222.681z"/>
<path style="fill:#5B5D6E;" d="M210.61,362.321l-28.821-9.608c-1.731-0.577-3.308-1.431-4.734-2.461
	c-8.096,9.751-20.157,16.093-33.821,16.093s-25.725-6.342-33.821-16.093c-1.426,1.03-3.002,1.885-4.734,2.461l-28.821,9.608
	c-7.21,2.403-12.072,9.15-12.072,16.749v102.034h158.897V379.07C222.681,371.47,217.818,364.724,210.61,362.321z"/>
<ellipse style="fill:#694B4B;" cx="143.239" cy="238.345" rx="70.621" ry="66.207"/>
<path style="fill:#5A4146;" d="M160.297,174.165c-5.474-1.276-11.169-2.027-17.064-2.027c-39.002,0-70.621,29.642-70.621,66.207
	c0,31.398,23.338,57.632,54.621,64.436c0-11.361,0-28.264,0-53.401C127.233,211.138,145.646,187.209,160.297,174.165z"/>
<path style="fill:#F0C087;" d="M187.747,308.777l-28.723,14.361c-9.941,4.97-21.642,4.97-31.583,0l-28.723-14.361
	c-5.28-2.639-8.89-7.744-9.623-13.601l-5.362-42.893c-0.632-5.056,3.108-9.569,8.192-9.901c16.454-1.077,50.767-5.207,71.922-21.047
	c3.567-2.671,8.547-2.201,11.596,1.05l24.542,26.174c1.795,1.914,2.645,4.529,2.319,7.133l-4.936,39.484
	C196.639,301.034,193.027,306.137,187.747,308.777z"/>
<path style="fill:#E6AF78;" d="M199.987,248.558l-24.543-26.174c-0.814-0.87-1.783-1.506-2.809-1.971
	c-0.337-0.152-0.703-0.184-1.054-0.292c-0.713-0.218-1.43-0.413-2.17-0.445c-0.632-0.026-1.26,0.055-1.886,0.168
	c-0.318,0.057-0.641,0.06-0.953,0.152c-0.953,0.286-1.881,0.708-2.721,1.337c-21.191,15.866-55.588,19.983-72.008,21.053
	c-5.113,0.333-8.742,4.812-8.106,9.896l5.362,42.892c0.733,5.858,4.343,10.962,9.623,13.602l28.723,14.361
	c4.289,2.144,8.919,3.178,13.58,3.473l-10.783-21.567c-3.064-6.13-4.66-12.888-4.66-19.741v-22.735c0-4.109,2.849-7.597,6.836-8.594
	c12.089-3.022,24.524-7.443,35.322-13.997l19.371,20.66c2.862,3.053,6.91,6.528,13.806,6.196l1.393-11.142
	C202.632,253.087,201.781,250.473,199.987,248.558z"/>
<path style="fill:#464655;" d="M213.854,154.483v52.966c0,4.879,3.948,8.828,8.828,8.828c4.879,0,8.828-3.948,8.828-8.828v-52.966
	H213.854z"/>
<path style="fill:#5B5D6E;" d="M196.199,163.31H90.268l-6.756,27.027c-1.154,4.619,1.561,9.321,6.138,10.628l48.733,13.923
	c3.17,0.906,6.53,0.906,9.7,0l48.733-13.923c4.578-1.308,7.294-6.01,6.138-10.628L196.199,163.31z"/>
<path style="fill:#464655;" d="M90.268,163.31l-6.758,27.027c-1.154,4.619,1.561,9.321,6.138,10.628l48.734,13.924
	c1.586,0.452,3.218,0.68,4.851,0.68V163.31H90.268z"/>
<path style="fill:#707487;" d="M136.265,128.969L57.303,151.32c-3.103,0.878-3.103,5.447,0,6.326l78.962,22.351
	c4.562,1.291,9.374,1.291,13.937,0l78.962-22.351c3.103-0.878,3.103-5.447,0-6.326l-78.962-22.351
	C145.639,127.677,140.828,127.677,136.265,128.969z"/>
<path style="fill:#D5DCED;" d="M185.379,472.276H97.103c-4.875,0-8.828-3.953-8.828-8.828v-52.966c0-4.875,3.953-8.828,8.828-8.828
	h88.276c4.875,0,8.828,3.953,8.828,8.828v52.966C194.207,468.323,190.254,472.276,185.379,472.276z"/>
<path style="fill:#F5DCB4;" d="M273.655,489.931H8.828c-4.879,0-8.828-3.948-8.828-8.828c0-4.879,3.948-8.828,8.828-8.828h264.828
	c4.879,0,8.828,3.948,8.828,8.828C282.483,485.983,278.535,489.931,273.655,489.931z"/>
<circle style="fill:#FFFFFF;" cx="141.241" cy="436.966" r="8.828"/>
<g>
</g>
<g>
</g>
<g>
</g>
<g>
</g>
<g>
</g>
<g>
</g>
<g>
</g>
<g>
</g>
<g>
</g>
<g>
</g>
<g>
</g>
<g>
</g>
<g>
</g>
<g>
</g>
<g>
</g>
</svg>
