<?xml version="1.0" encoding="iso-8859-1"?>
<!-- Generator: Adobe Illustrator 19.0.0, SVG Export Plug-In . SVG Version: 6.00 Build 0)  -->
<svg version="1.1" id="Layer_1" xmlns="http://www.w3.org/2000/svg" xmlns:xlink="http://www.w3.org/1999/xlink" x="0px" y="0px"
	 viewBox="0 0 512 512" style="enable-background:new 0 0 512 512;" xml:space="preserve">
<path style="fill:#694B4B;" d="M256,26.483c-88.322,0-108.398,88.7-109.216,199.272c-0.034,4.6,2.669,8.744,6.813,10.68
	c15.607,7.293,43.341,12.93,64.886,16.28h75.034c21.544-3.35,49.279-8.988,64.886-16.28c4.142-1.935,6.847-6.079,6.813-10.68
	C364.398,115.182,344.322,26.483,256,26.483z"/>
<path style="fill:#5A4146;" d="M146.784,225.754c-0.034,4.6,2.669,8.744,6.813,10.68c15.607,7.293,43.341,12.93,64.886,16.28H256
	V123.586c0,0-43.874,2.141-35.31,0c35.31-8.828,105.931-52.966,64.86-93.194c-8.883-2.554-18.696-3.91-29.549-3.91
	C167.678,26.483,147.602,115.182,146.784,225.754z"/>
<path style="fill:#D29B6E;" d="M388.619,459.034V323.062c0-14.254-8.572-27.112-21.729-32.594l-62.283-25.951
	c-5.814-2.422-9.601-8.104-9.601-14.402v-18.852h-78.012v18.852c0,6.298-3.787,11.979-9.601,14.402l-62.283,25.951
	c-13.159,5.483-21.729,18.339-21.729,32.594v135.972H388.619z"/>
<path style="fill:#FFDC64;" d="M366.89,290.468l-43.784-18.243c-16.119,19.453-32.1,34.13-46.014,44.888h-42.184
	c-13.913-10.759-29.895-25.436-46.014-44.888l-43.784,18.243c-13.159,5.482-21.729,18.339-21.729,32.594v135.972H388.62V323.062
	C388.619,308.807,380.047,295.95,366.89,290.468z"/>
<g>
	<path style="fill:#FFC850;" d="M128.448,305c-3.203,5.362-5.067,11.544-5.067,18.062v135.972h53.171V353.103L128.448,305z"/>
	<path style="fill:#FFC850;" d="M383.552,305c3.203,5.362,5.067,11.544,5.067,18.062v135.972h-53.171V353.103L383.552,305z"/>
</g>
<path style="fill:#F0C087;" d="M333.43,134.295l-5.726,62.977c-0.935,10.283-6.895,19.438-15.922,24.452l-40.628,22.571
	c-9.425,5.236-20.884,5.236-30.308,0l-40.628-22.571c-9.026-5.014-14.987-14.169-15.922-24.452l-5.528-60.814
	c-0.429-4.716,2.926-8.914,7.63-9.463c20.835-2.432,75.559-10.059,108.679-26.144c4.189-2.035,9.102-0.394,11.424,3.642
	c3.797,6.599,10.804,15.829,22.298,21.303C331.979,127.311,333.749,130.787,333.43,134.295z"/>
<path style="fill:#F5DCB4;" d="M503.172,485.517H8.828c-4.875,0-8.828-3.953-8.828-8.828v-17.655c0-4.875,3.953-8.828,8.828-8.828
	h494.345c4.875,0,8.828,3.953,8.828,8.828v17.655C512,481.565,508.047,485.517,503.172,485.517z"/>
<path style="fill:#E6AF78;" d="M178.767,136.459l5.528,60.814c0.935,10.283,6.895,19.437,15.922,24.452l40.628,22.571
	c3.719,2.066,7.776,3.078,11.878,3.512l-11.433-28.58c-1.953-4.884-3.168-10.03-3.605-15.272l-4.86-58.311
	c-0.372-4.468,2.654-8.463,7.043-9.374c18.807-3.9,38.927-9.203,55.668-16.262c5.521,7.633,13.789,16.068,25.671,21.727
	c2.382,1.134,3.513,1.651,11.336,2.293l0.885-9.736c0.32-3.524-1.481-6.994-4.674-8.519c-11.469-5.476-18.463-14.691-22.254-21.281
	c-2.322-4.036-7.236-5.677-11.425-3.642c-33.12,16.086-87.842,23.712-108.679,26.144
	C181.694,127.545,178.338,131.742,178.767,136.459z"/>
<path style="fill:#FFC850;" d="M175.299,283.489c15.073,18.19,31.495,34.202,48.808,47.591l4.77,3.689h6.03h42.184h6.03l4.77-3.689
	c17.314-13.388,33.736-29.4,48.808-47.591l3.449-4.162l-17.044-7.102c-16.119,19.453-32.1,34.13-46.014,44.888h-42.184
	c-13.913-10.759-29.895-25.436-46.014-44.888l-17.044,7.102L175.299,283.489z"/>
<path style="fill:#D5DCED;" d="M335.448,450.207H176.552c-9.751,0-17.655-7.904-17.655-17.655V326.621
	c0-9.751,7.904-17.655,17.655-17.655h158.897c9.751,0,17.655,7.904,17.655,17.655v105.931
	C353.103,442.303,345.199,450.207,335.448,450.207z"/>
<circle style="fill:#FFFFFF;" cx="256" cy="379.586" r="17.655"/>
<g>
</g>
<g>
</g>
<g>
</g>
<g>
</g>
<g>
</g>
<g>
</g>
<g>
</g>
<g>
</g>
<g>
</g>
<g>
</g>
<g>
</g>
<g>
</g>
<g>
</g>
<g>
</g>
<g>
</g>
</svg>
