<?xml version="1.0" encoding="iso-8859-1"?>
<!-- Generator: Adobe Illustrator 19.0.0, SVG Export Plug-In . SVG Version: 6.00 Build 0)  -->
<svg version="1.1" id="Layer_1" xmlns="http://www.w3.org/2000/svg" xmlns:xlink="http://www.w3.org/1999/xlink" x="0px" y="0px"
	 viewBox="0 0 511.999 511.999" style="enable-background:new 0 0 511.999 511.999;" xml:space="preserve">
<rect x="300.086" y="83.505" style="fill:#464655;" width="17.659" height="79.467"/>
<path style="fill:#694B4B;" d="M167.645,92.334c-58.518,0-105.956,47.437-105.956,105.956c0,26.873,26.489,220.741,26.489,220.741
	h158.934c0,0,26.489-193.868,26.489-220.741C273.601,139.771,226.162,92.334,167.645,92.334z"/>
<path style="fill:#5A4146;" d="M269.523,169.454c-12.571-44.485-53.371-77.121-101.88-77.121
	c-58.518,0-105.956,47.437-105.956,105.956c0,26.873,26.489,220.741,26.489,220.741h113.889V188.292l59.201-15.041
	C264.3,172.48,267.051,171.142,269.523,169.454z"/>
<path style="fill:#D29B6E;" d="M301.447,385.749l-78.788-32.829c-6.58-2.742-10.867-9.172-10.867-16.302v-21.338h-88.296v21.338
	c0,7.129-4.287,13.559-10.867,16.302L33.84,385.749c-9.87,4.112-16.301,13.758-16.301,24.451v35.319
	c0,9.752,7.907,17.659,17.659,17.659h264.889c9.752,0,17.659-7.907,17.659-17.659v-35.319
	C317.749,399.507,311.319,389.862,301.447,385.749z"/>
<path style="fill:#464655;" d="M301.447,385.749l-72.821-30.342l-43.323,37.134h-35.319l-48.795-34.854L33.84,385.749
	c-9.87,4.112-16.301,13.758-16.301,24.451v35.319c0,9.752,7.907,17.659,17.659,17.659h264.889c9.752,0,17.659-7.907,17.659-17.659
	v-35.319C317.749,399.507,311.319,389.862,301.447,385.749z"/>
<path style="fill:#F0C087;" d="M255.941,215.949h-1.606l0.992-10.921c0.361-3.976-2.036-7.584-5.737-9.08
	c-12.48-5.048-22.574-11.757-29.182-16.822c-5.313-4.073-12.366-4.408-18.342-1.391c-32.326,16.323-90.707,19.682-113.37,20.374
	c-5.074,0.155-8.95,4.569-8.49,9.623l0.747,8.215h-1.606c-9.753,0-17.659,7.906-17.659,17.659v17.659
	c0,9.753,7.906,17.659,17.659,17.659h6.421l0.716,7.885c1.058,11.64,7.805,22.001,18.022,27.678l45.984,25.546
	c10.667,5.926,23.637,5.926,34.304,0l45.984-25.546c10.217-5.675,16.964-16.038,18.022-27.678l0.716-7.885h6.421
	c9.753,0,17.659-7.906,17.659-17.659v-17.659C273.601,223.855,265.694,215.949,255.941,215.949z"/>
<path style="fill:#EFF2FA;" d="M427.789,216.783c-55.889-7.205-103.912,33.149-109.424,86.142c-0.178,1.705-0.822,3.332-1.92,4.65
	l-27.981,33.578c-2.396,2.875-0.351,7.241,3.392,7.241h26.827c3.515,0,6.585,2.138,8.058,5.329
	c15.386,33.322,49.021,56.479,88.133,56.479c57.381,0,103.139-49.759,96.48-108.481
	C506.404,258.057,471.369,222.401,427.789,216.783z"/>
<circle style="fill:#59D8FF;" cx="414.871" cy="313.076" r="61.807"/>
<path style="fill:#E6AF78;" d="M249.591,195.946c-12.48-5.048-22.574-11.757-29.181-16.82c-5.313-4.073-12.366-4.408-18.342-1.391
	c-32.326,16.323-90.707,19.682-113.37,20.374c-5.074,0.155-8.95,4.569-8.49,9.623l0.747,8.215h-1.606
	c-9.753,0-17.659,7.906-17.659,17.659v17.659c0,9.753,7.906,17.659,17.659,17.659h6.421l0.716,7.884
	c1.058,11.64,7.805,22.001,18.022,27.678l45.984,25.546c5.193,2.885,10.932,4.34,16.686,4.415l-19.623-29.435
	c-4.196-6.294-6.704-13.56-7.284-21.103l-4.846-62.994c-0.361-4.691,3.022-8.792,7.683-9.433
	c23.225-3.192,48.262-8.66,66.965-18.052c8.937,6.792,22.955,15.834,40.284,21.609l2.997,0.999l0.977-0.031l0.998-10.983
	C255.688,201.051,253.291,197.443,249.591,195.946z"/>
<g>
	<path style="fill:#5B5D6E;" d="M234.979,347.854c-2.939-4.408-9.07-5.254-13.093-1.806l-48.496,41.568
		c-3.307,2.834-8.186,2.834-11.493,0l-48.496-41.568c-4.023-3.448-10.154-2.601-13.093,1.806l-12.132,18.198l30.197,52.844
		c2.69,4.707,8.948,5.902,13.182,2.514l20.085-16.068c2.891-2.312,7.173-0.255,7.173,3.447v54.388h17.659v-54.388
		c0-3.702,4.282-5.76,7.173-3.447l20.085,16.068c4.234,3.387,10.492,2.193,13.182-2.514l30.197-52.844L234.979,347.854z"/>
	<path style="fill:#5B5D6E;" d="M60.987,419.917l-34.918-29.098c-5.309,4.923-8.529,11.87-8.529,19.382v35.319
		c0,9.753,7.906,17.659,17.659,17.659h35.319v-22.912C70.519,432.405,67.027,424.95,60.987,419.917z"/>
	<path style="fill:#5B5D6E;" d="M274.301,419.917l34.918-29.098c5.309,4.923,8.529,11.87,8.529,19.382v35.319
		c0,9.753-7.906,17.659-17.659,17.659h-35.319v-22.912C264.771,432.405,268.262,424.95,274.301,419.917z"/>
	<path style="fill:#5B5D6E;" d="M80.815,92.334l-8.97,53.795c-0.755,4.529,2.086,8.88,6.535,10.011l82.741,21.022
		c4.28,1.087,8.766,1.087,13.046,0l82.751-21.024c4.444-1.129,7.281-5.475,6.527-9.997l-8.972-53.805H80.815V92.334z"/>
</g>
<path style="fill:#464655;" d="M174.817,135.501l84.172-16.09l0,0l-4.515-27.078H80.815l-8.97,53.795
	c-0.755,4.529,2.086,8.879,6.535,10.011l82.74,21.022c2.14,0.544,4.331,0.816,6.523,0.816v-33.801
	C167.645,139.937,170.655,136.297,174.817,135.501z"/>
<path style="fill:#707487;" d="M161.095,49.444L3.315,79.498c-4.42,0.842-4.42,7.171,0,8.013l157.78,30.053
	c4.366,0.832,8.851,0.832,13.217,0l157.78-30.053c4.42-0.842,4.42-7.171,0-8.013l-157.78-30.054
	C169.946,48.613,165.462,48.613,161.095,49.444z"/>
<path style="fill:#5B5D6E;" d="M308.919,154.141L308.919,154.141c-9.753,0-17.659,7.906-17.659,17.659v26.489
	c0,4.876,3.953,8.83,8.83,8.83h17.659c4.876,0,8.83-3.953,8.83-8.83v-26.489C326.578,162.047,318.671,154.141,308.919,154.141z"/>
<path style="fill:#00C3F0;" d="M450.193,339.564c-34.135,0-61.807-27.672-61.807-61.807c0-7.866,1.528-15.361,4.207-22.282
	c-23.109,8.948-39.526,31.332-39.526,57.6c0,34.135,27.672,61.807,61.807,61.807c26.268,0,48.652-16.417,57.6-39.526
	C465.555,338.036,458.059,339.564,450.193,339.564z"/>
<path style="fill:#D5DCED;" d="M423.704,285.972c13.523-1.698,25.841-7.259,35.885-15.492c-4.243-4.452-9.123-8.28-14.526-11.312
	c-6.299,4.402-13.478,7.63-21.359,8.96v-16.159c-2.892-0.415-5.823-0.702-8.83-0.702c-3.007,0-5.938,0.287-8.83,0.702v16.159
	c-7.88-1.331-15.06-4.558-21.359-8.96c-5.403,3.032-10.282,6.86-14.525,11.312c10.045,8.233,22.361,13.794,35.884,15.492v18.273
	h-52.276c-0.415,2.892-0.702,5.823-0.702,8.83c0,3.007,0.287,5.938,0.702,8.83h52.276v18.273
	c-13.522,1.697-25.84,7.259-35.884,15.492c4.243,4.452,9.122,8.279,14.525,11.312c6.299-4.402,13.478-7.629,21.36-8.96v16.159
	c2.892,0.415,5.823,0.702,8.83,0.702s5.938-0.287,8.83-0.702v-16.159c7.88,1.331,15.061,4.558,21.36,8.96
	c5.403-3.032,10.282-6.859,14.525-11.312c-10.045-8.233-22.361-13.794-35.884-15.492v-18.273h52.276
	c0.415-2.892,0.702-5.823,0.702-8.83c0-3.006-0.287-5.938-0.702-8.83h-52.276v-18.273H423.704z"/>
<g>
	<path style="fill:#C7CFE2;" d="M370.16,355.668c4.243,4.452,9.122,8.279,14.525,11.312c6.299-4.402,13.478-7.629,21.36-8.96v16.159
		c2.892,0.415,5.823,0.702,8.83,0.702c3.004,0,5.941-0.273,8.83-0.688v-16.175c7.829,1.322,14.964,4.517,21.234,8.873
		c5.413-3.041,10.291-6.852,14.538-11.321c-10.024-8.182-22.301-13.705-35.772-15.396v-6.641
		c-12.825-6.102-23.189-16.465-29.291-29.291h-40.659c-0.415,2.888-0.688,5.825-0.688,8.83c0,3.006,0.287,5.938,0.702,8.83h52.276
		v18.273C392.523,341.874,380.204,347.435,370.16,355.668z"/>
	<path style="fill:#C7CFE2;" d="M384.744,259.21c-5.411,3.029-10.324,6.829-14.576,11.278c5.506,4.512,11.695,8.206,18.4,10.906
		c-0.071-1.211-0.184-2.409-0.184-3.638c0-5.213,0.725-10.241,1.958-15.069C388.385,261.658,386.548,260.468,384.744,259.21z"/>
</g>
<g>
</g>
<g>
</g>
<g>
</g>
<g>
</g>
<g>
</g>
<g>
</g>
<g>
</g>
<g>
</g>
<g>
</g>
<g>
</g>
<g>
</g>
<g>
</g>
<g>
</g>
<g>
</g>
<g>
</g>
</svg>
