<?xml version="1.0" encoding="iso-8859-1"?>
<!-- Generator: Adobe Illustrator 19.0.0, SVG Export Plug-In . SVG Version: 6.00 Build 0)  -->
<svg version="1.1" id="Layer_1" xmlns="http://www.w3.org/2000/svg" xmlns:xlink="http://www.w3.org/1999/xlink" x="0px" y="0px"
	 viewBox="0 0 512 512" style="enable-background:new 0 0 512 512;" xml:space="preserve">
<path style="fill:#707487;" d="M484.571,365.714H27.429c-10.099,0-18.286-8.186-18.286-18.286V18.286C9.143,8.186,17.329,0,27.429,0
	h457.143c10.099,0,18.286,8.186,18.286,18.286v329.143C502.857,357.528,494.671,365.714,484.571,365.714z"/>
<path style="fill:#5B5D6E;" d="M337.893,311.066c-1.407-0.141-2.801-0.209-4.178-0.209c-5.882,0-11.481,1.241-16.547,3.475
	c-6.534-6.837-15.267-11.435-24.989-12.408c-1.407-0.142-2.801-0.21-4.178-0.21c-5.798,0-11.411,1.191-16.565,3.457
	c-6.531-6.829-15.258-11.418-24.971-12.391c-1.407-0.141-2.801-0.209-4.178-0.209c-1.539,0-3.064,0.083-4.571,0.249v-85.803
	c0-21.609-16.237-40.162-36.965-42.237c-1.407-0.141-2.801-0.209-4.178-0.209l0,0c-10.99,0-21.322,4.279-29.093,12.05
	c-7.77,7.77-12.05,18.103-12.05,29.093v160h219.429v-12.411C374.857,331.694,358.621,313.142,337.893,311.066z"/>
<path style="fill:#FFFFFF;" d="M170.137,338.286H45.714c-5.049,0-9.143-4.094-9.143-9.143V36.571c0-5.049,4.094-9.143,9.143-9.143
	h420.571c5.049,0,9.143,4.094,9.143,9.143v292.571c0,5.049-4.094,9.143-9.143,9.143H309.665"/>
<path style="fill:#E4EAF8;" d="M372.112,338.286c-5.451-14.627-18.533-25.649-34.218-27.219c-1.408-0.141-2.802-0.209-4.179-0.209
	c-5.882,0-11.481,1.241-16.547,3.475c-6.534-6.837-15.267-11.435-24.989-12.408c-1.407-0.142-2.801-0.21-4.178-0.21
	c-5.798,0-11.411,1.191-16.565,3.457c-6.531-6.829-15.258-11.418-24.971-12.391c-1.407-0.141-2.801-0.209-4.178-0.209
	c-1.539,0-3.064,0.083-4.571,0.249v-85.803c0-21.609-16.237-40.162-36.965-42.237c-1.407-0.141-2.801-0.209-4.178-0.209l0,0
	c-10.99,0-21.322,4.279-29.093,12.05c-7.77,7.77-12.05,18.103-12.05,29.093v132.571H372.112z"/>
<path style="fill:#C84146;" d="M420.571,91.429H182.857c-5.054,0-9.143-4.089-9.143-9.143s4.089-9.143,9.143-9.143h237.714
	c5.054,0,9.143,4.089,9.143,9.143S425.625,91.429,420.571,91.429z"/>
<path style="fill:#5B5D6E;" d="M420.571,201.143h-82.286c-5.054,0-9.143-4.089-9.143-9.143s4.089-9.143,9.143-9.143h82.286
	c5.054,0,9.143,4.089,9.143,9.143S425.625,201.143,420.571,201.143z"/>
<g>
	<path style="fill:#7F8499;" d="M301.714,201.143h-36.571c-5.054,0-9.143-4.089-9.143-9.143s4.089-9.143,9.143-9.143h36.571
		c5.054,0,9.143,4.089,9.143,9.143S306.768,201.143,301.714,201.143z"/>
	<path style="fill:#7F8499;" d="M393.143,237.714h-128c-5.054,0-9.143-4.089-9.143-9.143s4.089-9.143,9.143-9.143h128
		c5.054,0,9.143,4.089,9.143,9.143S398.197,237.714,393.143,237.714z"/>
	<path style="fill:#7F8499;" d="M393.143,274.286h-18.286c-5.054,0-9.143-4.089-9.143-9.143s4.089-9.143,9.143-9.143h18.286
		c5.054,0,9.143,4.089,9.143,9.143S398.197,274.286,393.143,274.286z"/>
</g>
<path style="fill:#5B5D6E;" d="M338.286,274.286h-73.143c-5.054,0-9.143-4.089-9.143-9.143s4.089-9.143,9.143-9.143h73.143
	c5.054,0,9.143,4.089,9.143,9.143S343.339,274.286,338.286,274.286z"/>
<path style="fill:#FF5050;" d="M301.714,128H182.857c-5.054,0-9.143-4.089-9.143-9.143s4.089-9.143,9.143-9.143h118.857
	c5.054,0,9.143,4.089,9.143,9.143S306.768,128,301.714,128z"/>
<path style="fill:#F0C087;" d="M356.571,420.571v-67.269c0-11.957-8.603-22.851-20.501-24.042
	c-13.681-1.369-25.214,9.338-25.214,22.739v-7.84c0-11.957-8.603-22.851-20.501-24.042c-13.681-1.369-25.214,9.338-25.214,22.739
	v-7.84c0-11.957-8.603-22.851-20.501-24.042c-13.681-1.369-25.214,9.338-25.214,22.739V207.017c0-11.957-8.603-22.851-20.501-24.042
	c-13.681-1.369-25.214,9.338-25.214,22.739v214.857c0,50.495,40.934,91.429,91.429,91.429l0,0
	C315.638,512,356.571,471.066,356.571,420.571z"/>
<g>
	<path style="fill:#E6AF78;" d="M192,420.571V205.714c0-9.331,5.649-17.251,13.664-20.802c-2.096-0.967-4.325-1.695-6.736-1.936
		c-13.681-1.37-25.214,9.337-25.214,22.738v214.857c0,50.495,40.934,91.429,91.429,91.429c3.087,0,6.135-0.163,9.143-0.462
		C228.085,506.95,192,467.979,192,420.571z"/>
	<path style="fill:#E6AF78;" d="M228.571,347.429c5.049,0,9.143-4.094,9.143-9.143v-4.571c0-9.331,5.649-17.251,13.664-20.802
		c-2.096-0.967-4.325-1.695-6.736-1.936c-13.681-1.37-25.214,9.337-25.214,22.738v4.571
		C219.429,343.335,223.522,347.429,228.571,347.429L228.571,347.429z"/>
	<path style="fill:#E6AF78;" d="M274.286,356.571c5.049,0,9.143-4.094,9.143-9.143v-4.571c0-9.331,5.649-17.251,13.664-20.802
		c-2.096-0.967-4.325-1.695-6.736-1.936c-13.681-1.37-25.214,9.337-25.214,22.738v4.571
		C265.143,352.478,269.237,356.571,274.286,356.571L274.286,356.571z"/>
	<path style="fill:#E6AF78;" d="M320,365.714c5.049,0,9.143-4.094,9.143-9.143V352c0-9.331,5.649-17.251,13.664-20.802
		c-2.096-0.967-4.325-1.695-6.736-1.936c-13.681-1.37-25.214,9.337-25.214,22.738v4.571
		C310.857,361.621,314.951,365.714,320,365.714L320,365.714z"/>
</g>
<path style="fill:#FF5050;" d="M82.286,27.429v119.431c0,3.663,4.082,5.848,7.13,3.816l20.298-13.533l20.298,13.533
	c3.048,2.032,7.13-0.153,7.13-3.816V27.429H82.286z"/>
<path style="fill:#C84146;" d="M82.286,27.429v119.431c0,3.663,4.082,5.848,7.13,3.816l20.298-13.533V27.429H82.286z"/>
<g>
</g>
<g>
</g>
<g>
</g>
<g>
</g>
<g>
</g>
<g>
</g>
<g>
</g>
<g>
</g>
<g>
</g>
<g>
</g>
<g>
</g>
<g>
</g>
<g>
</g>
<g>
</g>
<g>
</g>
</svg>
