<?xml version="1.0" encoding="iso-8859-1"?>
<!-- Generator: Adobe Illustrator 19.0.0, SVG Export Plug-In . SVG Version: 6.00 Build 0)  -->
<svg version="1.1" id="Layer_1" xmlns="http://www.w3.org/2000/svg" xmlns:xlink="http://www.w3.org/1999/xlink" x="0px" y="0px"
	 viewBox="0 0 512 512" style="enable-background:new 0 0 512 512;" xml:space="preserve">
<path style="fill:#E4EAF8;" d="M494.345,472.276H17.655C7.904,472.276,0,464.372,0,454.621V57.379
	c0-9.751,7.904-17.655,17.655-17.655h476.69c9.751,0,17.655,7.904,17.655,17.655v397.241
	C512,464.372,504.096,472.276,494.345,472.276z"/>
<path style="fill:#D5DCED;" d="M512,83.862H0V57.379c0-9.751,7.904-17.655,17.655-17.655h476.69c9.751,0,17.655,7.904,17.655,17.655
	V83.862z"/>
<g>
	<path style="fill:#FFFFFF;" d="M467.862,260.414H44.138c-4.875,0-8.828-3.953-8.828-8.828V128c0-4.875,3.953-8.828,8.828-8.828
		h423.724c4.875,0,8.828,3.953,8.828,8.828v123.586C476.69,256.461,472.737,260.414,467.862,260.414z"/>
	<path style="fill:#FFFFFF;" d="M467.862,436.966H44.138c-4.875,0-8.828-3.953-8.828-8.828V304.552c0-4.875,3.953-8.828,8.828-8.828
		h423.724c4.875,0,8.828,3.953,8.828,8.828v123.586C476.69,433.013,472.737,436.966,467.862,436.966z"/>
</g>
<path style="fill:#00C3FF;" d="M158.897,260.414H44.138c-4.875,0-8.828-3.953-8.828-8.828V128c0-4.875,3.953-8.828,8.828-8.828
	h114.759c4.875,0,8.828,3.953,8.828,8.828v123.586C167.724,256.461,163.772,260.414,158.897,260.414z"/>
<path style="fill:#7DF5A5;" d="M158.897,436.966H44.138c-4.875,0-8.828-3.953-8.828-8.828V304.552c0-4.875,3.953-8.828,8.828-8.828
	h114.759c4.875,0,8.828,3.953,8.828,8.828v123.586C167.724,433.013,163.772,436.966,158.897,436.966z"/>
<g>
	<path style="fill:#FFFFFF;" d="M132.414,154.483h-22.069c0-4.875-3.948-8.828-8.828-8.828c-4.879,0-8.828,3.953-8.828,8.828H70.621
		c-4.879,0-8.828,3.953-8.828,8.828s3.948,8.828,8.828,8.828h35.903c-0.759,4.676-2.179,10.696-4.874,17.015
		c-0.366-0.857-0.845-1.588-1.184-2.476c-1.732-4.561-6.819-6.845-11.388-5.112c-4.561,1.732-6.845,6.831-5.112,11.388
		c1.817,4.777,4.02,9.234,6.546,13.377c-3.965,4.16-8.834,7.914-14.881,10.817c-4.396,2.108-6.25,7.38-4.138,11.776
		c1.517,3.164,4.672,5.009,7.966,5.009c1.276,0,2.578-0.28,3.81-0.871c7.334-3.519,13.325-7.947,18.311-12.82
		c5.32,5.209,11.383,9.555,18.189,12.82c1.233,0.595,2.535,0.871,3.81,0.871c3.293,0,6.449-1.845,7.966-5.009
		c2.112-4.396,0.258-9.668-4.138-11.776c-5.673-2.722-10.546-6.446-14.786-10.914c7.616-12.597,10.614-25.709,11.737-34.094h8.056
		c4.879,0,8.828-3.953,8.828-8.828S137.293,154.483,132.414,154.483z"/>
	<path style="fill:#FFFFFF;" d="M140.974,399.513l-15.982-63.935c-1.966-7.876-9.01-13.372-17.13-13.372h-12.69
		c-8.12,0-15.164,5.495-17.129,13.37l-15.982,63.935c-1.19,4.733,1.689,9.526,6.422,10.707c4.698,1.176,9.517-1.703,10.698-6.422
		l2.743-10.969h39.187l2.742,10.969c1,4.009,4.595,6.69,8.552,6.686c0.707,0,1.431-0.082,2.146-0.263
		C139.285,409.038,142.164,404.246,140.974,399.513z M86.34,375.172l8.832-35.31h12.698l8.828,35.31H86.34z"/>
</g>
<path style="fill:#5B5D6E;" d="M300.138,172.138h-88.276c-4.879,0-8.828-3.953-8.828-8.828s3.948-8.828,8.828-8.828h88.276
	c4.879,0,8.828,3.953,8.828,8.828S305.017,172.138,300.138,172.138z"/>
<g>
	<path style="fill:#707487;" d="M370.759,207.448H211.862c-4.879,0-8.828-3.953-8.828-8.828c0-4.875,3.948-8.828,8.828-8.828
		h158.897c4.879,0,8.828,3.953,8.828,8.828C379.586,203.496,375.638,207.448,370.759,207.448z"/>
	<path style="fill:#707487;" d="M406.069,172.138h-70.621c-4.879,0-8.828-3.953-8.828-8.828s3.948-8.828,8.828-8.828h70.621
		c4.879,0,8.828,3.953,8.828,8.828S410.948,172.138,406.069,172.138z"/>
</g>
<path style="fill:#5B5D6E;" d="M282.483,348.69h-70.621c-4.879,0-8.828-3.953-8.828-8.828s3.948-8.828,8.828-8.828h70.621
	c4.879,0,8.828,3.953,8.828,8.828S287.362,348.69,282.483,348.69z"/>
<g>
	<path style="fill:#707487;" d="M335.448,384H211.862c-4.879,0-8.828-3.953-8.828-8.828s3.948-8.828,8.828-8.828h123.586
		c4.879,0,8.828,3.953,8.828,8.828S340.328,384,335.448,384z"/>
	<path style="fill:#707487;" d="M388.414,348.69h-70.621c-4.879,0-8.828-3.953-8.828-8.828s3.948-8.828,8.828-8.828h70.621
		c4.879,0,8.828,3.953,8.828,8.828S393.293,348.69,388.414,348.69z"/>
</g>
<path style="fill:#E4EAF8;" d="M26.483,75.034h-8.828c-4.875,0-8.828-3.953-8.828-8.828v-8.828c0-4.875,3.953-8.828,8.828-8.828
	h8.828c4.875,0,8.828,3.953,8.828,8.828v8.828C35.31,71.082,31.358,75.034,26.483,75.034z"/>
<path style="fill:#FF5050;" d="M423.724,75.034h-8.828c-4.875,0-8.828-3.953-8.828-8.828v-8.828c0-4.875,3.953-8.828,8.828-8.828
	h8.828c4.875,0,8.828,3.953,8.828,8.828v8.828C432.552,71.082,428.599,75.034,423.724,75.034z"/>
<path style="fill:#FFF082;" d="M459.034,75.034h-8.828c-4.875,0-8.828-3.953-8.828-8.828v-8.828c0-4.875,3.953-8.828,8.828-8.828
	h8.828c4.875,0,8.828,3.953,8.828,8.828v8.828C467.862,71.082,463.91,75.034,459.034,75.034z"/>
<path style="fill:#A0FFB4;" d="M494.345,75.034h-8.828c-4.875,0-8.828-3.953-8.828-8.828v-8.828c0-4.875,3.953-8.828,8.828-8.828
	h8.828c4.875,0,8.828,3.953,8.828,8.828v8.828C503.172,71.082,499.22,75.034,494.345,75.034z"/>
<g>
</g>
<g>
</g>
<g>
</g>
<g>
</g>
<g>
</g>
<g>
</g>
<g>
</g>
<g>
</g>
<g>
</g>
<g>
</g>
<g>
</g>
<g>
</g>
<g>
</g>
<g>
</g>
<g>
</g>
</svg>
