<?xml version="1.0" encoding="iso-8859-1"?>
<!-- Generator: Adobe Illustrator 19.0.0, SVG Export Plug-In . SVG Version: 6.00 Build 0)  -->
<svg version="1.1" id="Layer_1" xmlns="http://www.w3.org/2000/svg" xmlns:xlink="http://www.w3.org/1999/xlink" x="0px" y="0px"
	 viewBox="0 0 512 512" style="enable-background:new 0 0 512 512;" xml:space="preserve">
<path style="fill:#E4EAF8;" d="M97.103,17.655C97.103,7.904,105.007,0,114.759,0h264.828l88.276,88.276v406.069
	c0,9.751-7.904,17.655-17.655,17.655H114.759c-9.751,0-17.655-7.904-17.655-17.655V17.655z"/>
<g>
	<path style="fill:#D5DCED;" d="M379.586,0v70.621c0,9.75,7.905,17.655,17.655,17.655h70.621L379.586,0z"/>
	<path style="fill:#D5DCED;" d="M300.138,467.862H97.103V308.966h203.034c19.501,0,35.31,15.809,35.31,35.31v88.276
		C335.448,452.053,319.639,467.862,300.138,467.862z"/>
</g>
<path style="fill:#707487;" d="M300.138,450.207H61.793c-9.751,0-17.655-7.904-17.655-17.655v-88.276
	c0-9.751,7.904-17.655,17.655-17.655h238.345c9.751,0,17.655,7.904,17.655,17.655v88.276
	C317.793,442.303,309.889,450.207,300.138,450.207z"/>
<path style="fill:#7F8499;" d="M215.559,248.11l-25.822,11.066c-4.761,2.04-9.575-2.773-7.534-7.534l11.066-25.822
	c1.327-3.096,3.233-5.912,5.615-8.294l109.011-109.011c3.447-3.447,9.037-3.447,12.484,0l12.484,12.484
	c3.447,3.447,3.447,9.037,0,12.484L223.853,242.496C221.47,244.877,218.655,246.783,215.559,248.11z"/>
<g>
	<path style="fill:#FFFFFF;" d="M208.69,355.147c-3.767-3.112-9.311-2.612-12.439,1.129l-15.285,18.342l-15.285-18.342
		c-3.121-3.742-8.681-4.242-12.439-1.129c-3.742,3.121-4.25,8.69-1.129,12.439l17.356,20.828l-17.356,20.828
		c-3.121,3.75-2.612,9.319,1.129,12.439c1.655,1.37,3.656,2.044,5.646,2.044c2.535,0,5.043-1.078,6.793-3.172l15.285-18.342
		l15.285,18.342c1.75,2.094,4.258,3.172,6.793,3.172c1.992,0,3.991-0.672,5.646-2.044c3.742-3.121,4.25-8.69,1.129-12.439
		l-17.356-20.828l17.356-20.828C212.94,363.837,212.431,358.268,208.69,355.147z"/>
	<path style="fill:#FFFFFF;" d="M132.414,353.103H79.448c-4.879,0-8.828,3.948-8.828,8.828s3.948,8.828,8.828,8.828h17.655v44.138
		c0,4.879,3.948,8.828,8.828,8.828c4.879,0,8.828-3.948,8.828-8.828v-44.138h17.655c4.879,0,8.828-3.948,8.828-8.828
		S137.293,353.103,132.414,353.103z"/>
	<path style="fill:#FFFFFF;" d="M282.483,353.103h-52.966c-4.879,0-8.828,3.948-8.828,8.828s3.948,8.828,8.828,8.828h17.655v44.138
		c0,4.879,3.948,8.828,8.828,8.828c4.879,0,8.828-3.948,8.828-8.828v-44.138h17.655c4.879,0,8.828-3.948,8.828-8.828
		S287.362,353.103,282.483,353.103z"/>
</g>
<path style="fill:#5B5D6E;" d="M379.586,273.655H238.345c-4.879,0-8.828-3.948-8.828-8.828c0-4.879,3.948-8.828,8.828-8.828h141.241
	c4.879,0,8.828,3.948,8.828,8.828C388.414,269.707,384.466,273.655,379.586,273.655z"/>
<path style="fill:#7F8499;" d="M344.276,238.345h-70.621c-4.879,0-8.828-3.948-8.828-8.828s3.948-8.828,8.828-8.828h70.621
	c4.879,0,8.828,3.948,8.828,8.828S349.155,238.345,344.276,238.345z"/>
<rect x="245.653" y="108.339" transform="matrix(0.7071 0.7071 -0.7071 0.7071 203.0361 -134.0313)" style="fill:#5B5D6E;" width="35.31" height="139.463"/>
<g>
</g>
<g>
</g>
<g>
</g>
<g>
</g>
<g>
</g>
<g>
</g>
<g>
</g>
<g>
</g>
<g>
</g>
<g>
</g>
<g>
</g>
<g>
</g>
<g>
</g>
<g>
</g>
<g>
</g>
</svg>
