<?xml version="1.0" encoding="iso-8859-1"?>
<!-- Generator: Adobe Illustrator 19.0.0, SVG Export Plug-In . SVG Version: 6.00 Build 0)  -->
<svg version="1.1" id="Layer_1" xmlns="http://www.w3.org/2000/svg" xmlns:xlink="http://www.w3.org/1999/xlink" x="0px" y="0px"
	 viewBox="0 0 512 512" style="enable-background:new 0 0 512 512;" xml:space="preserve">
<path style="fill:#F5DCB4;" d="M256,176.552c-4.879,0-8.828,3.953-8.828,8.828v17.655h17.655v-17.655
	C264.828,180.504,260.879,176.552,256,176.552z"/>
<path style="fill:#FAEBC8;" d="M414.897,317.793c4.875,0,8.828-3.953,8.828-8.828v-15.823c0-6.554-3.631-12.57-9.432-15.624
	l-154.18-81.148c-2.574-1.355-5.65-1.355-8.223,0l-154.18,81.148c-5.801,3.053-9.432,9.068-9.432,15.624v15.823
	c0,4.875,3.953,8.828,8.828,8.828h17.655V476.69H97.103c-4.875,0-8.828,3.953-8.828,8.828v17.655c0,4.875,3.953,8.828,8.828,8.828
	h317.793c4.875,0,8.828-3.953,8.828-8.828v-17.655c0-4.875-3.953-8.828-8.828-8.828h-17.655V317.793H414.897z"/>
<path style="fill:#C7CFE2;" d="M349.63,56.439c-2.259,0-4.518-0.862-6.241-2.586c-23.346-23.34-54.38-36.198-87.389-36.198
	s-64.043,12.857-87.388,36.199c-3.448,3.448-9.035,3.448-12.483,0s-3.448-9.035,0-12.483C182.802,14.694,218.276,0,256,0
	s73.198,14.694,99.871,41.37c3.448,3.448,3.448,9.035,0,12.483C354.146,55.577,351.887,56.439,349.63,56.439z"/>
<path style="fill:#AFB9D2;" d="M318.422,87.647c-2.259,0-4.518-0.862-6.241-2.586c-30.983-30.974-81.379-30.974-112.362,0
	c-3.448,3.448-9.035,3.448-12.483,0c-3.448-3.448-3.448-9.035,0-12.483c37.863-37.863,99.466-37.863,137.327,0
	c3.448,3.448,3.448,9.035,0,12.483C322.94,86.784,320.681,87.647,318.422,87.647z"/>
<path style="fill:#959CB5;" d="M287.207,118.858c-2.259,0-4.518-0.862-6.241-2.586c-13.345-13.336-36.586-13.336-49.931,0
	c-3.448,3.448-9.035,3.448-12.483,0c-3.448-3.444-3.448-9.035,0-12.483C228.552,93.784,241.854,88.276,256,88.276
	s27.448,5.508,37.449,15.513c3.448,3.448,3.448,9.038,0,12.483C291.724,117.996,289.465,118.858,287.207,118.858z"/>
<path style="fill:#7F8499;" d="M256,158.897c-7.302,0-13.241-5.94-13.241-13.241c0-7.302,5.94-13.241,13.241-13.241
	c7.302,0,13.241,5.94,13.241,13.241C269.241,152.957,263.302,158.897,256,158.897z"/>
<path style="fill:#EBC9A0;" d="M282.483,256h-52.966c-4.879,0-8.828-3.953-8.828-8.828s3.948-8.828,8.828-8.828h52.966
	c4.879,0,8.828,3.953,8.828,8.828S287.362,256,282.483,256z"/>
<path style="fill:#F5DCB4;" d="M308.966,291.31H203.034c-4.879,0-8.828-3.953-8.828-8.828s3.948-8.828,8.828-8.828h105.931
	c4.879,0,8.828,3.953,8.828,8.828S313.845,291.31,308.966,291.31z"/>
<g>
	<rect x="273.655" y="317.793" style="fill:#EBC9A0;" width="26.483" height="158.897"/>
	<rect x="211.862" y="317.793" style="fill:#EBC9A0;" width="26.483" height="158.897"/>
	<rect x="150.069" y="317.793" style="fill:#EBC9A0;" width="26.483" height="158.897"/>
</g>
<g>
	<rect x="114.759" y="317.793" style="fill:#F5DCB4;" width="35.31" height="17.655"/>
	<rect x="176.552" y="317.793" style="fill:#F5DCB4;" width="35.31" height="17.655"/>
</g>
<g>
	<rect x="150.069" y="317.793" style="fill:#E1B487;" width="26.483" height="17.655"/>
	<rect x="273.655" y="317.793" style="fill:#E1B487;" width="26.483" height="17.655"/>
	<rect x="211.862" y="317.793" style="fill:#E1B487;" width="26.483" height="17.655"/>
</g>
<g>
	<rect x="238.345" y="317.793" style="fill:#F5DCB4;" width="35.31" height="17.655"/>
	<rect x="300.138" y="317.793" style="fill:#F5DCB4;" width="35.31" height="17.655"/>
	<rect x="361.931" y="317.793" style="fill:#F5DCB4;" width="35.31" height="17.655"/>
	<rect x="114.759" y="459.034" style="fill:#F5DCB4;" width="35.31" height="17.655"/>
	<rect x="176.552" y="459.034" style="fill:#F5DCB4;" width="35.31" height="17.655"/>
	<rect x="238.345" y="459.034" style="fill:#F5DCB4;" width="35.31" height="17.655"/>
	<rect x="300.138" y="459.034" style="fill:#F5DCB4;" width="35.31" height="17.655"/>
	<rect x="361.931" y="459.034" style="fill:#F5DCB4;" width="35.31" height="17.655"/>
</g>
<rect x="335.448" y="317.793" style="fill:#EBC9A0;" width="26.483" height="158.897"/>
<rect x="335.448" y="317.793" style="fill:#E1B487;" width="26.483" height="17.655"/>
<g>
</g>
<g>
</g>
<g>
</g>
<g>
</g>
<g>
</g>
<g>
</g>
<g>
</g>
<g>
</g>
<g>
</g>
<g>
</g>
<g>
</g>
<g>
</g>
<g>
</g>
<g>
</g>
<g>
</g>
</svg>
