<?xml version="1.0" encoding="iso-8859-1"?>
<!-- Generator: Adobe Illustrator 19.0.0, SVG Export Plug-In . SVG Version: 6.00 Build 0)  -->
<svg version="1.1" id="Layer_1" xmlns="http://www.w3.org/2000/svg" xmlns:xlink="http://www.w3.org/1999/xlink" x="0px" y="0px"
	 viewBox="0 0 512 512" style="enable-background:new 0 0 512 512;" xml:space="preserve">
<path style="fill:#5B5D6E;" d="M423.724,0H88.276c-9.75,0-17.655,7.904-17.655,17.655v211.862c0,9.75,7.905,17.655,17.655,17.655
	h97.103v44.138h141.241v-44.138h97.103c9.75,0,17.655-7.905,17.655-17.655V17.655C441.379,7.904,433.474,0,423.724,0z"/>
<rect x="88.276" y="17.655" style="fill:#FF5050;" width="335.448" height="211.862"/>
<polygon style="fill:#707487;" points="467.862,308.966 467.862,388.414 44.138,388.414 44.138,308.966 26.483,308.966 
	26.483,503.172 44.138,503.172 44.138,406.069 467.862,406.069 467.862,503.172 485.517,503.172 485.517,308.966 "/>
<g>
	<rect x="26.483" y="308.966" style="fill:#5B5D6E;" width="17.655" height="26.483"/>
	<rect x="467.862" y="308.966" style="fill:#5B5D6E;" width="17.655" height="26.483"/>
</g>
<path style="fill:#C84146;" d="M388.414,185.379H185.379v17.655h203.034c4.879,0,8.828-3.948,8.828-8.828
	S393.293,185.379,388.414,185.379z"/>
<path style="fill:#E4EAF8;" d="M123.586,185.379c-4.879,0-8.828,3.948-8.828,8.828s3.948,8.828,8.828,8.828h44.138v-17.655H123.586z
	"/>
<g>
	<circle style="fill:#FFFFFF;" cx="176.552" cy="194.207" r="17.655"/>
	<path style="fill:#FFFFFF;" d="M308.966,44.138H203.034c-9.75,0-17.655,7.904-17.655,17.655v70.621
		c0,9.75,7.905,17.655,17.655,17.655h105.931c9.75,0,17.655-7.905,17.655-17.655V61.793
		C326.621,52.042,318.716,44.138,308.966,44.138z M276.174,100.888l-31.145,18.688c-2.942,1.766-6.685-0.354-6.685-3.785V78.415
		c0-3.431,3.743-5.549,6.685-3.785l31.145,18.687C279.032,95.033,279.032,99.174,276.174,100.888z"/>
</g>
<path style="fill:#F5DCB4;" d="M485.517,317.793H26.483c-4.875,0-8.828-3.953-8.828-8.828V291.31c0-4.875,3.953-8.828,8.828-8.828
	h459.034c4.875,0,8.828,3.953,8.828,8.828v17.655C494.345,313.841,490.392,317.793,485.517,317.793z"/>
<g>
	<path style="fill:#5B5D6E;" d="M44.138,512H26.483c-4.879,0-8.828-3.948-8.828-8.828c0-4.879,3.948-8.828,8.828-8.828h17.655
		c4.879,0,8.828,3.948,8.828,8.828C52.966,508.052,49.017,512,44.138,512z"/>
	<path style="fill:#5B5D6E;" d="M485.517,512h-17.655c-4.879,0-8.828-3.948-8.828-8.828c0-4.879,3.948-8.828,8.828-8.828h17.655
		c4.879,0,8.828,3.948,8.828,8.828C494.345,508.052,490.397,512,485.517,512z"/>
</g>
<rect x="185.379" y="247.172" style="fill:#464655;" width="141.241" height="17.655"/>
<g>
</g>
<g>
</g>
<g>
</g>
<g>
</g>
<g>
</g>
<g>
</g>
<g>
</g>
<g>
</g>
<g>
</g>
<g>
</g>
<g>
</g>
<g>
</g>
<g>
</g>
<g>
</g>
<g>
</g>
</svg>
