<?xml version="1.0" encoding="iso-8859-1"?>
<!-- Generator: Adobe Illustrator 19.0.0, SVG Export Plug-In . SVG Version: 6.00 Build 0)  -->
<svg version="1.1" id="Layer_1" xmlns="http://www.w3.org/2000/svg" xmlns:xlink="http://www.w3.org/1999/xlink" x="0px" y="0px"
	 viewBox="0 0 512 512" style="enable-background:new 0 0 512 512;" xml:space="preserve">
<polygon style="fill:#5B5D6E;" points="317.793,410.483 194.207,410.483 185.379,489.931 326.621,489.931 "/>
<polygon style="fill:#464655;" points="320.736,436.966 317.793,410.483 194.207,410.483 191.264,436.966 "/>
<path style="fill:#707487;" d="M494.345,419.31H17.655C7.904,419.31,0,411.406,0,401.655V83.862c0-9.751,7.904-17.655,17.655-17.655
	h476.69c9.751,0,17.655,7.904,17.655,17.655v317.793C512,411.406,504.096,419.31,494.345,419.31z"/>
<path style="fill:#5B5D6E;" d="M194.909,66.207c4.294,29.934,29.97,52.966,61.091,52.966s56.798-23.031,61.091-52.966H194.909z"/>
<path style="fill:#E4EAF8;" d="M476.69,392.828H35.31c-4.875,0-8.828-3.953-8.828-8.828V101.517c0-4.875,3.953-8.828,8.828-8.828
	H476.69c4.875,0,8.828,3.953,8.828,8.828V384C485.517,388.875,481.565,392.828,476.69,392.828z"/>
<path style="fill:#7DF5A5;" d="M485.517,242.759H291.31V92.69H476.69c4.875,0,8.828,3.953,8.828,8.828V242.759z"/>
<path style="fill:#00C3FF;" d="M485.517,242.759H291.31v150.069H476.69c4.875,0,8.828-3.953,8.828-8.828V242.759z"/>
<path style="fill:#FFDC64;" d="M291.31,392.828h-256c-4.875,0-8.828-3.953-8.828-8.828V101.517c0-4.875,3.953-8.828,8.828-8.828h256
	V392.828z"/>
<path style="fill:#707487;" d="M344.276,498.759H167.724c-4.879,0-8.828-3.948-8.828-8.828s3.948-8.828,8.828-8.828h176.552
	c4.879,0,8.828,3.948,8.828,8.828S349.155,498.759,344.276,498.759z"/>
<path style="fill:#D29B6E;" d="M238.345,392.828v-22.585c0-7.599-4.863-14.346-12.072-16.749l-28.821-9.607
	c-7.209-2.403-12.072-9.15-12.072-16.749v-22.585h-52.966v22.585c0,7.599-4.863,14.346-12.072,16.749l-28.821,9.607
	c-7.211,2.403-12.074,9.15-12.074,16.749v22.585H238.345z"/>
<path style="fill:#959CB5;" d="M226.273,353.493l-28.821-9.608c-1.731-0.577-3.308-1.431-4.734-2.461
	c-8.097,9.751-20.158,16.093-33.822,16.093c-13.664,0-25.725-6.342-33.821-16.093c-1.426,1.03-3.002,1.885-4.734,2.461
	l-28.821,9.608c-7.21,2.403-12.073,9.15-12.073,16.749v22.585h158.897v-22.585C238.345,362.643,233.482,355.896,226.273,353.493z"/>
<g>
	<ellipse style="fill:#694B4B;" cx="158.897" cy="167.724" rx="35.31" ry="30.897"/>
	<ellipse style="fill:#694B4B;" cx="158.897" cy="229.517" rx="70.621" ry="66.207"/>
</g>
<path style="fill:#5A4146;" d="M175.96,165.337c-5.474-1.276-11.169-2.027-17.064-2.027c-39.002,0-70.621,29.642-70.621,66.207
	c0,31.398,23.338,57.632,54.621,64.436c0-11.361,0-28.264,0-53.401C142.897,202.311,161.31,178.381,175.96,165.337z"/>
<path style="fill:#F0C087;" d="M203.411,299.949l-28.723,14.361c-9.941,4.97-21.642,4.97-31.583,0l-28.723-14.361
	c-5.28-2.639-8.89-7.744-9.623-13.601l-5.362-42.893c-0.632-5.056,3.108-9.569,8.192-9.901c16.454-1.077,50.767-5.207,71.922-21.047
	c3.567-2.671,8.547-2.201,11.596,1.05l24.542,26.174c1.795,1.914,2.645,4.529,2.319,7.133l-4.936,39.484
	C212.302,292.206,208.691,297.31,203.411,299.949z"/>
<path style="fill:#E6AF78;" d="M215.65,239.731l-24.543-26.174c-0.814-0.87-1.783-1.506-2.809-1.971
	c-0.337-0.152-0.703-0.184-1.054-0.292c-0.713-0.218-1.43-0.413-2.17-0.445c-0.632-0.026-1.26,0.055-1.886,0.168
	c-0.318,0.057-0.641,0.06-0.953,0.152c-0.953,0.286-1.881,0.708-2.721,1.337c-21.191,15.866-55.588,19.983-72.008,21.053
	c-5.113,0.333-8.742,4.812-8.106,9.896l5.362,42.892c0.733,5.858,4.343,10.962,9.623,13.602l28.723,14.361
	c4.289,2.144,8.919,3.178,13.58,3.473l-10.783-21.567c-3.064-6.13-4.66-12.888-4.66-19.741V253.74c0-4.109,2.849-7.597,6.836-8.594
	c12.089-3.022,24.524-7.443,35.322-13.997l19.371,20.66c2.862,3.053,6.91,6.528,13.806,6.196l1.393-11.142
	C218.295,244.259,217.444,241.645,215.65,239.731z"/>
<path style="fill:#FFDC64;" d="M414.897,353.103h-52.966c-9.751,0-17.655,7.904-17.655,17.655v22.069h88.276v-22.069
	C432.552,361.007,424.648,353.103,414.897,353.103z"/>
<path style="fill:#D29B6E;" d="M388.414,366.345L388.414,366.345c-7.313,0-13.241-5.929-13.241-13.241v-13.241h26.483v13.241
	C401.655,360.416,395.726,366.345,388.414,366.345z"/>
<path style="fill:#F0C087;" d="M389.929,348.69H386.9c-4.682,0-9.173-1.86-12.484-5.171l-7.313-7.313
	c-3.311-3.311-5.171-7.801-5.171-12.484v-27.998c0-9.751,7.904-17.655,17.655-17.655h17.655c9.751,0,17.655,7.904,17.655,17.655
	v27.998c0,4.682-1.86,9.173-5.171,12.484l-7.313,7.313C399.102,346.829,394.611,348.69,389.929,348.69z"/>
<path style="fill:#694B4B;" d="M397.241,278.069h-17.655c-9.751,0-17.655,7.904-17.655,17.655v8.828c0,0,26.483,0,52.966-8.828l0,0
	C414.897,285.973,406.993,278.069,397.241,278.069z"/>
<path style="fill:#707487;" d="M414.897,203.034h-52.966c-9.751,0-17.655,7.904-17.655,17.655v22.069h88.276V220.69
	C432.552,210.938,424.648,203.034,414.897,203.034z"/>
<path style="fill:#D29B6E;" d="M388.414,216.276L388.414,216.276c-7.313,0-13.241-5.929-13.241-13.241v-13.241h26.483v13.241
	C401.655,210.347,395.726,216.276,388.414,216.276z"/>
<path style="fill:#F0C087;" d="M389.929,198.621H386.9c-4.682,0-9.173-1.86-12.484-5.171l-7.313-7.313
	c-3.311-3.311-5.171-7.801-5.171-12.484v-27.998c0-9.751,7.904-17.655,17.655-17.655h17.655c9.751,0,17.655,7.904,17.655,17.655
	v27.998c0,4.682-1.86,9.173-5.171,12.484l-7.313,7.313C399.102,196.76,394.611,198.621,389.929,198.621z"/>
<path style="fill:#694B4B;" d="M397.241,128h-17.655c-9.751,0-17.655,7.904-17.655,17.655v8.828c0,0,26.483,0,52.966-8.828l0,0
	C414.897,135.904,406.993,128,397.241,128z"/>
<path style="fill:#FFC850;" d="M256,119.172c13.152,0,25.306-4.148,35.31-11.157V92.69h-85.911
	C216.547,108.682,235.02,119.172,256,119.172z"/>
<path style="fill:#64DCA0;" d="M291.31,108.015c5.954-4.172,11.132-9.358,15.29-15.326h-15.29V108.015z"/>
<circle style="fill:#959CB5;" cx="256" cy="57.379" r="44.138"/>
<circle style="fill:#464655;" cx="256" cy="57.379" r="17.655"/>
<g>
</g>
<g>
</g>
<g>
</g>
<g>
</g>
<g>
</g>
<g>
</g>
<g>
</g>
<g>
</g>
<g>
</g>
<g>
</g>
<g>
</g>
<g>
</g>
<g>
</g>
<g>
</g>
<g>
</g>
</svg>
