<?xml version="1.0" encoding="iso-8859-1"?>
<!-- Generator: Adobe Illustrator 19.0.0, SVG Export Plug-In . SVG Version: 6.00 Build 0)  -->
<svg version="1.1" id="Layer_1" xmlns="http://www.w3.org/2000/svg" xmlns:xlink="http://www.w3.org/1999/xlink" x="0px" y="0px"
	 viewBox="0 0 512 512" style="enable-background:new 0 0 512 512;" xml:space="preserve">
<path style="fill:#E4EAF8;" d="M97.103,17.655C97.103,7.904,105.007,0,114.759,0h264.828l88.276,88.276v406.069
	c0,9.751-7.904,17.655-17.655,17.655H114.759c-9.751,0-17.655-7.904-17.655-17.655V17.655z"/>
<g>
	<path style="fill:#D5DCED;" d="M300.138,467.862H97.103V308.966h203.034c19.501,0,35.31,15.809,35.31,35.31v88.276
		C335.448,452.053,319.639,467.862,300.138,467.862z"/>
	<path style="fill:#D5DCED;" d="M379.586,0v70.621c0,9.75,7.905,17.655,17.655,17.655h70.621L379.586,0z"/>
</g>
<path style="fill:#9BF57D;" d="M300.138,450.207H61.793c-9.751,0-17.655-7.904-17.655-17.655v-88.276
	c0-9.751,7.904-17.655,17.655-17.655h238.345c9.751,0,17.655,7.904,17.655,17.655v88.276
	C317.793,442.303,309.889,450.207,300.138,450.207z"/>
<g>
	<path style="fill:#FFFFFF;" d="M138.655,355.69c-3.448-3.448-9.035-3.448-12.483,0l-20.241,20.242L85.689,355.69
		c-3.448-3.448-9.035-3.448-12.483,0c-3.448,3.448-3.448,9.035,0,12.483l20.243,20.241l-20.242,20.242
		c-3.448,3.448-3.448,9.035,0,12.483c1.724,1.724,3.982,2.585,6.241,2.585c2.259,0,4.518-0.862,6.241-2.586l20.242-20.241
		l20.242,20.242c1.725,1.725,3.982,2.586,6.241,2.586c2.259,0,4.518-0.862,6.241-2.586c3.448-3.448,3.448-9.035,0-12.483
		l-20.241-20.242l20.242-20.242C142.103,364.724,142.103,359.138,138.655,355.69z"/>
	<path style="fill:#FFFFFF;" d="M211.862,406.069h-35.31v-44.138c0-4.879-3.948-8.828-8.828-8.828s-8.828,3.948-8.828,8.828v52.966
		c0,4.879,3.948,8.828,8.828,8.828h44.138c4.879,0,8.828-3.948,8.828-8.828C220.69,410.017,216.742,406.069,211.862,406.069z"/>
	<path style="fill:#FFFFFF;" d="M262.552,379.853c-11.242-2.81-14.362-4.733-15.138-5.759c1.483-1.215,5.879-3.336,13-3.336
		c8.025,0,13.319,2.767,14.06,3.715c2.06,4.431,7.31,6.37,11.724,4.294c4.423-2.051,6.345-7.302,4.294-11.724
		c-4.474-9.63-18.328-13.94-30.078-13.94c-17.612,0-30.897,8.776-30.897,20.414c0,16.276,18.001,20.776,28.759,23.457
		c11.242,2.81,14.362,4.733,15.138,5.759c-1.483,1.215-5.88,3.336-13.001,3.336c-7.914,0-13.164-2.681-14.13-3.862
		c-2.094-4.31-7.276-6.182-11.656-4.147c-4.423,2.051-6.345,7.302-4.294,11.724c4.476,9.63,18.329,13.94,30.079,13.94
		c17.612,0,30.897-8.776,30.897-20.414C291.31,387.034,273.311,382.535,262.552,379.853z"/>
</g>
<g>
	<path style="fill:#9BF57D;" d="M194.207,256h35.31c4.875,0,8.828-3.953,8.828-8.828v-8.828c0-4.875-3.953-8.828-8.828-8.828h-35.31
		c-4.875,0-8.828,3.953-8.828,8.828v8.828C185.379,252.047,189.332,256,194.207,256z"/>
	<path style="fill:#9BF57D;" d="M194.207,211.862h35.31c4.875,0,8.828-3.953,8.828-8.828v-8.828c0-4.875-3.953-8.828-8.828-8.828
		h-35.31c-4.875,0-8.828,3.953-8.828,8.828v8.828C185.379,207.91,189.332,211.862,194.207,211.862z"/>
</g>
<path style="fill:#7DC86E;" d="M194.207,167.724h35.31c4.875,0,8.828-3.953,8.828-8.828v-8.828c0-4.875-3.953-8.828-8.828-8.828
	h-35.31c-4.875,0-8.828,3.953-8.828,8.828v8.828C185.379,163.772,189.332,167.724,194.207,167.724z"/>
<g>
	<path style="fill:#AFB9D2;" d="M264.828,256h35.31c4.875,0,8.828-3.953,8.828-8.828v-8.828c0-4.875-3.953-8.828-8.828-8.828h-35.31
		c-4.875,0-8.828,3.953-8.828,8.828v8.828C256,252.047,259.953,256,264.828,256z"/>
	<path style="fill:#AFB9D2;" d="M264.828,211.862h35.31c4.875,0,8.828-3.953,8.828-8.828v-8.828c0-4.875-3.953-8.828-8.828-8.828
		h-35.31c-4.875,0-8.828,3.953-8.828,8.828v8.828C256,207.91,259.953,211.862,264.828,211.862z"/>
</g>
<path style="fill:#7DC86E;" d="M264.828,167.724h35.31c4.875,0,8.828-3.953,8.828-8.828v-8.828c0-4.875-3.953-8.828-8.828-8.828
	h-35.31c-4.875,0-8.828,3.953-8.828,8.828v8.828C256,163.772,259.953,167.724,264.828,167.724z"/>
<g>
	<path style="fill:#AFB9D2;" d="M335.448,256h35.31c4.875,0,8.828-3.953,8.828-8.828v-8.828c0-4.875-3.953-8.828-8.828-8.828h-35.31
		c-4.875,0-8.828,3.953-8.828,8.828v8.828C326.621,252.047,330.573,256,335.448,256z"/>
	<path style="fill:#AFB9D2;" d="M335.448,211.862h35.31c4.875,0,8.828-3.953,8.828-8.828v-8.828c0-4.875-3.953-8.828-8.828-8.828
		h-35.31c-4.875,0-8.828,3.953-8.828,8.828v8.828C326.621,207.91,330.573,211.862,335.448,211.862z"/>
</g>
<path style="fill:#7DC86E;" d="M335.448,167.724h35.31c4.875,0,8.828-3.953,8.828-8.828v-8.828c0-4.875-3.953-8.828-8.828-8.828
	h-35.31c-4.875,0-8.828,3.953-8.828,8.828v8.828C326.621,163.772,330.573,167.724,335.448,167.724z"/>
<g>
</g>
<g>
</g>
<g>
</g>
<g>
</g>
<g>
</g>
<g>
</g>
<g>
</g>
<g>
</g>
<g>
</g>
<g>
</g>
<g>
</g>
<g>
</g>
<g>
</g>
<g>
</g>
<g>
</g>
</svg>
