<svg xmlns="http://www.w3.org/2000/svg" width="443.525" height="408.043" viewBox="0 0 443.525 408.043">
  <g id="Cartel" transform="translate(-3800.001 8003)">
    <path id="Path_429" data-name="Path 429" d="M335.835,53.223a26.616,26.616,0,0,1-18.818-7.794L279.384,7.794A26.616,26.616,0,0,0,260.566,0H202.777V70.964H335.835V53.223Z" transform="translate(3765.764 -8003)" fill="#faebc8"/>
    <path id="Path_430" data-name="Path 430" d="M282.612,53.223a26.616,26.616,0,0,1-18.818-7.794L226.161,7.794A26.616,26.616,0,0,0,207.343,0H149.554V70.964H282.612V53.223Z" transform="translate(3765.764 -8003)" fill="#ebc9a0"/>
    <path id="Path_431" data-name="Path 431" d="M460.023,53.223H229.389a26.616,26.616,0,0,1-18.818-7.794L172.938,7.794A26.618,26.618,0,0,0,154.12,0H51.978A17.74,17.74,0,0,0,34.237,17.741V390.3a17.74,17.74,0,0,0,17.741,17.741H460.021A17.74,17.74,0,0,0,477.762,390.3V70.964A17.738,17.738,0,0,0,460.023,53.223Z" transform="translate(3765.764 -8003)" fill="#f5dcb4"/>
  </g>
</svg>
