<svg id="chip" xmlns="http://www.w3.org/2000/svg" width="512.008" height="512.004" viewBox="0 0 512.008 512.004">
  <path id="Path_182" data-name="Path 182" d="M503.172,176.552a8.828,8.828,0,0,0,0-17.656H397.241V132.413H503.172a8.828,8.828,0,0,0,0-17.656H397.241V8.828a8.828,8.828,0,0,0-17.656,0V114.759H353.1V8.828a8.828,8.828,0,0,0-17.656,0V114.759H308.963V8.828a8.828,8.828,0,0,0-17.656,0V114.759H264.824V8.828a8.826,8.826,0,1,0-17.652,0V114.759H220.69V8.828a8.828,8.828,0,0,0-17.656,0V114.759H176.551V8.828a8.828,8.828,0,0,0-17.656,0V114.759H132.412V8.828a8.828,8.828,0,0,0-17.656,0V114.759H8.828a8.828,8.828,0,0,0,0,17.656H114.759V158.9H8.828a8.828,8.828,0,0,0,0,17.656H114.759v26.483H8.828a8.828,8.828,0,0,0,0,17.656H114.759v26.483H8.828a8.826,8.826,0,1,0,0,17.652H114.759v26.483H8.828a8.828,8.828,0,0,0,0,17.656H114.759V335.45H8.828a8.828,8.828,0,0,0,0,17.656H114.759v26.483H8.828a8.828,8.828,0,0,0,0,17.656H114.759V503.176a8.828,8.828,0,0,0,17.656,0V397.241H158.9V503.172a8.828,8.828,0,0,0,17.656,0V397.241h26.483V503.172a8.828,8.828,0,0,0,17.656,0V397.241h26.483V503.172a8.828,8.828,0,0,0,17.656,0V397.241h26.483V503.172a8.828,8.828,0,0,0,17.656,0V397.241h26.483V503.172a8.828,8.828,0,0,0,17.656,0V397.241h26.483V503.172a8.828,8.828,0,0,0,17.656,0V397.241H503.18a8.828,8.828,0,0,0,0-17.656H397.241V353.1H503.172a8.828,8.828,0,0,0,0-17.656H397.241V308.963H503.172a8.828,8.828,0,0,0,0-17.656H397.241V264.824H503.172a8.828,8.828,0,0,0,0-17.656H397.241V220.69H503.172a8.828,8.828,0,0,0,0-17.656H397.241V176.551H503.172Z" fill="#c7cfe2"/>
  <path id="Path_183" data-name="Path 183" d="M459.034,132.414V114.759H397.241V52.966H379.586v61.793H353.1V52.966H335.448v61.793H308.965V52.966H291.31v61.793H264.827V52.966H247.172v61.793H220.69V52.966H203.035v61.793H176.552V52.966H158.9v61.793H132.414V52.966H114.759v61.793H52.966v17.655h61.793V158.9H52.966v17.655h61.793v26.483H52.966V220.69h61.793v26.483H52.966v17.655h61.793v26.483H52.966v17.655h61.793v26.483H52.966V353.1h61.793v26.483H52.966v17.655h61.793v61.793h17.655V397.242H158.9v61.793h17.655V397.242h26.483v61.793H220.69V397.242h26.483v61.793h17.655V397.242h26.483v61.793h17.655V397.242h26.483v61.793H353.1V397.242h26.483v61.793h17.655V397.242h61.793V379.587H397.242V353.1h61.793V335.449H397.242V308.966h61.793V291.31H397.242V264.827h61.793V247.172H397.242V220.69h61.793V203.035H397.242V176.552h61.793V158.9H397.242V132.414Z" fill="#afb9d2"/>
  <path id="Path_184" data-name="Path 184" d="M406.069,441.379H105.931a35.31,35.31,0,0,1-35.31-35.31V105.931a35.31,35.31,0,0,1,35.31-35.31H406.069a35.31,35.31,0,0,1,35.31,35.31V406.069A35.31,35.31,0,0,1,406.069,441.379Z" fill="#5b5d6e"/>
  <path id="Path_185" data-name="Path 185" d="M397.241,406.069H114.759a8.829,8.829,0,0,1-8.828-8.828V114.759a8.829,8.829,0,0,1,8.828-8.828H397.242a8.829,8.829,0,0,1,8.828,8.828V397.242A8.83,8.83,0,0,1,397.241,406.069Z" fill="#707487"/>
</svg>
