<svg xmlns="http://www.w3.org/2000/svg" width="335.448" height="441.379" viewBox="0 0 335.448 441.379">
  <g id="book" transform="translate(-30.897)">
    <path id="Path_42" data-name="Path 42" d="M348.69,441.379H48.552A17.654,17.654,0,0,1,30.9,423.724V26.483A17.654,17.654,0,0,1,48.552,8.828H348.69a17.654,17.654,0,0,1,17.655,17.655V423.724A17.654,17.654,0,0,1,348.69,441.379Z" fill="#7f8499"/>
    <path id="Path_45" data-name="Path 45" d="M147.62,101.356,128,88.276l-19.62,13.08a4.414,4.414,0,0,1-6.862-3.672V8.828A8.829,8.829,0,0,1,110.346,0h35.31a8.829,8.829,0,0,1,8.828,8.828V97.684A4.415,4.415,0,0,1,147.62,101.356Z" fill="#ffdc64"/>
    <path id="Path_50" data-name="Path 50" d="M66.207,441.379H48.552A17.654,17.654,0,0,1,30.9,423.724V26.483A17.654,17.654,0,0,1,48.552,8.828H66.207Z" fill="#707487"/>
    <path id="Path_51" data-name="Path 51" d="M110.345,0a8.829,8.829,0,0,0-8.828,8.828V97.684a4.413,4.413,0,0,0,6.862,3.672L128,88.276V0Z" fill="#ffc850"/>
  </g>
</svg>
