<svg xmlns="http://www.w3.org/2000/svg" width="512" height="335.45" viewBox="0 0 512 335.45">
  <g id="library" transform="translate(0 -23.42)">
    <path id="Path_670" data-name="Path 670" d="M503.172,358.869h-35.31a8.829,8.829,0,0,1-8.828-8.828V67.559a8.829,8.829,0,0,1,8.828-8.828h35.31A8.829,8.829,0,0,1,512,67.559V350.042A8.828,8.828,0,0,1,503.172,358.869Z" fill="#ffdc64"/>
    <path id="Path_671" data-name="Path 671" d="M361.931,58.731h-35.31a8.829,8.829,0,0,0-8.828,8.828V350.042a8.829,8.829,0,0,0,8.828,8.828h35.31a8.829,8.829,0,0,0,8.828-8.828V67.559A8.829,8.829,0,0,0,361.931,58.731Z" fill="#00aaf0"/>
    <rect id="Rectangle_37" data-name="Rectangle 37" width="52.966" height="17.655" transform="translate(317.793 314.737)" fill="#00c3ff"/>
    <rect id="Rectangle_38" data-name="Rectangle 38" width="52.966" height="17.655" transform="translate(317.793 85.208)" fill="#00c3ff"/>
    <path id="Path_674" data-name="Path 674" d="M167.724,358.869h-35.31a8.829,8.829,0,0,1-8.828-8.828V67.559a8.829,8.829,0,0,1,8.828-8.828h35.31a8.829,8.829,0,0,1,8.828,8.828V350.042A8.828,8.828,0,0,1,167.724,358.869Z" fill="#ff5050"/>
    <g id="Group_105" data-name="Group 105">
      <rect id="Rectangle_39" data-name="Rectangle 39" width="52.966" height="17.655" transform="translate(123.586 85.208)" fill="#c84146"/>
      <rect id="Rectangle_40" data-name="Rectangle 40" width="52.966" height="17.655" transform="translate(123.586 314.737)" fill="#c84146"/>
    </g>
    <path id="Path_675" data-name="Path 675" d="M44.138,358.869H8.828A8.829,8.829,0,0,1,0,350.041V67.559a8.829,8.829,0,0,1,8.828-8.828h35.31a8.829,8.829,0,0,1,8.828,8.828V350.042A8.828,8.828,0,0,1,44.138,358.869Z" fill="#959cb5"/>
    <path id="Path_676" data-name="Path 676" d="M450.207,358.869H379.586a8.829,8.829,0,0,1-8.828-8.828V49.9a8.829,8.829,0,0,1,8.828-8.828h70.621a8.829,8.829,0,0,1,8.828,8.828V350.042A8.829,8.829,0,0,1,450.207,358.869Z" fill="#785353"/>
    <path id="Path_677" data-name="Path 677" d="M114.759,358.869H61.793a8.829,8.829,0,0,1-8.828-8.828V32.248a8.829,8.829,0,0,1,8.828-8.828h52.966a8.829,8.829,0,0,1,8.828,8.828V350.041A8.829,8.829,0,0,1,114.759,358.869Z" fill="#ffdc64"/>
    <path id="Path_678" data-name="Path 678" d="M88.276,261.766a8.823,8.823,0,0,1-8.828-8.828V147.007a8.828,8.828,0,0,1,17.656,0V252.938A8.824,8.824,0,0,1,88.276,261.766Z" fill="#faebc8"/>
    <g id="Group_106" data-name="Group 106">
      <path id="Path_679" data-name="Path 679" d="M414.9,261.766a8.823,8.823,0,0,1-8.828-8.828V199.972a8.828,8.828,0,1,1,17.656,0v52.966A8.824,8.824,0,0,1,414.9,261.766Z" fill="#ffdc64"/>
      <path id="Path_680" data-name="Path 680" d="M414.9,173.49a8.823,8.823,0,0,1-8.828-8.828V147.007a8.828,8.828,0,0,1,17.656,0v17.655A8.824,8.824,0,0,1,414.9,173.49Z" fill="#ffdc64"/>
    </g>
    <path id="Path_681" data-name="Path 681" d="M308.966,41.076H238.345a8.829,8.829,0,0,0-8.828,8.828V350.042a8.829,8.829,0,0,0,8.828,8.828h70.621a8.829,8.829,0,0,0,8.828-8.828V49.9A8.829,8.829,0,0,0,308.966,41.076Z" fill="#7df5a5"/>
    <g id="Group_107" data-name="Group 107">
      <path id="Path_683" data-name="Path 683" d="M273.655,252.938a8.823,8.823,0,0,1-8.828-8.828V217.627a8.828,8.828,0,0,1,17.656,0V244.11A8.822,8.822,0,0,1,273.655,252.938Z" fill="#ffdc64"/>
      <path id="Path_684" data-name="Path 684" d="M273.655,191.145a8.823,8.823,0,0,1-8.828-8.828V111.7a8.828,8.828,0,0,1,17.656,0v70.621A8.822,8.822,0,0,1,273.655,191.145Z" fill="#ffdc64"/>
      <rect id="Rectangle_41" data-name="Rectangle 41" width="88.276" height="17.655" transform="translate(229.517 314.737)" fill="#ffdc64"/>
    </g>
    <rect id="Rectangle_42" data-name="Rectangle 42" width="61.793" height="17.655" transform="translate(256 314.737)" fill="#ffc850"/>
    <rect id="Rectangle_43" data-name="Rectangle 43" width="88.276" height="17.655" transform="translate(229.517 67.564)" fill="#ffdc64"/>
    <path id="Path_686" data-name="Path 686" d="M185.379,358.869h35.31a8.829,8.829,0,0,0,8.828-8.828V32.248a8.829,8.829,0,0,0-8.828-8.828h-35.31a8.829,8.829,0,0,0-8.828,8.828V350.041A8.829,8.829,0,0,0,185.379,358.869Z" fill="#707487"/>
    <g id="Group_108" data-name="Group 108">
      <path id="Path_687" data-name="Path 687" d="M220.69,23.421H185.38a8.829,8.829,0,0,0-8.828,8.828V49.9h52.966V32.248A8.829,8.829,0,0,0,220.69,23.421Z" fill="#5b5d6e"/>
      <path id="Path_688" data-name="Path 688" d="M185.379,358.869h35.31a8.829,8.829,0,0,0,8.828-8.828V332.386H176.551v17.655A8.829,8.829,0,0,0,185.379,358.869Z" fill="#5b5d6e"/>
    </g>
    <g id="Group_109" data-name="Group 109">
      <rect id="Rectangle_44" data-name="Rectangle 44" width="70.621" height="17.655" transform="translate(52.966 67.564)" fill="#faebc8"/>
      <rect id="Rectangle_45" data-name="Rectangle 45" width="70.621" height="17.655" transform="translate(52.966 102.864)" fill="#faebc8"/>
      <rect id="Rectangle_46" data-name="Rectangle 46" width="70.621" height="17.655" transform="translate(52.966 279.415)" fill="#faebc8"/>
      <rect id="Rectangle_47" data-name="Rectangle 47" width="70.621" height="17.655" transform="translate(52.966 314.737)" fill="#faebc8"/>
    </g>
    <g id="Group_110" data-name="Group 110">
      <rect id="Rectangle_48" data-name="Rectangle 48" width="52.966" height="17.655" transform="translate(0 85.208)" fill="#7f8499"/>
      <rect id="Rectangle_49" data-name="Rectangle 49" width="52.966" height="17.655" transform="translate(0 314.737)" fill="#7f8499"/>
    </g>
    <g id="Group_111" data-name="Group 111">
      <rect id="Rectangle_50" data-name="Rectangle 50" width="88.276" height="17.655" transform="translate(370.759 67.564)" fill="#ffdc64"/>
      <rect id="Rectangle_51" data-name="Rectangle 51" width="88.276" height="17.655" transform="translate(370.759 102.864)" fill="#ffdc64"/>
      <rect id="Rectangle_52" data-name="Rectangle 52" width="88.276" height="17.655" transform="translate(370.759 279.415)" fill="#ffdc64"/>
      <rect id="Rectangle_53" data-name="Rectangle 53" width="88.276" height="17.655" transform="translate(370.759 314.737)" fill="#ffdc64"/>
    </g>
    <g id="Group_112" data-name="Group 112">
      <path id="Path_689" data-name="Path 689" d="M503.172,58.731h-35.31a8.829,8.829,0,0,0-8.828,8.828V85.214H512V67.559A8.829,8.829,0,0,0,503.172,58.731Z" fill="#ffc850"/>
      <path id="Path_690" data-name="Path 690" d="M467.862,358.869h35.31A8.829,8.829,0,0,0,512,350.041V332.386H459.034v17.655A8.828,8.828,0,0,0,467.862,358.869Z" fill="#ffc850"/>
    </g>
  </g>
</svg>
