<svg xmlns="http://www.w3.org/2000/svg" width="370.76" height="450.207" viewBox="0 0 370.76 450.207">
  <g id="Group_763" data-name="Group 763" transform="translate(-19974.619 8026)">
    <g id="smartphone-3" transform="translate(19904 -8048.069)">
      <rect id="Rectangle_299" data-name="Rectangle 299" width="88.276" height="17.655" transform="translate(176.552 136.828)" fill="#5b5d6e"/>
      <path id="Path_3491" data-name="Path 3491" d="M432.552,472.276H79.448a8.829,8.829,0,0,1-8.828-8.828V163.31a8.829,8.829,0,0,1,8.828-8.828h353.1a8.829,8.829,0,0,1,8.828,8.828V463.448A8.828,8.828,0,0,1,432.552,472.276Z" fill="#fff"/>
      <path id="Path_3495" data-name="Path 3495" d="M229.517,22.069H211.862a8.829,8.829,0,0,0-8.828,8.828v88.276h35.31V30.9A8.826,8.826,0,0,0,229.517,22.069Z" fill="#d5dced"/>
      <path id="Path_3496" data-name="Path 3496" d="M238.345,57.379h-35.31V30.9a8.829,8.829,0,0,1,8.828-8.828h17.655a8.829,8.829,0,0,1,8.828,8.828V57.379Z" fill="#707487"/>
      <path id="Path_3497" data-name="Path 3497" d="M291.31,170.4v46.665a105.344,105.344,0,0,1,0,139.69v46.611C328.525,377.914,353.1,335.29,353.1,286.9A140.9,140.9,0,0,0,291.31,170.4Z" fill="#959cb5"/>
      <path id="Path_3498" data-name="Path 3498" d="M203.034,225.1v44.138a8.829,8.829,0,0,0,8.828,8.828h17.655a8.829,8.829,0,0,0,8.828-8.828V225.1Z" fill="#707487"/>
      <path id="Path_3499" data-name="Path 3499" d="M291.31,233.931H238.345V172.138H291.31a8.829,8.829,0,0,1,8.828,8.828V225.1A8.829,8.829,0,0,1,291.31,233.931Z" fill="#afb9d2"/>
      <path id="Path_3500" data-name="Path 3500" d="M167.724,366.345H282.483a8.829,8.829,0,0,0,8.828-8.828v-8.828a8.829,8.829,0,0,0-8.828-8.828H167.724a8.829,8.829,0,0,0-8.828,8.828v8.828A8.829,8.829,0,0,0,167.724,366.345Z" fill="#959cb5"/>
      <path id="Path_3501" data-name="Path 3501" d="M203.034,233.931h35.31a8.829,8.829,0,0,0,8.828-8.828V119.172a8.829,8.829,0,0,0-8.828-8.828h-35.31a8.829,8.829,0,0,0-8.828,8.828V225.1A8.829,8.829,0,0,0,203.034,233.931Z" fill="#c7cfe2"/>
      <circle id="Ellipse_267" data-name="Ellipse 267" cx="26.483" cy="26.483" r="26.483" transform="translate(273.655 154.483)" fill="#707487"/>
      <path id="Path_3502" data-name="Path 3502" d="M282.483,454.621v-86.1a19.829,19.829,0,0,1,19.829-19.829h0a19.828,19.828,0,0,1,19.236,15.019l22.728,90.912H282.483Z" fill="#c7cfe2"/>
      <path id="Path_3503" data-name="Path 3503" d="M361.931,445.793H150.069a8.829,8.829,0,0,0-8.828,8.828v17.655H370.758V454.621A8.827,8.827,0,0,0,361.931,445.793Z" fill="#afb9d2"/>
      <path id="Path_3504" data-name="Path 3504" d="M238.345,401.655h-35.31a8.829,8.829,0,0,0-8.828,8.828v35.31h52.966v-35.31A8.829,8.829,0,0,0,238.345,401.655Z" fill="#c7cfe2"/>
      <circle id="Ellipse_268" data-name="Ellipse 268" cx="8.828" cy="8.828" r="8.828" transform="translate(293.373 359.448)" fill="#707487"/>
    </g>
  </g>
</svg>
