<svg xmlns="http://www.w3.org/2000/svg" width="423.726" height="512" viewBox="0 0 423.726 512">
  <g id="pdf" transform="translate(-44.138)">
    <path id="Path_3281" data-name="Path 3281" d="M97.1,17.655A17.655,17.655,0,0,1,114.759,0H379.587l88.276,88.276V494.345A17.654,17.654,0,0,1,450.208,512H114.759A17.654,17.654,0,0,1,97.1,494.345V17.655Z" fill="#e4eaf8"/>
    <g id="Group_585" data-name="Group 585">
      <path id="Path_3282" data-name="Path 3282" d="M379.586,0V70.621a17.656,17.656,0,0,0,17.655,17.655h70.621Z" fill="#d5dced"/>
      <path id="Path_3283" data-name="Path 3283" d="M300.138,467.862H97.1v-158.9H300.137a35.31,35.31,0,0,1,35.31,35.31v88.276A35.309,35.309,0,0,1,300.138,467.862Z" fill="#d5dced"/>
    </g>
    <path id="Path_3284" data-name="Path 3284" d="M300.138,450.207H61.793a17.654,17.654,0,0,1-17.655-17.655V344.276a17.654,17.654,0,0,1,17.655-17.655H300.138a17.654,17.654,0,0,1,17.655,17.655v88.276A17.654,17.654,0,0,1,300.138,450.207Z" fill="#ff5050"/>
    <g id="Group_586" data-name="Group 586">
      <path id="Path_3285" data-name="Path 3285" d="M114.759,353.1H79.449a8.823,8.823,0,0,0-8.828,8.828V414.9a8.828,8.828,0,0,0,17.656,0v-8.828H114.76a26.483,26.483,0,1,0,0-52.966Zm0,35.311H88.276V370.759h26.483a8.827,8.827,0,1,1,0,17.655Z" fill="#fff"/>
      <path id="Path_3286" data-name="Path 3286" d="M185.379,353.1H158.9a8.823,8.823,0,0,0-8.828,8.828V414.9a8.823,8.823,0,0,0,8.828,8.828h26.483a35.311,35.311,0,0,0,0-70.622Zm0,52.966H167.724v-35.31h17.655a17.655,17.655,0,1,1,0,35.31Z" fill="#fff"/>
      <path id="Path_3287" data-name="Path 3287" d="M282.483,353.1H238.345a8.823,8.823,0,0,0-8.828,8.828V414.9a8.828,8.828,0,0,0,17.656,0V397.242h17.655a8.828,8.828,0,0,0,0-17.656H247.173v-8.828h35.31a8.827,8.827,0,1,0,0-17.655Z" fill="#fff"/>
    </g>
    <circle id="Ellipse_248" data-name="Ellipse 248" cx="88.276" cy="88.276" r="88.276" transform="translate(194.207 97.103)" fill="#ff5050"/>
    <g id="Group_587" data-name="Group 587">
      <path id="Path_3288" data-name="Path 3288" d="M282.569,150.069a8.828,8.828,0,0,0,0-17.656h-.086a8.828,8.828,0,0,0,.086,17.656Z" fill="#fff"/>
      <path id="Path_3289" data-name="Path 3289" d="M291.31,220.69V176.552a8.828,8.828,0,0,0,0-17.656H273.655a8.828,8.828,0,0,0,0,17.656V220.69a8.828,8.828,0,0,0,0,17.656H291.31a8.828,8.828,0,0,0,0-17.656Z" fill="#fff"/>
    </g>
  </g>
</svg>
