<svg xmlns="http://www.w3.org/2000/svg" width="292.238" height="292.404" viewBox="0 0 292.238 292.404">
  <g id="Group_506" data-name="Group 506" transform="translate(-16940.348 7308.586)">
    <path id="Path_2870" data-name="Path 2870" d="M230,388.966l42-20a35.03,35.03,0,0,0,10-7l227-227a8.255,8.255,0,0,0,0-12l-22-23a9.464,9.464,0,0,0-13,0l-227,227a35.03,35.03,0,0,0-7,10l-20,43C217.194,385.979,223.987,391.771,230,388.966Z" transform="translate(16721 -7405.966)" fill="#ffdc64"/>
    <path id="Path_2871" data-name="Path 2871" d="M222,387.966c1.96,1.96,4.995,2.4,8,1l42-20a35.03,35.03,0,0,0,10-7l207-207-17-17Z" transform="translate(16721 -7405.966)" fill="#ffc850"/>
    <path id="Path_2872" data-name="Path 2872" d="M291,352.966l-35-35-9,9a35.03,35.03,0,0,0-7,10l-20,43c-2.8,6.012,3.989,11.8,10,9l42-20a35.01,35.01,0,0,0,10-7Z" transform="translate(16721 -7405.966)" fill="#faebc8"/>
    <path id="Path_2873" data-name="Path 2873" d="M274,334.966l-52,53c1.96,1.96,4.995,2.4,8,1l42-20a35.01,35.01,0,0,0,10-7l9-9Z" transform="translate(16721 -7405.966)" fill="#f5dcb4"/>
    <path id="Path_2874" data-name="Path 2874" d="M487,99.966a9.462,9.462,0,0,0-13,0l-20,20,35,35,20-20a8.254,8.254,0,0,0,0-12Z" transform="translate(16721 -7405.966)" fill="#faebc8"/>
    <path id="Path_2875" data-name="Path 2875" d="M509,122.966l-11-12-26,27,17,17,20-20A8.255,8.255,0,0,0,509,122.966Z" transform="translate(16721 -7405.966)" fill="#f5dcb4"/>
  </g>
</svg>
