<svg width="414" height="142" viewBox="0 0 414 142" fill="none" xmlns="http://www.w3.org/2000/svg">
<rect width="414" height="142" fill="#E5E5E5"/>
<rect x="-91" y="-479" width="586" height="773" fill="white"/>
<path d="M158.843 39.4212C4.65492 11.0505 -55.964 37.8451 -67 54.7887L-40.9867 173C108.787 169.454 408.808 162.361 410.699 162.361C413.064 162.361 538.401 79.6131 446.172 80.7952C353.943 81.9773 351.578 74.8846 158.843 39.4212Z" fill="#F44336" stroke="white"/>
<path d="M249.227 39.5896C403.43 11.2997 464.035 38.126 475.062 55.0754L448.987 173.273C299.215 169.648 -0.802023 162.398 -2.6939 162.397C-5.05874 162.396 -130.352 79.5825 -38.1239 80.8129C54.1046 82.0434 56.4731 74.9519 249.227 39.5896Z" fill="#F44336" fill-opacity="0.4" stroke="white"/>
<path d="M0 142C68.4494 49.1813 262.279 -80.7649 490 142H0Z" fill="#F44336" fill-opacity="0.3" stroke="white"/>
</svg>
