<svg xmlns="http://www.w3.org/2000/svg" width="335.172" height="451.597" viewBox="0 0 335.172 451.597">
  <g id="Group_252" data-name="Group 252" transform="translate(-141.242 -216.275)">
    <path id="Path_31" data-name="Path 31" d="M450.631,649.245H167.024c-14.24,0-25.782-11.868-25.782-26.509V251.613c0-14.641,11.543-26.509,25.782-26.509H450.632c14.24,0,25.782,11.868,25.782,26.509V622.736C476.415,637.377,464.872,649.245,450.631,649.245Z" transform="translate(0 18.627)" fill="#ffdc64"/>
    <path id="Path_33" data-name="Path 33" d="M293.051,331.579l30.214-20.143,30.214,20.143a6.8,6.8,0,0,0,10.567-5.655V229.87a13.6,13.6,0,0,0-13.595-13.595H296.076a13.6,13.6,0,0,0-13.595,13.595v96.054A6.8,6.8,0,0,0,293.051,331.579Z" transform="translate(61.644 0)" fill="#ff5050"/>
    <path id="Path_34" data-name="Path 34" d="M181.319,594.162a13.383,13.383,0,0,1-13.595-13.177V264.763a13.6,13.6,0,0,1,27.19,0V580.987A13.384,13.384,0,0,1,181.319,594.162Z" transform="translate(14.299 19.067)" fill="#ffc850"/>
    <path id="Path_35" data-name="Path 35" d="M333.5,367.051H251.939a13.595,13.595,0,1,1,0-27.19H333.5a13.595,13.595,0,0,1,0,27.19Z" transform="translate(41.263 61.979)" fill="#e1a546"/>
    <path id="Path_36" data-name="Path 36" d="M370.226,402.362H234.284a13.595,13.595,0,0,1,0-27.19H370.226a13.595,13.595,0,0,1,0,27.19Z" transform="translate(31.15 79.687)" fill="#ffc850"/>
    <path id="Path_41" data-name="Path 41" d="M296.077,216.276a13.6,13.6,0,0,0-13.595,13.595v96.054a6.8,6.8,0,0,0,10.567,5.655l30.214-20.143V216.278H296.077Z" transform="translate(63.551 0.001)" fill="#c84146"/>
  </g>
</svg>
