<svg xmlns="http://www.w3.org/2000/svg" width="358.915" height="512.002" viewBox="0 0 358.915 512.002">
  <g id="design" transform="translate(-76.542)">
    <path id="Path_253" data-name="Path 253" d="M225.747,17.656V423.733l23.439,85.943a3.156,3.156,0,0,0,6.089,0l23.439-85.943V17.656A17.655,17.655,0,0,0,261.058,0H243.4A17.655,17.655,0,0,0,225.747,17.656Z" fill="#faebc8"/>
    <rect id="Rectangle_7" data-name="Rectangle 7" width="52.967" height="379.594" transform="translate(225.748 44.139)" fill="#ffdc64"/>
    <path id="Path_254" data-name="Path 254" d="M252.23,141.244V44.139H225.747V423.733H252.23V190.953a8.8,8.8,0,0,1,10.054-8.781,62.027,62.027,0,0,1,16.43,5.193V141.246H252.23Z" fill="#ffc850"/>
    <path id="Path_255" data-name="Path 255" d="M408.544,271.084a157.756,157.756,0,0,0,.055-55.807l22.783-14.568a8.827,8.827,0,0,0,3.4-10.815L419.935,154.05a8.827,8.827,0,0,0-9.309-5.374l-28.081,3.7a157.815,157.815,0,0,0-39.5-39.424l6.484-23.363A8.826,8.826,0,0,0,344.4,79.074l-35.95-14.89a8.828,8.828,0,0,0-9.941,2.252L280.114,86.888a157.785,157.785,0,0,0-55.808-.055l-10.8-18.549a8.828,8.828,0,0,0-10.788-3.8L163.436,79.53a8.829,8.829,0,0,0-5.574,9.543l3.543,23.814a157.811,157.811,0,0,0-39.423,39.5l-19.968-3.411a8.828,8.828,0,0,0-9.642,5.323L77.215,190.893a8.829,8.829,0,0,0,2.322,10l16.378,14.42a157.785,157.785,0,0,0-.055,55.808L79.535,285.5a8.828,8.828,0,0,0-2.321,10L92.371,332.1a8.827,8.827,0,0,0,9.642,5.323l19.9-3.4a157.794,157.794,0,0,0,39.5,39.423l-.5,24.863a8.826,8.826,0,0,0,5.448,8.333L202.6,421.654a8.827,8.827,0,0,0,11.006-3.713l10.735-18.428h1.4V318.007a79.4,79.4,0,0,1-52.927-77.372c1.291-41.326,35.761-75.7,77.091-76.878a79.408,79.408,0,0,1,28.8,154.249v81.559h1.441l18.353,20.4a8.828,8.828,0,0,0,9.941,2.251l35.95-14.891a8.828,8.828,0,0,0,5.128-10.518l-6.471-23.293a157.815,157.815,0,0,0,39.424-39.5l28.15,3.711a8.829,8.829,0,0,0,9.31-5.374L434.784,296.5a8.826,8.826,0,0,0-3.4-10.815Z" fill="#afb9d2"/>
    <path id="Path_256" data-name="Path 256" d="M358.256,199.283a114.79,114.79,0,0,0-161.617-56.505c-45.823,25.126-69.01,79.775-55.263,130.194a114.124,114.124,0,0,0,61.544,73.656,8.855,8.855,0,0,1,5.172,7.97v67.375a8.7,8.7,0,0,0,5.521-4.029l10.735-18.428h1.4l-.034-81.421A79.428,79.428,0,0,1,175,262c-8.149-32.569,5.811-67.684,34.185-85.63a79.533,79.533,0,0,1,119.766,46.116c8.342,30.3-2.428,63.64-27.212,82.963a81.9,81.9,0,0,1-23.027,12.663v81.459h1.441l16.214,18.022v-62.8a8.885,8.885,0,0,1,5.193-7.987A114.756,114.756,0,0,0,358.256,199.283Z" fill="#959cb5"/>
    <path id="Path_257" data-name="Path 257" d="M225.747,423.732h0l23.439,85.943A3.09,3.09,0,0,0,252.23,512V423.732Z" fill="#f5dcb4"/>
    <path id="Path_258" data-name="Path 258" d="M237.785,467.871l11.4,41.8a3.156,3.156,0,0,0,6.089,0l11.4-41.8H237.785Z" fill="#5b5d6e"/>
    <path id="Path_259" data-name="Path 259" d="M237.785,467.871l11.4,41.8A3.09,3.09,0,0,0,252.23,512V467.871Z" fill="#464655"/>
    <path id="Path_260" data-name="Path 260" d="M252.23,44.139H225.747V17.656A17.655,17.655,0,0,1,243.4,0h8.828V44.139Z" fill="#f5dcb4"/>
  </g>
</svg>
