<svg xmlns="http://www.w3.org/2000/svg" width="423.726" height="512" viewBox="0 0 423.726 512">
  <g id="doc" transform="translate(-44.138)">
    <path id="Path_292" data-name="Path 292" d="M97.1,17.655A17.655,17.655,0,0,1,114.759,0H379.587l88.276,88.276V494.345A17.654,17.654,0,0,1,450.208,512H114.759A17.654,17.654,0,0,1,97.1,494.345V17.655Z" fill="#e4eaf8"/>
    <g id="Group_46" data-name="Group 46">
      <path id="Path_293" data-name="Path 293" d="M300.138,467.862H97.1v-158.9H300.137a35.31,35.31,0,0,1,35.31,35.31v88.276A35.309,35.309,0,0,1,300.138,467.862Z" fill="#d5dced"/>
      <path id="Path_294" data-name="Path 294" d="M379.586,0V70.621a17.656,17.656,0,0,0,17.655,17.655h70.621Z" fill="#d5dced"/>
    </g>
    <path id="Path_295" data-name="Path 295" d="M220.69,185.379v52.966a8.829,8.829,0,0,0,8.828,8.828H335.449a8.829,8.829,0,0,0,8.828-8.828V185.379Z" fill="#00aaf0"/>
    <g id="Group_47" data-name="Group 47">
      <path id="Path_296" data-name="Path 296" d="M379.586,176.543l-17.655.018.086,70.621A8.832,8.832,0,0,0,370.845,256h.009a8.829,8.829,0,0,0,8.819-8.836Z" fill="#0096dc"/>
      <path id="Path_297" data-name="Path 297" d="M220.69,213.655l48.146,12.839a52.946,52.946,0,0,0,27.294,0l48.146-12.839V185.379H220.69Z" fill="#0096dc"/>
    </g>
    <path id="Path_298" data-name="Path 298" d="M273.385,143.668,161.122,173.6a3.051,3.051,0,0,0,0,5.9l112.263,29.937a35.3,35.3,0,0,0,18.2,0L403.844,179.5a3.051,3.051,0,0,0,0-5.9L291.581,143.668A35.3,35.3,0,0,0,273.385,143.668Z" fill="#00c3ff"/>
    <circle id="Ellipse_22" data-name="Ellipse 22" cx="8.828" cy="8.828" r="8.828" transform="translate(361.931 264.827)" fill="#00aaf0"/>
    <path id="Path_299" data-name="Path 299" d="M300.138,450.207H61.793a17.654,17.654,0,0,1-17.655-17.655V344.276a17.654,17.654,0,0,1,17.655-17.655H300.138a17.654,17.654,0,0,1,17.655,17.655v88.276A17.654,17.654,0,0,1,300.138,450.207Z" fill="#00c3ff"/>
    <g id="Group_48" data-name="Group 48">
      <path id="Path_300" data-name="Path 300" d="M105.931,423.724H79.448A8.823,8.823,0,0,1,70.62,414.9V361.93a8.823,8.823,0,0,1,8.828-8.828h26.483a35.311,35.311,0,0,1,0,70.622ZM88.276,406.069h17.655a17.655,17.655,0,1,0,0-35.31H88.276Z" fill="#fff"/>
      <path id="Path_301" data-name="Path 301" d="M185.379,423.724a35.31,35.31,0,1,1,35.31-35.31A35.345,35.345,0,0,1,185.379,423.724Zm0-52.965a17.655,17.655,0,1,0,17.655,17.655A17.679,17.679,0,0,0,185.379,370.759Z" fill="#fff"/>
      <path id="Path_302" data-name="Path 302" d="M264.828,423.724A35.31,35.31,0,1,1,291.173,364.9,8.829,8.829,0,0,1,278,376.664a17.65,17.65,0,1,0,0,23.508,8.828,8.828,0,1,1,13.138,11.794A35.393,35.393,0,0,1,264.828,423.724Z" fill="#fff"/>
    </g>
  </g>
</svg>
