<svg xmlns="http://www.w3.org/2000/svg" width="194.209" height="203.035" viewBox="0 0 194.209 203.035">
  <g id="Group_507" data-name="Group 507" transform="translate(-167.724 -176.551)">
    <g id="Group_61" data-name="Group 61">
      <path id="Path_393" data-name="Path 393" d="M229.517,185.379v79.448H204.863a4.413,4.413,0,0,0-3.121,7.534L258.586,329.2a8.828,8.828,0,0,0,12.484,0l56.844-56.844a4.413,4.413,0,0,0-3.121-7.534H300.136V185.379a8.829,8.829,0,0,0-8.828-8.828H238.343A8.829,8.829,0,0,0,229.517,185.379Z" fill="#5b5d6e"/>
      <path id="Path_394" data-name="Path 394" d="M344.276,379.586h-158.9a17.676,17.676,0,0,1-17.655-17.655V335.448a8.828,8.828,0,0,1,17.656,0v26.483h158.9V335.448a8.828,8.828,0,0,1,17.656,0v26.483A17.679,17.679,0,0,1,344.276,379.586Z" fill="#5b5d6e"/>
    </g>
  </g>
</svg>
