<svg xmlns="http://www.w3.org/2000/svg" width="406.068" height="512" viewBox="0 0 406.068 512">
  <g id="ebook" transform="translate(-52.966)">
    <path id="Path_390" data-name="Path 390" d="M441.379,512H70.621a17.654,17.654,0,0,1-17.655-17.655V26.483A17.654,17.654,0,0,1,70.621,8.828H441.38a17.654,17.654,0,0,1,17.655,17.655V494.345A17.656,17.656,0,0,1,441.379,512Z" fill="#00c3ff"/>
    <path id="Path_391" data-name="Path 391" d="M342.51,127.117l28.248-21.186,28.248,21.186a4.414,4.414,0,0,0,7.062-3.531V8.828A8.829,8.829,0,0,0,397.24,0H344.274a8.829,8.829,0,0,0-8.828,8.828V123.587A4.415,4.415,0,0,0,342.51,127.117Z" fill="#707487"/>
    <path id="Path_392" data-name="Path 392" d="M88.276,485.517a8.826,8.826,0,0,1-8.828-8.828V44.138a8.828,8.828,0,0,1,17.656,0V476.69A8.826,8.826,0,0,1,88.276,485.517Z" fill="#00aaf0"/>
    <g id="Group_61" data-name="Group 61">
      <path id="Path_393" data-name="Path 393" d="M229.517,185.379v79.448H204.863a4.413,4.413,0,0,0-3.121,7.534L258.586,329.2a8.828,8.828,0,0,0,12.484,0l56.844-56.844a4.413,4.413,0,0,0-3.121-7.534H300.136V185.379a8.829,8.829,0,0,0-8.828-8.828H238.343A8.829,8.829,0,0,0,229.517,185.379Z" fill="#5b5d6e"/>
      <path id="Path_394" data-name="Path 394" d="M344.276,379.586h-158.9a17.676,17.676,0,0,1-17.655-17.655V335.448a8.828,8.828,0,0,1,17.656,0v26.483h158.9V335.448a8.828,8.828,0,0,1,17.656,0v26.483A17.679,17.679,0,0,1,344.276,379.586Z" fill="#5b5d6e"/>
    </g>
  </g>
</svg>
