<svg xmlns="http://www.w3.org/2000/svg" width="512.002" height="406.069" viewBox="0 0 512.002 406.069">
  <g id="exam" transform="translate(0 -52.966)">
    <path id="Path_412" data-name="Path 412" d="M432.552,459.035H26.483A26.483,26.483,0,0,1,0,432.552V79.449A26.483,26.483,0,0,1,26.483,52.966H432.552a26.483,26.483,0,0,1,26.483,26.483v353.1A26.484,26.484,0,0,1,432.552,459.035Z" fill="#e4eaf8"/>
    <g id="Group_66" data-name="Group 66">
      <path id="Path_413" data-name="Path 413" d="M105.931,114.759a8.828,8.828,0,0,0,0-17.656H52.966a8.823,8.823,0,0,0-8.828,8.828v88.276a8.823,8.823,0,0,0,8.828,8.828h52.966a8.828,8.828,0,0,0,0-17.656H61.793V158.9H97.1a8.828,8.828,0,1,0,0-17.656H61.793V114.757h44.138Z" fill="#ff5050"/>
      <path id="Path_414" data-name="Path 414" d="M208.552,99.035a8.858,8.858,0,0,0-12.414,1.379l-28.414,35.518L139.31,100.414a8.832,8.832,0,0,0-13.793,11.035l30.9,38.621-30.9,38.621a8.832,8.832,0,0,0,13.792,11.035l28.414-35.517,28.414,35.517a8.832,8.832,0,1,0,13.792-11.035l-30.9-38.621,30.9-38.621A8.841,8.841,0,0,0,208.552,99.035Z" fill="#ff5050"/>
      <path id="Path_415" data-name="Path 415" d="M271.629,97.1h-13.6a22.133,22.133,0,0,0-21.638,17.741l-15.525,77.63a8.827,8.827,0,0,0,17.31,3.466l3.878-19.388h45.555l3.878,19.388a8.823,8.823,0,0,0,8.647,7.1,8.686,8.686,0,0,0,1.741-.172,8.827,8.827,0,0,0,6.922-10.388l-15.526-77.63A22.134,22.134,0,0,0,271.629,97.1ZM245.581,158.9l8.117-40.586a4.428,4.428,0,0,1,4.328-3.552h13.6a4.429,4.429,0,0,1,4.328,3.552l8.117,40.586Z" fill="#ff5050"/>
      <path id="Path_416" data-name="Path 416" d="M408.561,97.466a8.761,8.761,0,0,0-9.913,3.69l-32.3,50.241-32.3-50.241a8.827,8.827,0,0,0-16.249,4.776v88.276a8.828,8.828,0,0,0,17.656,0V135.992L358.926,172.5c3.242,5.052,11.6,5.052,14.845,0l23.474-36.509v58.216a8.828,8.828,0,0,0,17.656,0V105.932A8.831,8.831,0,0,0,408.561,97.466Z" fill="#ff5050"/>
      <circle id="Ellipse_28" data-name="Ellipse 28" cx="17.655" cy="17.655" r="17.655" transform="translate(52.966 238.345)" fill="#ff5050"/>
      <circle id="Ellipse_29" data-name="Ellipse 29" cx="17.655" cy="17.655" r="17.655" transform="translate(52.966 308.966)" fill="#ff5050"/>
      <circle id="Ellipse_30" data-name="Ellipse 30" cx="17.655" cy="17.655" r="17.655" transform="translate(52.966 379.587)" fill="#ff5050"/>
    </g>
    <path id="Path_417" data-name="Path 417" d="M264.828,264.828H123.586a8.828,8.828,0,0,1,0-17.656H264.827a8.828,8.828,0,0,1,0,17.656Z" fill="#707487"/>
    <path id="Path_418" data-name="Path 418" d="M158.9,335.449h-35.31a8.828,8.828,0,1,1,0-17.656H158.9a8.828,8.828,0,1,1,0,17.656Z" fill="#7f8499"/>
    <path id="Path_419" data-name="Path 419" d="M211.862,406.069H123.586a8.828,8.828,0,1,1,0-17.656h88.276a8.828,8.828,0,0,1,0,17.656Z" fill="#707487"/>
    <path id="Path_420" data-name="Path 420" d="M388.414,335.449H194.207a8.828,8.828,0,1,1,0-17.656H388.414a8.828,8.828,0,0,1,0,17.656Z" fill="#7f8499"/>
    <path id="Path_421" data-name="Path 421" d="M459.034,141.242,261.043,339.232l-22.635,48.505a7.1,7.1,0,0,0,9.441,9.441l48.5-22.636,162.681-162.68Z" fill="#d5dced"/>
    <path id="Path_422" data-name="Path 422" d="M353.1,317.794h-70.62l-17.655,17.655h70.62Z" fill="#707487"/>
    <path id="Path_423" data-name="Path 423" d="M229.565,388.981l42.868-20a35.293,35.293,0,0,0,10.036-7.029L509.415,135a8.828,8.828,0,0,0,0-12.484L486.588,99.69a8.828,8.828,0,0,0-12.484,0L247.157,326.635a35.294,35.294,0,0,0-7.029,10.036l-20,42.868A7.1,7.1,0,0,0,229.565,388.981Z" fill="#ffdc64"/>
    <path id="Path_424" data-name="Path 424" d="M221.538,387.566a6.986,6.986,0,0,0,8.026,1.415l42.868-20a35.3,35.3,0,0,0,10.036-7.03L489.175,155.24,471.52,137.585Z" fill="#ffc850"/>
    <path id="Path_425" data-name="Path 425" d="M291.31,353.1,256,317.794l-8.843,8.843a35.294,35.294,0,0,0-7.029,10.036l-20,42.867a7.1,7.1,0,0,0,9.441,9.441l42.867-20a35.277,35.277,0,0,0,10.036-7.03Z" fill="#faebc8"/>
    <path id="Path_426" data-name="Path 426" d="M273.655,335.449l-52.117,52.117a6.986,6.986,0,0,0,8.026,1.415l42.868-20a35.277,35.277,0,0,0,10.036-7.03l8.842-8.842Z" fill="#f5dcb4"/>
    <path id="Path_427" data-name="Path 427" d="M486.589,99.689a8.826,8.826,0,0,0-12.484,0L453.864,119.93l35.31,35.31L509.415,135a8.826,8.826,0,0,0,0-12.484Z" fill="#faebc8"/>
    <path id="Path_428" data-name="Path 428" d="M509.415,122.515,498,111.1l-26.483,26.483,17.655,17.655L509.415,135A8.829,8.829,0,0,0,509.415,122.515Z" fill="#f5dcb4"/>
  </g>
</svg>
