<svg id="information" xmlns="http://www.w3.org/2000/svg" width="512" height="512" viewBox="0 0 512 512">
  <circle id="Ellipse_37" data-name="Ellipse 37" cx="150.069" cy="150.069" r="150.069" transform="translate(105.931 105.931)" fill="#00c3ff"/>
  <path id="Path_522" data-name="Path 522" d="M293.517,381.057A149.909,149.909,0,0,1,192.656,120.1a149.955,149.955,0,1,0,164.206,246.79A149.221,149.221,0,0,1,293.517,381.057Z" fill="#00aaf0"/>
  <g id="Group_86" data-name="Group 86">
    <path id="Path_523" data-name="Path 523" d="M256,0A254.447,254.447,0,0,0,66.244,84.237l4.29-30.023a8.83,8.83,0,1,0-17.483-2.5l-8.828,61.793a8.838,8.838,0,0,0,8.741,10.079,8.667,8.667,0,0,0,2.793-.457l52.966-17.655a8.825,8.825,0,1,0-5.586-16.742l-24.606,8.2A236.948,236.948,0,0,1,256,17.655c131.423,0,238.345,106.922,238.345,238.345a236.212,236.212,0,0,1-22.931,102.146,8.826,8.826,0,1,0,15.948,7.568A253.76,253.76,0,0,0,512,256C512,114.845,397.155,0,256,0Z" fill="#e4eaf8"/>
    <path id="Path_524" data-name="Path 524" d="M456.242,388.871l-52.966,17.655a8.825,8.825,0,0,0,5.586,16.742l24.522-8.174A236.439,236.439,0,0,1,256,494.346C124.577,494.345,17.655,387.423,17.655,256A236.212,236.212,0,0,1,40.586,153.854a8.826,8.826,0,1,0-15.948-7.568A253.76,253.76,0,0,0,0,256C0,397.155,114.845,512,256,512a253.918,253.918,0,0,0,189.764-84.3l-4.3,30.08a8.83,8.83,0,0,0,17.483,2.5l8.828-61.793a8.83,8.83,0,0,0-11.534-9.621Z" fill="#e4eaf8"/>
  </g>
  <g id="Group_87" data-name="Group 87">
    <circle id="Ellipse_38" data-name="Ellipse 38" cx="17.655" cy="17.655" r="17.655" transform="translate(238.345 158.897)" fill="#fff"/>
    <path id="Path_525" data-name="Path 525" d="M273.655,326.621v-97.1a8.828,8.828,0,0,0,0-17.656h-35.31a8.828,8.828,0,1,0,0,17.656v97.1a8.828,8.828,0,0,0,0,17.656h35.31a8.828,8.828,0,0,0,0-17.656Z" fill="#fff"/>
  </g>
</svg>
