<svg xmlns="http://www.w3.org/2000/svg" width="423.678" height="512.002" viewBox="0 0 423.678 512.002">
  <g id="learning" transform="translate(-44.162)">
    <circle id="Ellipse_40" data-name="Ellipse 40" cx="203.034" cy="203.034" r="203.034" transform="translate(52.966 105.932)" fill="#59d8ff"/>
    <path id="Path_636" data-name="Path 636" d="M185.379,264.828a201.947,201.947,0,0,1,18.161-83.94,8.829,8.829,0,0,1,10.027-4.835l26.553,6.127a70.6,70.6,0,0,0,31.76,0l79.562-18.36a44,44,0,0,0,26.112-17.494A202.045,202.045,0,0,0,261.8,106.17c.036-.029.07-.061.106-.089-1.97-.056-3.928-.149-5.909-.149-116.382,0-209.892,97.92-202.639,215.868,6.287,102.246,90.272,185.015,192.591,189.959a202.25,202.25,0,0,0,136.555-44.044C273.112,464.579,185.379,374.979,185.379,264.828Z" fill="#00c3f0"/>
    <path id="Path_637" data-name="Path 637" d="M364.23,200.9a539.358,539.358,0,0,0,54.041-13.955q-5.807-7.71-12.31-14.837c-15.66,4.68-31.488,8.745-47.493,11.922-10.934-28.878-25.658-52.585-42.965-69.215a203.789,203.789,0,0,0-119,0c-17.282,16.608-31.991,40.275-42.921,69.1-15.977-3.19-31.775-7.262-47.4-11.947q-6.508,7.113-12.328,14.83a539.034,539.034,0,0,0,53.965,13.982c-9.086,29.419-14.514,63.137-15.275,99.361H53.189c-.126,2.93-.223,5.867-.223,8.828s.1,5.9.223,8.828h79.347c.761,36.217,6.186,69.931,15.27,99.346a532.55,532.55,0,0,0-54.018,13.922q5.811,7.709,12.318,14.833c15.646-4.682,31.46-8.747,47.452-11.931,10.9,28.779,25.554,52.483,42.787,69.112a203.848,203.848,0,0,0,119.312,0c17.235-16.631,31.885-40.337,42.789-69.117,15.99,3.183,31.8,7.256,47.446,11.939q6.5-7.115,12.319-14.834A533.314,533.314,0,0,0,364.2,417.136c9.082-29.415,14.507-63.127,15.268-99.345h79.347c.126-2.93.223-5.867.223-8.828s-.1-5.9-.223-8.828H379.464C378.7,263.964,373.292,230.287,364.23,200.9ZM247.173,511.241c-30.959-4.922-58.186-35.421-75.866-80.469a525.465,525.465,0,0,1,75.866-6.764Zm0-104.886a542.937,542.937,0,0,0-81.829,7.533c-8.941-28.276-14.37-61.05-15.157-96.1h96.986Zm0-106.217H150.187c.787-35.038,6.214-67.808,15.153-96.081a538.986,538.986,0,0,0,81.834,7.63v88.451Zm0-106.219a524.935,524.935,0,0,1-75.848-6.8c17.681-45.024,44.9-75.5,75.848-80.424Zm17.655-87.229c30.97,4.924,58.206,35.442,75.886,80.518a525.142,525.142,0,0,1-75.886,6.721Zm0,404.551V424.007a525.307,525.307,0,0,1,75.868,6.761C323.015,475.819,295.788,506.318,264.828,511.241Zm81.829-97.352a543.114,543.114,0,0,0-81.83-7.534V317.793h96.986C361.027,352.838,355.6,385.613,346.657,413.889ZM264.828,300.138V211.7a539.08,539.08,0,0,0,81.864-7.542c8.92,28.25,14.337,60.984,15.123,95.981Z" fill="#e4eaf8"/>
    <path id="Path_638" data-name="Path 638" d="M327.546,458.456c-16.83,29.6-38.632,48.956-62.718,52.785V425.863A204.154,204.154,0,0,1,243.022,406.5a542.615,542.615,0,0,0-77.678,7.391c-8.942-28.276-14.371-61.054-15.158-96.1h42.229q-2.342-8.679-3.912-17.655H150.187c.787-35.04,6.214-67.811,15.154-96.085,9.335,1.6,18.724,2.855,28.136,3.957,1.7-5.846,3.71-11.558,5.912-17.173-9.379-1.016-18.743-2.2-28.06-3.729,17.681-45.021,44.9-75.5,75.846-80.418v12.429c4.711-4.565,9.6-8.943,14.734-13.039-1.969-.055-3.927-.148-5.908-.148a202.978,202.978,0,0,0-59.5,8.879c-17.281,16.608-31.99,40.271-42.919,69.1-15.975-3.19-31.774-7.26-47.4-11.946q-6.508,7.113-12.329,14.83a539.4,539.4,0,0,0,53.963,13.981c-9.086,29.42-14.514,63.14-15.275,99.366H53.189c-.126,2.93-.223,5.867-.223,8.828s.1,5.9.223,8.828h79.347c.761,36.22,6.187,69.934,15.271,99.351A533.331,533.331,0,0,0,93.79,431.066q5.811,7.709,12.318,14.833c15.647-4.683,31.459-8.747,47.449-11.932,10.932,28.851,25.649,52.535,42.942,69.154a201.788,201.788,0,0,0,119.288-.275c10.931-10.572,20.833-23.946,29.378-39.713Q336.2,461.186,327.546,458.456Zm-80.373,52.785c-30.959-4.922-58.185-35.42-75.865-80.468A525.327,525.327,0,0,1,247.173,424Z" fill="#d5dced"/>
    <rect id="Rectangle_34" data-name="Rectangle 34" width="17.655" height="97.103" transform="translate(414.897 44.138)" fill="#464655"/>
    <path id="Path_639" data-name="Path 639" d="M357.517,35.31H154.483l-10.276,82.216a26.483,26.483,0,0,0,20.323,29.089l79.561,18.36a52.953,52.953,0,0,0,23.82,0l79.561-18.36A26.483,26.483,0,0,0,367.8,117.526Z" fill="#5b5d6e"/>
    <path id="Path_640" data-name="Path 640" d="M357.517,35.31H154.483l-10.276,82.216a26.483,26.483,0,0,0,20.323,29.089l79.561,18.36A52.975,52.975,0,0,0,256,166.331V113.573a8.828,8.828,0,0,1,7.22-8.68L363.886,86.251Z" fill="#464655"/>
    <path id="Path_641" data-name="Path 641" d="M256,0,48.988,38.336c-6.435,1.192-6.435,10.413,0,11.6L256,88.276,463.013,49.94c6.435-1.192,6.435-10.413,0-11.6Z" fill="#707487"/>
    <g id="Group_101" data-name="Group 101">
      <circle id="Ellipse_41" data-name="Ellipse 41" cx="17.655" cy="17.655" r="17.655" transform="translate(406.091 132.414)" fill="#5b5d6e"/>
      <path id="Path_642" data-name="Path 642" d="M423.747,167.724h0a17.654,17.654,0,0,0-17.655,17.655v35.31a8.829,8.829,0,0,0,8.828,8.828h17.655a8.829,8.829,0,0,0,8.828-8.828v-35.31A17.655,17.655,0,0,0,423.747,167.724Z" fill="#5b5d6e"/>
    </g>
  </g>
</svg>
