<svg xmlns="http://www.w3.org/2000/svg" width="52.968" height="512.002" viewBox="0 0 52.968 512.002">
  <g id="design" transform="translate(-225.747)">
    <path id="Path_253" data-name="Path 253" d="M225.747,17.656V423.733l23.439,85.943a3.156,3.156,0,0,0,6.089,0l23.439-85.943V17.656A17.655,17.655,0,0,0,261.058,0H243.4A17.655,17.655,0,0,0,225.747,17.656Z" fill="#faebc8"/>
    <rect id="Rectangle_7" data-name="Rectangle 7" width="52.967" height="379.594" transform="translate(225.748 44.139)" fill="#ffdc64"/>
    <path id="Path_254" data-name="Path 254" d="M252.23,141.244V44.139H225.747V423.733H252.23V190.953a8.8,8.8,0,0,1,10.054-8.781,62.027,62.027,0,0,1,16.43,5.193V141.246H252.23Z" fill="#ffc850"/>
    <path id="Path_257" data-name="Path 257" d="M225.747,423.732h0l23.439,85.943A3.09,3.09,0,0,0,252.23,512V423.732Z" fill="#f5dcb4"/>
    <path id="Path_258" data-name="Path 258" d="M237.785,467.871l11.4,41.8a3.156,3.156,0,0,0,6.089,0l11.4-41.8H237.785Z" fill="#5b5d6e"/>
    <path id="Path_259" data-name="Path 259" d="M237.785,467.871l11.4,41.8A3.09,3.09,0,0,0,252.23,512V467.871Z" fill="#464655"/>
    <path id="Path_260" data-name="Path 260" d="M252.23,44.139H225.747V17.656A17.655,17.655,0,0,1,243.4,0h8.828V44.139Z" fill="#f5dcb4"/>
  </g>
</svg>
