<svg xmlns="http://www.w3.org/2000/svg" width="194.209" height="450.208" viewBox="0 0 194.209 450.208">
  <g id="Group_773" data-name="Group 773" transform="translate(-22517.896 7975)">
    <g id="smartphone-1" transform="translate(22359 -7997.068)">
      <path id="Path_988" data-name="Path 988" d="M167.724,30.9H256a8.829,8.829,0,0,1,8.828,8.828V472.277H158.9V39.724A8.827,8.827,0,0,1,167.724,30.9Z" fill="#ffdc64"/>
      <g id="Group_174" data-name="Group 174">
        <path id="Path_992" data-name="Path 992" d="M185.379,242.759a8.826,8.826,0,0,0-8.828-8.828H158.9v17.655h17.655A8.825,8.825,0,0,0,185.379,242.759Z" fill="#ffc850"/>
        <path id="Path_993" data-name="Path 993" d="M185.379,136.828A8.826,8.826,0,0,0,176.551,128H158.9v17.655h17.655A8.825,8.825,0,0,0,185.379,136.828Z" fill="#ffc850"/>
        <path id="Path_994" data-name="Path 994" d="M185.379,101.518a8.826,8.826,0,0,0-8.828-8.828H158.9v17.655h17.655A8.825,8.825,0,0,0,185.379,101.518Z" fill="#ffc850"/>
        <path id="Path_995" data-name="Path 995" d="M185.379,313.38a8.826,8.826,0,0,0-8.828-8.828H158.9v17.655h17.655A8.825,8.825,0,0,0,185.379,313.38Z" fill="#ffc850"/>
      </g>
      <path id="Path_996" data-name="Path 996" d="M158.9,75.035H185.38a8.828,8.828,0,1,0,0-17.656H158.9Z" fill="#e1a546"/>
      <g id="Group_175" data-name="Group 175">
        <path id="Path_997" data-name="Path 997" d="M185.379,207.449a8.826,8.826,0,0,0-8.828-8.828H158.9v17.655h17.655A8.825,8.825,0,0,0,185.379,207.449Z" fill="#ffc850"/>
        <path id="Path_998" data-name="Path 998" d="M185.379,348.69a8.826,8.826,0,0,0-8.828-8.828H158.9v17.655h17.655A8.824,8.824,0,0,0,185.379,348.69Z" fill="#ffc850"/>
      </g>
      <g id="Group_176" data-name="Group 176">
        <path id="Path_999" data-name="Path 999" d="M185.379,269.242H158.9V286.9h26.483a8.827,8.827,0,1,0,0-17.655Z" fill="#e1a546"/>
        <path id="Path_1000" data-name="Path 1000" d="M185.379,163.311H158.9v17.655h26.483a8.827,8.827,0,1,0,0-17.655Z" fill="#e1a546"/>
        <path id="Path_1001" data-name="Path 1001" d="M194.207,384a8.826,8.826,0,0,0-8.828-8.828H158.9v17.655h26.483A8.824,8.824,0,0,0,194.207,384Z" fill="#e1a546"/>
      </g>
      <path id="Path_1002" data-name="Path 1002" d="M185.379,419.311a8.826,8.826,0,0,0-8.828-8.828H158.9v17.655h17.655A8.825,8.825,0,0,0,185.379,419.311Z" fill="#ffc850"/>
      <path id="Path_1003" data-name="Path 1003" d="M329.665,24.394a3.156,3.156,0,0,0-6.089,0l-23.438,85.941v8.838H353.1v-8.838Z" fill="#faebc8"/>
      <rect id="Rectangle_65" data-name="Rectangle 65" width="52.966" height="361.931" transform="translate(300.138 110.345)" fill="#ffdc64"/>
      <path id="Path_1004" data-name="Path 1004" d="M353.1,110.335h0L329.665,24.394a3.092,3.092,0,0,0-3.044-2.325v88.266H353.1Z" fill="#f5dcb4"/>
      <path id="Path_1005" data-name="Path 1005" d="M341.066,66.2l-11.4-41.8a3.156,3.156,0,0,0-6.089,0l-11.4,41.8Z" fill="#5b5d6e"/>
      <path id="Path_1006" data-name="Path 1006" d="M341.066,66.2l-11.4-41.8a3.092,3.092,0,0,0-3.044-2.325V66.2h14.445Z" fill="#464655"/>
      <g id="Group_177" data-name="Group 177">
        <path id="Path_1007" data-name="Path 1007" d="M191.8,454.621a8.285,8.285,0,0,1-7.431-4.107,8.825,8.825,0,0,0-7.817-4.721H158.9v26.483H264.827V454.621Z" fill="#ffc850"/>
        <path id="Path_1008" data-name="Path 1008" d="M326.621,110.335V445.793a8.829,8.829,0,0,1-8.828,8.828H300.138v17.655H353.1V110.335Z" fill="#ffc850"/>
      </g>
    </g>
    <path id="Path_4322" data-name="Path 4322" d="M167.724,30.9H256a8.829,8.829,0,0,1,8.828,8.828V472.277H158.9V39.724A8.827,8.827,0,0,1,167.724,30.9Z" transform="translate(22359 -7997.068)" fill="#ffdc64"/>
    <g id="Group_770" data-name="Group 770" transform="translate(22359 -7997.068)">
      <path id="Path_992-2" data-name="Path 992" d="M185.379,242.759a8.826,8.826,0,0,0-8.828-8.828H158.9v17.655h17.655A8.825,8.825,0,0,0,185.379,242.759Z" fill="#ffc850"/>
      <path id="Path_993-2" data-name="Path 993" d="M185.379,136.828A8.826,8.826,0,0,0,176.551,128H158.9v17.655h17.655A8.825,8.825,0,0,0,185.379,136.828Z" fill="#ffc850"/>
      <path id="Path_994-2" data-name="Path 994" d="M185.379,101.518a8.826,8.826,0,0,0-8.828-8.828H158.9v17.655h17.655A8.825,8.825,0,0,0,185.379,101.518Z" fill="#ffc850"/>
      <path id="Path_995-2" data-name="Path 995" d="M185.379,313.38a8.826,8.826,0,0,0-8.828-8.828H158.9v17.655h17.655A8.825,8.825,0,0,0,185.379,313.38Z" fill="#ffc850"/>
    </g>
    <path id="Path_4323" data-name="Path 4323" d="M158.9,75.035H185.38a8.828,8.828,0,1,0,0-17.656H158.9Z" transform="translate(22359 -7997.068)" fill="#e1a546"/>
    <g id="Group_771" data-name="Group 771" transform="translate(22359 -7997.068)">
      <path id="Path_999-2" data-name="Path 999" d="M185.379,269.242H158.9V286.9h26.483a8.827,8.827,0,1,0,0-17.655Z" fill="#e1a546"/>
      <path id="Path_1000-2" data-name="Path 1000" d="M185.379,163.311H158.9v17.655h26.483a8.827,8.827,0,1,0,0-17.655Z" fill="#e1a546"/>
      <path id="Path_1001-2" data-name="Path 1001" d="M194.207,384a8.826,8.826,0,0,0-8.828-8.828H158.9v17.655h26.483A8.824,8.824,0,0,0,194.207,384Z" fill="#e1a546"/>
    </g>
    <path id="Path_4324" data-name="Path 4324" d="M185.379,419.311a8.826,8.826,0,0,0-8.828-8.828H158.9v17.655h17.655A8.825,8.825,0,0,0,185.379,419.311Z" transform="translate(22359 -7997.068)" fill="#ffc850"/>
    <path id="Path_4325" data-name="Path 4325" d="M329.665,24.394a3.156,3.156,0,0,0-6.089,0l-23.438,85.941v8.838H353.1v-8.838Z" transform="translate(22359 -7997.068)" fill="#faebc8"/>
    <path id="Path_4326" data-name="Path 4326" d="M341.066,66.2l-11.4-41.8a3.156,3.156,0,0,0-6.089,0l-11.4,41.8Z" transform="translate(22359 -7997.068)" fill="#5b5d6e"/>
    <g id="Group_772" data-name="Group 772" transform="translate(22359 -7997.068)">
      <path id="Path_1007-2" data-name="Path 1007" d="M191.8,454.621a8.285,8.285,0,0,1-7.431-4.107,8.825,8.825,0,0,0-7.817-4.721H158.9v26.483H264.827V454.621Z" fill="#ffc850"/>
      <path id="Path_1008-2" data-name="Path 1008" d="M326.621,110.335V445.793a8.829,8.829,0,0,1-8.828,8.828H300.138v17.655H353.1V110.335Z" fill="#ffc850"/>
    </g>
  </g>
</svg>
