<svg xmlns="http://www.w3.org/2000/svg" width="512" height="444.424" viewBox="0 0 512 444.424">
  <g id="tablet" transform="translate(0 -33.788)">
    <path id="Path_3005" data-name="Path 3005" d="M17.655,478.212h476.69A17.654,17.654,0,0,0,512,460.557V125.109a17.654,17.654,0,0,0-17.655-17.655H17.655A17.654,17.654,0,0,0,0,125.109V460.557A17.655,17.655,0,0,0,17.655,478.212Z" fill="#5b5d6e"/>
    <g id="Group_533" data-name="Group 533">
      <path id="Path_3006" data-name="Path 3006" d="M97.1,451.73H476.69a8.829,8.829,0,0,0,8.828-8.828V142.764a8.829,8.829,0,0,0-8.828-8.828H97.1a8.829,8.829,0,0,0-8.828,8.828V442.9A8.829,8.829,0,0,0,97.1,451.73Z" fill="#464655"/>
      <path id="Path_3007" data-name="Path 3007" d="M44.138,319.316a26.483,26.483,0,1,1,26.483-26.483A26.513,26.513,0,0,1,44.138,319.316Zm0-35.31a8.828,8.828,0,1,0,8.828,8.828A8.836,8.836,0,0,0,44.138,284.006Z" fill="#464655"/>
      <path id="Path_3008" data-name="Path 3008" d="M52.966,248.7H35.31a8.828,8.828,0,0,1,0-17.656H52.965a8.828,8.828,0,0,1,0,17.656Z" fill="#464655"/>
      <path id="Path_3009" data-name="Path 3009" d="M52.966,213.385H35.31a8.828,8.828,0,0,1,0-17.656H52.965a8.828,8.828,0,0,1,0,17.656Z" fill="#464655"/>
      <path id="Path_3010" data-name="Path 3010" d="M52.966,178.074H35.31a8.828,8.828,0,0,1,0-17.656H52.965a8.828,8.828,0,0,1,0,17.656Z" fill="#464655"/>
      <path id="Path_3011" data-name="Path 3011" d="M52.966,425.247H35.31a8.828,8.828,0,0,1,0-17.656H52.965a8.828,8.828,0,0,1,0,17.656Z" fill="#464655"/>
      <path id="Path_3012" data-name="Path 3012" d="M52.966,389.937H35.31a8.828,8.828,0,0,1,0-17.656H52.965a8.828,8.828,0,0,1,0,17.656Z" fill="#464655"/>
      <path id="Path_3013" data-name="Path 3013" d="M52.966,354.626H35.31a8.828,8.828,0,0,1,0-17.656H52.965a8.828,8.828,0,0,1,0,17.656Z" fill="#464655"/>
    </g>
    <g id="Group_534" data-name="Group 534">
      <path id="Path_3014" data-name="Path 3014" d="M123.586,222.212a8.826,8.826,0,0,1-8.828-8.828V169.246a8.826,8.826,0,0,1,8.828-8.828h44.138a8.828,8.828,0,0,1,0,17.656h-35.31v35.31A8.825,8.825,0,0,1,123.586,222.212Z" fill="#7f8499"/>
      <path id="Path_3015" data-name="Path 3015" d="M450.207,425.247H406.069a8.828,8.828,0,0,1,0-17.656h35.31v-35.31a8.828,8.828,0,0,1,17.656,0v44.138A8.827,8.827,0,0,1,450.207,425.247Z" fill="#7f8499"/>
      <path id="Path_3016" data-name="Path 3016" d="M450.207,222.212a8.826,8.826,0,0,1-8.828-8.828v-35.31h-35.31a8.828,8.828,0,0,1,0-17.656h44.138a8.826,8.826,0,0,1,8.828,8.828v44.138A8.826,8.826,0,0,1,450.207,222.212Z" fill="#7f8499"/>
      <path id="Path_3017" data-name="Path 3017" d="M167.724,425.247H123.586a8.826,8.826,0,0,1-8.828-8.828V372.281a8.828,8.828,0,0,1,17.656,0v35.31h35.31a8.828,8.828,0,0,1,0,17.656Z" fill="#7f8499"/>
    </g>
    <path id="Path_3018" data-name="Path 3018" d="M259.915,258.367l-27.639,11.846a5.043,5.043,0,0,1-6.621-6.621L237.5,235.953a25.258,25.258,0,0,1,5.353-7.906L434.526,36.373a8.828,8.828,0,0,1,12.484,0l12.484,12.484a8.828,8.828,0,0,1,0,12.484L267.821,253.014A25.258,25.258,0,0,1,259.915,258.367Z" fill="#707487"/>
    <rect id="Rectangle_247" data-name="Rectangle 247" width="61.792" height="35.31" transform="translate(258.138 212.748) rotate(-45)" fill="#5b5d6e"/>
  </g>
</svg>
