<svg xmlns="http://www.w3.org/2000/svg" width="512" height="411.258" viewBox="0 0 512 411.258">
  <g id="chat" transform="translate(0 -50.371)">
    <path id="Path_154" data-name="Path 154" d="M476.69,50.371H35.31A35.31,35.31,0,0,0,0,85.682V350.51a35.31,35.31,0,0,0,35.31,35.31H70.62v66.964a8.828,8.828,0,0,0,15.07,6.242L158.9,385.82H476.69A35.31,35.31,0,0,0,512,350.51V85.682A35.31,35.31,0,0,0,476.69,50.371Z" fill="#ffc850"/>
    <g id="Group_25" data-name="Group 25">
      <path id="Path_155" data-name="Path 155" d="M182.146,138.837a28.593,28.593,0,0,0-27.362-20.052h-9.431a28.593,28.593,0,0,0-27.362,20.052L68.922,294.22a11.038,11.038,0,0,0,21.052,6.647l11.5-36.427H198.66l11.5,36.427a11.038,11.038,0,0,0,21.052-6.648Zm-73.7,103.534,30.6-96.888a6.589,6.589,0,0,1,6.311-4.629h9.431a6.591,6.591,0,0,1,6.311,4.629l30.6,96.888Z" fill="#fff"/>
      <path id="Path_156" data-name="Path 156" d="M280.276,198.233A46.043,46.043,0,0,0,256,205.112V138.647a11.034,11.034,0,0,0-22.068,0V262.233a46.4,46.4,0,0,0,46.345,46.345,55.173,55.173,0,1,0,0-110.345Zm0,88.276A24.3,24.3,0,0,1,256,262.233V244.578A24.3,24.3,0,0,1,280.276,220.3a33.1,33.1,0,0,1,0,66.207Z" fill="#fff"/>
      <path id="Path_157" data-name="Path 157" d="M423.715,273.263a33.106,33.106,0,1,1,.008-39.7,11.034,11.034,0,0,0,17.655-13.241,55.177,55.177,0,1,0-.027,66.188,11.029,11.029,0,1,0-17.636-13.25Z" fill="#fff"/>
    </g>
  </g>
</svg>
